<?xml version="1.0" encoding="UTF-8"?>
<svg id="Vrstva_1" data-name="Vrstva 1" xmlns="http://www.w3.org/2000/svg" viewBox="0 0 954.2 185.83">
  <defs>
    <style>
      .cls-1 {
        fill: #9c9fa4;
      }

      .cls-2 {
        fill: #b1b3b6;
      }

      .cls-3 {
        fill: #828284;
      }

      .cls-4 {
        fill: #3b424a;
      }

      .cls-5 {
        fill: #93a3b4;
      }

      .cls-6 {
        fill: #b5b7b9;
      }

      .cls-7 {
        fill: #0c3a62;
      }

      .cls-8 {
        fill: #aaafb4;
      }

      .cls-9 {
        fill: #c2c3c7;
      }

      .cls-10 {
        fill: #ccc;
      }

      .cls-11 {
        fill: #cfd0d3;
      }

      .cls-12 {
        fill: #0f528c;
      }

      .cls-13 {
        fill: #47627c;
      }
    </style>
  </defs>
  <path class="cls-8" d="M225.81,113.9l53.13-88.25c3.52-4.72,6.5-6.95,12.03-8.95,14.77-5.33,31.9-8.03,46.74-13.7,2.34,2.46-14.44,20.42-16.42,23.04-1.77,2.35-3.05,5.42-4.56,7.93-2.35,3.91-7.59,9.59-10.99,12.99-22.68,22.68-53.38,49.17-79.93,66.94Z"/>
  <path class="cls-1" d="M171.86,48.95c14.27,20.45,31.26,42.33,45.2,64.21.98,1.53,2.07,2.7,1.76,4.74-.9.7-3.35,4.01-5.78,4.96-.93.36-2.9-.24-3.21.04-.4.37.39,3.61-.01,3.99-.2.19-2.43-.26-3.71.3-.46.2-1.86,2.89-2.6,3.37-1.67,1.1-4.96-.07-5.67,4.32-3.51-1.07-3.4,1.05-4.8,1.92-.64.4-1.89-.11-2.19.07-13.53-19.89-27.31-39.69-40.79-59.63-1.28-1.9-1.93-4.48-3.18-6.32.87-6.99,3.18-4.85,6.7-6.77,6.3-3.44,12.37-10.77,18.28-15.21Z"/>
  <path class="cls-4" d="M826.31,56.95c-.5-.5,1.8-12.24,3.63-12.86l75.68-.19,10.11,19.04c3.27-1.77,18.61-18.98,19.99-18.98h18.48c.01,1.88-2.46,3.64-3.79,4.94-6.5,6.32-25.98,20.16-29.64,26.07-2.1,3.39-4.21,17.29-6.15,17.88l-14.37-.94c-1-.95,4.61-14.96,3.81-18.22s-9.45-16.03-11.86-20.21c-1.37-2.38-1.51-5.39-4.44-7.53l-2.54,10.94c-4.03.8-20.48-1.34-22.45,1.03-3.21,5.57-6.63,30.64-9.71,33.76-1.42,1.44-14.17.79-14.76.23-1.32-1.26,9.05-30.24,8-34.97h-19.98Z"/>
  <path class="cls-4" d="M658.77,89.61c-.73-.8-1.89-3.35-2.08-4.41-.95-5.3,3.91-22.82,6.03-28.47,2.52-6.72,6.66-11.9,14.21-12.76,9.21-1.05,33.82-1.1,42.99-.02,14.14,1.67,6.65,21,3.74,29.76-2.02,6.06-3.43,13.06-9.55,16.43-7.28,4.01-31.17,3.38-40.22,2.83-3.72-.23-12.91-.93-15.13-3.35ZM679.93,56.95c-2.33,0-6.95,16.05-7.31,18.74-.16,1.24-.2,4.24,1.31,4.24h29.98c2.96,0,4.28-5.69,4.98-8,.53-1.74,3.53-11.88,3.52-12.53,0-.95-.98-2.45-1.51-2.45h-30.97Z"/>
  <path class="cls-4" d="M601.5,43.96c.81.81-1.9,12.27-3.63,12.86l-35.72.07-1.62,5.06h33.97l-2.09,11.89-34.25.22c-2,.7-1.51,4.05-2.62,5.87h36.97c-.59,2.85-2.11,11.95-4.66,12.83l-50.3-.84,11.99-47.96h51.96Z"/>
  <path class="cls-12" d="M305.75,46.96c3.46-.06,4.55-.9,4,3-.35.31-.65.72-1,1-6.07,4.81-11.51,16.4-17.04,23.19-21.31,26.13-57.98,53.29-88.5,67.61-3.4,1.59-7.56.73-8.37,5.12-.34.06-.94-.1-1,0-1.47,0-2.56.56-3,2-3.12,1.05-9.58,4.37-12.99,6l-6.99-1.98c4.23-.21,7.29-4.26,10.03-5.45,1.5-.65,3.2-.28,4.67-.89.49-.2,1.98-3.05,2.57-3.37,1.1-.6,2.93.04,3.53-.46.51-.42.12-2.66,1.09-3.4,1.35-1.02,4.71-.1,5.08-.44.24-.22-.16-3.07,0-4,.72-4.39,4.01-3.23,5.67-4.32.74-.49,2.14-3.17,2.6-3.37,1.28-.56,3.51-.11,3.71-.3.4-.38-.39-3.62.01-3.99.31-.28,2.28.32,3.21-.04,2.43-.95,4.88-4.26,5.78-4.96s5.62-3.08,6.99-4c26.55-17.77,57.25-44.26,79.93-66.94Z"/>
  <path class="cls-2" d="M362.69,24.98c1.68,1.8-8.01,12.87-9.96,14.51-4.75,3.97-11.97,7.02-16.95,11.02-11.12,20.58-24.99,40.56-35.2,61.72-.51,1.07-1.95,4.31-1.77,5.11.34,1.5,3.9,1.03,2.93,3.04-.52,1.09-19.18,8.9-22,9.98-8.22,3.16-6.52,1.2-3.35-5.35,13.18-27.23,33.08-53.67,47.34-80.55l5.29-4.7c4.28-.81,32.41-16.12,33.67-14.78Z"/>
  <path class="cls-4" d="M794.84,43.96c.21.03,2.43,1.03,2.51,1.61l-3.11,11.28-38.16.31c-3.87,1.12-8.69,17.8-7.58,21.13.44,1.31,1.16,1.42,2.37,1.64,10.47,1.95,25.61-1.5,36.47-1l-3.13,12.85c-11.11.19-22.26.22-33.38.09-1.74-.02-3.44.88-4.95.84-6.58-.17-14.47-2.04-14.42-10.15.02-4.18,6.21-25.75,8.37-29.66,1.59-2.87,7.97-8.94,11.04-8.94,12.34,0,32.75-1.73,43.96,0Z"/>
  <path class="cls-7" d="M267.78,114.9c-.73,1.24-2.01,5.46-3.15,7.32-13.09,21.39-26.64,42.59-40.32,63.61l-22.47-33.96,32.15-17.1,5.06-4.21c7.5-4.7,21.33-11.66,25.75-18.66,1.46.18,1.4,2.62,3,3Z"/>
  <path class="cls-11" d="M66.94,81.93c5.53,7.75,4.85,8.9,15.04,10.59,1.37.23,1.84-.6,1.95-.6,7.63.18.49,10.39-2,13.49-2.48,3.1-6.28,5.99-9.07,8.92L0,137.87c14.91-13.47,31.99-24.78,49.04-35.38,2.66-1.66,14.32-6.99,14.9-7.59.44-.46.33-2.69-1.39-1.89l-41.08,21.89-.48-1.48,45.95-31.49Z"/>
  <path class="cls-4" d="M486.59,43.96l9,34.97c10.52-10.63,18.69-23.58,28.47-34.97h18.48l-39.4,47.03c-2.13,1.4-18.9,1.44-19.67.34-.58-.83-1.66-5.12-2.15-6.64-4.37-13.37-7.86-27.2-11.72-40.73h16.99Z"/>
  <path class="cls-6" d="M357.7,42.97c1.37,1.4-4.44,11.53-3.99,11.98.87.88,9.82-6.45,13.48-6,2.95.36-1.24,2.52-1.42,2.79-2.71,4.07-6,7.39-8.46,11.32-3.8,6.09-12.19,28.76-18.31,30.65-1.62.5-4.76.6-6.99,1.02-1.43.27-1.64.28-1.3-1.32l16.75-29.23c1.71-2.98.73-5.62,5.25-7.74-4.14-1.46-8.22,8.03-10.36,11.62-5.82,9.74-9.72,19.52-16.43,28.53-1.1,1.48-1.48,4.08-2.44,5.05-.69.69-17.02,8.94-17.71,8.25-2.15-2.15,26.6-47.72,28.94-53.48,2.58-1.12,22.07-14.4,23.01-13.45Z"/>
  <path class="cls-2" d="M84.93,55.95c-3.68-3.73-7.65-4.19-8.03-10.47-.09-1.54-.11-1.76,1.53-1.53,2.71.39,22.92,10.85,25.02,12.96,7.88,7.9,23.41,36.45,30.26,47.67.98,1.6,8.81,14.73,8.16,15.31-5.7-1.45-18.18,3.87-22.09-1.46-1.36-1.85.72-4.58-.67-8.25-3.39-8.96-27.51-47.46-34.2-54.24Z"/>
  <path class="cls-11" d="M269.77,26.98c1.36,1.44-8.46,16.69-11.07,18.4-5.05,3.32-16.64,6.32-22.88,9.09-5.12,2.27-38.68,18.58-40.82,17.33-.59-.34-6.85-10.94-7.01-11.6-.51-2.04.83-3.25,2.58-4.03l79.2-29.2Z"/>
  <path class="cls-4" d="M627.48,43.96c1.41,1.4-8.38,31.39-8.99,35.97h31.97l-3.04,11.95-46.92.04,11.99-47.96h14.99Z"/>
  <path class="cls-8" d="M120.9,76.93c5.23-5.84,4.83.48,6.26,1.74.58.51,2.25.47,3.22,1.22,1.27.99,4.64,5.66,6.5,4.03.39-.34-1.21-3.84,2-3,2.76,4.12,7,8.41,9.82,12.66,7.97,12.04,15.67,24.28,23.74,36.26,1.95,4.28-4.54,5.24-7.58,5.03-3.29-.22-6.25-2.87-10.27-1.97-.61.14-9.17,4.99-10.71,5.97.96-5.34,6.3-9.47,4.77-15.23l-22.6-36.42c-.73-1.18-.79-2.72-1.15-3.3.82-3.85-1-9.64-2-4-.57-.95-1.35-1.96-2-3Z"/>
  <path class="cls-11" d="M111.91,104.91c.14.31,1.93,1.13,2.55,2.92,1.98,5.72-.62,3.33-3.78,4.31-15.44,4.8-43.26,21.86-58.74,30.21-11.1,5.99-21.68,14.11-33.95,17.5l76.94-57.94c5.64,1.1,11.15,3.47,16.99,3Z"/>
  <path class="cls-6" d="M78.93,66.94c-2.58-6.54-10.6-7.38-15.01-12.47-.95-1.1-6.7-10.82-5.97-11.5s5.52,1.31,6.66,1.82c4.79,2.14,14.07,7.94,18.15,11.08.54.42,1.96-.08,2.16.09.31.27,1.58,5.52,2.83,7.66,8.39,14.31,17.36,25.81,24.15,41.3-5.83.47-11.34-1.9-16.99-3l-20.54-33.91c-1.62-5.36,1.32-2.21,4.56-1.06.49,1.23.82,4.83,1.01,5,.66.6,5.73-1.13,3.94-3.93-.38-.6-4.02-.73-4.95-1.07Z"/>
  <path class="cls-5" d="M308.74,50.95c1.77,2.48-1.74,3.6-2.56,5.94-.52,1.5-.11,4.31-.61,4.88-.26.29-2.18.21-3.72,1.75-8.66,8.67-17.65,32.65-27.08,39.38-4.39,3.13-7.07,4.35-9.99,8.99-3.51-.43-3.91,2.12-6.06,3.44-9.25,5.67-17.92,12.18-27.24,17.72-8.77,5.21-20.79,9.81-28.7,15.29-1.62,1.12-2.56.37-1.94,3.52-2.73-1.32-1.44-5.74-6-5,.81-4.4,4.97-3.53,8.37-5.12,30.52-14.32,67.19-41.48,88.5-67.61,5.53-6.78,10.97-18.37,17.04-23.19Z"/>
  <path class="cls-4" d="M822.31,43.96l-12.99,47.96h-14.99c2.19-4.79,11-47.96,13.49-47.96h14.49Z"/>
  <path class="cls-6" d="M83.93,91.92c-.1,0-.58.83-1.95.6-10.19-1.69-9.51-2.85-15.04-10.59-1.72-2.41-3.34-6.56-5.34-8.65-4.97-5.19-16.99-10.06-23.11-15.36-1.45-1.25-12.14-13.59-12.51-14.48-.76-1.83,1.03-1.73,2.28-1.27,7.5,2.73,31.41,16.07,38.02,20.94s15.32,21,17.65,28.81Z"/>
  <path class="cls-6" d="M407.34,22.67c-14.28,18.25-33.1,42.79-49.13,59.27-1.87,1.93-6.8,6.32-9.5,3.98-1.08-.94,11.87-22.87,12.99-25.47,16-11.95,28.99-29.04,45.14-40.81,1.03-.75,1.96-1.07,1.83-2.66,2.31.05-.91,5.14-1.33,5.68Z"/>
  <path class="cls-9" d="M155.87,25.97c-6.19-2.19-4.23.31-6.04,1.41-3.16,1.93-5.8,1.72-7.98,6.05l-13.96,8.52c-.06-.09-1.36.19-2-.72-1.99-2.83-6.65-11.93-7.99-13.27l12.99-14.99c.45.24,4.28-.06,6.04.45,7.17,2.05,17.07,4.06,18.93,12.54Z"/>
  <rect class="cls-3" x="420.65" y="24.97" width="4" height="148.88"/>
  <path class="cls-6" d="M113.9,44.96c-.08,2.57,1.01,3.32-2.23,2.75-3.6-.63-6.71-2.2-8.76,2.24-11.23-9.68-35.09-12.74-37.96-29.97,1.84-1.87,45.01,16.44,48.03,20.42,1.37,1.8.76,4.39.93,4.55Z"/>
  <path class="cls-11" d="M117.9,27.97c-.35-.35-8.25-4.63-8.73-4.75-2.39-.59-7.03.29-8.11-.38-1.18-.73-.99-6.96-1.59-8.9-.85-2.77-10.2-12.25-8.53-13.94,12.31,4.33,27.33,6.18,39.22,11.03,1.06.43.65,1.9.75,1.95l-12.99,14.99Z"/>
  <path class="cls-6" d="M155.87,25.97c3.85,1.36,7.57,7.88,7.99,11.99-2.11.03-11.09,5.53-13.35,7.13-1.65,1.17-2.12,3.24-3.64,4.36-2.5,1.84-8.22,2.92-8.99,7.5-3.24-4.75-6.69-10.24-9.99-14.99l13.96-8.52c2.18-4.33,4.82-4.12,7.98-6.05,1.81-1.1-.15-3.6,6.04-1.41Z"/>
  <path class="cls-8" d="M171.86,48.95c-5.91,4.44-11.98,11.77-18.28,15.21-3.52,1.92-5.83-.22-6.7,6.77-2.98-4.4-5.97-9.55-8.99-13.99.76-4.58,6.48-5.66,8.99-7.5,1.52-1.11,1.99-3.19,3.64-4.36,2.27-1.6,11.24-7.1,13.35-7.13,2.3-.03,4.88,4.31,6.24,6.25s1.51,4.39,1.75,4.74Z"/>
  <path class="cls-2" d="M113.9,44.96c.23.23,2.2-.43,2.86.15.49.43-.01,1.53.14,1.85l-.99.51v1.48c.6.14,1.65-.19,1.99,0,3.08,1.77,15.66,21.94,18.81,26.65,1.18,1.77,1.53,4.37,2.17,5.32-3.21-.84-1.61,2.66-2,3-1.86,1.63-5.23-3.04-6.5-4.03-.97-.76-2.64-.71-3.22-1.22-1.44-1.26-1.04-7.58-6.26-1.74-1.46-2.33-12.94-21.15-13.99-21.98.23-2.1.42-3.49-2-3-.22-.43-1.49-1.56-2-2,2.05-4.45,5.16-2.87,8.76-2.24,3.25.57,2.15-.18,2.23-2.75Z"/>
  <path class="cls-11" d="M335.72,18.98c-.67-2.57,1.84-2.3,3.77-3.67.95-.67,1.23-2.14,1.94-2.3,8.01-1.77,21.52-3.59,29.72-4.07s24.18-.96,32.03.04c1.46.19,3.1.76,1.48,2-.5.38-10.27-.18-12.47.02-21.35,1.91-41.28,9.45-61.46,15.98,1.65-2.38,3.61-6.31,5.91-7.14l-.91-.85Z"/>
  <path class="cls-13" d="M197.83,134.88c-.15.93.25,3.78,0,4-.38.34-3.73-.58-5.08.44-.97.73-.59,2.98-1.09,3.4-.6.5-2.43-.14-3.53.46-.59.32-2.08,3.17-2.57,3.37-1.47.6-3.17.23-4.67.89-2.74,1.19-5.8,5.24-10.03,5.45l6.99,1.98c-6.31,3.02-14.87,8.4-22.07,11.41-4.84,2.02-10.05,2.03-14.41,5.57-1.89-4.1,4.16-4.96,5.27-6.29.55-.66-.25-2.13.88-2.73,14.54-7.7,28.41-14.93,42.62-23.94.95-.6.61-1.95.7-2.01.31-.18,1.56.32,2.19-.07,1.4-.87,1.29-2.99,4.8-1.92Z"/>
  <path class="cls-13" d="M335.72,18.98l.91.85c-2.3.83-4.26,4.76-5.91,7.14-6.23,9-12.8,15.89-20.98,22.98.55-3.9-.54-3.06-4-3,3.4-3.4,8.64-9.08,10.99-12.99,4.04-1.1,6.95-5.54,9.37-8.68l9.61-6.31Z"/>
  <path class="cls-13" d="M164.86,134.88c-.86,1.65-2.54,2.55-4.11,3.38-7.01,3.72-15.96,7.39-22.09,10.26-1.83.86-4.36,2.3-6.3,3.05-.92.36-4.3.15-2.47-1.68.86-.86,6.36-3.1,7.34-3.96,1.64-1.44,2.69-4.54,6.64-7.05,1.54-.98,10.11-5.83,10.71-5.97,4.02-.89,6.98,1.75,10.27,1.97Z"/>
  <path class="cls-13" d="M274.77,102.91c-.41,3.55-2.82,7.78-4.65,10.79-.91,1.49-2.28,1.09-2.34,1.2-1.6-.37-1.54-2.82-3-3-4.41,7.01-18.25,13.97-25.75,18.66l-5.06,4.21-32.15,17.1c-.32-.09-.75.12-1,0-.62-3.16.32-2.4,1.94-3.52,7.92-5.48,19.93-10.08,28.7-15.29,9.33-5.54,17.99-12.05,27.24-17.72,2.14-1.31,2.54-3.86,6.06-3.44,2.93-4.64,5.6-5.86,9.99-8.99Z"/>
  <path class="cls-2" d="M122.9,79.93c1-5.64,2.81.15,2,4-1.14-1.82-1.49-3.16-2-4Z"/>
  <path class="cls-6" d="M104.91,51.95c2.41-.49,2.23.89,2,3-.29-.23-1.79.25-2,0-.32-.38.29-2.43,0-3Z"/>
  <path class="cls-5" d="M193.84,146.87c-.21.35.29,1.69-.03,1.97-.43.37-2.27-.2-2.97.03.43-1.44,1.53-1.99,3-2Z"/>
  <path class="cls-6" d="M117.9,48.95c-.34-.19-1.39.14-1.99,0v-1.48s.99-.51.99-.51c.29.6.97,1.17,1,2Z"/>
  <rect class="cls-11" x="17.99" y="114.91" width="1.99" height=".98"/>
  <rect class="cls-6" x="410.66" y="14.99" width="1.99" height=".98"/>
  <path class="cls-11" d="M16.49,116.9c.65.33.65.67,0,1v-1Z"/>
  <g>
    <path class="cls-10" d="M646.03,138.2l1.94-1.58c1.4,2.2,3.42,3.38,6.12,3.38,2.95,0,5.15-1.66,5.15-4.36,0-1.8-1.12-2.92-2.92-3.96l-2.7-1.62c-2.05-1.19-3.85-2.99-3.85-5.72,0-3.64,3.06-6.37,7.27-6.37,3.06,0,5.58,1.55,6.98,3.49l-1.87,1.58c-1.15-1.48-2.92-2.66-5.26-2.66-2.52,0-4.21,1.76-4.21,3.71,0,1.8,1.26,2.84,2.74,3.74l2.84,1.69c2.23,1.4,3.85,3.02,3.85,5.87,0,4.43-3.53,7.06-8.03,7.06-3.78,0-6.44-1.66-8.06-4.25Z"/>
    <path class="cls-10" d="M673.17,118.4h14.54l-.47,2.38h-11.73l-1.51,7.63h9.79l-.47,2.38h-9.79l-1.8,8.85h12.06l-.47,2.38h-14.87l4.71-23.61Z"/>
    <path class="cls-10" d="M693.87,118.4h6.37c4.43,0,7.45,1.55,7.45,5.62,0,5.18-4.43,7.99-9.58,7.99h-4.18l-1.98,10.01h-2.84l4.75-23.61ZM697.83,129.74c4.46,0,7.02-2.12,7.02-5.47,0-2.59-1.8-3.6-5.26-3.6h-3.38l-1.76,9.07h3.38ZM700.17,130.42l4.79,11.59h-3.17l-4.07-10.44,2.45-1.15Z"/>
    <path class="cls-10" d="M711.26,139.64h5.79l3.82-18.86h-5.9l.5-2.38h14.65l-.5,2.38h-5.94l-3.78,18.86h5.94l-.5,2.38h-14.61l.54-2.38Z"/>
    <path class="cls-10" d="M737.97,118.4h14.54l-.47,2.38h-11.73l-1.51,7.63h9.79l-.47,2.38h-9.79l-1.8,8.85h12.06l-.47,2.38h-14.87l4.71-23.61Z"/>
    <path class="cls-10" d="M754.03,138.2l1.94-1.58c1.4,2.2,3.42,3.38,6.12,3.38,2.95,0,5.15-1.66,5.15-4.36,0-1.8-1.12-2.92-2.92-3.96l-2.7-1.62c-2.05-1.19-3.85-2.99-3.85-5.72,0-3.64,3.06-6.37,7.27-6.37,3.06,0,5.58,1.55,6.98,3.49l-1.87,1.58c-1.15-1.48-2.92-2.66-5.26-2.66-2.52,0-4.21,1.76-4.21,3.71,0,1.8,1.26,2.84,2.74,3.74l2.84,1.69c2.23,1.4,3.85,3.02,3.85,5.87,0,4.43-3.53,7.06-8.03,7.06-3.78,0-6.44-1.66-8.06-4.25Z"/>
  </g>
</svg>