<?xml version="1.0" encoding="UTF-8"?>
<svg id="Vrstva_1" data-name="Vrstva 1" xmlns="http://www.w3.org/2000/svg" viewBox="0 0 940.06 186.84">
  <defs>
    <style>
      .cls-1 {
        fill: #14100f;
      }

      .cls-2 {
        fill: #140f0f;
      }

      .cls-3 {
        fill: #ce7a53;
      }

      .cls-4 {
        fill: #c2c2c2;
      }

      .cls-5 {
        fill: #020202;
      }

      .cls-6 {
        fill: #141010;
      }

      .cls-7 {
        fill: #d0774e;
      }

      .cls-8 {
        fill: #151111;
      }

      .cls-9 {
        fill: silver;
      }

      .cls-10 {
        fill: #c1c1c1;
      }

      .cls-11 {
        fill: #cc784d;
      }

      .cls-12 {
        fill: #130e0e;
      }

      .cls-13 {
        fill: #bebebe;
      }
    </style>
  </defs>
  <path class="cls-2" d="M384.06,132.88c12.79-7.4,28.86-30.22,15.88-43.34-13.98-14.13-45.53-16.09-64.37-15.59-73.24,1.95-149.52,15.93-222.97,18.02-17.53.5-31.22-1-47.53-7.56-4.14-1.67-10.5-4.02-13.02-7.46,22.81-.78,45.7-1.53,68.48-3.03,72.41-4.77,146.94-15.06,218.98-18.01,29.84-1.22,66.84,1.79,86.51,27.54,10.16,13.29,4.45,26.22-3.78,39.13-19.45,30.53-37.64,15.59-65.65,14.26-21.74-1.03-49.6,3.63-70.06,11.01-4.95,1.78-25.28,12.65-27.14,12.78-1.48.1-20.08-7.08-20.33-8.28-.8-3.78,28.88-18.68,33.33-20.64,30.76-13.53,75.24-22.22,108.09-12.74,12.54,3.62,8.31,3.38,3.58,13.9Z"/>
  <path class="cls-2" d="M433.06,58.95h-19.5c-.51,0-6.18-4.55-8.47-5.53-29.54-12.63-54.39-9.42-85.51-7.45-90.04,5.7-179.93,16.06-269.98,22-8.26,1.88-44.84-6.31-49.06-12.01-.55-.75-.62-1.09-.47-2.02,17.16-.57,34.37-1.64,51.48-3.02,89.99-7.24,180-16.48,270.03-22.95,24.98-1.8,53.18-5.72,77.49.48,14.13,3.6,36.25,12.82,33.99,30.48Z"/>
  <path class="cls-12" d="M611.06,118.9c4.03-19.78,3.56-41.74,7.11-61.37.15-.84.55-3.13,1.04-3.43,2.05-1.28,43.45-.71,48.35-.15,17.05,1.94,23.02,19.4,13.93,32.91-4.11,6.1-13.33,7.77-13.45,8.57-.47,3.17,14.37,18.32,14.02,23.47h-21.5c-1.25,0-9.44-16.68-11.44-18.54-2.18-2.03-14.33-2.27-15.59-.48l-2.46,19.02h-20ZM635.06,83.93c.83.83,20.23,0,23.5,0,6.3,0,12.6-13.46,1.02-15-2.43-.32-21.42-.43-22.37.16-.41.25-.72,1.88-.88,2.58-.3,1.31-1.71,11.83-1.27,12.26Z"/>
  <path class="cls-2" d="M792.06,53.96l-4.81,40.19c1.67,10.38,15,12.32,22.76,7.21,9.79-6.44,7.57-36.18,10.05-47.41h20c-4.89,24.6,2.12,58.6-29.79,65.66-13.23,2.93-35.04.87-41.01-13.4-5.47-13.06,3.34-37.71,2.8-52.25h20Z"/>
  <path class="cls-2" d="M583.06,73.93c-3.86-.48-15.83,4.63-18.34,3.89-.97-.28-3.95-5.6-8.67-7.36-25.43-9.45-38.88,22.17-20.23,31.2,11.36,5.5,19.98.5,28.72-6.71l14.1,6.97c-4.03,13.25-22.19,19.25-35.1,19.04-53.45-.87-47.62-74.76,12.01-68.98,12.69,1.23,25.29,8.5,27.52,21.95Z"/>
  <path class="cls-1" d="M763.93,73.81c-.48.74-16.18,4.38-17.2,4.19-.77-.14-4.71-7.83-12.23-8.98-42.02-6.44-26.02,59.18,12.02,25.97l14.52,5.98c-6.54,19.28-34.03,23.28-51.48,16.96-30.69-11.13-25.43-53.32,3.56-63.42,13.61-4.74,37.03-4.17,46.97,7.93,1.62,1.97,5.29,9.13,3.85,11.38Z"/>
  <path class="cls-1" d="M274.06,99.91c-9.34,2.72-14.61,7.48-24.64,8.86-22.97,3.18-58.6,5.77-81.82,6.17-13.83.24-27.87-2.44-40.8-7.27-2.18-.81-17.12-6.12-9.25-6.76,14.25-1.15,28.73-1,43-2.02,31-2.2,66.53-8.03,97-8.05,5.27,0,14,4.5,16.52,9.06Z"/>
  <polygon class="cls-12" points="940.06 53.96 939.06 69.94 915.06 69.94 909.06 118.9 890.06 118.9 895.06 69.94 871.06 69.94 873.06 53.96 940.06 53.96"/>
  <path class="cls-1" d="M391.05,119.9c-.75.7-13.82-9.68-17.31-11.17-25.75-10.98-48.59-1.96-73.29.07-2.08.17-3.34,1.12-3.36-1.35-.02-2.18,6-18.78,7.66-19.35,4.51-1.56,21.28-2.93,26.78-3.21,16.55-.84,36.29.17,51.8,6.27,4.55,1.79,14.14,5.32,13.57,10.97-.12,1.16-5.15,17.13-5.84,17.77Z"/>
  <polygon class="cls-1" points="610.06 53.96 603.06 118.9 584.06 118.9 591.06 53.96 610.06 53.96"/>
  <polygon class="cls-6" points="867.06 53.96 859.06 118.9 840.06 118.9 847.06 53.96 867.06 53.96"/>
  <path class="cls-8" d="M184.07,122.9l66.49-5.09c2.18-1.09,13.49,4.59,13.48,5.59s-16.78,10.83-17.76,11.21c-10.57,4.07-35.11,2.58-45.9-1.54-1.52-.58-18.41-8.32-16.32-10.16Z"/>
  <path class="cls-7" d="M566.77,132.22c.22.04.26,1.39.99,1.63,1.31.43,4.95-.34,5.3.04.28.31-.37,2.37.05,3.2.48.94,1.78.87,1.91,1.51,1.82,8.95-1.9,8.87-5.59,13.67-.63.81-.23,2.45-.37,2.61-.21.25-4.15-3.29-.67,3.19.78,1.47,4.26,3.78,4.36,4.06,2.49,7.17-7.3,3.27-9.38-.55-.74-1.35.11-3.56-.73-4.8-1.25-1.83-4.4.58-3.08-2.94l-6.48.02c2.15,6.3-.22,2.89-1.03,3.5-2.12,1.6-.39,7.91-.97,8.49-.18.17-4.83.17-5.01,0-1.14-1.13,3.83-27.95,3.5-31.98,1.52-3.12,13.81-2.25,17.22-1.66ZM552.07,149.87c22.48,4.8,26.59-17.4,1.93-12.55l-1.93,12.55Z"/>
  <path class="cls-11" d="M613.03,133.93c.35.37-.32,2.45.1,3.13,3.47,5.63,5.16,8.52,3.9,16.11-.12.72-1.69.64-1.94,1.4-.5,1.51.54,4.13-.19,5.2-.18.26-1.88-.1-2.46.41-10.47,9.27-18.05,7.95-29.21,1.53.06-9.76-3.23-16.63,4.28-23.89,1.26-1.21,7.74-5.81,8.99-6,2.15-.33,15.7,1.24,16.53,2.12ZM607.71,159.51c12.06-10.84-1.14-32.57-16.16-19.64-13.46,11.59,2.24,32.15,16.16,19.64Z"/>
  <path class="cls-3" d="M534.71,134.28c5.28,2.95,6.19,14.27.01,17.23-5.38,2.58-17.05,1.71-17.67,2.36-.81.85,1.72,5.69-1.99,3,.18,1.49-.46,8.4-1.13,8.88-.43.31-4.71.29-4.89.13-.41-.39-.16-9.75.04-11.29.09-.73,1.74-.33,2.04-2.14.83-4.93-1.95-15.54,1.86-19.1,3.33-3.11,17.56-1.37,21.71.95ZM515.06,149.87c22.31,4.64,26.67-17.38,1.94-12.55l-1.94,12.55Z"/>
  <rect class="cls-5" x="469.06" width="1" height="186.84"/>
  <path class="cls-13" d="M689.24,160.02c-1.26,2.08,2.87,4.86,1.82,5.84-2.75,2.54-3.88-4.61-6.49-5.06-6.94-1.2-.61,5.19-5.5,5.06l.99-13.99c4.49.02,13.24-1.61,12.08,5.49-.41,2.48-2.61,2.18-2.9,2.65ZM689.06,154.88c-.25-.25-6.76-.25-7,0-.14.14-.14,3.84,0,3.98,1.49,1.54,9.82-1.19,7-3.98Z"/>
  <path class="cls-10" d="M651.06,155.86c-.79.71-6.26-3.2-9-.98-3.04,2.47,8.63,1.87,9.05,6.54.63,7.11-15.8,4.69-12.04.45.56-.63,6.36,3.63,8.99.98,2.5-2.53-7.36-3.33-7.86-4.12-.4-.64-.4-5.03.01-5.71,1.92-3.18,13.92.08,10.84,2.84Z"/>
  <path class="cls-9" d="M671.06,151.88c3.95,3.46-11.88,1.92-8,5.98.79.82,7.13-1.83,6,2-2.21-.27-8.29-.56-7,3.5.62,1.94,10.03-1.76,9,2.5h-12s1.44-13.05,1.44-13.05l10.56-.93Z"/>
  <path class="cls-4" d="M743.97,152.97c4.06,6.4-8.27-2.64-7.92,3.39.08,1.43,11.76,1.14,8.11,7.03-3.57,5.77-14.7.91-12.1-1.52.71-.66,10.27,5.13,10.01-.49-.1-2.11-8.31.18-9.06-4.03-1.21-6.84,9.87-6.09,10.96-4.37Z"/>
  <path class="cls-9" d="M716.06,154.88c-2.94,3.13,4.02,3.1,6.01,3.5.4,3.11-5.31.75-6.01,1.49-.14.15-.14,3.84,0,3.99.91.95,9.11-2.03,8,2h-11s1.12-13.86,1.12-13.86c1.83-.18,10.79-.83,10.86,1.38.08,2.41-8.65,1.15-8.98,1.5Z"/>
  <path class="cls-4" d="M704.06,151.88c.23,3.9,0,7.76-.96,11.56-.42,1.68.98,2.91-2.03,2.41,0-3.42-.22-6.81.29-10.22.24-1.62.16-4.49,2.7-3.76Z"/>
</svg>