<?xml version="1.0" encoding="UTF-8"?>
<svg id="Vrstva_1" data-name="Vrstva 1" xmlns="http://www.w3.org/2000/svg" viewBox="0 0 965.53 263.09">
  <defs>
    <style>
      .cls-1 {
        fill: #6f6f6f;
      }

      .cls-2 {
        fill: #757575;
      }

      .cls-3 {
        fill: #313131;
      }

      .cls-4 {
        fill: #7b7b7b;
      }

      .cls-5 {
        fill: #d18f64;
      }

      .cls-6 {
        fill: #727272;
      }

      .cls-7 {
        fill: #f58630;
      }

      .cls-8 {
        fill: #626262;
      }

      .cls-9 {
        fill: #1e1e1e;
      }

      .cls-10 {
        fill: #d17a53;
      }

      .cls-11 {
        fill: #f55c2c;
      }

      .cls-12 {
        fill: #e78948;
      }

      .cls-13 {
        fill: #ec5134;
      }

      .cls-14 {
        fill: #f43228;
      }

      .cls-15 {
        fill: #f4692f;
      }

      .cls-16 {
        fill: #1f1f1f;
      }

      .cls-17 {
        fill: #1a1a1a;
      }

      .cls-18 {
        fill: #1b1b1b;
      }

      .cls-19 {
        fill: #f73c26;
      }

      .cls-20 {
        fill: #e17d44;
      }

      .cls-21 {
        fill: #fad68f;
      }

      .cls-22 {
        fill: #f7722b;
      }
    </style>
  </defs>
  <path class="cls-7" d="M249.55,53.51c6.43-3.36,36.16-7.33,45.34-8.61,39.01-5.43,89.44-11.22,128.48-11.01,4.99.03,11.38,2.15,16.89,1.08.74.64-4.91,14.02-6.09,16.21-.82,1.54-5.39,9.94-5.81,10.36-1.22,1.26-3.12.47-3.37.69-.29.25,1.55,2.89,1.11,3.26-.25.21-2.21-.43-2.96.25-1,.91-2.41,7.01-3.61,8.76-2.67,3.9-6.09,7.98-8.69,11.71-2.2,3.17-7.28,3.96-6.52-.52.83-4.91,5.39-3.1,6.35-4.02.23-.22,1.49-6.14,1.26-6.37-.4-.38-9.89,2.7-10.59,3.02-3.07,1.42-6.49,5.42-8.51,5.76s-.95-2.07-3.16-2.33c-2.79-.33-15,.72-15.88.08-.18-.13.11-1.53,0-2.18,4.07-.22,14.36.92,15.25-4.36h-15.26c.12,1.39-.2,3,0,4.36-2.87.15-16.84-.63-17.44,0-.15.16-.21,4.36,0,4.36h17.44v2.18h-19.62c-.12,0,.43-1.87-.71-2.2-1.75-.51-4.13.41-6.63-.32-.44-.13-2.33-3.78-3.28-3.97-3.02-.6-16.18-.57-19.48-.14-21.97,2.86-47.9,4.07-68.46,8.89-1.51.35-3.81-.35-5.51-.08l1.63-2.19c23.04-3.19,46.58-6.73,69.75-8.73,11.29-.97,23.4-.18,34.87-2.18l31.6-2.17c-16.24-.14-32.82-2.86-49.03-.01-10.2-.04-20.38-.21-30.51,1.09-41.78-1.32-102.95,9.09-144.94,16.36-6.44.82-15.25-1.09-21.32-.08-2.09.35-1.2,2.3-3.16,2.39-2.59.12-6.49-1.92-8.74-1.27-1.26.36.17,3.04-1.16,3.41-1.78.5-5.06-.57-7.36-.04-.53.12-8.01,4.27-8.87,4.41-3.41.53-6.98-1.13-8.85-1.03-.29.02-2.03,4.23-4.84,2.04-.17-.13.05-4.05.19-4.2,1.91-2.01,8.1-.6,9.62-1.26.23-.1-1.39-2.87,1.13-4.3s1.45,2.44,3.67,2.08c3.74-.61,2.37-4.1,3.44-4.39,1.85-.5,5.03.57,7.34.04,9.37-2.18,13.16-5.51,21.2-8.62,6.8-2.63,16.06-2.97,22.41-4.46.84-.2.74-2.16,1.42-2.24,1.25-.13,3.43,1.47,3.68,1.18.4-.47-.74-2.97.6-3.36,1.75-.5,5.06.57,7.36.04,19.21-4.45,37.41-9.61,58.05-12.96,1.66-.27,9.33-3.95,10.28-4.45Z"/>
  <path class="cls-22" d="M373.78,79.69c-.21-1.36.11-2.96,0-4.37h15.26c-.89,5.29-11.18,4.15-15.25,4.37.1.65-.19,2.05,0,2.18.88.63,13.09-.42,15.88-.08,2.22.26,1.15,2.67,3.16,2.33s5.44-4.34,8.51-5.76c.7-.32,10.2-3.4,10.59-3.02.23.23-1.02,6.14-1.26,6.37-.96.91-5.52-.9-6.35,4.02-.76,4.48,4.32,3.68,6.52.52,1.03,3.18,4.36,1.79,6.54,2.18,5,.9,23.77,2.75,25.6,5.5.69,1.03.27,2.49.55,3.22v6.55s-34.88,2.18-34.88,2.18c-.11.7.13,1.51,0,2.18,3.57.08,7.46-.54,10.9.56-.42,3-8.46,1.57-10.9,1.62-.12.67.11,1.48,0,2.18h-17.44c-.19-2.64-.3-1.89,1.61-2.18,4.38-.68,11.03.1,15.82,0,.12-.68-.12-1.5,0-2.18-34.29-.73-68.7.46-103.02.09-5.14-6.77-12.32-.79-18.44-.04-5.6.68-15.31-3.48-16.33-3.22-1.23.31-1.23,2.83-2.48,3.19s-13.43.34-15.09.06c-6.99-1.16-10.16-2.28-19-2.27-.09.7.12,1.46,0,2.17h-17.43c-.19-2.63-.3-1.88,1.61-2.17,4.27-.66,11.14.01,15.82,0,.56-4.29-4.16-2.23,0-8.72-8.37-1.54-3.61,5.82-4.36,6.53-.42.4-10.18.3-11.5.09-1.71-.27-9.05-5.5-12.7-4.55l-6.31-4.26c17.47-3,34.7-6.29,52.31-8.73l-1.63,2.19c1.71-.27,4,.43,5.51.08,20.56-4.83,46.48-6.03,68.46-8.89,3.3-.43,16.46-.46,19.48.14.95.19,2.84,3.84,3.28,3.97,2.5.73,4.88-.19,6.63.32,1.15.33.6,2.2.71,2.2h19.62v-2.18h-17.44c-.22,0-.16-4.2,0-4.36.6-.63,14.58.15,17.44,0ZM321.47,86.23h17.44c.22,0,.15-4.2,0-4.36-.31-.33-7.75-.2-9.04.03-.78.14-.72,1.88-1.54,2.1-2.55.7-7.73-1.75-6.86,2.22Z"/>
  <path class="cls-15" d="M199.42,94.96l6.31,4.26c3.65-.95,10.99,4.28,12.7,4.55,1.32.21,11.09.3,11.5-.09.75-.71-4.01-8.07,4.36-6.53-4.15,6.48.57,4.43,0,8.72-4.68.01-11.55-.66-15.82,0-1.91.3-1.8-.46-1.61,2.18h17.43c.11-.71-.1-1.47,0-2.17,8.84-.02,12.02,1.11,19,2.27,1.66.28,13.9.29,15.09-.06s1.24-2.88,2.48-3.19c1.03-.26,10.73,3.9,16.33,3.22,6.12-.74,13.3-6.73,18.44.04,34.31.37,68.73-.82,103.02-.09-.12.68.12,1.5,0,2.18-4.79.1-11.44-.68-15.82,0-1.91.3-1.8-.46-1.61,2.18h17.44c.11-.7-.13-1.51,0-2.17,2.44-.05,10.48,1.38,10.9-1.62-3.45-1.09-7.33-.48-10.9-.56.12-.67-.11-1.48,0-2.18l34.89-2.18v-6.55c2.32,5.96,2.67,12.26,3.27,18.54l-139.49-1.09c-10.56-.83-11.05-3-21.48-.05-4.61,1.3-9.27-3.47-12-4.27-7.05-2.05-3.91,3.53-4.66,4.33-.47.5-11.47-.08-13.68-.01-2.09.07-4.37-1.11-3.76,2.18-34.17,1.78-68.34,6.04-102.44,8.73-10.48.82-19,1.19-28.88,2.23-2.07.22-4.43-1.34-3.81,2.13-.72.04-1.46-.03-2.18,0-3.32.16-6.33-.77-11.46.04-2.02.32-4.42-1.37-3.8,2.15-.36.02-.73-.03-1.09,0-3.55.26-10.92-.81-13.44,0-1.17.37-.61,2.19-.73,2.19h-15.26c-.12,0,.44,1.83-.72,2.19-2.99.93-8.96-2.05-8,2.17-1.08.08-2.19-.03-3.27,0-3.43.1-10.9-1.45-9.81,2.18-.72.05-1.46-.04-2.18,0-3.34.2-9.96-.74-12.39-.05-1.35.38-.44,1.54-.68,2.23-.11.31-.85.68-1.09,1.09-.74-.2-2.31-.02-3.27,0-.71.01-1.48-.08-2.18,0-2.05-1.2-5.13-.27-4.36-3.27,1.7-.54,3.4-1.55,5.45-2.18,5.26,1.52,6.28-1.11,8.5-2.13,1.7-.78,4.25,1.39,3.49-2.24.34-.09.75.09,1.09,0,7.44-1.95,6.19-1.65,13.08-4.36,23.61-9.3,75.46-23.9,100.26-26.18-.63,3.22,1.7,2.2,3.78,2.21,4.23.02,8.36-.8,12.56-.03l-1.61-2.18c-2.99,1.21-8.62-1.1-10.38-1.09l18.53-3.27c-.24.06-2.68,4.06-2.17,4.36,1.86,1.08,20.19-.81,24.58-.08,1.5.25,5.49,4.44,10.28,2.26,1.04-4.25-4.74-1.05-6.38-2.34-.54-.43.2-3.23-1.91-4.06-1.14-.44-22.7-.54-24.39-.13,7.42-3.5,16.15-3.02,23.97-4.36ZM443.53,108.05c-.43-.45-12.48-.93-11.97,1.6.86,4.22,11.5,3.24,11.97,2.75.15-.16.15-4.19,0-4.35Z"/>
  <path class="cls-13" d="M142.75,145.13c.38,1.92-7.81,6.12-8.44,6.27-3.42.86-7.06-.26-10.36.33-.32.06-4.67,3.7-2.44,4.31,3.25.88,12.57-.17,16.89,0,.11.69-.11,1.47,0,2.18h8.72c1.02-3.67-6.25-2.09-8.71-2.18-.84-5.46,2.6-5.55,7.95-4.32.76.17.45,3.16,5.71,2.23,2.02-.36,1.57-2.11,2.37-2.23,26.02-3.85,50.37,3.28,77.18,2.17,35.97-1.49,74.19-4.59,109.9.05,15.73,2.05,31.39-2.62,45.94-2.31,4.93.11,37.29,3.6,38.65,2.23.48-.48-.53-5.59,0-6.54.99-1.76,4.67,5.13,6.52,3.26.15-.15-.3-2.04.37-2.85.72-.85,1.93-1.5,2.91-2.6-1.87,4.95-6.6,11.6-9.83,15.79-5.2,6.75-11.17,13.3-17.41,19.11-2.65-6.92-9.92-7.64-16.67-6.51-28.59,4.83-60.12.19-90.68,2.25-3.71.25-6.9-2.75-12.09-2.4-3.44.23-2.09,2.02-4.18,2.37-7.11,1.19-14.62-3.51-23.82-2.22-.8.11-.36,1.9-2.34,2.23-4.7.79-11.67-.91-16.46-.15-2.21.35-2.8,4.34-8.13,4.43-.1-.64.18-2.05,0-2.18-3.27-2.26-7.46,2.31,0,2.18,1.62,10.26-5.73.38-7.36.07-15.27-2.9-8.3,4.68-10.07,6.48-.42.43-11.46,1.36-8.71-3.28.23-.38,5.18,3.4,4.34-1.09-2.55.24-5.5-.45-7.94.03-7.35,1.45-11.03,3.72-20.38,4.32,67.82-17.39,138.66-21.36,208.66-21.84,1.63.28,6.12-4.38,4.93-5.42l-42.5-3.28c-1.09-.02-2.18.03-3.27,0l-27.79-2.18h-75.19l-27.79,2.18h-8.72c-34.21,1.86-68.49,4.18-102.44,8.73-.73.01-1.45-.03-2.18,0-12.8.46-25.46,2.9-38.14,4.36,3.78-4.25,19.11-8.89,25.06-10.91,15.4-5.22,32.14-9.17,47.95-13.09ZM152.56,158.22h16.35c-1.27-8.84-4.62-2.29-5.11-2.21-3.11.5-11.84-1.86-11.24,2.21ZM124.23,158.23c-2.57.56-10.23-4.01-12-2.18-.15.16-.15,4.19,0,4.35.45.47,13.46,1.17,12-2.17ZM99.16,160.41c-1.44-1.46-6.77.67-3.11,3.09,2.86,1.9,4.25-1.94,3.11-3.09ZM92.62,162.59h-2.17v1.07h2.17v-1.07ZM94.26,163.67v1.09l.54-.55-.54-.55ZM373.78,171.31h-17.44v2.18h17.44v-2.18Z"/>
  <polygon class="cls-18" points="647.31 89.51 672.38 134.22 672.38 89.51 687.64 89.51 687.64 153.86 664.75 153.86 639.7 110.23 639.69 153.86 624.43 153.86 624.43 89.51 647.31 89.51"/>
  <path class="cls-9" d="M925.2,89.51l25.06,44.72v-44.72h15.26v64.35h-22.34c-2.53,0-20.25-39.56-25.61-43.63v43.63h-15.26v-64.35h22.89Z"/>
  <path class="cls-17" d="M612.44,152.22c-.49,1.59-14.63,3.19-15.2,2.64-.42-.4.24-2.78-.06-3.2-.32-.44-7.94,2.88-10.47,3.16-16.41,1.82-32.8-1.54-38.88-18.64-12.61-35.44,18-58.24,50.85-45.44,1.5.59,12.29,6.88,12.67,7.51.69,1.16-11.77,12.71-13.05,11.97-.19-.11-.5-2.61-2.12-3.87-8.24-6.41-27.7-6.61-32.67,4.53-5.91,13.24-1.21,28.69,14.56,29.94,9.24.73,21.17,1.47,18.03-10.95h-17.44v-13.09h33.78v35.45Z"/>
  <path class="cls-17" d="M829.7,96.45c8.89-8.89,26.24-9.49,38-7.75,28.23,4.18,33.18,48.65,10.12,61.91-11.16,6.42-33.99,6.45-44.7-1.12-15.16-10.71-16.19-40.27-3.42-53.04ZM850.82,101.77c-17.6,3.05-19.03,32.53-2.95,38.42,11.12,4.07,25.21.41,27.82-12.45,3.68-18.17-6.49-29.15-24.86-25.97Z"/>
  <path class="cls-14" d="M408.66,182.21l25.07,3.28c-.53,8.77-4.48,16.74-6.54,25.08-.08.34.08.75,0,1.09l-6.14,13.18c-35.48-5.09-71.44-2.9-107.19-3.38l40.31-17.45c-1.37-2.15-6.4-1.79-8.71-2.17.67-2.52-5.54-3.36-6.49-4.29.21,3.36-3.05,1.94-5.5,2.11-1.06.08-2.2.03-3.27,0,.61-3.3-1.67-2.1-3.76-2.18-4.54-.18-9.14.08-13.68,0-2.18-.04-4.36.07-6.54,0v-2.18c8.31.08,23.81,1.31,31.13.08,1.5-.25,5.49-4.44,10.28-2.26.34,4.57-5.55-.37-4.91,5.42,3.13-2.24,7.46-.38,10.69-1.09.91-.2,1-1.97,1.54-2.14,12.48-3.98,52.97-.81,67.08,1.38,4.1.63,3.12,2.6,6.24,2.97l2.19-13.08c-3.17-.52-6.19,1.18-9.26,1.18-4.36,0-11.48-1.53-12.53-5.54Z"/>
  <path class="cls-18" d="M785.71,89.51v13.09h-21.8v49.63c0,2.79-13.69,1.28-16.35,1.64v-50.17l-20.77-1.57-1.02-12.61h59.94Z"/>
  <path class="cls-3" d="M490.39.07v262.85c0,.22-4.36.22-4.36,0V.07c0-.22,3.58.15,4.36,0Z"/>
  <path class="cls-9" d="M794.43,153.86v-64.35c6.83,1.3,15.65-3.88,16.4,4.85,1.57,18.35-1.15,39.1-.21,57.71-1.34,3.52-12.74,1.1-16.19,1.79Z"/>
  <rect class="cls-16" x="519.81" y="89.51" width="15.26" height="64.35"/>
  <rect class="cls-9" x="701.8" y="89.51" width="15.26" height="64.35"/>
  <path class="cls-12" d="M249.55,53.51c-.95.5-8.62,4.18-10.28,4.45-20.64,3.35-38.84,8.52-58.05,12.96-2.3.53-5.61-.54-7.36-.04-1.34.38-.2,2.89-.6,3.36-.25.29-2.43-1.31-3.68-1.18-.68.07-.58,2.04-1.42,2.24-6.35,1.49-15.61,1.83-22.41,4.46-8.04,3.11-11.83,6.44-21.2,8.62-2.31.54-5.49-.53-7.34-.04-1.07.29.3,3.77-3.44,4.39-2.22.36-1.05-3.57-3.67-2.08s-.9,4.2-1.13,4.3c-1.53.66-7.71-.75-9.62,1.26-.14.15-.36,4.07-.19,4.2,2.81,2.19,4.55-2.02,4.84-2.04,1.87-.1,5.44,1.56,8.85,1.03.86-.13,8.34-4.28,8.87-4.41,2.3-.53,5.58.54,7.36.04,1.33-.37-.1-3.05,1.16-3.41,2.25-.65,6.15,1.39,8.74,1.27,1.96-.09,1.07-2.04,3.16-2.39,6.06-1.01,14.88.9,21.32.08-25.09,4.34-51.43,11.99-76.28,15.27-2.84.38-6.26-1.42-5.45,2.18-1.36.18-2.94-.05-4.36,0-2.89.1-5.82-.06-8.72-.01l1.09-2.17c4.26-1.85,8.75-4.88,13.77-6.94,38.08-15.59,78.86-27.48,118.58-36.74,4.77-1.11,20.14-6.49,21.31-6.49h15.26c.12,0-.44-1.83.72-2.19,2.42-.76,7.3.52,10.17,0ZM96.97,100.43l-6.52-1.1c-1.85,2.89,6.04,2.15,6.52,1.1Z"/>
  <path class="cls-6" d="M611.9,178.94c7.19,1.45,10.58,11.15,6.48,17.39-2.01,3.06-11.09,4.59-4.84,7.37-.4,2.61,8.05,10.9,6.53,12.32-3.85,3.61-10.49-10.8-12.98-12.63-2.14-1.57-10.14-2.4-10.99-1.55-1.42,1.42,3.38,15.9-4.35,14.18v-37.08c5.94.82,14.63-1.12,20.16,0ZM614.36,184.66c-2.17-2.29-16.04-3.57-18.33-1.97-1.51,1.06-1.55,13.35-.54,14.85s15.85-.01,18.03-1.7c2.9-2.25,3.15-8.74.84-11.18Z"/>
  <path class="cls-4" d="M555.77,178.94h25.06c1.31,8.95-18.37,1.57-20.58,4.49l-.12,11.87h18.53c.44,1.27-.48,4.36-1.63,4.36h-16.89v12h20.71c.22,0,.22,4.36,0,4.36h-25.06v-37.08Z"/>
  <path class="cls-2" d="M673.47,178.94c.11.12.16,3.27,0,3.27h-20.71v13.09h18.53c.16,0,.12,3.15,0,3.27-.64.67-15.74.21-18.53.01v13.08s20.7,0,20.7,0c.22,0,.22,4.36,0,4.36h-25.06v-37.08c3.32.68,24.19-.9,25.06,0Z"/>
  <path class="cls-1" d="M542.69,186.57c-1.16.77-11.27-8.53-16.84-2.13-8.96,10.3,14.63,9.98,18.01,15.7,3.13,5.3.9,12.72-4.89,14.88-8.45,3.15-25.84-3.22-19.15-7.71,1.16-.78,4.61,2.99,6.7,3.64,4.08,1.26,12.98,2.1,13.79-3.34,1.73-11.69-23.79-5.25-20.29-21.32,3.27-15,30.79-5.11,22.66.29Z"/>
  <path class="cls-6" d="M706.97,198.85c1.6,1.78,1.81,7.75,1.34,10.05-2.66,13.1-30.42,4.87-25.03-.51.88-.88,21.22,9.95,20.62-2.66-.43-9.02-20.74-3.72-20.73-17.52,0-15.13,23.19-9.59,24.07-5.44,1.45,6.83-13.55-5.38-18.6,2.08-6.98,10.33,14.56,9.82,18.32,13.99Z"/>
  <path class="cls-8" d="M635.33,178.94v35.45l-1.65,1.63-2.71-1.63v-35.45c0-.22,3.58.15,4.36,0Z"/>
  <path class="cls-10" d="M98.07,132.04c-1.86,1.07-4.44,1.59-6.54,2.18-8.42,2.36-20.41,3.6-29.42,4.36-.72.06-1.46-.06-2.18,0-.97-4.22,5-1.24,8-2.17,1.16-.36.61-2.19.72-2.19h15.26c.12,0-.44-1.82.73-2.19,2.52-.8,9.89.27,13.44,0Z"/>
  <path class="cls-10" d="M20.7,140.77c-.78,3,2.31,2.07,4.36,3.27-7.68.92-17,4.91-25.06,5.44,1.68-2.75,9.84-2.13,9.8-6.53.22.12.7-.06,1.09,0,2.13.31,7.43-1.43,9.81-2.18Z"/>
  <path class="cls-5" d="M69.74,105.87l-1.09,2.17c2.89-.05,5.83.11,8.72.01-4.34,1.88-12.28,4.19-16.87,4.41-1.19.06-3.04.59-2.74-1.12,2.67-.31,4.51-1.64,6.53-3.29,4.05-3.3,2.61-.94,5.45-2.18Z"/>
  <path class="cls-21" d="M338.91,73.15c16.21-2.85,32.79-.13,49.03.01l-31.6,2.17c.61-3.29-1.67-2.11-3.76-2.18-4.54-.15-9.14.02-13.68,0Z"/>
  <path class="cls-7" d="M321.47,86.23c-.87-3.97,4.3-1.52,6.86-2.22.82-.22.76-1.97,1.54-2.1,1.3-.23,8.73-.36,9.04-.03.15.16.21,4.36,0,4.36h-17.44Z"/>
  <path class="cls-20" d="M251.73,116.77c-.61-3.29,1.67-2.11,3.76-2.18,2.21-.07,13.21.51,13.68.01.75-.79-2.4-6.38,4.66-4.33,2.73.8,7.39,5.57,12,4.27,10.42-2.95,10.92-.79,21.48.05-18.37,2.01-37.14,1.22-55.58,2.18Z"/>
  <path class="cls-22" d="M175.45,99.32c1.69-.41,23.26-.31,24.39.13,2.11.83,1.37,3.63,1.91,4.06,1.64,1.3,7.42-1.91,6.38,2.34-4.79,2.18-8.78-2.01-10.28-2.26-4.39-.74-22.72,1.16-24.58.08-.5-.29,1.94-4.3,2.17-4.36Z"/>
  <path class="cls-10" d="M149.29,125.5c-10.68,1.96-21.85,3.73-32.69,4.36-.61-3.47,1.75-1.91,3.81-2.13,9.88-1.04,18.39-1.41,28.88-2.23Z"/>
  <path class="cls-22" d="M443.53,108.05c.15.16.15,4.19,0,4.35-.46.49-11.11,1.47-11.97-2.75-.52-2.54,11.54-2.05,11.97-1.6Z"/>
  <path class="cls-22" d="M156.92,102.59c1.75-.02,7.39,2.3,10.38,1.09l1.61,2.18c-4.21-.77-8.34.06-12.56.03-2.08-.01-4.4,1.01-3.78-2.21,1.06-.1,2.46-1.07,4.36-1.09Z"/>
  <path class="cls-10" d="M114.42,129.86c-4.92,1.86-10.08,1.92-15.26,2.18-.62-3.51,1.77-1.83,3.8-2.15,5.13-.8,8.14.12,11.46-.04Z"/>
  <path class="cls-10" d="M52.3,129.86c-6.88,2.71-5.63,2.42-13.08,4.36,3.87-2.38,8.46-4.39,13.08-4.36Z"/>
  <path class="cls-10" d="M44.67,140.77l-13.08,2.18c.24-.69-.67-1.85.68-2.23,2.43-.69,9.05.25,12.39.05Z"/>
  <path class="cls-10" d="M38.13,134.22c.75,3.63-1.79,1.45-3.49,2.24-2.21,1.02-3.24,3.65-8.5,2.13,3.84-1.19,7.64-3.17,11.99-4.36Z"/>
  <path class="cls-10" d="M56.66,138.59c-2.93,1.68-6.5,1.96-9.81,2.18-1.09-3.63,6.37-2.08,9.81-2.18Z"/>
  <path class="cls-11" d="M142.75,145.13c91.74-22.74,208.16-33.63,302.41-24,7.51.77,4.23,3.5.54,8.73-1.51,2.14-1.14,2.01-2.41,4.1-.43.7-2.49.78-3.56,2.48-.41.66-3.84,7.49-2.75,8.68-.15.18-.93-.18-1.09,0-.98,1.11-2.19,1.75-2.91,2.6-.68.8-.22,2.69-.37,2.85-1.86,1.86-5.54-5.02-6.52-3.26-.53.95.48,6.06,0,6.54-1.37,1.37-33.72-2.12-38.65-2.23-14.55-.31-30.22,4.36-45.94,2.31-35.71-4.65-73.93-1.54-109.9-.05-26.81,1.11-51.16-6.02-77.18-2.17-.79.12-.35,1.87-2.37,2.23-5.26.93-4.95-2.06-5.71-2.23-5.35-1.22-8.79-1.14-7.95,4.32,2.46.09,9.74-1.49,8.71,2.17h-8.72c-.1-.7.11-1.49,0-2.17-4.32-.16-13.64.89-16.89,0-2.23-.61,2.12-4.25,2.44-4.31,3.3-.58,6.95.54,10.36-.33.63-.16,8.82-4.35,8.44-6.27Z"/>
  <path class="cls-11" d="M152.56,158.22c-.6-4.08,8.12-1.71,11.24-2.21.49-.08,3.84-6.63,5.11,2.21h-16.35Z"/>
  <path class="cls-11" d="M124.23,158.23c1.46,3.34-11.55,2.64-12,2.17-.15-.16-.15-4.19,0-4.35,1.77-1.83,9.42,2.75,12,2.18Z"/>
  <rect class="cls-19" x="356.35" y="171.31" width="17.44" height="2.18"/>
  <path class="cls-11" d="M99.16,160.41c1.14,1.16-.25,4.99-3.11,3.09-3.66-2.43,1.67-4.56,3.11-3.09Z"/>
  <path class="cls-19" d="M234.29,180.03c5.33-.1,5.92-4.08,8.13-4.43,4.79-.75,11.75.94,16.46.15,1.98-.33,1.54-2.12,2.34-2.23,9.2-1.28,16.71,3.42,23.82,2.22,2.09-.35.74-2.13,4.18-2.37,5.19-.35,8.38,2.65,12.09,2.4,30.55-2.06,62.09,2.57,90.68-2.25,6.74-1.14,14.01-.42,16.67,6.51.2.52-.17,1.54,0,2.18,1.05,4.02,8.17,5.54,12.53,5.54,3.07,0,6.09-1.7,9.26-1.18l-2.19,13.08c-3.12-.37-2.14-2.33-6.24-2.97-14.11-2.19-54.6-5.36-67.08-1.38-.54.17-.63,1.94-1.54,2.14-3.23.71-7.55-1.15-10.69,1.09-.63-5.79,5.25-.85,4.91-5.42-4.79-2.18-8.78,2.01-10.28,2.26-7.32,1.23-22.81,0-31.13-.08s-17.42.57-25.61,0c-2.71-.19-11.56-5.03-11.44,0-1.09-.04-2.18.03-3.27,0,.61-3.3-1.67-2.1-3.76-2.18-15.98-.63-31.27.97-46.04-2.14-6.9-1.45-7.8,2.05-9.52,2.22-11.73,1.19-21.95-2.7-31.13-2.27-.3,3.75-2.47,2.86-5.44.54,1.16-1.1,3.81-.46,5.44-.54.06-.72-.04-1.46,0-2.18.36-.03.73.04,1.09,0,2.43-.3,5.15.23,7.62-.01l-2.17-2.17c.71-.08,1.46.05,2.18,0,9.35-.6,13.04-2.87,20.38-4.32,2.45-.48,5.39.2,7.94-.03.83,4.49-4.12.7-4.34,1.09-2.74,4.64,8.29,3.71,8.71,3.28,1.77-1.8-5.2-9.38,10.07-6.48,1.63.31,8.98,10.19,7.36-.07-7.46.13-3.27-4.44,0-2.18.18.13-.1,1.53,0,2.18Z"/>
  <rect class="cls-11" x="90.45" y="162.59" width="2.17" height="1.07"/>
  <polygon class="cls-11" points="94.26 163.67 94.8 164.22 94.26 164.76 94.26 163.67"/>
  <path class="cls-13" d="M306.22,195.3v2.18c-12.34-.39-24.72-1.76-37.05-2.18-.12-5.02,8.72-.18,11.44,0,8.19.56,17.28-.08,25.61,0Z"/>
  <path class="cls-13" d="M312.76,197.48c4.54.08,9.13-.18,13.68,0,2.09.08,4.37-1.12,3.76,2.18-5.48-.16-12.17-.76-17.44-2.18Z"/>
  <path class="cls-13" d="M333.46,199.66c2.45-.18,5.71,1.25,5.5-2.11.94.93,7.15,1.77,6.49,4.29-3.93-.63-8.47-.81-11.99-2.18Z"/>
  <path class="cls-13" d="M445.71,129.86c-1.63,5.12-5.32,11.19-8.72,15.27-1.09-1.2,2.33-8.03,2.75-8.68,1.07-1.7,3.13-1.79,3.56-2.48,1.28-2.1.9-1.96,2.41-4.1Z"/>
  <path class="cls-5" d="M87.17,105.87c-1.24.97-3.99,1.99-5.45,2.18-.81-3.6,2.61-1.81,5.45-2.18Z"/>
  <path class="cls-13" d="M175.45,188.76c-.04.72.06,1.46,0,2.18-1.63.08-4.28-.56-5.44.54,2.97,2.32,5.14,3.21,5.44-.54,9.17-.44,19.39,3.46,31.13,2.27,1.72-.17,2.62-3.67,9.52-2.22,14.78,3.11,30.06,1.51,46.04,2.14,2.09.08,4.37-1.12,3.76,2.18-20.53-.62-41.05-1.57-61.63-1.14l-52.79,2.22,23.97-7.62Z"/>
  <path class="cls-13" d="M181.98,186.58l2.17,2.17c-2.47.24-5.19-.28-7.62.01,1.38-1.44,3.55-1.96,5.45-2.18Z"/>
  <path class="cls-7" d="M96.97,100.43c-.49,1.05-8.38,1.79-6.52-1.1l6.52,1.1Z"/>
</svg>