<?xml version="1.0" encoding="UTF-8"?>
<svg id="Vrstva_1" data-name="Vrstva 1" xmlns="http://www.w3.org/2000/svg" viewBox="0 0 943.64 301.75">
  <defs>
    <style>
      .cls-1 {
        fill: #727473;
      }

      .cls-2 {
        fill: #1e1e1e;
      }

      .cls-3 {
        fill: #1f1f1f;
      }

      .cls-4 {
        fill: #e01c09;
      }

      .cls-5 {
        fill: #030303;
      }

      .cls-6 {
        fill: #1a1b1a;
      }

      .cls-7 {
        fill: #1a1a1a;
      }

      .cls-8 {
        fill: #222223;
      }

      .cls-9 {
        fill: #d92211;
      }

      .cls-10 {
        fill: #141416;
      }

      .cls-11 {
        fill: #040404;
      }

      .cls-12 {
        fill: #1c1d1d;
      }
    </style>
  </defs>
  <path class="cls-10" d="M943.57,81.93c.9.91-7.15,23.29-8.63,23.84l-56.84,1.11-25.95,67.97h-28.48l23.98-68.94h-218.32l-17.49,44.96h104.41l5.5-12.99h-57.95c.42-2.01,4.95-19.98,6-19.98h87.93c-7.63,17.33-11.61,51.22-33.15,56.27l-138.76.24c-7.21-1.78-8.73-5.73-7.69-12.8,1.38-9.34,18.45-52.66,23.25-62.68,3.11-6.5,12.22-17,19.97-17h322.23Z"/>
  <path class="cls-4" d="M155.23,204.83c17.3-30.37,37.4-59.15,54.94-89.44,16.37-1.99,34.3.99,50.51-.45,23.29-2.07,29.75-22.89,42.1-38.83l60.28-.16c1.84,1.98-25.34,41.7-28.67,45.69-24.8,29.65-61.99,30.8-98.07,29.4-9.4,18.46-23.13,34.98-32.12,53.79h-48.96Z"/>
  <path class="cls-5" d="M196.19,75.94l-24.98,39.45c-74.49-.78-150.02,41.48-164.86,118.41-2.76,3.08-5.71-13.1-5.86-14.61-5.89-58.72,43.25-111.72,94.83-131.73,33.35-12.94,65.59-12.3,100.87-11.52Z"/>
  <path class="cls-11" d="M191.2,127.9c-11,16.6-20.53,35.24-31.95,51.47-8.17,11.62-10.02,12.25-23.79,16.17-34.98,9.95-75.73,10.3-106.11,31.27,7.26-23.36,34.96-29.49,54.61-38.8,18.11-8.58,37.73-16.57,52.28-30.66l-48.44-.46c-1.69.69-2.03-1.47-1.5-2.01s11.59-6.35,13.31-7.18c27.38-13.17,61.7-16.33,91.6-19.8Z"/>
  <polygon class="cls-9" points="757.73 174.85 820.16 116.89 821.64 118.36 799.69 174.85 757.73 174.85"/>
  <path class="cls-8" d="M926.58,188.84c.06,2.12-.46,7.06-2.64,7.85-5.84,2.12-23.48-1.41-30.83.15-1.72.36-2.8,1.01-2.51,2.99h28.48c3.39,0,4.01,7.61,2.74,10.74-1.26,3.09-8.79,7.25-11.73,7.25h-32.97c-2.17,0-1-7.12,1.13-7.87,5.01-1.74,22.76.65,29.86-.13,1.9-.21,5.25-.33,4.49-3h-29.48c-.6,0-3.33-3.26-3.52-4.55-.96-6.53,6.48-13.43,12.51-13.43h34.47Z"/>
  <path class="cls-3" d="M726.75,188.84c.06,2.12-.46,7.06-2.64,7.85-6,2.18-24.27-1.45-31.83.15-1.72.36-2.8,1.01-2.51,2.99h28.48c6.61,0,6.58,13.35-4.29,16.7-4.56,1.4-35.95,2.2-38.18.28-.23-.2,1.12-5.51,1.49-6,1.98-2.64,27.66.13,32.98-.99,1.72-.36,2.8-1.01,2.51-2.99h-29.48c-.64,0-3.29-3.26-3.51-4.55-1.26-7.3,7.08-13.43,13.5-13.43h33.47Z"/>
  <path class="cls-3" d="M823.67,196.84h-31.97c-.16,0-.23,2.27-1,3h25.98l-2.66,7.04c-6.88.91-17.45-1.39-23.81-.04-1.72.36-2.8,1.01-2.51,2.99h30.97l-2,7.99h-39.47c-.31,0-1.77-1.48-1.35-2.29l9.34-26.68h38.97l1.45,1.57-1.95,6.43Z"/>
  <path class="cls-12" d="M623.84,189.85l-8.96,27.57-8.02.4,4.5-17.96-20.02,11.95-12.45-11.97-5.11,16.87-8.89.1,8.1-26.86c.46-.36,10.82-.35,11.68.11.68.36,6.67,11,9.84,11.7,9.49-4.32,18.41-15.34,29.33-11.91Z"/>
  <path class="cls-7" d="M859.64,216.81c-.94-.84,3.17-5.14-1.25-7.25-2.71-1.29-21.78-1.26-23.5.49-3.04,3.1,3.15,8.9-10.23,6.75l8.14-26.83c11.09.95,25.73-1.76,36.37-.2,6.4.94,6.77,7.13,3.9,12-.88,1.5-5.21,4.59-5.21,5.52,0,1.39,3.42,4.87.25,9.54-.61.9-8.15.27-8.48-.03ZM838.66,201.83c.85.88,21.09,0,24.48,0,1.97,0,3.64-6,1-6h-23.98c-1.46,0-2,5.48-1.5,6Z"/>
  <path class="cls-2" d="M670.79,216.81c-2.4-.4-8.37.82-10.06-.42-1.55-1.14-.23-4.23-1.49-4.63-1.53-.48-20.87-.07-22.4.58-1.92.82-3.39,4.64-6.76,5.32-2.34.47-5.62-.7-8.26-.35.06-1.89,14.49-14.91,16.98-16.99,1.77-1.47,11.23-9.62,12.02-9.96,1.99-.85,10.08-1.21,11.48.47.88,1.05,9.5,25.09,8.48,25.99ZM656.81,204.82l-2.51-6.98-8.47,6.49,10.98.49Z"/>
  <rect class="cls-1" x="468.97" width="2" height="301.75"/>
  <path class="cls-6" d="M731.75,196.84c.03-3.15,1.09-7.28,4.71-7.8l41.26.8-1.15,6.85-18.73.25c-.8.62-4.24,16.78-5.98,19.28-1.03,1.47-6.99.19-9.1.59l5.99-19.98h-16.99Z"/>
</svg>