<?xml version="1.0" encoding="UTF-8"?>
<svg id="Vrstva_1" data-name="Vrstva 1" xmlns="http://www.w3.org/2000/svg" viewBox="0 0 881.27 226.89">
  <defs>
    <style>
      .cls-1 {
        fill: #080808;
      }

      .cls-2 {
        fill: #050505;
      }

      .cls-3 {
        fill: #060606;
      }

      .cls-4 {
        fill: #282828;
      }

      .cls-5 {
        fill: #fefefe;
      }

      .cls-6 {
        fill: #040404;
      }

      .cls-7 {
        fill: #070707;
      }
    </style>
  </defs>
  <path class="cls-6" d="M55.95,127.89c.9,4.07,10.96,11.86,11.98,14.5s-3.37.39-2.98,2.47c9.06,1.56,17.59,6.51,26.97,6-6.8-6.76-15.59-12.28-21.49-19.97-.77-1-1.94-1.27-1.49-3,14.71,0,30.71-.4,45.16-3.3,19.52-3.92,36.35-17.31,54.07-25.86,78.54-37.91,169.83-49.23,256.46-49.77.58,2.31-.45,1.65-1.26,2.28-16.4,12.85-36.93,23.3-53.43,36.44-59.76,2.86-119.98,9.98-176.9,28.93-17.41,5.8-49.05,22.27-65.66,22.27h-22.48c5.99,10.02,14.55,19.52,23.5,26.95,2.21,1.83,9.51,4.78,3.07,4.94L0,127.89h55.95ZM63.94,142.89h-2.99v.98h2.99v-.98Z"/>
  <path class="cls-6" d="M342.71,110.91l-3.48,6-70.07,75.69c-28.21-1.88-56.74-2.5-84.52-8.05-23.42-4.68-39.35-11.51-56.14-28.79-1.88-1.93-11.6-11.8-9.6-13.88l20.27-.82c6.65,5.66,13.59,12.38,20.97,17.03,15.83,9.96,55.79,12.18,75.12,12.8,4.73.15,12.77,1.05,16.08-1.99l25.43-31.01c-34.79,3.53-69.53,9.3-102.61,20.78l-15.28-9.82,1.05-2.43c58.4-22.63,120.16-33.3,182.79-35.52Z"/>
  <path class="cls-2" d="M656.45,63.95c2.19,2.17-16.58,42.13-17.87,48.37-37.55,1.39-75.75.16-113.55.63-13.91-1.41-23.35-6.62-18.92-21.99,2.44-8.46,12.82-34.61,17.26-41.69,7.48-11.91,24.07-12.43,36.62-14.34l108.45.05-6.65,18.02-96.8-.08c-4.41.38-10.77,1.83-13.85,5.13-1.91,2.05-11.73,25.37-12.36,28.62-1.3,6.73,2.37,7.75,8.23,8.29l68.32-.21,5.15-13.81-29.97.99c-.73-.65,5.94-16.3,7.49-17.98h58.45Z"/>
  <path class="cls-3" d="M820.32,34.97c1.14,1.15-4.67,15.52-5.61,18.05l-55.93.84-23.39,59.04h-30.97l22.98-59.95h-55.95c.02-6.2,4.95-11.74,5-17.99h143.88Z"/>
  <path class="cls-1" d="M881.27,130.89l-4.13,13.86-63.33.12c-3.3.65-3.2,6.96-4.49,10h62.95c-.09,2.52-1.37,11.09-3.63,11.85l-62.7.08-2.61,10.05h63.95l-3,13.99h-84.93l17.99-59.95h83.93Z"/>
  <path class="cls-1" d="M578.52,130.89l-4.09,13.89-64.24.04-2.61,10.05h62.95l-4.66,12.03-60.8-.06c-3.51.66-3.43,7.05-4.48,10h63.95c-.88,4.59-2.26,10.06-4.5,13.99h-82.43l17.99-59.95h82.93Z"/>
  <polygon class="cls-7" points="790.34 130.89 785.68 144.92 749.33 145.34 735.39 190.84 716.4 190.84 729.39 144.88 695.42 144.88 698.42 130.89 790.34 130.89"/>
  <polygon class="cls-1" points="606.49 130.89 593.51 176.85 651.46 176.85 647.46 190.84 569.53 190.84 587.51 130.89 606.49 130.89"/>
  <path class="cls-7" d="M691.42,130.89c-2.32,6.14-16.33,59.95-19.48,59.95h-17.49l17.99-59.95h18.98Z"/>
  <path class="cls-4" d="M440.63,0v226.81c-2.31.12-1.78.36-2-1.48-.37-3.15-.93-7.93-1.04-10.97-.65-17.62,1.07-37.87,1.09-56.04.05-47.64,1.49-97.02,0-144.87-.12-3.95-3.8-12.75,1.96-13.45Z"/>
  <rect class="cls-5" x="60.95" y="142.89" width="2.99" height=".98"/>
</svg>