<?xml version="1.0" encoding="UTF-8"?>
<svg id="Vrstva_1" data-name="Vrstva 1" xmlns="http://www.w3.org/2000/svg" viewBox="0 0 974.15 975.96">
  <defs>
    <style>
      .cls-1 {
        fill: #060303;
      }

      .cls-2 {
        fill: #727075;
      }

      .cls-3 {
        fill: #808185;
      }

      .cls-4 {
        fill: #b51c22;
      }

      .cls-5 {
        fill: #9f1b21;
      }

      .cls-6 {
        fill: #572026;
      }

      .cls-7 {
        fill: #2c2b2e;
      }

      .cls-8 {
        fill: #f3f4f4;
      }

      .cls-9 {
        fill: #76222a;
      }

      .cls-10 {
        fill: #bfc1c5;
      }

      .cls-11 {
        fill: #e9eaec;
      }

      .cls-12 {
        fill: #d6d7db;
      }

      .cls-13 {
        fill: #94969b;
      }

      .cls-14 {
        fill: #fb656e;
      }

      .cls-15 {
        fill: #adaeb3;
      }

      .cls-16 {
        fill: #fb4750;
      }

      .cls-17 {
        fill: #424043;
      }

      .cls-18 {
        fill: #d9dadd;
      }

      .cls-19 {
        fill: #95161d;
      }

      .cls-20 {
        fill: #88898f;
      }

      .cls-21 {
        fill: #641219;
      }

      .cls-22 {
        fill: #be1d23;
      }

      .cls-23 {
        fill: #dcdee1;
      }

      .cls-24 {
        fill: #616266;
      }

      .cls-25 {
        fill: #b5b6bb;
      }

      .cls-26 {
        fill: #cdced2;
      }

      .cls-27 {
        fill: #f6222d;
      }

      .cls-28 {
        fill: #fefefe;
      }

      .cls-29 {
        fill: #c6c8cb;
      }

      .cls-30 {
        fill: #ef242f;
      }
    </style>
  </defs>
  <path class="cls-7" d="M39.84,926.35c-.33,1.26-1.55,6.88-1.75,7.19-.33.52-2,.39-2.62.86-.47.36-6.85,8.12-7.48,8.98-1.56,2.16-2.21,5.07-2.98,6.33-.35.57-5.07,3.92-5.55,4.61-.81,1.17-.5,2.5-1.07,3.45-1.49,2.47-4.35,1.75-4.54,1.94-.28.28.21,1.84-.07,2.57s-2.85,2.67-2.41,5.11c-.09,1.84,5.67-1.5,6.07-2,.25-.31-.38-1.37-.2-1.52,1.64-1.36,5.14-2.55,7.06-4.71,3.47-3.89,7.37-5.15,12.28-8.44v1.63c-1.69,1.27-3.83,3.76-5.76,5.22-8.12,6.11-16.6,11.76-24.33,18.36H0l38.22-48.79.81-.81h.81Z"/>
  <path class="cls-1" d="M926.16,79.88c.04.06,1.08-.16,1.35.29,1.89,3.17,2.39,4.39,3.97,7.81,1.9,4.12,6.73,3.34,10.5,3.34l2.07-2.49c.03.81-.03,1.62,0,2.43.15,3.9-1.08,2.72-1.53,3.92-7.99,21.17-20.77,42.49-35.41,59.53-.94,1.09-1.83,2.59-2.09,4.04-9.08,6.91-18.22,13.94-27.65,20.33-12.49,8.46-25.87,15.97-38.34,24.5-.85.58-2.75,1.86-2.31,3.15,1.01.86,21.2-10.1,23.83-11.53,5.68-3.07,12.25-6.57,17.66-9.99,1.23-.78,2.51-.91,2.41-2.87,4.95-.76,11.16-5.34,15.72-8.27,9.21-5.92,19.91-16.1,28.73-20.87,1.02-.55,2.76-1.78,3.53-.13-.1.1.24,1.01-.24,1.41-.62.52-2.02.07-2.21.22-.13.1.92,1.57.5,3.24-1.61,6.36-6.7,14.53-9.62,20.58-14.52,30.1-33.66,60.63-54.3,86.76-2.27,2.87-9.74,8.49-12.94,11.08-.31.25-3.45,2.81-2.09,3.57,10.42-3.61,19.15-10.83,28.04-17.09-.29,1.94-9.29,16.41-11.11,19.34-14.28,22.98-38.79,55.79-59.45,74.13-2.44,2.17-6.25,4.95-9.12,6.56l.4,1.61c2.16.1,4.36-.16,6.52,0,1.21.09,2.35-.63,2.01,1.21l-11.92,12.07c-21.55,25.5-48.48,50.78-76.95,67.79-.77.46-3.31.65-4.61,1.88l.39,1.61h6.09c2.61,2.54-10.92,10.23-12.38,11.42-30.47,24.95-60.71,44.51-95.63,60.03-10.36,4.6-21.21,8.23-31.76,12.39-1.34,2.05,2.08,3.49,3.75,3.79,6.77,1.2,14.59-1.85,20.55,2.63-6.04,2.91-11.66,5-17.89,7.32-4.04-1-7.16.84-10.35,1.44-14.26,2.68-29,5.9-43.73,6.68-11.5.61-23.93.08-35.36-.81-1.19,4.07,1.65,5.53,2.81,8.18.54,1.22.21,2.59.7,3.79.44,1.07,4.46,1.93,2.99,5.1-12.05.79-23.87-1.85-35.46-4.85-4.18-.32-2.57,1.36-3.88,2.92-5.11,6.08-14.77,25.7-19.11,33.5-21.51,38.73-41.27,78.46-70.05,113.55-2.21,2.7-13.98,15.53-16.27,16.92-.87.53-1.2.86-2.41.58,1.81-7.86.28-15.13-1.64-22.76-2.76-1.82-5.8,6.87-7.05,8.75-2.87,4.33-6.96,8.79-10,12.99-17.98,24.81-38.13,48.38-61.39,69.4-1.14.94-2.53-.21-3.68-.07-.63-2.2,1.35-4.45,1.63-5.69l3.3-1.33c.47-5.38,3.03-11.42,4.91-16.73,1.62-4.56,3.38-10.03,5.01-14.65.98-2.78,3.56-5.44,3.04-8.76-2.08-.35-3.28.16-5.05,1.06-3.56,1.81-9.92,9.16-13.46,11.9-58.94,45.7-118.44,91.17-176,136.69-12.07,9.54-24.64,21.09-36.85,30.02-2.04,1.49-5.6,2.4-5.89,2.65s-.54,2.27-1.75,3.53c-2.93,3.07-9.39,7.64-13.07,10.11-4.92,3.29-8.81,4.55-12.28,8.44-1.92,2.16-5.42,3.35-7.06,4.71-.18.15.46,1.21.2,1.52-.41.49-6.17,3.83-6.07,2-.44-2.44,2.13-4.37,2.41-5.11s-.21-2.29.07-2.57c.18-.19,3.05.53,4.54-1.94.57-.95.26-2.28,1.07-3.45.48-.7,5.2-4.04,5.55-4.61.77-1.26,1.42-4.18,2.98-6.33.63-.86,7.01-8.62,7.48-8.98.62-.47,2.29-.35,2.62-.86.2-.31,1.42-5.94,1.75-7.19.12-.44-.09-1.1,0-1.62.52.05,1.16-.11,1.62,0,.16.03.69,1.19,1.62.81.13-.49-.15-1.36,0-1.63,1.2-2.05,6.61-8.76,8.46-11.09,2.09-2.63,6.96-4.62,6.19-8.42l3.18-.06c-.68-5.35,3.11-4.19,4.66-6.72s3.14-6.55,5.6-8.67c1.67-1.44,3.65.22,2.8-4.08h3.26c-1.54-5.45,4.16-6.61,5.74-9.3s-.74-4.35,3.98-3.73c-.98-3.75,2.41-4.01,3.07-5.06,10.81-17.18,24.95-33.55,37.89-50.39,5.16-6.72,10.76-15.59,15.97-21.98,1.78-2.18,5.72-2.78,4.94-7.08l3.23-.03v-4.89s3.24,0,3.24,0c-.25-1.96,1.97-5.89,3.23-7.52.69-.9,6.15-5.28,6.3-5.68.48-1.31-.06-3.29.35-3.77.28-.32,2.05.04,2.74-.88.56-.74.32-2.32.83-3.27.57-1.06,5.46-7.25,6.89-9.33,1.24-1.8,4.49-4.55,4.89-6.53.24-1.21.04-1.41-1.14-1.15-3.54.79-9.76,3.78-13.31,5.37s-6.69,3.93-10.5,5.4c-1.97.76-1.62.74-4.56,1.38-.71.15-2.08,3.04-2.81,3.2-1.32.29-2.64-.26-4.09.27-.27.1-3.4,3.8-3.46,4.62-4.05.65.88-6.38,1.68-7.49,2.14-2.93,6.99-6.12,9.38-9.07,7.62-9.43,15.03-20.89,22.28-31.04.49-.68,1.89-.85,2.23-1.39.53-.84.12-2.43.94-3.52,1.18-1.55,3.89-.93,4.13-1.17.35-.35-.33-3.19.26-4.65.14-.35,4.28-3.43,4.43-3.67,1.83-2.96,3.41-7.27,5.21-10.47,1.5-2.67,3.29-4.31,4.69-7.84,4.73-11.93,7.37-23.15,11.87-35.14,3.26-8.69,5.21-12.58,12.88-17.61,1.37-.9,6.27-2.91,7.59-3.79,7.06-4.7,14.06-11.17,21.15-16.24,1.11-.79,6.55-5.83,6.98-6.02,1.02-.45,2.78-.05,3-.27.27-.27.51-3.96,3.54-6.21,7.61-5.68,12.32-11,19.6-17.84.43-.41,1.68-.14,2.16-.81.9-1.25.46-3.17.75-4.38.1-.08.78.11,1.38-.26,1.78-1.09,2.01-3.43,2.69-4.62,2.87-1.71,2.37-2.22,4.07-4.88,3.24-5.09,6.7-10.65,4.72-17.33-.62-2.1-2.76-1.83-3.1-2.19-15.07-16.11-22.71-24.28-44.3-32.54-26.29-10.06-42.94-7.45-64.67,10.98-4.56,3.86-7.29,9.07-11.7,12.58-13.36-14.54-5.59-31.76,3.73-45.76,25.01-37.58,68.53-85.31,109.07-105.6,20.17-10.09,44.12-16.13,65.6-23.44,11.91-4.05,14.88-10.25,23.82-17.66,29.98-24.86,71.33-41.08,103.57-65.55,3.54-2.68,7.85-7.93,12.04-10.33,3.64-2.08,7.65-1.73,11-4.04.26-.06.56.06.81,0l-15.44,18.7c.37.34,8.42-2.44,9.71-2.88,5.57-1.91,10.87-4.8,16.3-6.87,4.89-1.87,9.86-3.82,14.64-5.69,9.18-3.59,18.49-6.85,27.65-10.57,3.27-1.33,6.49-2.75,9.76-4.07l2.44-1.63,2.44-.81c8.41-1.85,15.82-6.35,23.58-9.76s20.27-6.39,25.08-13.55c1.23-1.82,2.26-5.22,3.38-6.78,1.89-2.66,29.61-13.79,35.1-16.36,38.05-17.86,75.43-37.44,111.18-58.9,2.28-1.37,4.48-2.04,5.78-2.79l.81-.81c.46-.26,1.54-.73,1.63-.81-.54,2,1.87,1.64,2.3,2.96.5,1.5-.21,2.82.9,4.82.94,1.7,4.44,4.59,6.6,3.29,9.97-5.99,19.99-11.95,29.85-18.13,5.68-3.56,11.54-7.88,17.27-11.64,5.51-3.61,17.06-9.42,21.14-13.01,2.25,1.1,5.02-.76,6.51,1.63-.26.18-.48.58-.81.81l-2.44-.42-.8,1.22,1.62.83c-43.79,30.54-87.5,59.53-133.22,86.11-3.99,2.32-9.54,3.68-12.33,7.4-3.91,1.78-7.93,3.91-11.38,6.51-7.62-.11-10.3,10.13-13.08,14.81-4.52,7.63-9.63,15.78-14.57,23.41-2.26,3.49-6.6,7.92-8.45,12.7l-20.81,29.19c-.18,1.2-.09,1.45,1.16,1.16,4.17-.96,11.57-4.93,15.97-6.81,1.21-.52,2.69-.6,3.19-2.09.26-.05.55.04.81,0,4.93-.66,12.89-5.8,18.58-7.88,1.17-.43,2.9.35,2.56-1.88,8.4-2.06,18.87-9.22,26.68-12.92,47.92-22.71,97.27-47.2,138.8-80.58,13.12-10.55,36.74-32.22,42.68-47.98,2.59.38,2.8-3.8,3.25-5.69.44-.16.88.36,1.69-.52,2.09-2.26,8.95-16.15,10.83-19.9,2.03-4.04,9.16-22.97,10.25-24.31,2.08-2.56.79-1.59,1.63-3.25.06-.13,2.25.35,1.63-1.63ZM883.88,205.1c.95-1.42,3.22-3.98,4.64-5.13l2.68-7.06c-1.38-1.31-9.48,4.88-11.12,5.98-.35.23-.17,1.26-.26,1.33-8.35,6.02-22.67,12.86-32.16,18.7-1.07.66-2.37.71-1.99,2.44-5.02,1.01-15.16,8.13-20.44,10.87-12.34,6.42-24.8,12.68-37.28,18.83-6.3,3.1-45.37,20.22-47.18,22.34l-13.97,4.97c-3.14,2.63-7.99,4.39-11.96,6.13-1.09.48-2.85-.25-2.52,1.91-13.75,3.65-28.54,13.44-42.2,18.38-6.4,10.84-13.89,21.04-22.04,29.59-10.77,11.3-22.79,22.22-34.68,32.33-.96.81-.98,1.38-2.72,1.02l2.48.45c49.07-16.75,99.56-33.22,146.61-55.06,57.38-26.63,89.39-56.09,124.12-108.03ZM669.21,216.49c-64.55,35.44-135.43,63.66-202.21,94.99-34.66,16.26-68.82,30.29-94.82,59.68-23.25,7.9-46.8,14.5-69.7,23.4-22.7,8.83-31.44,14.99-49.6,30.9-12.18,10.67-23.65,22.17-34.6,34.17-.63,1.27,3.72,9.38,4.95,10.52.72.66.92,1.41,2.02.47,9.39-13.33,22.18-24.01,32.51-36.22.41-.49,1.01-.79,1.63-1.63s2.1-2.45,2.44-3.25l30.9-22.76c.78.77-7.58,9.43-8.47,10.63-2.37,3.2-7.62,11.21-7.82,14.97-.07,1.33.74,2,1.64,1.23.26-.22,2.58-4.49,3.67-5.69,12.7-14.16,28.14-22.23,46.14-27.85,19.98-6.24,44.3-7.1,59.99-21.32,4.22-3.83,9.1-10.96,13-14.24,1.45-1.22,1.64.93,2.44-3.25.05-.26-.06-.56,0-.81,1.69,1.23,1.94.75,3.25,0,1.69-.97,2.03-2.27,3.25-3.25,1.42-1.14,3.75-3.24,4.88-4.07,1-.73,2.67-.87,3.25-2.44,53.87-22.86,108.02-45.45,161.81-68.3,9.69-4.12,20.96-9.41,30.68-12.82,1.12-.39,3.29-1.61,4.28-.6-13.52,8.31-28,14.86-42.01,22.23-1.38.73-2.53,2.06-3.52,2.58-24.56,12.93-49.51,26.43-74,39.03-20.32,10.46-44.36,19.51-63.68,31.05-7.32,4.37-6.89,5.29-11.13,12.05-6.44,10.29-12.07,21.07-17.89,31.71l-2.44,4.88-.81,1.63-23.58,35.78c-3.43.96-6.78,7.55-8.94,9.76-1,1.03-3.34,3.04-4.85,4.51-2.57,2.51-6.44,4.91-8.98,7.69-.07-.03-.92.06-1.63,0,3.82-5.54,6.17-11.05,8.94-17.08,2.37-5.16,17.74-41.58,15.45-43.91-36.22-.89-74.06,11.71-99.21,38.22-1.7,1.79-2.11,2.68-3.25,4.07-.94,1.13-1.16,1.84-1.63,2.44-4.39,5.74-4.88,8.62-8.13,13.82-2.13,3.4-10.24,10.49-13.82,13.82-.8.74-2.04,1.59-2.43,2.43,4.95,1.54,10.92,4.35,16.1,4.71,5.61.38,12.41-2.05,18.04-.62-3.94,3.87-11.55,3.16-15.45,7.3,6.7-.66,13.27,1.25,19.89,1.67,5.31.34,11.37-.88,16.7-.04,5.74.91,19.29,5.97,23.58,9.76.82.72,2.35,2.34,3.25,3.25.8.81,3.89,3.82,4.07,4.07,1.37,1.9,6.21,12.33,6.51,14.64,1.66,13.07-6.1,24.56-11.38,35.78l-2.43.41c2.31-4.51,3.17-10,3.25-15.05.02-1.49.68-9-2.47-6.94-.81.53-8.9,13.8-10.68,16.15-8.85,11.66-20.24,24.74-30.76,34.7-5.18,4.91-12.05,9.87-17.89,15.45-.28.26-1.22-.25-2.44,1.63-.33.5-.53,1.1-.81,1.63-.8-.23-2.15.24-2.86.77-4.72,4.47-9.86,8.75-15.1,12.58-6.06,4.43-18.38,10.8-22.96,15.08-.78.73-.44,1.49-.55,1.66-5.44,7.57-7.42,17.51-10.76,26.24-1.87,4.88-4.28,9.61-6.31,14.42,1.53.35,1.93-.86,2.84-1.62,11.11-9.21,21.14-19.9,31.3-30.09,7.35-7.37,14.05-14.3,21.14-21.95,8.38-9.04,16.17-18.52,24.39-27.65.96-1.06,6.07-6.67,6.49-6.93,2.22-1.35,1.67.78,1.64,2.05-2,.3-1.94,2.65-2.44,3.25-1.79,2.16-2.64,3.78-4.07,5.69-3.67,4.9-7.62,9.78-11.38,14.64-3.78,4.88-7.95,9.49-11.38,14.64-3.39,1.33-7.43,8.82-9.76,11.38-2.19,2.41-4.92,4.85-7.32,7.32-6.89,7.11-14.18,14.03-21.14,21.14-10.8,11.03-21.92,21.85-32.53,33.34-1.45,1.57-15.18,14.89-13.82,16.26,6.6-3.03,12.23-8.51,17.88-13.01,11.93-9.48,23.31-19.48,34.96-29.27,4.67-3.92,10.76-8.06,15.07-12.17,2.48-2.37,1.69-2.26,5.26-4.91,3.04-2.25,5.37-4.93,8.13-7.32,4.23-3.65,9.77-6.38,13.01-11.38l2.03-.78c1.28-1.62,2.97-2.76,4.47-4.1,4.95-4.42,9.16-8.27,13.82-13.01,7.68-7.81,14.92-16,21.95-24.39h3.25c-22.56,42.39-46.95,84.41-74.81,123.6-2.33,3.27-6.34,7.09-8.56,10.55-.69,1.08-1.61,1.61-1.19,3.28,6.41-3.69,11.58-9.03,17.07-13.82,13.13-11.47,25.92-23.74,37.38-37.02,17.36-20.11,32.14-42.25,47.59-63.81,1.12.56-.01,2.19-.26,2.99-4.8,15.59-16.29,35.97-24.23,50.58-1.35,2.49-4.82,5.37-3.98,8.22,29.09-26.62,54.03-57.67,74.38-91.5l1.66.05,1.62,9.32c.75.11,1.03.09,1.64-.39,1.49-1.16,8.64-14.66,10.16-17.48,6.58-12.22,12.41-24.91,17.44-37.85-5.35-2.25-11.53-3.32-16.72-5.97-.3-.15-2.66-1.62-2.77-1.74-1.11-1.18-2.24-3.21-2.44-4.88,1.44-3.67,3.58-3.92,7.12-4.67,14.57-3.07,31.49-3.19,46.69-6.16,25.58-4.99,48.43-15.08,68.96-31.05-5.53-.69-11.23,1.29-16.77,1.93-24.37,2.84-48.95,4.68-73.48,4.17-3.34-.07-7.91.92-10.57-1.22,2.94-.52,5.97-.81,8.94-1.22,1.43-.2,2.79-.65,4.07-.81,1.05-.13,2.21.13,3.25,0,23.39-2.89,47.79-5.36,70.74-10.57,14.67-3.33,24.23-7.86,37.14-15.31,13.18-7.61,25.74-16.6,36.86-26.97-1.46-.05-2.92-.08-4.37.09-21.43,2.47-45.08,8.61-66.91,11.96-17.24,2.65-35.18,5.65-52.31,7.45-3.43.36-8.31.73-11.76.85-.9.03-3.09.51-2.87-.84,8.45-1.28,16.82-3.29,25.2-4.89,19.45-3.72,52.03-7.76,69.12-16.26,13.24-2.26,23.57-8.19,34.41-15.6,16.6-11.35,33.08-26.27,47.48-40.34.82-.8,2.3-.8,1.86-2.6-37.94,12.32-76.09,24.14-114.95,33.44-9.56,2.29-20.15,5.38-29.78,5.58l22.76-8.12c21.81-7.1,44.08-13.94,65.22-22.84.85-.36,1.46-2.76,4.71-1.56,0-.54.01-1.08,0-1.62,16.97-3.08,29.73-15.44,41.9-26.81,14.89-13.93,28.49-29.37,41.85-44.74-50.08,19.44-100.52,37.6-152.06,52.85v-2.44c13.06-4.6,25.48-10.21,38.22-15.45,15.73-6.47,31.1-13.58,46.35-20.33.49-.22,1.3-.31,2.44-.81.23-.1.59.1.81,0,6.4-2.86,17.32-5.91,22.4-10.53,4.61-4.19,11.17-13.55,15.33-18.82,25.75-32.69,47.98-68.06,72.04-101.98.25-1.11-.06-1.53-1.19-1.19-5.69,1.7-16.02,9.08-21.87,12.32-.73.4-1.11,1.37-1.32,1.49ZM843.22,281.54l-.41,1.62c.57-.32.37-.79.41-.81.78-.38,2.32-.14,2.44-1.62l-2.44.81ZM840.78,283.98c-1.47-1-1.52-.71-3.01-.2-4.66,1.62-16.27,8.59-21.12,11.44-1.47.86-3.54,1.83-4.34,3.38,8.55-3.19,18.5-7.44,26.2-12.41.63-.41,2.53-1.42,2.26-2.22.18.18.83-.12.81-.41-.06-.89-1.2.02-.81.41ZM812.32,318.94c2-.36,4.77-4.54,5.67-6.12.83-1.43,3.09-5.95-.4-4.49-1.46.61-6.12,2.17-6.08,4.1-.27,0-.55-.02-.81,0-4.86.28-2.4.85-3.25,1.63-3.58,3.29-40.82,17.59-48.22,20.49-37.25,14.6-75.42,26.71-113.77,38.12-8.77,7.85-16.94,16.62-25.85,24.33-10.95,9.49-23.24,17.6-34.31,26.89-.55.47-3.22,2.21-1.87,3.2,35.85-9.66,72.27-17.83,107.72-28.89,13.94-4.35,28.67-9.05,42.06-14.86,3.05-1.32,7.56-3.59,9.99-5.86.26-.04.55.04.81,0,4.6-.7,27.18-15.91,29.27-19.52,3.42-1.24,4.09-2.91,6.51-4.88,8.35-6.8,27.97-25.02,32.53-34.15ZM746.46,395.38c-.55.24-1.48.41-2.44.81-30.65,12.81-66.12,22.32-98.21,31.48-11.25,3.21-31.82,6.36-40.53,12.74-6.47,4.74-12.66,11.03-19.82,15.95-.49.33-1.14.48-1.63.81-8.01,5.44-16.94,11.23-25.21,16.26-1.07.65-4,1.38-5.94,2.6-2.42,1.51-4.65,3.57-7.06,5.13,3.49.56,7.43.66,10.96.39,13.6-1.06,27.02-5.19,40.48-6.68l16.04-4.69c12.7-1.2,33.83-8.84,46.31-13.46,6.73-2.49,14.47-5.38,20.37-9.31h.81c2.22-.03,7.6-2.84,8.94-4.88,8.11-1.71,20.19-10.97,26.4-15.44,9.92-7.13,21.74-15.99,29.7-25.22,2.33-.84,8.97-7.39,9.75-9.36,1.07-2.7-6.72,1.06-7.54,1.44s-1.27,1.37-1.4,1.42ZM264.26,436.85c-1.06-.91-8.67,6.36-8.85,7.08-.53,2.08,1.93,2.64,2.34,4.72.65,3.29.48,7.09-2.67,8.75-7.32,3.85-2.54-5.89-6.25-8.35-1.66,3.82-7,6.18-6.52,10.9.43,4.25,5.27,6,8.97,5.8,13.78-.75,15.36-18.48,12.97-28.9ZM187.83,510.84c9.05-7.49,21.89-11.35,33.12-14.45l22.98-3.45c-3.28-2.74-8.33-3.25-12.37-5.11s-9.24-5.14-12.01-8.32c-1.78-2.04-6.16-11.85-9.26-10.91-6.67,9.97-13.71,19.66-19.24,30.25-.63,1.21-.73-.19-1.6,3.04-1.74-.37-1.79.91-2.42,2.01-1.49,2.55-2.83,5.26-4.17,7.89-.65,1.27-3.08,2.26-1.13,5.54,1.57-2.6,3.62-3.3,5.8-5.17.39-.33.2-1.25.3-1.33ZM655.39,471.81c-.81.25-1.65.59-2.44.81-11.55,3.21-23.69,4.74-34.96,8.94-13.44,1.54-27.53,5.92-41.17,8.02-10.51,1.61-22.03,1.88-32.22,3.56-4.34.72-13.97,9.14-18.49,12-.93.59-1.43,1.5-1.63,1.63s-.62-.12-.81,0c-4.47,2.79-21.15,10.84-23.58,13.82l-10.73,3.34-12.04,6.41c3.88-.2,7.91.32,11.77,0,6.66-.55,13.81-2.34,20.43-3.15,3.61-.45,7.89.89,10.89-1.71,31.1-2.24,77.41-13.26,104.79-28.16,3.91-2.13,28.66-18.12,29.38-20.63,4.61.13,5.94-5.12,9.75-6.51-.28-1.42-5.95-.21-6.88.06-1.76.52-1.93,1.54-2.05,1.57ZM406.57,610.04c-4.92,6.02-10.9,12.74-15.45,18.7-.78,1.02-1.21,1.89-1.63,2.44-3.89,1.95-4.46,2.86-6.51,6.51-14.7,7.88-40.25,36.44-54.47,49.21-10.41,9.35-21.09,18.55-31.71,27.65-10.29,8.81-23.59,17.8-32.97,27.22-.82.82-1.17,1.21-1.19,2.44-1.56-.06-1.39.1-2.44.81-5.57,3.76-10.91,8.51-16.24,12.66-.78.61-.74,1.89-.84,1.97-9.3,7.22-20.25,13.14-28.46,21.95l-2.44,1.63c-.87.19-1.2,1.29-1.63,1.63-6.77,5.35-13.63,10.94-20.33,16.26-3,2.39-6.29,5.2-8.94,7.32s-5.51,4.42-8.13,6.51c-.15.12-1.53.26-3.25,1.63-13.27,10.55-27.97,20.68-40.66,31.71.01-.88-.65-1.72-.81-2.44-.1-.45.05-1.09,0-1.63,1.34-.41,1.7-1.57,2.44-2.44,4.02-4.75,7.5-9.83,11.38-14.64,16.26-20.13,31.92-40.47,47.16-60.99,2.95-3.98,5.99-8.09,8.94-12.2.05-.07,1.13.2,1.66-.55,1.43-2.02,6.01-8.23,6.47-10.02,3.54-4.24,8.61-9.6,11.24-14.38,2.39-4.35.41-5.95,5.02-8.39.24-.13,1.11.27,1.5-.13s0-1.31.12-1.5c.32-.48.49-1.26.81-1.63,3.81-4.37,7.11-9.15,10.57-13.82.41-.55,1.89-1.32,2.78-2.5,1.84-2.46,3.49-5.16,4.54-8.06-5.26-.09-8.78,4.99-12.2,8.12-2.69,2.46-6.21,4.99-8.13,8.13-.87,1.43-1.46,2.28-1.63,4.07-.62,0-1.25-.06-1.85.17-3.09,1.21-15.51,19.45-18.48,23.41-3.25,4.33-6.53,8.66-9.76,13.01-2.22,2.99-4.25,5.91-6.51,8.94-15.51,20.88-31.21,43.19-47.16,64.24-4.43,5.84-8.66,12.22-13.01,17.89-.12.15-1.22.85-2.44,2.44-.83,1.08-1.62,2.19-2.44,3.25-4.46,5.77-9.3,12.17-13.82,17.89-1.75,2.21-3.4,4.65-4.88,6.51-4.76,5.97-10.44,12.56-15.45,18.7-.83,1.02-2.84,2.26-4.04,3.68-9.5,11.22.26,3.53,5.09-.43.75-.61.52-1.58.59-1.63,14.21-11.7,29.95-22.78,43.1-35.78.93-.92,1.45-1.12,2.44-2.44.22-.29.59-.51.81-.81.85-.09,3.61-1.8,4.47-2.44,13.06-9.74,28.93-23.09,40.71-34.12,1.2-1.12,3.41-.51,3.6-3.28,3.41.1,5.71-3.83,8.13-5.69,9.86-7.59,19.9-15.52,29.27-22.77,7.02-5.43,15.06-9.52,21.14-16.26,1.98.63,1.51-1.54,1.63-1.63,49.96-35.67,95.9-71.59,138.69-116.26.66-.69,1.08-1.49,1.18-2.45l1.62.41c-4.84,13.95-12.66,27.44-18.29,41.07-.54,1.31-1.08,2.86-1.47,4.23-.22.77-1.35,2.44.22,2.26,16.78-23.37,30.18-48.77,44.89-73.43,12.19-20.43,25.72-40.34,36.44-61.54-1.05-.63-6.25-1.42-6.51-1.64-.09-.08.44-1.12-.52-1.69-.85-.5-4.38-2.04-5.11-1.51l-26.9,54.43ZM233.78,743.4v.81c.53-.27.53-.54,0-.81Z"/>
  <path class="cls-21" d="M966.82.19l-.02,1.08c-1.91.81-1.83,1.8-1.6,3.8h-3.26s0,3.25,0,3.25c-.26.24-2.18,3.11-3.25,4.07-4.25,3.78-8.68,7.74-13.01,11.38-17.98,15.15-37.23,29.9-56.11,43.91-7.73,5.73-15.71,11.5-23.58,17.08-9.01,6.38-18.17,11.88-26.65,17.63-2.37,1.61-7.06,6.23-9.13,6.77-.77.2-1.76-.25-3.02.25-1.8.71-3.59,7-8.37,4.63v3.27c-1.07.05-2.17-.07-3.25,0-5,.29-2.69,1.34-5.14,2.99-1.23.83-3.67,2.5-4.88,3.25-.85.53-5.15,1.63-5.99,2.15-.41.25-3.63,3.66-3.51,4.62-1.08.06-2.18-.06-3.26,0v3.27c-4.58-2.48-6.81,4.09-8.32,4.63s-2.96,0-4.48.48c-.71.22-1.7,2.89-1.83,3.01-.09.08-1.17.55-1.63.81-.34.19-.56.67-.81.81-1.3.75-3.49,1.42-5.78,2.79-35.76,21.47-73.13,41.04-111.18,58.9-5.48,2.57-33.2,13.71-35.1,16.36-3.12-1.75-6.67,3.15-7.08,3.23-1.78.38-4.06-.19-5.94.01v3.27c-1.89.18-4.08-.34-5.91.03-.71.14-2.1,3.04-2.81,3.19-1.2.26-2.58-.22-3.73.04-.63.14-.49,1.47-1.11,1.61-1.22.27-2.66-.27-3.79,0-.86.2-.46,1.6-.53,1.64-4.54,2.31-12.6,4.62-18.02,6.75-3.37,1.32-7.7,2.42-10.44,4.63-3.08.8-5.98,2.21-8.94,3.25-.69.24-1.24.68-1.63.81l-2.44.81c-9.13,3.12-18.4,6.18-27.65,8.94-3.02.9-5.9,1.64-8.94,2.44-3.57.94-7.18,2.48-10.57,3.25-.26.06-.55-.06-.81,0-.49.11-2.87-.27-4.39.08-1.64.37-2.72,1.86-4.55,1.54l.81-4.87c2.96-2.51,5.42-5.76,8.72-7.95,91.14-26.93,177.34-63.46,257.92-113.68C829.75,98.06,894.74,50.7,957.09.63c3.07-.79,6.56-.49,9.72-.44Z"/>
  <path class="cls-9" d="M966.82.19c1.84.03,7.45-.94,7.32,1.21-9.37,42.65-19.48,85.93-41.48,124.01l-18.7,26.43c.75,1.3,1.82-.3,2.52-.74,3.96-2.47,6.89-5.12,10.49-7.81,4.7-3.51,9.38-7.68,14.62-10.17-16.59,43.13-37.8,85.06-66.65,121.18-.62,1.5.95,1.39,1.98,1.16,3.04-.67,6.47-4.09,9.01-4.82,3.19-.92-.79,3.25-1.11,3.78-10.7,17.98-20.6,36.37-32.67,53.52-12.22,17.37-26.57,35.42-42.26,49.62l4.86,2.01c-.81-.19-1.07.09-1.53.69-14.03,18.74-32.73,38.53-50.08,54.63-12.14,11.28-25.26,22.98-40.27,30.07l4.87,1.21c-40.88,37.27-88.08,69.22-140.66,87.43l6.09,1.62h16.67v.8c-2.47.91-4.95,2.12-7.32,3.26-5.96-4.47-13.77-1.43-20.55-2.63-1.68-.3-5.09-1.74-3.75-3.79,10.54-4.16,21.39-7.79,31.76-12.39,34.92-15.51,65.16-35.08,95.63-60.03,1.46-1.19,14.99-8.88,12.38-11.42h-6.09s-.39-1.61-.39-1.61c1.3-1.24,3.84-1.42,4.61-1.88,28.47-17.01,55.4-42.29,76.95-67.79l11.92-12.07c.34-1.84-.81-1.12-2.01-1.21-2.15-.16-4.36.11-6.52,0l-.4-1.61c2.86-1.61,6.68-4.4,9.12-6.56,20.67-18.34,45.17-51.15,59.45-74.13,1.82-2.93,10.82-17.4,11.11-19.34.1-.64-.07-1.36,0-2.02l-1.61-.4c-.73,3.41-5.13,3.91-7.88,5.14-.21.1-3.3,4.02-3.52-.27,20.65-26.13,39.78-56.67,54.3-86.76,2.92-6.05,8.01-14.22,9.62-20.58.42-1.67-.63-3.14-.5-3.24.19-.15,1.59.3,2.21-.22.47-.4.14-1.31.24-1.41.19-.2,2.88.52,1.51-3.54-3.97-4.63-4.44,3.3-8.82,1.92v3.26c-3.41,1.05-2.42-1.64-4.88-1.63v3.25s-6.47.05-6.47.05l-.05,3.21-4.88-.82c.26-1.45,1.15-2.94,2.09-4.04,14.64-17.05,27.43-38.36,35.41-59.53.45-1.2,1.68-.03,1.53-3.92,2.96.24,1.28-4.02,1.66-5.92.13-.63,2.88-2.12,2.98-2.41.53-1.49-.04-2.82.25-4.12.14-.62,1.44-.48,1.59-1.12.35-1.45.35-8.5.97-9.11l2.19-.16c3.02-9.42,4.5-18.89,6.63-28.63.14-.65,1.19.25,1.61-3,.91-6.88,3.35-14.4,4.89-21.4.33-1.48,1.12-4.18,1.63-6.51.07-.3,3.13-2.21,1.61-5.44-.8-.77-4.07.91-4.88,1.63-.63.56-2.11,2.2-3.25,3.25v-3.26s3.25,0,3.25,0c-.22-2-.31-2.99,1.6-3.8l.02-1.08Z"/>
  <path class="cls-6" d="M293.54,566.13c-1.69,2.66-1.19,3.17-4.07,4.88-.67,1.19-.91,3.53-2.69,4.62-.6.37-1.28.18-1.38.26-.3,1.21.14,3.12-.75,4.38-.48.67-1.73.41-2.16.81-7.28,6.84-11.98,12.16-19.6,17.84-3.02,2.26-3.27,5.94-3.54,6.21-.22.22-1.98-.18-3,.27-.43.19-5.87,5.23-6.98,6.02-7.1,5.06-14.09,11.54-21.15,16.24-1.32.88-6.22,2.89-7.59,3.79-7.68,5.03-9.62,8.92-12.88,17.61-4.5,11.98-7.14,23.2-11.87,35.14-1.4,3.53-3.19,5.18-4.69,7.84-1.8,3.2-3.38,7.51-5.21,10.47-.15.24-4.29,3.32-4.43,3.67-.59,1.46.09,4.3-.26,4.65-.24.24-2.95-.38-4.13,1.17-.82,1.08-.41,2.68-.94,3.52-.34.54-1.74.71-2.23,1.39-7.26,10.14-14.67,21.61-22.28,31.04-2.38,2.95-7.24,6.14-9.38,9.07-.8,1.1-5.73,8.14-1.68,7.49.06-.83,3.19-4.53,3.46-4.62,1.45-.52,2.78.02,4.09-.27.73-.16,2.09-3.04,2.81-3.2,2.94-.64,2.59-.62,4.56-1.38,3.8-1.47,6.96-3.82,10.5-5.4s9.78-4.58,13.31-5.37c1.18-.26,1.39-.06,1.14,1.15-.4,1.98-3.65,4.73-4.89,6.53-1.43,2.08-6.32,8.27-6.89,9.33-.51.95-.27,2.53-.83,3.27-.69.92-2.47.56-2.74.88-.41.48.13,2.46-.35,3.77-.14.4-5.6,4.79-6.3,5.68-1.26,1.63-3.48,5.57-3.23,7.52h-3.26s.01,4.89.01,4.89l-3.23.03c.79,4.3-3.16,4.9-4.94,7.08-5.21,6.39-10.81,15.26-15.97,21.98-12.94,16.83-27.07,33.21-37.89,50.39-.66,1.05-4.06,1.31-3.07,5.06-4.72-.62-2.4,1.04-3.98,3.73s-7.28,3.85-5.74,9.31h-3.26c.84,4.29-1.14,2.63-2.8,4.07-2.46,2.12-4.11,6.25-5.6,8.67s-5.35,1.36-4.66,6.72l-3.18.06c.77,3.8-4.1,5.79-6.19,8.42-1.85,2.33-7.26,9.04-8.46,11.09h-1.63c42.75-56.16,87.36-111.15,128.86-168.34l.42-2.42c-.64-.08-1.23,0-1.87.15-11.75,2.78-26.71,15.23-38.16,16.33-1.01.1-1.62,1.57-1.43-.62,7.9-8.63,15.52-17.67,22.75-26.86,1.54-1.96,2.63-4.41,4.08-6.27,8.77-11.24,25.66-29.62,32.04-41.36,3.07-5.64,6.58-16.46,8.84-22.87,4.24-12.03,7.7-24.41,11.08-36.71,23.4-12.62,44.6-29.46,64.33-47.26,4.76-4.29,7.74-7.97,13-11.8,1.04-4.26.79-2.93,4.07-4.88.94-1.66,2.88-4.03,3.25-4.88h.81ZM171.98,751.53v.81c.53-.27.53-.54,0-.81Z"/>
  <path class="cls-9" d="M36.59,950.75c3.68-2.46,10.14-7.03,13.07-10.11,1.2-1.26,1.47-3.3,1.75-3.53s3.86-1.15,5.89-2.65c12.21-8.93,24.78-20.48,36.85-30.02,57.56-45.52,117.06-91,176-136.69,3.54-2.74,9.9-10.09,13.46-11.9,1.77-.9,2.98-1.41,5.05-1.06.52,3.31-2.05,5.97-3.04,8.76-1.63,4.62-3.39,10.09-5.01,14.65-1.89,5.31-4.44,11.35-4.91,16.73l-3.3,1.33c2.23-10.23,8.03-20.99,9.57-29.87.2-1.15.98-3-1.02-2.64-4.3,3.75-8.58,7.82-13.04,11.36-76.07,60.43-153.73,118.86-231.32,177.28v-1.63Z"/>
  <path class="cls-9" d="M495.2,262.02l-.81,4.87c1.83.32,2.91-1.17,4.55-1.54,1.52-.35,3.9.03,4.39-.08-3.35,2.31-7.36,1.96-11,4.04-4.19,2.4-8.51,7.64-12.04,10.33-32.24,24.47-73.59,40.69-103.57,65.55-8.94,7.41-11.91,13.61-23.82,17.66,14.48-14.04,29.87-27.96,46.91-38.87,34.5-22.1,62.95-34.47,95.39-61.95Z"/>
  <path class="cls-18" d="M932.67,125.42c.17,1.48-.86,4.92-1.63,5.93s-1.98.25-2.46,1.1c-.74,1.31-.4,4.11-1.06,5.74-.27.67-4.35,3.04-4.59,4.72l4.05.4c-3.6,2.69-6.53,5.34-10.49,7.81-.69.43-1.76,2.04-2.52.74l18.7-26.43Z"/>
  <path class="cls-9" d="M295.17,546.62c.34.36,2.47.09,3.1,2.19,1.98,6.67-1.48,12.24-4.72,17.33h-.81c2.32-5.33,2.59-13.75,2.44-19.52Z"/>
  <path class="cls-7" d="M43.1,923.91c-.16.27.13,1.14,0,1.63-.93.37-1.46-.78-1.62-.81v-.81h1.63Z"/>
  <path class="cls-9" d="M584.64,546.62c-.38.14-1.11,1.07-2.17,1.45-26.78,9.49-54.23,10.45-82.39,10.76l8.94,15.44c-14.43.4-28.93-.55-42.98-3.99-24.23,42.82-45.97,88.91-75.07,128.66-11.75,16.05-24.51,32.19-40.92,43.64,1.11-7.81,2.24-16.72.83-24.37-24.29,34.88-51.61,68.21-85.39,94.32l2.85-9.15c.35-.69,1.78-1.34,2.44-1.42,1.15-.14,2.54,1.01,3.68.07,23.26-21.02,43.41-44.59,61.39-69.4,3.04-4.2,7.13-8.65,10-12.99,1.24-1.88,4.28-10.57,7.05-8.75,1.93,7.64,3.45,14.9,1.64,22.76,1.21.28,1.54-.05,2.41-.58,2.29-1.39,14.05-14.23,16.27-16.92,28.78-35.09,48.54-74.82,70.05-113.55,4.33-7.8,14-27.42,19.11-33.5,1.31-1.56-.3-3.24,3.88-2.92,11.6,3,23.41,5.64,35.46,4.85,1.47-3.18-2.56-4.03-2.99-5.1-.49-1.2-.16-2.58-.7-3.79-1.17-2.65-4-4.1-2.81-8.18,11.43.89,23.87,1.42,35.36.81,14.74-.78,29.48-3.99,43.73-6.68,3.19-.6,6.31-2.44,10.35-1.44Z"/>
  <path class="cls-6" d="M38.22,927.17l.81-.81-.81.81Z"/>
  <path class="cls-22" d="M910.71,94.52c.42-.2,2.02.37,2.35-.07.37-.48-.17-1.89.13-2.53.43-.9,2.26-1.05,1.59-3.11l1.61.83c0-.94-.57-1.79-.52-2.74.12-2.37,2.86-3.02,3.78-2.14,1.43,1.37-1.58,2.8-1.61,2.97-1.23,7.34-3.74,10.61-6.24,16.8-2.38,5.9-5.76,10.88-8.33,16.67-1.82,4.09-2.18,3.51-3.32,8.27-.33.12-1.05-.32-1.51.14-.2.2-.02,1.29-.43,1.95-.21.35-1.11.4-1.28.96-.28.9.15,2.15-.03,2.64-5.95,15.76-29.56,37.44-42.68,47.98-41.53,33.38-90.88,57.87-138.8,80.58-7.81,3.7-18.28,10.86-26.68,12.92-2.72.67-2.35.17-5.15,1.35-4.42,1.87-8.74,3.9-12.49,5.14-2.54.84-4.11-1.89-3.5,3.26-.27.04-.55-.05-.81,0-2.44.46-5.88.83-8.33,1.69-.77.27-1.01,2.6-3.86,1.57-1.42-5.12,1.6-4.65,2.98-6.77,4.35-6.66,8.96-12.75,13.2-19.94.27-.46-.09-1.66.34-2.31.95-1.44,3.86-2.51,4.62-5.13,1.72.34,2.8-.38,4.22-1.05,7.92-3.77,15.05-9.15,22.49-13.48,16.43-9.57,31.3-18.12,47.32-28.12,2.41-1.5,7.96-3.06,8.9-6.14,1.84-.02,2.55-.53,4.09-1.19,5.18-2.22,11.8-8.33,17.05-11.01l51.48-31.87,10.32-7.98c6.55-1.8,51.97-33.4,56.46-39.08,2.43-3.08,11.25-20.43,12.66-21.09Z"/>
  <path class="cls-20" d="M396,544.99c.11.12,2.47,1.59,2.77,1.74,5.19,2.65,11.37,3.71,16.72,5.97-5.03,12.93-10.86,25.63-17.44,37.85-1.52,2.83-8.67,16.32-10.16,17.48-.61.47-.89.49-1.64.39l-1.62-9.32-1.66-.05c-20.35,33.83-45.3,64.87-74.38,91.5-.84-2.84,2.63-5.73,3.98-8.22,7.94-14.61,19.43-34.99,24.23-50.58.25-.81,1.38-2.43.26-2.99-15.45,21.55-30.23,43.7-47.59,63.81-11.46,13.27-24.26,25.55-37.38,37.02-2.86-1.43-5,1.53-7.32,0,27.86-39.18,52.25-81.21,74.81-123.6.33-.61,1.92-1.46,2.44-2.44.51-.08,1.2.13,1.63,0v2.04c4.62.15,5.11-4.24,7.7-6.14,15.34-11.23,28.98-30.62,46.57-38.02.96-.4,2.32.05,3.36-.27l1.02-3.86c7.46.81,5.65-.89,8.84-4.58,2.45-2.84,4.91-3.45,4.88-7.72Z"/>
  <path class="cls-4" d="M882.25,200.22c.18-.07,1.99-2.93,3.25-1.62,1.58,1.64-2.92,4.4-1.62,6.5-34.74,51.93-66.74,81.39-124.12,108.03-47.05,21.83-97.54,38.3-146.61,55.06l-2.48-.45c1.74.36,1.76-.2,2.72-1.02,11.89-10.11,23.91-21.03,34.68-32.33,1.45.58,2.28.72,3.8.22,16.79-5.6,34.51-15.08,50.52-22.09,46-20.13,95.62-42.31,136.97-70.03,17.87-11.98,21.33-19.17,34.76-34.13.52-.58,3.78-2.45,4.91-3.62,1.32-1.37,2.61-2.64,3.23-4.51Z"/>
  <path class="cls-8" d="M494.39,418.96l-22.76,8.12c9.63-.2,20.22-3.29,29.78-5.58,38.86-9.3,77-21.12,114.95-33.44.44,1.8-1.05,1.8-1.86,2.6-14.4,14.07-30.88,28.99-47.48,40.34-10.84,7.41-21.17,13.34-34.41,15.6,19.11-9.52,45.02-27.44,60.59-42.31.48-.46,4.26-3.74,1.61-3.25-13.3,2.43-29.14,8.97-42.67,12.64-21.27,5.77-42.79,11.01-64.48,15.02-4.02,4.79-8.64,15.64-13.59,18.71-4.02,2.49-10.98,3.03-15.82,3.29-16.09.85-61.64,2.3-75.51-.86-.6-.14-.46-1.33-1.1-1.54-.32-.1-5.14,1.32-5.96,1.55l23.58-35.78c.43,1.23.35,3.48,1.62,3.25.1-1.98,1.73-4.06-.8-4.87l2.44-4.88c3.15.51,3.7-.22,4.08-3.25,1.89-1.04,4.16,2.44,4.46,2.44h81.31c.68,0,1.92-1.23,3.9-.82.23.05,2.07,2.75,3.83,2.44-.26.41-.44,1.04-.81,1.63l-4.06.83c-.42,1.77.45,1.56,1.62,2.43-1.04,1.65-2.03,3.77-2.44,5.69ZM407.39,405.95c-.2,1.49-.05,2.38,1.22,3.23l-.42-3.23h-.8ZM406.97,409.2v.81c.53-.27.53-.54,0-.81ZM398.43,419.77v-1.62h-.8v1.62h.8ZM400.87,420.58v-1.62h-.8v1.62h.8Z"/>
  <path class="cls-13" d="M579.77,282.35l7.03-10.45c16-9.15,32.66-17.14,48.81-26,11.15-6.12,21.9-13.69,33.59-18.44-8.25,14.01-17.24,27.63-26.48,41-9.31,13.46-19.51,28.15-29.63,40.93-9.99,12.61-13.12,15.52-27.1,23.54-1.09.63-2.6.26-2.15,2.28-.23.1-.59-.1-.81,0l-2.44.81c-15.25,6.75-30.62,13.86-46.35,20.33.83-5.79,5.58-11.34,8.5-16.33.53-.9.28-2.1.44-2.37.54-.92,2.13-1.7,2.98-3.12,7.95-13.41,15.78-26.99,23.04-40.78.99-.52,2.14-1.85,3.52-2.58,14.02-7.37,28.5-13.92,42.01-22.23-.99-1.01-3.16.21-4.28.6-9.72,3.41-20.99,8.7-30.68,12.82Z"/>
  <path class="cls-27" d="M845.66,221.37c8.85-1.79,16.55-9.58,24.95-13.28.21-.09,3.28-4.03,3.51.27-13.43,14.96-16.89,22.15-34.76,34.13-41.35,27.72-90.97,49.9-136.97,70.03-16.01,7.01-33.73,16.48-50.52,22.09-1.52.51-2.35.37-3.8-.22,8.15-8.56,15.64-18.75,22.04-29.59,13.66-4.95,28.45-14.73,42.2-18.38,10.99-2.92,16.07-6.8,25.86-11.34.7-.32,2.2.19,2.59-.06.24-.15-.16-1.4.01-1.61,1.81-2.13,40.88-19.24,47.18-22.34,12.48-6.15,24.94-12.41,37.28-18.83,5.27-2.74,15.41-9.86,20.44-10.87Z"/>
  <path class="cls-18" d="M669.21,216.49c.22-.12.59-1.09,1.32-1.49,5.85-3.24,16.18-10.62,21.87-12.32,1.14-.34,1.45.08,1.19,1.19-24.06,33.92-46.29,69.29-72.04,101.98-4.15,5.27-10.72,14.64-15.33,18.82-5.08,4.62-16,7.68-22.4,10.53-.45-2.02,1.06-1.66,2.15-2.28,13.98-8.02,17.11-10.93,27.1-23.54,10.12-12.78,20.33-27.47,29.63-40.93,9.25-13.37,18.23-26.99,26.48-41-11.69,4.76-22.44,12.33-33.59,18.44-16.15,8.86-32.81,16.85-48.81,26l-7.03,10.45c-53.79,22.85-107.94,45.44-161.81,68.3l-2.06-2.46c3.67-1.36,2.96-3.96,2.87-7.3,48.2-25.39,99.69-45.02,149-68.52,30.72-14.64,61-31.66,91.7-45.33-1.64-2.96,7.14-5.82,9.76-6.5l-.74-2.06.73-2Z"/>
  <path class="cls-13" d="M500.08,408.39c8.24-12.84,16.53-26.02,25.26-38.57,34.27-11.01,68.55-22.14,102.01-35.41,2.87-.86-.17,3.3-.82,4.06-11.13,13.25-34.86,35.54-48.94,45.38-1.88,1.31-13.74,7.8-13.9,8.64-.04.19.62.36.62.44.01.54,0,1.08,0,1.62-3.25-1.2-3.86,1.2-4.71,1.56-21.14,8.91-43.41,15.74-65.22,22.84.41-1.92,1.4-4.05,2.44-5.69.44-.7,1.52-1.82,2.44-3.25.38-.59.55-1.22.81-1.63Z"/>
  <path class="cls-8" d="M276.47,449.04c25.14-26.51,62.99-39.11,99.21-38.22,2.29,2.33-13.08,38.75-15.45,43.91l-2.03-2.45-.4,3.27c-2.93-.48-5.67.66-8.51.84-22.33,1.42-50.68.79-73.26,0-1.55-.05-3.08.08-4.43-.85.46-.6.69-1.31,1.63-2.44.87,2.29,3.65,2.22,4.88.39l-1.63-4.45Z"/>
  <path class="cls-27" d="M807.44,314.06h3.25c-.29,4.2-1.54,2.23-2.98,3.51-32.67,29.13-66.46,42.47-106.6,56.59l-82.32,25.27c-.06-.91-.57-1.14.81-2.44,8.9-7.72,17.08-16.48,25.85-24.33,38.35-11.41,76.52-23.51,113.77-38.12,7.4-2.9,44.64-17.2,48.22-20.49Z"/>
  <path class="cls-23" d="M495.2,332.76l1.62,3.25-5.69,1.62,6.04.85.95-1.66,1.54.68c.93-2.59,3.57-1.09,6.13-1.87,2.08-.64,6.54-3.67,6.95-3.69,5.45-.26,18.76,1.93,25.23,2.37,1.26.09,2.32-.75,3.56-.75l-1.61,2.85,3.25,1.21c-.16.27.08,1.47-.44,2.37-2.92,4.99-7.68,10.54-8.5,16.33-12.73,5.24-25.15,10.85-38.22,15.45-5.07,1.78-10.36,3.19-15.45,4.88l.81-5.69-6.49,2.43c-.74-4.98-8.41-3.13-12.61-3.25-3.71-.11-6.22.03-9.73.04-8.41.03-16.9.3-25.25-.01l-1.34,6.34-5.56-.67c4.23-6.76,3.8-7.67,11.13-12.05,19.32-11.54,43.36-20.59,63.68-31.05Z"/>
  <path class="cls-13" d="M474.06,447.42c4.95-3.07,9.57-13.92,13.59-18.71,21.7-4.01,43.21-9.25,64.48-15.02,13.53-3.67,29.37-10.21,42.67-12.64,2.65-.48-1.13,2.79-1.61,3.25-15.57,14.87-41.47,32.79-60.59,42.31-17.08,8.51-49.67,12.55-69.12,16.26v-.81l3.75-3.57,6.82-11.07Z"/>
  <path class="cls-4" d="M811.51,312.44c1.35.04,2.71-.04,4.06,0,.52,2.1-2.67,2.44-3.21,3.88-.32.84.15,2.24-.04,2.62-4.56,9.13-24.17,27.35-32.53,34.15-3.87-1.94-3.64.89-4.88,2.66-.66.95-.75.71-1.63,2.22-4.9,1.78-3.07,1.91-5.06,3.07-1.02.59-4.35.06-5.8,1.73-1.12,1.29-.2,2.67-.53,3.35-.05.1-1.32-.63-2.23-.27-.52.2-7.81,4.69-8.89,5.4-.71.47-1.78,2.77-2.48,2.95-2.95.77-5-1.88-4.29,3.29-.26.04-.55-.04-.81,0-3.54.53-4.83,1.29-6.25,1.61-5.45,1.23-4.32,1.76-8.93,3.54-2.45.94-5.35,2.09-8.14,3.25-.28.12-.3,1.21-.84,1.34-2.29.55-4.57-.93-6.93-.65-3.4.4-5.07,4.66-9.32,5.45-1.51.28-.83-1.42-1.58-1.57-1.43-.3-2.97.68-4.36.86l2.43.81c-2.41,3.63-5.89.33-8.49-.05-2.94-.43-13,1.69-14.91,3.48-.39.37-.18,1.66-.62,2.2-.63.77-1.7.71-2.49,1.22-.35.22-.38,1.26-.8,1.31-1.85.21-2.63-1.67-3.98-1.69-.5-.01-.31,1.57-.93,1.7-1.55.32-5.86-1.23-8.86-.88-3.61.42-8.25.84-11.6,1.34-2.77.41-4.58,2.49-6.32,2.76-2.78.43-8.47-.84-11.73-.01-1.07-.87,2.48-3.39,3.23-3.26l-.39-1.61-6.1,1.64.81,3.24c-2.34.95-2.35-1.47-2.98-1.61-1.4-.3-2.9.23-4.3-.07-.19-.78.02-1.59-.04-2.38l82.32-25.27c40.14-14.12,73.93-27.46,106.6-56.59,1.45-1.29,2.69.68,2.98-3.51.04-.54-.02-1.09,0-1.63.27-.02.55,0,.81,0ZM649.69,393.75h-2.43v3.25h2.43v-3.25ZM668.39,393.75h-5.69s0,3.24,0,3.24l4.9-.38.79-2.86Z"/>
  <path class="cls-12" d="M263.46,469.37c-.45,2.01,1.54,2.19,2.9,2.36,4.88.61,10.4-.26,15.38.09,16.64,1.16,34.39,3.09,51.27,1.65,6.44-.55,10.93-2.26,18.26-1.66.71.06,1.55-.03,1.63,0,3.12,1.48,3.41,4.51,8.51,4.91,24.27,1.94,52.92-.75,77.31-1.62,3.41-.12,8.02.27,10.57.06,1.26-.11,1.43-2.84,5.25-.91-1.39,2.13-4.52,5.72-6.51,7.32-.71.58-3.12,0-2.44,3.25-1.04,1.02-3.12,2.28-3.25,2.44-1.76-3.81-4.21-.19-6.05-.08-9.68.55-21.09,1.4-30.94.96-2.32-.1-3.83-1.88-6.5-1.75-10.13.47-21.26,2.6-31.73,2.58-20.78-.04-53.88,1.4-73.32-2.21-2.75-.51-8.19-2.56-9.58-2.66-2.39-.16-6.35.96-9.79.71-6.67-.49-12.82-2.82-18.86-1.94-1.79.26-4.23.74-5.94.33,3.59-3.33,11.7-10.42,13.82-13.82Z"/>
  <path class="cls-13" d="M456.17,471c33.84-2.7,67.5-7.57,100.82-13.82.38,1.69-.89,1.85-1.85,2.62-13.64,10.89-34.23,21.5-50.24,28.67-1.2.54-2.88-.17-2.39,2.04-22.95,5.21-47.36,7.68-70.74,10.57.42-1.04,1.92-4.26,2.44-4.88,2.5-2.95,5.3-5.47,8.13-8.94.13-.16,2.22-1.42,3.25-2.44.95-.93,2.48-1.22,2.44-3.25,1.98-1.6,5.12-5.19,6.51-7.32.65-1,1.64-1.95,1.63-3.25Z"/>
  <path class="cls-3" d="M439.09,558.82c.26.22,5.45,1.01,6.51,1.64-10.71,21.2-24.24,41.11-36.44,61.54-14.71,24.65-28.11,50.06-44.89,73.43-1.57.18-.44-1.48-.22-2.26.38-1.37.92-2.92,1.47-4.23,5.63-13.62,13.45-27.11,18.29-41.07l-1.62-.41c-.1.96-.52,1.76-1.18,2.45-42.79,44.68-88.73,80.59-138.69,116.26-.12.08.36,2.26-1.63,1.63.65-.72,1.54-1.51,1.63-1.63,1.29-1.71,2-2.54.77-4.43-.08-.71,3.72-.14.05-2.08.1-.08.06-1.36.84-1.97,5.33-4.15,10.67-8.91,16.24-12.66l3.25,2.43c.21-1.11-.83-2.32-.81-3.25,1.44.06,4.24,1.56,5.58.7.18-.12.7-2.39,1.78-3.5,8.7-8.9,23.98-18.57,34.03-26.95,24.54-20.48,48.21-42.24,69.97-65.83,4.8-5.21,5.24-4.26,8.98-10.94,4.51-2.42,3.84-3,6.51-6.51.62-.31,1.91-.02,2.44-1.23l-.81-1.21c4.55-5.96,10.53-12.68,15.45-18.7,12.47-15.26,19.77-31.27,29.81-48.65.71-1.24.58-2.77,2.71-2.57Z"/>
  <path class="cls-8" d="M669.21,216.49l-.73,2,.74,2.06c-2.62.68-11.4,3.54-9.76,6.5-30.7,13.66-60.98,30.69-91.7,45.33-49.31,23.5-100.79,43.13-149,68.52-12.94,6.82-16.34,10.14-26.83,20.33-.28.27-.54.55-.81.81-.17.16-1.38.1-2.05.76-7.25,7.16-8.27,12.88-19.09,16.72-12.67,4.49-27.87,6.12-40.84,9.57-8.71,2.32-17.71,6.9-26.64,7.9l2.43-.81-2.44-1.62c22.9-8.9,46.45-15.5,69.7-23.4,25.99-29.39,60.16-43.42,94.82-59.68,66.78-31.34,137.66-59.56,202.21-94.99Z"/>
  <path class="cls-26" d="M249.63,483.19c1.71.42,4.15-.07,5.94-.33,6.04-.88,12.19,1.46,18.86,1.94,3.45.25,7.4-.87,9.79-.71,1.38.09,6.82,2.14,9.58,2.66,19.44,3.61,52.54,2.17,73.32,2.21,10.47.02,21.59-2.11,31.73-2.58,2.66-.12,4.18,1.65,6.5,1.75,9.85.45,21.26-.41,30.94-.96,1.84-.1,4.29-3.73,6.05.08-2.83,3.47-5.63,5.99-8.13,8.94-.75-1.35-3.33.12-4.72.15l-.97,4.73c-1.28.16-2.63.62-4.07.81.04-3.64-9.47-2.75-11.85-2.5-24.03,2.6-47.99,1.08-72.35,1.65-2.19.05-4.26,1.1-6.48.92s-3.17-1.84-5.07-2.32c-6.83-1.73-14.19-1.32-20.91-1.85-2.69-.21-4.19-3.84-5.32.84-5.33-.85-11.4.37-16.7.04-6.61-.42-13.19-2.33-19.89-1.67,3.9-4.14,11.5-3.43,15.45-7.3-5.63-1.43-12.43,1-18.04.62-5.19-.35-11.15-3.17-16.1-4.71.39-.84,1.63-1.69,2.43-2.43ZM258.57,484.83h-1.62v1.62h1.62v-1.62ZM284.59,485.64c-.82-.83-3.26,1.59-2.43,2.43s3.26-1.59,2.43-2.43ZM286.22,488.07v-1.62h-.8v1.62h.8Z"/>
  <path class="cls-19" d="M654.57,475.06c-.08.51.12,1.19,0,1.63-.72,2.5-25.47,18.5-29.38,20.63-27.38,14.9-73.69,25.93-104.79,28.16-5.96.43-7.43.36-12.76,1.61-3.39.8-9.19-.53-12.91-.05-1.2.16-2.1,3-5.23,1.69-.75-4.13,6.27-3.61,7.97-6.45,3.62.51,2.3-1.3,2.6-1.67,2.43-2.98,19.11-11.04,23.58-13.82,4.87,1.56,12.23,0,17.43-.87,11.12-1.87,22.68-4.77,33.8-7.26,1.87,1.17,7.3,1.25,9.2.8.62-.15.51-1.46,1.11-1.59,1.67-.38,3.73.35,5.4-.03.6-.14.49-1.46,1.11-1.6,1.78-.39,6.23.07,6.76-3.26,2.34-.6,5.49-.89,8.13-1.63,2.93-1.32,4.13,1.56,5.23,1.69,6.33.72,12.46-.29,17.76-1.72.5-.14,1.15-2.58,3.78-1.66l.91-4.8c2.19-1.07,2.56,1.62,2.83,1.65,2.81.37,4.1-4.33,7.68-3.32l.04-3.22c1.47.41,5.59-1.16,5.69-3.26.23-.06.54.04.81,0,2.26-.34.97-1.26,3.25-1.63Z"/>
  <path class="cls-23" d="M418.77,340.9c.09,3.34.8,5.94-2.87,7.3l2.06,2.46c-.58,1.57-2.25,1.71-3.25,2.44-2.82-1.51-5.07,1.4-4.88,4.07-1.22.99-1.56,2.29-3.25,3.25l-.42-2.45c-2.56.42-2.41.6-2.84,2.45-.06.26.05.55,0,.81l-3.25,2.05.81,1.2c-3.9,3.28-8.78,10.41-13,14.24-15.7,14.22-40.01,15.08-59.99,21.32-18,5.62-33.44,13.69-46.14,27.85-1.08,1.21-3.41,5.47-3.67,5.69-.9.78-1.71.11-1.64-1.23.2-3.75,5.45-11.77,7.82-14.97.89-1.21,9.25-9.86,8.47-10.63l-30.9,22.76c1.24-2.93,1.15-5.45-2.76-4.93-.55.07-.38,1.36-.89,1.49-.71.19-4.41,0-5.3-.63,18.16-15.91,26.9-22.07,49.6-30.9l2.44,1.62-2.43.81c8.94-1.01,17.93-5.59,26.64-7.9,12.97-3.45,28.18-5.08,40.84-9.57,10.82-3.84,11.84-9.56,19.09-16.72.67-.66,1.88-.6,2.05-.76,1.03,4.92,4.74,1.53.81-.81,10.5-10.19,13.89-13.51,26.83-20.33Z"/>
  <path class="cls-4" d="M746.46,395.38c6.42.18.19,4.18-.54,5.15-.38.5-.18,1.24-.28,1.35-7.97,9.23-19.79,18.08-29.7,25.22-6.21,4.47-18.29,13.73-26.4,15.44-3.08.65-5.26,1.02-8.39,1.64-.32.06-1.3,2.86-3.8,1.62-.26.73,3.07,1.62,3.25,1.62h-.81c-2.93-1.34-4.36,1.55-4.62,1.61-1.64.37-3.62-.28-5.36.05-.93.17-3.02,5.4-7.09,3.22-.8-2.89,2.75-1.1,3.26-1.63v-3.25c-5.65-.1-10.26,3.07-14.87,5.05-2.81,1.2-7.68.18-7.09,4.7.61.6,4.95-1.38,4.06,1.63-3.11.94-5.13-1.31-7.68-1.66-4.65-.65-10.88.72-15.55.11-1.64-.22-.53-1.82-3.14-1.77-9.6.16-19.41,2.46-28.17,5.3-6.6,2.14-4.35-.58-9.7-3.59.48-.33,1.14-.48,1.63-.81-.25,2.93.73,1.27,2.06.84,44.24-14.42,91.18-22.9,133.07-44.02,4.8-2.42,19.61-10.93,23.36-14.21,1.01-.88,3.51-2.89.07-2.78.96-.4,1.89-.58,2.44-.81ZM636.6,447.5c-3.09-.68-2.4.45-2.35,3.17h3.24s-.9-3.17-.9-3.17Z"/>
  <path class="cls-30" d="M744.02,396.19c3.44-.11.94,1.89-.07,2.78-3.76,3.28-18.56,11.79-23.36,14.21-41.89,21.12-88.83,29.6-133.07,44.02-1.32.43-2.3,2.09-2.06-.84,7.15-4.91,13.35-11.21,19.82-15.95,8.71-6.38,29.28-9.53,40.53-12.74,32.09-9.16,67.56-18.67,98.21-31.48Z"/>
  <path class="cls-29" d="M424.46,501.9c-2.97.41-6,.7-8.94,1.22,2.65,2.14,7.22,1.15,10.57,1.22v1.63c-2.91,2.01-4.49,5.47-6.78,7.89-.61.65-1.88.75-2.16,1.05-1.63.57-1.5-1.46-2.19-1.61-1.62-.36-10.4-.24-11.65.42-1.51.8-.05,2.46-5.24,2.85-12.15.9-38.84,1.43-50.47-.01-4.78-.59-8.22-4.7-14.21-.83-.17-.24-3.27-3.26-4.07-4.07-.26-1.57-.19-2.66,1.62-2.45-.65-2.18-3.33-1.89-4.87-.8-4.29-3.78-17.84-8.84-23.58-9.76,1.13-4.68,2.63-1.05,5.32-.84,6.72.53,14.08.12,20.91,1.85,1.9.48,2.75,2.13,5.07,2.32s4.28-.87,6.48-.92c24.36-.57,48.31.95,72.35-1.65,2.38-.26,11.89-1.14,11.85,2.5Z"/>
  <path class="cls-11" d="M271.59,455.55c1.35.93,2.89.79,4.43.85,22.57.79,50.92,1.42,73.26,0,2.84-.18,5.58-1.32,8.51-.84l.4-3.27,2.03,2.45c-2.77,6.03-5.12,11.54-8.94,17.08-7.34-.6-11.82,1.11-18.26,1.66-16.88,1.44-34.63-.49-51.27-1.65-4.98-.35-10.51.51-15.38-.09-1.37-.17-3.36-.35-2.9-2.36,3.25-5.2,3.74-8.09,8.13-13.82Z"/>
  <path class="cls-7" d="M961.94,36.78c-.43,3.25-1.47,2.35-1.61,3-2.14,9.74-3.61,19.21-6.63,28.63l-2.19.16c-.62.61-.61,7.66-.97,9.11-.16.64-1.45.5-1.59,1.12-.3,1.31.28,2.63-.25,4.12-.1.29-2.85,1.78-2.98,2.41-.38,1.9,1.3,6.16-1.66,5.92-.03-.81.03-1.63,0-2.43l-2.07,2.49c-3.77,0-8.6.77-10.5-3.34-1.58-3.41-2.07-4.64-3.97-7.81-.27-.45-1.31-.23-1.35-.29-.19-.3.06-2.43,0-3.25-.02-.27,0-.55,0-.81h1.62c0-1.35.03-2.71,0-4.07.51-.07,1.1.07,1.62,0v-6.51c-.64-.64-4.94,1.11-5.87,1.67s-.56,1.53-.63,1.58c-.94.72-3.35,1.13-3.25,3.25-1.72.3-1.33,1.04-2.32,1.54-3.17,1.6-5.19,4.15-7.44,4.96-.57.2-1.78-.25-3.02.25-.81.32-3.24,4.37-3.48,4.63-.65.7-.6-1.48-1.63,1.63-2.51.35-4.07-.07-4.88,3.25-3.73,1.57-9.61,7.04-13.01,9.76-1.99-.57-2.24.22-3.4.91-2.41,1.42-5.57,2.69-5.54,5.6-3.95,1.96-8.81,4.93-12.2,7.32-1.49-2.39-4.25-.53-6.51-1.63.08-.07-.09-1.34.82-1.99,2.94-2.09,11.96-5.89,12.19-9.4,11.94-4.9,21.02-14.82,30.9-22.77,13.82-11.11,31.35-23.92,43.91-36.59.2,6.71-2.27,13.16-4.07,19.52-1.23,4.34-2.48,8.77-4.06,13.01,9.1,1.21,9.68,4.64,12.48-5.81.53-1.96.18-4.4.53-5.57,1.39-4.67,8.94-23.43,8.94-26.02l.8-.82c-.01,1.52-.2,3.18,1.27,4.07l1.99-.81Z"/>
  <path class="cls-23" d="M366.72,459.61c1.65.37,2.63,1.46,4.43,1.67,7.4.88,27.97,1.54,35.05.81,12.96-1.34,24.29-.37,37.39-.82,6.39-.22,14.65-3.66,19.89.78v.81c-8.38,1.6-16.75,3.61-25.2,4.89-.22,1.35,1.97.87,2.87.84,3.45-.12,8.33-.49,11.76-.85,1.57,1.24,3.23.85,3.25,3.25.01,1.31-.98,2.25-1.63,3.25-3.83-1.93-3.99.8-5.25.91-2.55.22-7.16-.18-10.57-.06-24.39.87-53.04,3.56-77.31,1.62-5.1-.41-5.38-3.43-8.51-4.91,2.53-2.78,6.4-5.18,8.98-7.69,1.51-1.47,3.84-3.48,4.85-4.51Z"/>
  <path class="cls-25" d="M339.89,530.36c5.42-1.06,6.53,6.61,10.18,7.3,4.44.83,19.33.43,24.36,0,3.12-.26,6.26-.9,8.94-2.44l1.22,1.64v-3.26s2.45,0,2.45,0l.08,3.21c.47.31,1.31-.08,1.55.05,1.4.8,2.51,1.81,3.25,3.25l-30.9,28.46-1.63-2.44c-2.39,1.06-5.31.41-7.53,1.01-1.08.29-1.93,1.55-2.99,1.88-5.81,1.82-5.57-2.16-7.93-2.77s-6.78,3.69-10.4-.13l-.43,1.64-1.62-1.62c5.28-11.22,13.04-22.7,11.38-35.78Z"/>
  <path class="cls-10" d="M333.39,515.72c5.99-3.87,9.43.24,14.21.83,11.63,1.44,38.32.92,50.47.01,5.19-.39,3.73-2.05,5.24-2.85,1.24-.66,10.02-.78,11.65-.42.69.15.55,2.18,2.19,1.61-.17.17-.18,1.37-.79,2.03-3.49,3.77-8.41,7.19-10.6,11.8-.53.04-1.6.74-2.8.82-6.52.4-16.27-2.73-14.27,7.31-.24-.14-1.08.26-1.55-.05l-.08-3.21h-2.43s-.01,3.26-.01,3.26l-1.22-1.64c-2.69,1.54-5.83,2.18-8.94,2.44-5.03.42-19.92.82-24.36,0-3.65-.68-4.76-8.36-10.18-7.3-.29-2.31-5.14-12.74-6.51-14.64Z"/>
  <path class="cls-27" d="M758.66,206.73c-.95,3.08-6.49,4.63-8.9,6.14-16.02,10-30.89,18.55-47.32,28.12-7.43,4.33-14.56,9.71-22.49,13.48-1.43.68-2.5,1.4-4.22,1.05.24-.82-.16-2.28,0-3.25,4.94-7.63,10.05-15.78,14.57-23.41,2.77-4.68,5.46-14.92,13.08-14.81.07,0-.11.78,1.23.82,4.26.14,3.29-2.43,4.06-2.46l2.03,1.63-.81-2.43c7.07,1.17,13.06-.97,19.93-1.62,2.67-.26,5.45.26,8.11-.02,5.01-.52,9.92-2.71,15.42-1.56l.45-2.49c1.68-.1,3.21.83,4.88.81Z"/>
  <path class="cls-5" d="M583.83,457.17c5.34,3.01,3.1,5.73,9.7,3.59,8.76-2.84,18.56-5.14,28.17-5.3,2.61-.04,1.5,1.56,3.14,1.77,4.66.61,10.89-.76,15.55-.11,2.55.36,4.57,2.61,7.68,1.66.89-3.01-3.45-1.02-4.06-1.63-.6-4.51,4.28-3.49,7.09-4.7,4.61-1.98,9.22-5.15,14.86-5.05v3.25c-.5.52-4.04-1.26-3.24,1.63,4.06,2.19,6.16-3.04,7.09-3.22,1.75-.33,3.73.32,5.36-.05.27-.06,1.69-2.95,4.62-1.61-5.9,3.93-13.64,6.82-20.37,9.31-12.48,4.61-33.61,12.26-46.31,13.46s-22.62,3.84-33.9,6.49c-1.87.44-4.32-.4-6.2.04-.65.15-.22,1.48-1.72,1.67-4.78.62-10.95-.58-15.91-.07l3.25-4.87c8.27-5.03,17.2-10.82,25.21-16.26Z"/>
  <path class="cls-5" d="M743.21,377.49c-2.44,2.27-6.94,4.54-9.99,5.86-13.39,5.8-28.12,10.51-42.06,14.86-35.45,11.06-71.86,19.24-107.72,28.89-1.35-1,1.31-2.74,1.87-3.2,11.07-9.3,23.36-17.4,34.31-26.89-1.38,1.3-.88,1.53-.81,2.44.06.78-.16,1.6.04,2.38,1.4.3,2.91-.23,4.3.07.63.14.63,2.56,2.98,1.61l-.81-3.24,6.1-1.64.39,1.61c-.75-.13-4.3,2.39-3.23,3.26,3.25-.83,8.95.44,11.73.01,1.74-.27,3.55-2.35,6.32-2.76,3.35-.5,7.99-.92,11.6-1.34,3-.35,7.31,1.21,8.86.88.62-.13.43-1.71.93-1.7,1.35.03,2.13,1.9,3.98,1.69.42-.05.45-1.09.8-1.31.79-.5,1.86-.45,2.49-1.22.45-.55.23-1.84.62-2.2,1.91-1.78,11.97-3.91,14.91-3.48,2.6.38,6.08,3.68,8.49.05l-2.43-.81c1.39-.18,2.93-1.16,4.36-.86.75.16.07,1.86,1.58,1.57,4.25-.79,5.92-5.05,9.32-5.45,2.36-.28,4.64,1.2,6.93.65.54-.13.55-1.23.84-1.34,2.78-1.16,5.68-2.31,8.14-3.25,4.62-1.78,3.48-2.31,8.93-3.54,1.42-.32,2.71-1.08,6.25-1.61Z"/>
  <path class="cls-12" d="M569.2,293.73c-7.26,13.8-15.1,27.37-23.04,40.78-.84,1.42-2.44,2.21-2.98,3.12l-3.25-1.21,1.61-2.85c-1.23,0-2.3.83-3.56.75-6.47-.44-19.78-2.63-25.23-2.37-.41.02-4.87,3.05-6.95,3.69-2.56.78-5.2-.72-6.13,1.87l-1.54-.68-.95,1.66-6.04-.85,5.69-1.62-1.62-3.25c24.49-12.6,49.43-26.1,74-39.03Z"/>
  <path class="cls-11" d="M474.06,447.42l-6.82,11.07-3.75,3.57c-5.24-4.44-13.5-1-19.89-.78-13.11.46-24.44-.52-37.39.82-7.08.73-27.65.07-35.05-.81-1.8-.21-2.78-1.3-4.43-1.67,2.16-2.21,5.51-8.8,8.94-9.76.82-.23,5.65-1.66,5.96-1.55.64.21.5,1.4,1.1,1.54,13.86,3.16,59.42,1.71,75.51.86,4.85-.26,11.8-.79,15.82-3.29Z"/>
  <path class="cls-8" d="M426.08,504.34c24.54.52,49.12-1.33,73.48-4.17,5.54-.64,11.23-2.62,16.77-1.93-20.53,15.97-43.39,26.06-68.96,31.05-15.21,2.97-32.12,3.1-46.69,6.16-3.54.74-5.69,1-7.12,4.67h-1.63c-.74-1.44-1.86-2.45-3.25-3.25-2-10.05,7.75-6.91,14.27-7.31,1.21-.07,2.27-.78,2.8-.82,6.28-.44,12.77-.16,19.1-.82,25.73-2.68,49.65-8.68,71.96-21.96.16-1.54-1.7-.65-2.6-.57-7.02.65-14.29,1.94-21.34,2.24-15.64.68-31.25-.47-46.79-1.67v-1.63Z"/>
  <path class="cls-19" d="M919.66,71.75c.5-.09,1.1.06,1.63,0-3.2,3.73-1.82,1.61-4.62,3.52-3.36,2.3-3.24,4.48-2.7,7.87-36.02,25.1-72.07,49.96-109.29,73.3-1.19.75-1.19,2.24-1.3,2.33s-1.37.15-2.44.81c-19.64,12.21-40.5,23.26-60.48,35.1-1.04.62-2.35.43-2.13,2.3-1.87-.28-10.68,5.39-12.88,6.43-3.27,1.53-7.46,2.67-10.7,4.15,2.79-3.73,8.35-5.09,12.33-7.4,45.72-26.58,89.43-55.57,133.22-86.11.84-.59,1.29-1.39,1.63-1.63s.56-.63.81-.81c3.39-2.38,8.25-5.36,12.2-7.32s5.96-4.12,8.94-6.51c3.4-2.71,9.28-8.19,13.01-9.76,2.02-.85,3.46,1.03,4.88-3.25,3.06-.42,1.07-1.12,1.63-1.63.39-.35,6.64-1.59,6.51-4.88,2.24-.81,4.27-3.36,7.44-4.96.99-.5.6-1.24,2.32-1.54Z"/>
  <path class="cls-8" d="M452.92,467.75c17.14-1.81,35.07-4.81,52.31-7.45,21.83-3.35,45.48-9.49,66.91-11.96,1.46-.17,2.92-.14,4.37-.09-11.12,10.37-23.67,19.36-36.86,26.97-12.91,7.45-22.46,11.98-37.14,15.31-.49-2.21,1.18-1.51,2.39-2.04,16.01-7.17,36.6-17.78,50.24-28.67.96-.77,2.23-.92,1.85-2.62-33.33,6.25-66.98,11.12-100.82,13.82-.02-2.4-1.68-2.01-3.25-3.25Z"/>
  <path class="cls-7" d="M830.21,109.15c-.58,1.63,1.48,1.51,1.61,2.18.35,1.68-.32,3.68.03,5.38.07.36,4.66,3.55,3.23,6.26-5.73,3.76-11.6,8.08-17.27,11.64-9.85,6.18-19.88,12.13-29.85,18.13-2.15,1.3-5.66-1.59-6.6-3.29-1.11-2-.4-3.31-.9-4.82-.44-1.31-2.84-.95-2.3-2.96.13-.12,1.12-2.79,1.83-3.01,1.52-.47,3,.05,4.48-.48s3.74-7.11,8.33-4.63v-3.27c1.07-.05,2.17.07,3.25,0,5.06-.3,4.11-2.92,5.47-3.22s2.64.26,4.09-.27c.54-.19,5.97-7.13,8.65-6.3l1.3-3.22c1.08-.06,2.18.06,3.26,0v-3.27c4.76,2.37,6.56-3.91,8.36-4.63,1.26-.5,2.25-.05,3.02-.25Z"/>
  <path class="cls-30" d="M644.82,477.5c-12.39,3.64-25.25,10.19-38.22,13.82-2.64.74-5.8,1.03-8.13,1.63-7.75,1.98-15.78,3.94-23.58,5.69-11.12,2.5-22.68,5.39-33.8,7.26-5.2.88-12.56,2.43-17.43.87.19-.12.62.12.81,0l1.63-1.63c4.52-2.86,14.16-11.29,18.49-12,10.19-1.68,21.71-1.94,32.22-3.56,13.65-2.1,27.73-6.48,41.17-8.02,3.64-.42,6.74-1.46,8.48-1.69,2.36-.31,5.32.35,7.78.06l-.82-1.61c4.02,1.19,7.8-3.46,11.39-.82Z"/>
  <path class="cls-30" d="M189.46,501.9c.87-3.23.97-1.83,1.6-3.04,5.53-10.58,12.57-20.28,19.24-30.25,3.1-.94,7.48,8.86,9.26,10.91,2.78,3.18,8.18,6.55,12.01,8.32,4.03,1.86,9.09,2.36,12.37,5.11l-22.98,3.45c-11.23,3.09-24.08,6.95-33.12,14.45-5.61.24-.66-2.77-.25-3.5.52-.9,1.57-4.34,1.87-5.44ZM215.48,480.74c.82-1.08-3.82-5.84-5.68-4.87l-2.44,8.95,8.12-4.08Z"/>
  <path class="cls-13" d="M389.49,631.19c-2.66,3.51-1.99,4.09-6.51,6.51-3.75,6.68-4.18,5.73-8.98,10.94-21.76,23.59-45.43,45.35-69.97,65.83-10.05,8.39-25.33,18.05-34.03,26.95-1.08,1.11-1.6,3.38-1.78,3.5-1.34.86-4.14-.65-5.58-.7-.02.93,1.02,2.14.81,3.25l-3.25-2.43c1.05-.71.88-.87,2.44-.81.02-1.24.38-1.62,1.19-2.44,9.38-9.42,22.68-18.41,32.97-27.22,10.63-9.1,21.31-18.3,31.71-27.65,14.21-12.76,39.77-41.33,54.47-49.21,2.04-3.64,2.61-4.55,6.51-6.51.42-.55.85-1.42,1.63-2.44l.81,1.21c-.53,1.21-1.81.92-2.44,1.23Z"/>
  <path class="cls-8" d="M184.58,758.85l1.15,2.48,2.93.79.8,4.05c-15.24,20.52-30.9,40.85-47.16,60.99-2.23-.23-3.71-2.31-4.88-4.07,15.96-21.04,31.66-43.35,47.16-64.24ZM185.39,763.72v-1.2s-1.61-1.23-1.61-1.23v2.44s1.61,0,1.61,0ZM143.52,822.27v.81c.53-.27.53-.54,0-.81Z"/>
  <path class="cls-17" d="M865.99,84.76l-2.49,6.06c2.61,1.35,5.94,4.67,5.74,7.77-.23,3.51-9.24,7.31-12.19,9.4-.91.65-.74,1.91-.82,1.99-4.08,3.59-15.63,9.4-21.14,13.01,1.42-2.71-3.16-5.9-3.23-6.26-.34-1.7.32-3.7-.03-5.38-.14-.67-2.19-.55-1.61-2.18,2.07-.54,6.76-5.16,9.13-6.77,8.47-5.75,17.63-11.25,26.65-17.63Z"/>
  <path class="cls-8" d="M252.89,425.46c.89.62,4.59.82,5.3.63.51-.13.34-1.42.89-1.49,3.91-.52,3.99,1.99,2.76,4.93-.34.8-1.81,2.39-2.44,3.25l-.41-.81h-2.02s.81,2.43.81,2.43c-10.33,12.2-23.12,22.88-32.51,36.22-1.1.94-1.3.19-2.02-.47-1.23-1.14-5.59-9.24-4.95-10.52,10.95-12.01,22.42-23.51,34.6-34.17ZM254.92,427.9v.81c.53-.27.53-.54,0-.81ZM258.98,428.71v.81c.53-.27.53-.54,0-.81ZM256.13,429.54h-1.62v.8h1.62v-.8Z"/>
  <path class="cls-15" d="M222.8,644.2c-.35,2.46.88,1.71,2.46,1.24,5.9-1.74,10.95-6.4,16.24-9.37-.55,5.47-2.3,9.01-2.67,14.81-.09,1.38-1.77,2.6,1.05,2.27-10.16,10.19-20.19,20.88-31.3,30.09-.92.76-1.31,1.97-2.84,1.62,2.03-4.81,4.44-9.53,6.31-14.42,3.35-8.73,5.32-18.66,10.76-26.24Z"/>
  <path class="cls-30" d="M738.33,196.97c.33.05,1.94,1.36,3.73,1.55,7.36.76,17.3-2.49,25.16-3.2,2.22-.2,4.33.79,6.14.49.9-.15,7.1-7.38,6.43-1.28-5.25,2.68-11.87,8.79-17.05,11.01-1.54.66-2.25,1.17-4.09,1.19-1.66.02-3.2-.91-4.88-.81l-.45,2.49c-5.5-1.15-10.41,1.04-15.42,1.56-2.66.28-5.44-.24-8.11.02-6.87.66-12.86,2.8-19.93,1.62l.81,2.43-2.03-1.63c-.76.03.21,2.6-4.06,2.46-1.34-.04-1.16-.82-1.23-.82,3.45-2.6,7.47-4.72,11.38-6.51,3.24-1.47,7.42-2.61,10.7-4.15,2.21-1.04,11.02-6.71,12.88-6.43Z"/>
  <path class="cls-25" d="M293.54,598.66c.3-.04.99.81,1.23.79.29-.03.36-4.43,3.61-3.21l.88,5.15c-4.17,1.81-.18,2.06-.02,2.67.26,1,.86,10.33.86,12.07.02,6.01-3.09,3.95-4.51,6.95-.53,1.12-.25,2.53-.64,3.42-.51,1.15-4.34,4.11-.6,3.87-4.66,4.74-8.88,8.59-13.82,13.01.52-1.64-1.28-1.4-1.56-2.17-.89-2.44,1.68-3.01,2.19-4.08,2.53-5.26.98-7.96.88-13.57l-1.23-1.22-5.17-.11c3.76-4.86,7.72-9.73,11.38-14.64,3.68.99,1.87-2.9,4.74-3.39l-.68-2.31c.5-.6.44-2.96,2.44-3.25ZM297.2,597.85v.81c.53-.27.53-.54,0-.81ZM297.2,600.29v.81c.53-.27.53-.54,0-.81ZM295.98,602.73h-1.62v1.62h1.62v-1.62Z"/>
  <path class="cls-26" d="M264.27,614.11c.31.09,1.27,2.61,3.25,1.63-.77.69-5.45,5.03-5.56,5.4-.57,1.9,1,4.77-1.75,4.37l1.61.8v1.61c-2.74-.26-1.19,1.59-.81,3.26-7.1,7.65-13.79,14.58-21.14,21.95-2.82.33-1.14-.89-1.05-2.27.37-5.79,2.12-9.33,2.67-14.81-5.29,2.98-10.34,7.64-16.24,9.37-1.58.47-2.81,1.22-2.46-1.24.12-.16-.22-.93.55-1.66,4.58-4.28,16.9-10.65,22.96-15.08,5.24-3.83,10.38-8.11,15.1-12.58.71-.53,2.06-1,2.86-.77Z"/>
  <path class="cls-13" d="M393.56,540.11c.2,1.67,1.33,3.7,2.44,4.88.03,4.27-2.43,4.89-4.88,7.72-3.18,3.68-1.37,5.39-8.84,4.58l-1.02,3.86c-1.04.32-2.4-.13-3.36.27-17.59,7.4-31.23,26.79-46.57,38.02-2.59,1.9-3.08,6.29-7.7,6.14v-2.04c1.56-.46,21.39-18.75,24.4-21.54,3.44-3.19,6.32-7.01,10.27-9.65l2.73-3.78,30.9-28.46h1.63Z"/>
  <path class="cls-15" d="M226.05,676.72c3.83,1.45,1.39,7.88,6.51,7.32-11.66,9.79-23.03,19.79-34.96,29.27-1.37-1.61-4.66-.93-4.07-3.25,10.61-11.49,21.72-22.31,32.53-33.34Z"/>
  <path class="cls-25" d="M182.14,812.51c-.19,2.77-2.4,2.16-3.6,3.28-11.78,11.04-27.65,24.38-40.71,34.12-.87.65-3.63,2.35-4.47,2.44-.15.02-1.95-2.17-1.62.4l.81.41c-.99,1.32-1.51,1.52-2.44,2.44-1.36.33-1.78-.33-1.64-1.62l-1.28,1.66c-.7.03-1.65-.87-1.97-.85,1.33-1.05,1.76-3.03,2.44-4.07.58-.89.61-1.55,1.63-2.44,12.68-11.03,27.38-21.17,40.66-31.71,1.23.96,2.4,1.93,4.07,1.62l.68-2.06-1.49-1.19c2.62-2.08,5.47-4.38,8.13-6.51.27,1.28.9,2.76.81,4.07ZM130.51,853.17v.81c.53-.27.53-.54,0-.81Z"/>
  <path class="cls-11" d="M247.19,655.58c1.26.15,6.32,4.99,6.44,5.39.6,2-2.94,4.21-.75,5.99-3.57,2.65-2.78,2.54-5.26,4.91-4.31,4.11-10.4,8.25-15.07,12.17-5.11.56-2.68-5.87-6.51-7.32,6.97-7.11,14.25-14.04,21.14-21.14Z"/>
  <path class="cls-17" d="M905.02,158.75l4.88.82.05-3.21,6.45-.05v-3.25c2.47,0,1.48,2.68,4.88,1.63v-3.26c4.39,1.38,4.86-6.55,8.83-1.92,1.37,4.06-1.32,3.34-1.51,3.54-.76-1.65-2.5-.42-3.53.13-8.82,4.76-19.53,14.94-28.73,20.87-4.56,2.93-10.76,7.51-15.72,8.27-.06,0-.42-.78-1.06-.66-1.02.2-1.5,1.92-3,1.46l.81-4.06c9.43-6.39,18.57-13.41,27.65-20.33Z"/>
  <path class="cls-30" d="M264.26,436.85c2.39,10.42.81,28.15-12.97,28.9-3.7.2-8.54-1.55-8.97-5.8-.48-4.72,4.86-7.08,6.52-10.9,3.71,2.46-1.07,12.2,6.25,8.35,3.15-1.66,3.31-5.46,2.67-8.75-.41-2.09-2.87-2.64-2.34-4.72.18-.71,7.8-7.98,8.85-7.08Z"/>
  <path class="cls-2" d="M555.37,249.01c-1.71,4.83,1.02,5.43,1.63,8.94-9.15,3.72-18.46,6.98-27.65,10.57-3.17-2.25-1.37-7.87-5.69-8.94,9.25-2.76,18.51-5.83,27.65-8.94.81-.28,1.62-.53,2.44-.81.39-.13.93-.57,1.63-.81Z"/>
  <path class="cls-13" d="M125.22,854.8c.31-.02,1.27.88,1.97.85l1.28-1.66c-.14,1.29.28,1.95,1.64,1.62-13.15,13-28.88,24.08-43.1,35.78l-1.63-1.63c5.01-6.15,10.68-12.73,15.45-18.7l4.05,1.63c-.48-1.61,1.47-3.2,1.64-4.07,4.06-.99,16.12-13.65,18.7-13.82Z"/>
  <path class="cls-5" d="M922.91,68.5h4.88c.03,1.08-.03,2.17,0,3.25-.51.07-1.1-.07-1.62,0-.05,1.35.04,2.72,0,4.07,0,.27-.02.55,0,.81h-1.62c-.26,1.1.34,4.33,0,4.88-.12.19-2.67-.35-1.63,3.25-1.09,1.34-8.22,20.27-10.25,24.31-1.88,3.75-8.74,17.64-10.83,19.9-.81.88-1.24.35-1.69.52-.45,1.89-.66,6.07-3.25,5.69.18-.49-.25-1.73.03-2.64.18-.56,1.07-.61,1.28-.96.41-.66.23-1.75.43-1.95.45-.46,1.18-.02,1.51-.14,1.14-4.76,1.5-4.18,3.32-8.27,2.58-5.79,5.96-10.77,8.33-16.67,2.5-6.2,5.01-9.47,6.24-16.8.03-.18,3.05-1.6,1.61-2.97-.92-.88-3.65-.23-3.78,2.14-.05.95.53,1.8.52,2.74l-1.61-.83c.68,2.05-1.16,2.21-1.59,3.11-.3.63.23,2.05-.13,2.53-.33.44-1.93-.13-2.35.07-.06-3.27,3.52-7.02,3.95-9.6.22-1.34-.68-1.63-.7-1.79-.55-3.39-.67-5.57,2.7-7.87,2.8-1.91,1.42.21,4.62-3.52.15-.17,2.61.52,1.63-3.25Z"/>
  <path class="cls-11" d="M329.32,551.5c-2.04.25-3.65,2.95-4.85,4.5-10.07,13.01-20.48,25.79-31.74,37.78-.06.07-.88.07-1.63.81-.27.27-.53.56-.81.81l-2.44-.81.81,1.62c-.26.29-.68.6-.81.81l-2.44.81v-2.43c10.52-9.96,21.91-23.04,30.76-34.7,1.79-2.35,9.87-15.62,10.68-16.15,3.14-2.06,2.49,5.45,2.47,6.94Z"/>
  <path class="cls-26" d="M264.27,636.88c1.37-.54,5.53-.95,7.31-1.62-.15,4.4.26,9.07,2.44,13.01-3.24,5-8.78,7.73-13.01,11.38-1.15-1.55-.04-6.08-.15-6.39-.03-.09-1.1-.12-1.47-.69-1.5-2.27-1.17-3.68-4.89-4.31,2.33-2.57,6.37-10.05,9.76-11.38ZM262.24,651.51v.81c.53-.27.53-.54,0-.81Z"/>
  <path class="cls-10" d="M275.65,622.24l5.17.11,1.23,1.22c.09,5.61,1.65,8.31-.88,13.57-.51,1.07-3.08,1.63-2.19,4.08.28.77,2.07.53,1.56,2.17-1.5,1.34-3.2,2.48-4.47,4.1l-2.03.78c-2.19-3.93-2.59-8.61-2.44-13.01-1.78.67-5.94,1.08-7.31,1.62,3.43-5.15,7.61-9.76,11.38-14.64ZM278.08,626.3v-2.43h-.8v2.43h.8Z"/>
  <path class="cls-7" d="M623.68,221.37c-1.12,1.57-2.15,4.96-3.38,6.78-4.81,7.16-17.25,10.11-25.08,13.55.56-3.74-3.43-3.77-2.44-7.32.08-.04-.33-1.44.53-1.64,1.14-.27,2.57.27,3.79,0,.61-.13.48-1.46,1.11-1.61,1.16-.26,2.54.22,3.73-.04.71-.15,2.1-3.05,2.81-3.19,1.83-.37,4.02.15,5.92-.03v-3.27c1.87-.21,4.14.37,5.93-.01.41-.09,3.96-4.98,7.08-3.23Z"/>
  <path class="cls-17" d="M592.78,234.38c-.99,3.55,3,3.58,2.44,7.32-7.76,3.41-15.17,7.91-23.58,9.76-3.39-.63-3.67-3.53-3.26-6.5-1.31.34-2.78.48-4.06.81,2.74-2.22,7.07-3.31,10.44-4.63,5.42-2.13,13.48-4.44,18.02-6.75Z"/>
  <path class="cls-17" d="M514.72,262.02c-.12,3.38-3.52,9.43,0,12.2-5.43,2.07-10.73,4.97-16.3,6.87-1.29.44-9.34,3.22-9.71,2.88l15.44-18.7c3.39-.77,7-2.31,10.57-3.25Z"/>
  <path class="cls-29" d="M222.8,709.25c2.95-.36,1.97,4.12,3.25,5.68-3.2,1-2.84-1.62-4.88-1.62-.06.66-.22,1.81.13,2.28l3.93,1.78c-.32.37-.49,1.14-.81,1.63h-1.62s0,1.63,0,1.63c-4.62,2.44-2.63,4.04-5.02,8.39-2.63,4.78-7.69,10.13-11.24,14.38.25-.96.81-7.44.42-8.14-1.75-1.55-3.77,2.3-6.11,1.64,2.97-3.96,15.39-22.21,18.48-23.41.59-.23,1.23-.17,1.85-.17.16-1.79.75-2.64,1.63-4.07Z"/>
  <path class="cls-13" d="M406.57,610.04l26.9-54.43c.73-.53,4.26,1.01,5.11,1.51.96.56.43,1.61.52,1.69-2.14-.2-2,1.34-2.71,2.57-10.05,17.38-17.34,33.39-29.81,48.65Z"/>
  <path class="cls-20" d="M243.13,759.66c3.68,1.94-.13,1.37-.05,2.08,1.24,1.89.52,2.72-.77,4.43-.09.11-.97.9-1.63,1.63-6.08,6.74-14.12,10.83-21.14,16.26l-4.88-2.44c8.21-8.81,19.16-14.74,28.46-21.95Z"/>
  <path class="cls-7" d="M877.37,179.08l-.81,4.06c1.5.45,1.98-1.27,3-1.46.64-.12,1,.67,1.06.66.1,1.96-1.18,2.09-2.41,2.87-5.41,3.42-11.97,6.92-17.66,9.99-2.64,1.42-22.82,12.39-23.83,11.53-.44-1.29,1.46-2.57,2.31-3.15,12.46-8.52,25.85-16.04,38.34-24.5Z"/>
  <path class="cls-13" d="M219.55,784.06c-9.38,7.25-19.42,15.17-29.27,22.77l-.79-2.07,1.65-.83-.86-2.79c6.7-5.33,13.56-10.91,20.33-16.26l2.44.81-.81-2.44,2.44-1.63,4.88,2.44Z"/>
  <path class="cls-23" d="M142.3,827.15c-3.88,4.81-7.36,9.89-11.38,14.64l-2.43-.81c-.74,1.4-.1,2.23,0,3.25.05.53-.1,1.17,0,1.63l-1.05.04-1.39,1.59-1.62-.81.81,1.62c-.86,1.4-1.89,2.39-2.44,3.25-1.31-1.7-.79-4.12-3.25-4.88.82-1.07,1.61-2.18,2.44-3.25l2.85-.82,1.21,1.63-1.62-3.25c4.35-5.67,8.58-12.04,13.01-17.89,1.17,1.75,2.65,3.84,4.88,4.07Z"/>
  <path class="cls-26" d="M122.78,851.55c-.44.7-1.45,2.43-1.23,3.24l6.11-4.05c-.68,1.04-1.11,3.02-2.44,4.07-2.58.17-14.65,12.83-18.7,13.82.04-.2-.64-3.43-.81-4.07,4.52-5.72,9.37-12.12,13.82-17.89,2.46.76,1.94,3.18,3.25,4.88Z"/>
  <path class="cls-24" d="M523.66,259.58c4.32,1.08,2.52,6.69,5.69,8.94-4.77,1.87-9.74,3.82-14.64,5.69-3.52-2.76-.12-8.82,0-12.2,3.04-.8,5.92-1.54,8.94-2.44Z"/>
  <path class="cls-25" d="M284.6,602.73l.81.81c-8.23,9.13-16.02,18.61-24.39,27.65-.38-1.67-1.93-3.52.8-3.26v-1.61s-1.6-.8-1.6-.8c2.75.4,1.18-2.48,1.75-4.37.11-.37,4.79-4.7,5.56-5.4,5.04-4.56,12.34-8.69,17.08-13.01Z"/>
  <path class="cls-9" d="M613.1,470.18l-16.04,4.69c-13.47,1.49-26.89,5.62-40.48,6.68-3.53.27-7.47.17-10.96-.39,2.41-1.56,4.65-3.62,7.06-5.13,1.94-1.21,4.87-1.94,5.94-2.6l-3.25,4.87c4.96-.52,11.13.69,15.91.07,1.51-.2,1.07-1.52,1.72-1.67,1.88-.43,4.33.4,6.2-.04,11.28-2.65,21.84-5.35,33.9-6.49Z"/>
  <path class="cls-19" d="M675.72,252.26c-.16.97.24,2.43,0,3.25-.76,2.62-3.67,3.7-4.62,5.13-.43.65-.07,1.85-.34,2.31-4.24,7.19-8.84,13.28-13.2,19.94-1.39,2.12-4.4,1.65-2.98,6.77,2.86,1.03,3.09-1.3,3.86-1.57,2.45-.86,5.89-1.23,8.33-1.69-.5,1.5-1.98,1.58-3.19,2.09-4.4,1.88-11.8,5.84-15.97,6.81-1.24.29-1.34.04-1.16-1.16l20.81-29.19c1.85-4.78,6.19-9.21,8.45-12.7Z"/>
  <path class="cls-12" d="M206.54,743.4c-.46,1.79-5.04,8-6.47,10.02-.53.75-1.61.48-1.66.55-1.72-1.46-2.34-2.64-2.02-4.86-1.39,2.05-3.21.75-5.29.8,3.23-4.35,6.51-8.68,9.76-13.01,2.34.67,4.36-3.19,6.11-1.64.39.7-.17,7.18-.42,8.14ZM202.46,742.58v-2.43h-.8v2.43h.8ZM203.69,740.15v.81c.53-.27.53-.54,0-.81ZM198,749.9v.81c.53-.27.53-.54,0-.81Z"/>
  <path class="cls-18" d="M254.51,648.26c3.72.63,3.39,2.04,4.89,4.31.37.57,1.44.6,1.47.69.11.31-1,4.84.15,6.39-2.76,2.38-5.09,5.07-8.13,7.32-2.19-1.78,1.35-3.99.75-5.99-.12-.4-5.18-5.24-6.44-5.39,2.4-2.47,5.13-4.91,7.32-7.32Z"/>
  <path class="cls-18" d="M285.41,595.41v2.43s2.44-.81,2.44-.81c-.91,1.44-.83,3.48-3.25,5.69-4.74,4.32-12.03,8.45-17.08,13.01-1.99.99-2.94-1.54-3.25-1.63.29-.53.49-1.12.81-1.63l2.37-.08.07-1.54c5.84-5.58,12.7-10.54,17.89-15.45Z"/>
  <path class="cls-11" d="M198.41,753.97c-2.95,4.1-5.99,8.22-8.94,12.2l-.8-4.05-2.93-.79-1.15-2.48c2.25-3.03,4.29-5.95,6.51-8.94,2.09-.05,3.9,1.25,5.29-.8-.31,2.22.3,3.41,2.02,4.86Z"/>
  <path class="cls-24" d="M564.32,245.76c1.28-.33,2.75-.47,4.06-.81-.41,2.97-.13,5.87,3.26,6.5l-2.44.81-1.23-1.62-1.1.12-1.74,1.91,1.64,1.22c-3.27,1.32-6.49,2.74-9.76,4.07-.61-3.52-3.34-4.11-1.63-8.94,2.96-1.04,5.87-2.45,8.94-3.25Z"/>
  <path class="cls-17" d="M862.74,265.27c.22,4.3,3.3.37,3.52.27,2.75-1.23,7.15-1.73,7.88-5.14l1.61.4c-.07.66.09,1.38,0,2.02-8.89,6.26-17.62,13.48-28.04,17.09-1.36-.76,1.78-3.31,2.09-3.57,3.2-2.59,10.68-8.22,12.94-11.08Z"/>
  <path class="cls-22" d="M882.25,200.22c-.61,1.87-1.91,3.14-3.23,4.51-1.13,1.17-4.39,3.05-4.91,3.62-.23-4.31-3.3-.37-3.51-.27-8.4,3.7-16.09,11.5-24.95,13.28-.38-1.72.92-1.78,1.99-2.44,9.49-5.85,23.81-12.68,32.16-18.7.72-.87,2.32.04,2.44,0Z"/>
  <path class="cls-10" d="M235.81,703.55c-3.46,4.68-6.76,9.45-10.57,13.82l-3.93-1.78c-.35-.48-.19-1.62-.13-2.28,2.04,0,1.68,2.62,4.88,1.62-1.28-1.56-.31-6.05-3.25-5.68,1.92-3.14,5.45-5.67,8.13-8.13,3.38,1.75,2.23-.98,4.06-1.62l.82,4.06Z"/>
  <path class="cls-6" d="M500.08,520.6c-.3.37,1.02,2.18-2.6,1.67-1.69,2.84-8.71,2.32-7.97,6.45,3.12,1.31,4.03-1.53,5.23-1.69,3.72-.49,9.52.84,12.91.05,5.33-1.25,6.79-1.18,12.76-1.61-3,2.6-7.28,1.26-10.89,1.71-6.62.82-13.76,2.6-20.43,3.15-3.86.32-7.9-.19-11.77,0l12.04-6.41,10.73-3.34Z"/>
  <path class="cls-13" d="M193.53,710.06c-.59,2.32,2.69,1.64,4.07,3.25-5.65,4.49-11.29,9.97-17.88,13.01-1.36-1.36,12.37-14.69,13.82-16.26Z"/>
  <path class="cls-5" d="M779.8,353.09c-2.41,1.97-3.08,3.64-6.51,4.88-2.1,3.61-24.67,18.81-29.27,19.52-.71-5.16,1.34-2.51,4.29-3.29.7-.18,1.77-2.49,2.48-2.95,1.08-.71,8.37-5.2,8.89-5.4.91-.35,2.18.37,2.23.27.33-.68-.58-2.06.53-3.35,1.45-1.67,4.78-1.14,5.8-1.73,1.99-1.16.16-1.29,5.06-3.07.88-1.51.97-1.27,1.63-2.22,1.23-1.76,1.01-4.6,4.88-2.66Z"/>
  <path class="cls-2" d="M252.07,729.58c-5.49,4.8-10.66,10.13-17.07,13.82-.42-1.66.49-2.19,1.19-3.28,2.22-3.46,6.24-7.28,8.56-10.55,2.31,1.53,4.45-1.43,7.32,0Z"/>
  <path class="cls-7" d="M840.78,283.98c.27.79-1.63,1.81-2.26,2.22-7.71,4.97-17.65,9.23-26.2,12.41.8-1.55,2.87-2.52,4.34-3.38,4.85-2.85,16.46-9.82,21.12-11.44,1.49-.52,1.54-.8,3.01.2Z"/>
  <path class="cls-22" d="M651.32,476.69c-.28.04-.58-.06-.81,0-1.26.34-4.45.45-5.69.81-3.59-2.64-7.37,2.01-11.39.82l.82,1.61c-2.47.29-5.42-.37-7.78-.06-1.74.23-4.84,1.27-8.48,1.69,11.28-4.21,23.41-5.73,34.96-8.94l-1.63,4.07Z"/>
  <path class="cls-15" d="M190.27,801.13l.86,2.79-1.65.83.79,2.07c-2.42,1.86-4.72,5.79-8.13,5.69.09-1.3-.54-2.78-.81-4.07,2.66-2.12,5.94-4.93,8.94-7.32Z"/>
  <path class="cls-22" d="M740.77,273.41c-.17.2.22,1.46-.01,1.61-.39.25-1.89-.26-2.59.06-9.79,4.54-14.86,8.42-25.86,11.34-.32-2.17,1.43-1.43,2.52-1.91,3.97-1.75,8.83-3.5,11.96-6.13l13.97-4.97Z"/>
  <path class="cls-15" d="M230.93,701.12c3.42-3.13,6.93-8.21,12.2-8.12-1.05,2.91-2.7,5.6-4.54,8.06-.88,1.18-2.37,1.94-2.78,2.5l-.82-4.06c-1.83.64-.68,3.37-4.06,1.62Z"/>
  <path class="cls-7" d="M496.01,371.8v2.44c-7.32,2.17-14.57,4.46-21.95,6.51v-1.63c2.16-.71,4.36-1.73,6.51-2.44,5.09-1.69,10.38-3.09,15.45-4.88Z"/>
  <path class="cls-9" d="M879.81,200.22c.09-.07-.08-1.1.26-1.33,1.64-1.1,9.74-7.29,11.12-5.98l-2.68,7.06c-1.42,1.15-3.68,3.7-4.64,5.13-1.3-2.1,3.2-4.86,1.62-6.5-1.26-1.31-3.07,1.56-3.25,1.62-.11.04-1.72-.87-2.44,0Z"/>
  <path class="cls-19" d="M688.73,276.66c.34,2.23-1.38,1.45-2.56,1.88-5.7,2.08-13.65,7.22-18.58,7.88-.61-5.16.96-2.42,3.5-3.26,3.75-1.25,8.07-3.28,12.49-5.14,2.8-1.18,2.42-.68,5.15-1.35Z"/>
  <path class="cls-7" d="M322,603.54c-.52.98-2.11,1.83-2.44,2.44h-3.25l10.98-15.45c1.04.5.09,2.24-.24,3.02-1.08,2.61-3.62,7.27-5.05,9.99Z"/>
  <path class="cls-4" d="M189.46,501.9c-.3,1.1-1.35,4.54-1.87,5.44-.42.73-5.36,3.74.25,3.5-.1.08.09,1-.3,1.33-2.18,1.87-4.24,2.57-5.8,5.17-1.95-3.28.48-4.27,1.13-5.54,1.34-2.63,2.69-5.34,4.17-7.89.64-1.1.68-2.38,2.42-2.01Z"/>
  <path class="cls-9" d="M811.51,312.44c-.04-1.93,4.62-3.49,6.08-4.1,3.5-1.46,1.23,3.06.4,4.49-.91,1.57-3.67,5.75-5.67,6.12.19-.38-.28-1.78.04-2.62.54-1.43,3.73-1.77,3.21-3.88-1.35-.04-2.71.04-4.06,0Z"/>
  <path class="cls-9" d="M746.46,395.38c.12-.05.55-1.03,1.4-1.42s8.6-4.14,7.54-1.44c-.78,1.98-7.41,8.52-9.75,9.36.1-.11-.1-.85.28-1.35.73-.98,6.95-4.97.54-5.15Z"/>
  <path class="cls-9" d="M655.39,471.81c.12-.04.29-1.06,2.05-1.57.94-.27,6.61-1.48,6.88-.06-3.81,1.39-5.14,6.65-9.75,6.51.12-.43-.08-1.11,0-1.63.51-.08,1.1.07,1.62,0l-.81-3.25ZM657.42,471.81v.81c.53-.27.53-.54,0-.81Z"/>
  <path class="cls-3" d="M87.01,891.39c-.07.06.16,1.02-.59,1.63-4.82,3.95-14.59,11.65-5.09.43,1.21-1.43,3.21-2.66,4.04-3.68l1.63,1.63Z"/>
  <path class="cls-10" d="M106.52,868.62c-.17.87-2.12,2.46-1.64,4.07l-4.05-1.63c1.48-1.85,3.13-4.3,4.88-6.51.17.63.85,3.86.81,4.07Z"/>
  <path class="cls-5" d="M689.54,442.54c-1.35,2.04-6.73,4.85-8.94,4.88-.18,0-3.51-.89-3.25-1.62,2.5,1.23,3.48-1.56,3.8-1.62,3.13-.62,5.31-.99,8.39-1.64Z"/>
  <path class="cls-29" d="M434.21,496.21c-.52.62-2.02,3.84-2.44,4.88-1.05.13-2.21-.13-3.25,0l.97-4.73c1.4-.03,3.98-1.5,4.72-.15Z"/>
  <path class="cls-7" d="M128.48,845.85c.16.72.83,1.55.81,2.44-1.02.89-1.04,1.55-1.63,2.44l-6.11,4.05c-.22-.81.79-2.54,1.23-3.24.55-.86,1.58-1.85,2.44-3.25.16-.26.64-.48.81-.81l1.39-1.59,1.05-.04Z"/>
  <path class="cls-11" d="M273.21,453.11c1.15-1.38,1.56-2.28,3.25-4.07l1.63,4.45c-1.23,1.83-4.01,1.9-4.88-.39Z"/>
  <path class="cls-4" d="M655.39,471.81l.81,3.25c-.53.07-1.12-.08-1.62,0-2.28.36-1,1.29-3.25,1.63l1.63-4.07c.79-.22,1.63-.56,2.44-.81Z"/>
  <path class="cls-15" d="M291.1,601.91l.68,2.31c-2.88.48-1.07,4.38-4.74,3.39,1.43-1.91,2.27-3.53,4.07-5.69Z"/>
  <path class="cls-18" d="M414.7,353.09c-1.13.83-3.46,2.93-4.88,4.07-.19-2.66,2.06-5.57,4.88-4.07Z"/>
  <path class="cls-15" d="M173.2,814.95l1.49,1.19-.68,2.06c-1.67.3-2.83-.66-4.07-1.62,1.73-1.37,3.1-1.5,3.25-1.63Z"/>
  <path class="cls-10" d="M326.07,508.4c1.54-1.1,4.22-1.39,4.87.8-1.81-.2-1.88.89-1.62,2.45-.9-.91-2.44-2.53-3.25-3.25Z"/>
  <path class="cls-18" d="M403.32,360.41c.43-1.84.28-2.03,2.84-2.45l.42,2.45c-1.32.75-1.56,1.23-3.25,0Z"/>
  <path class="cls-26" d="M124.41,840.97l1.62,3.25-1.21-1.63-2.85.82c1.22-1.59,2.32-2.29,2.44-2.44Z"/>
  <path class="cls-9" d="M926.16,76.63c.06.82-.19,2.95,0,3.25.63,1.98-1.56,1.5-1.63,1.63-.84,1.66.45.7-1.63,3.25-1.05-3.61,1.51-3.07,1.63-3.25.35-.54-.26-3.78,0-4.89h1.62Z"/>
  <polygon class="cls-17" points="569.2 252.26 566.76 253.89 565.12 252.67 566.86 250.76 567.97 250.64 569.2 252.26"/>
  <path class="cls-11" d="M400.06,412.45c2.54.81.9,2.89.8,4.87-1.27.23-1.18-2.01-1.62-3.25l.81-1.63Z"/>
  <path class="cls-18" d="M400.88,364.48l-.81-1.2,3.25-2.05c-.8,4.19-.99,2.04-2.44,3.25Z"/>
  <path class="cls-26" d="M130.91,841.79c-.74.87-1.1,2.03-2.44,2.44-.09-1.02-.74-1.85,0-3.25l2.43.81Z"/>
  <path class="cls-9" d="M810.7,312.44c-.02.54.04,1.09,0,1.63h-3.25c.85-.78-1.61-1.34,3.25-1.63Z"/>
  <path class="cls-7" d="M861.92,112.4c-.33.23-.79,1.04-1.63,1.63l-1.62-.83.8-1.22,2.44.42Z"/>
  <path class="cls-23" d="M259.39,432.78c-.61.84-1.21,1.14-1.63,1.63l-.81-2.44h2.02s.41.81.41.81Z"/>
  <path class="cls-20" d="M212.23,783.24l.81,2.44-2.44-.81c.42-.33.75-1.43,1.63-1.63Z"/>
  <path class="cls-7" d="M843.22,281.54l2.44-.81c-.12,1.48-1.66,1.24-2.44,1.62v-.81Z"/>
  <path class="cls-26" d="M267.52,610.86l-.07,1.54-2.37.08c1.22-1.88,2.16-1.36,2.44-1.63Z"/>
  <path class="cls-13" d="M133.35,852.36c-.23.3-.59.52-.81.81l-.81-.41c-.33-2.57,1.47-.38,1.62-.4Z"/>
  <path class="cls-10" d="M224.43,719c-.13.19.27,1.11-.12,1.5s-1.26,0-1.5.13v-1.62s1.63,0,1.63,0Z"/>
  <path class="cls-18" d="M583.02,335.2c-1.14.51-1.95.6-2.44.81l2.44-.81Z"/>
  <path class="cls-17" d="M843.22,282.35s.17.49-.41.81l.41-1.62v.81Z"/>
  <path class="cls-7" d="M775.73,143.3c.25-.15.47-.62.81-.81l-.81.81Z"/>
  <path class="cls-19" d="M524.47,506.78c.2-.12.7-1.04,1.63-1.63l-1.63,1.63Z"/>
  <path class="cls-17" d="M840.78,283.98c-.38-.38.75-1.29.81-.41.02.28-.63.59-.81.41Z"/>
  <path class="cls-2" d="M233.78,743.4c.53.27.53.54,0,.81v-.81Z"/>
  <path class="cls-2" d="M945.68,23.77l2.04,1.64-2.11,1.33,1.69,10.85c-4.06-.88-2.98,1.35-3.25,1.63-12.56,12.67-30.09,25.48-43.91,36.59-.92-1.8-3.92-1.99-4.87-2.88-.9-.84-.61-2.38-.96-2.68-.38-.32-3.77-.09-4.73-2.57,18.88-14.01,38.13-28.76,56.11-43.91Z"/>
  <path class="cls-24" d="M889.57,67.68c.97,2.49,4.35,2.25,4.73,2.57.35.3.07,1.83.96,2.68.95.89,3.95,1.08,4.87,2.88-9.88,7.95-18.96,17.86-30.9,22.77.2-3.1-3.13-6.41-5.74-7.77l2.49-6.06c7.87-5.57,15.86-11.34,23.58-17.08Z"/>
  <path class="cls-24" d="M958.69,12.39c2.18-.67,2.41,3.27,2.36,4.39-.25,5.82-3.16,12.01-3.17,17.57,0,2.59-7.56,21.35-8.94,26.02-3.13-1.63-7.24,2.01-8.94-1.63,1.79-6.35,4.26-12.81,4.07-19.52.27-.27-.81-2.51,3.25-1.63l-1.69-10.85,2.11-1.33-2.04-1.64c4.33-3.65,8.76-7.61,13.01-11.38Z"/>
  <path class="cls-17" d="M965.19,5.07c.8-.72,4.08-2.4,4.88-1.63,1.52,3.22-1.54,5.14-1.61,5.44-.51,2.32-1.31,5.02-1.63,6.51-1.54,7-3.98,14.52-4.89,21.4l-1.99.81c-1.47-.89-1.29-2.54-1.27-4.07l-.8.82c.01-5.56,2.92-11.75,3.17-17.57.05-1.12-.18-5.05-2.36-4.39,1.07-.95,2.99-3.83,3.25-4.07,1.14-1.05,2.63-2.69,3.25-3.25ZM960.72,32.72v.81c.53-.27.53-.54,0-.81Z"/>
  <path class="cls-6" d="M815.58,117.28l-1.3,3.22c-2.68-.82-8.11,6.11-8.65,6.3-1.45.52-2.78-.02-4.09.27s-.41,2.93-5.47,3.22c-.12-.96,3.1-4.37,3.51-4.62.84-.52,5.14-1.62,5.99-2.15,1.21-.75,3.65-2.43,4.88-3.25,2.45-1.65.13-2.69,5.14-2.99Z"/>
  <path class="cls-24" d="M553.75,249.82c-.82.28-1.63.54-2.44.81l2.44-.81Z"/>
  <path class="cls-28" d="M171.98,751.53c.53.27.53.54,0,.81v-.81Z"/>
  <path class="cls-14" d="M910.71,94.52c-1.41.66-10.23,18-12.66,21.09-4.49,5.69-49.91,37.28-56.46,39.08-1.36.37-7.37,2.14-7.84,2.22-1.32.22-3.36-.94-5.53-.58-2,.33-4.22,2.73-7.44,3.17-5.18.71-12.28.15-17.41-.74l.81,2.43-3.25-1.62c1.07-.67,2.34-.73,2.44-.81s.11-1.58,1.3-2.33c37.22-23.33,73.27-48.19,109.29-73.3.03.16.93.45.7,1.79-.43,2.57-4.01,6.32-3.95,9.6Z"/>
  <path class="cls-16" d="M841.6,154.69l-10.32,7.98-51.48,31.87c.67-6.1-5.53,1.13-6.43,1.28-1.81.3-3.92-.69-6.14-.49-7.86.71-17.8,3.96-25.16,3.2-1.79-.19-3.41-1.5-3.73-1.55-.21-1.87,1.09-1.68,2.13-2.3,19.98-11.85,40.84-22.89,60.48-35.1l3.25,1.62-.81-2.43c5.13.89,12.23,1.45,17.41.74,3.22-.44,5.44-2.84,7.44-3.17,2.17-.36,4.21.8,5.53.58.46-.08,6.47-1.84,7.84-2.22Z"/>
  <path class="cls-11" d="M499.27,410.01c-.92,1.44-1.99,2.55-2.44,3.25-1.18-.87-2.05-.66-1.62-2.43l4.06-.83Z"/>
  <path class="cls-11" d="M407.39,405.95h.8s.42,3.23.42,3.23c-1.27-.85-1.42-1.74-1.22-3.23Z"/>
  <rect class="cls-11" x="400.07" y="418.96" width=".8" height="1.62"/>
  <rect class="cls-11" x="397.63" y="418.15" width=".8" height="1.62"/>
  <path class="cls-11" d="M406.97,409.2c.53.27.53.54,0,.81v-.81Z"/>
  <path class="cls-24" d="M474.06,379.11v1.63c-4.91,1.36-9.79,3.15-14.77,4.34-1.11.26-2.61,1.43-2.31-.67,5.49-2.26,11.47-3.46,17.08-5.29Z"/>
  <path class="cls-11" d="M496.01,374.23c51.53-15.25,101.98-33.41,152.06-52.85-13.37,15.37-26.96,30.81-41.85,44.74-12.17,11.38-24.93,23.74-41.9,26.81,0-.08-.66-.25-.62-.44.16-.84,12.02-7.33,13.9-8.64,14.09-9.85,37.81-32.13,48.94-45.38.64-.77,3.68-4.93.82-4.06-33.46,13.27-67.74,24.41-102.01,35.41-8.73,12.55-17.02,25.73-25.26,38.57-1.76.31-3.6-2.39-3.83-2.44-1.98-.41-3.22.82-3.9.82h-81.31c-.3,0-2.57-3.48-4.46-2.44-.37,3.03-.92,3.76-4.08,3.25,5.82-10.64,11.45-21.43,17.89-31.71l5.56.67,1.34-6.34c8.35.31,16.84.04,25.25.01,3.51-.01,6.03-.15,9.73-.04,4.19.12,11.87-1.72,12.61,3.25l6.49-2.43-.81,5.69c-2.15.71-4.34,1.73-6.51,2.44-5.61,1.83-11.59,3.04-17.08,5.29-.3,2.1,1.2.94,2.31.67,4.98-1.19,9.86-2.98,14.77-4.34,7.38-2.04,14.63-4.34,21.95-6.51Z"/>
  <polygon class="cls-5" points="668.39 393.75 667.6 396.61 662.7 397 662.7 393.75 668.39 393.75"/>
  <rect class="cls-5" x="647.26" y="393.75" width="2.43" height="3.25"/>
  <path class="cls-26" d="M448.04,481.57c.04,2.04-1.49,2.32-2.44,3.25-.68-3.26,1.73-2.68,2.44-3.25Z"/>
  <path class="cls-18" d="M391.93,361.22c3.92,2.34.22,5.73-.81.81.27-.27.54-.55.81-.81Z"/>
  <path class="cls-12" d="M284.59,485.64c.83.84-1.61,3.26-2.43,2.43s1.61-3.26,2.43-2.43Z"/>
  <rect class="cls-12" x="256.96" y="484.83" width="1.62" height="1.62"/>
  <rect class="cls-12" x="285.42" y="486.45" width=".8" height="1.62"/>
  <path class="cls-4" d="M650.51,476.69c-.09,2.1-4.21,3.67-5.69,3.26l-.04,3.22c-3.58-1.01-4.87,3.7-7.68,3.32-.27-.04-.64-2.72-2.83-1.65l-.91,4.8c-2.62-.91-3.27,1.53-3.78,1.66-5.3,1.43-11.42,2.44-17.76,1.72-1.1-.13-2.3-3.01-5.23-1.69,12.97-3.64,25.82-10.18,38.22-13.82,1.24-.37,4.43-.47,5.69-.81Z"/>
  <path class="cls-4" d="M598.47,492.95c-.54,3.33-4.99,2.87-6.76,3.26-.62.14-.51,1.47-1.11,1.6-1.67.38-3.73-.35-5.4.03-.6.14-.49,1.45-1.11,1.59-1.9.46-7.32.38-9.2-.8,7.8-1.75,15.83-3.71,23.58-5.69Z"/>
  <rect class="cls-25" x="294.36" y="592.97" width="1.62" height="2.43"/>
  <path class="cls-18" d="M290.29,595.41c-.76.69-1.57.75-1.63.81l-.81-1.62,2.44.81Z"/>
  <path class="cls-25" d="M292.73,593.78v1.62s-1.21,0-1.21,0l-.41-.81c.75-.75,1.56-.75,1.63-.81Z"/>
  <path class="cls-5" d="M636.6,447.5l.9,3.17h-3.24c-.06-2.71-.74-3.84,2.35-3.17Z"/>
  <path class="cls-13" d="M426.08,505.96c15.54,1.2,31.15,2.34,46.79,1.67,7.06-.31,14.33-1.59,21.34-2.24.9-.08,2.76-.97,2.6.57-22.31,13.28-46.23,19.29-71.96,21.96-6.33.66-12.82.37-19.1.82,2.19-4.61,7.11-8.02,10.6-11.8.61-.66.62-1.85.79-2.03.28-.3,1.55-.4,2.16-1.05,2.29-2.43,3.87-5.88,6.78-7.89Z"/>
  <path class="cls-17" d="M939.99,58.74c1.7,3.64,5.82,0,8.94,1.63-.35,1.17,0,3.61-.53,5.57-2.8,10.44-3.38,7.02-12.48,5.81,1.58-4.23,2.84-8.66,4.06-13.01Z"/>
  <path class="cls-9" d="M922.91,68.5c.07-.05-.3-1.02.63-1.58s5.24-2.31,5.87-1.67v6.51c-.53.07-1.11-.08-1.62,0,.03,1.36,0,2.72,0,4.07h-1.62c.04-1.36-.05-2.73,0-4.08.53-.07,1.11.08,1.62,0-.02-1.08.03-2.17,0-3.26h-4.88c.99,3.78-1.48,3.08-1.63,3.26-.52.06-1.12-.09-1.63,0-.1-2.13,2.31-2.53,3.25-3.25Z"/>
  <path class="cls-6" d="M883.88,97.77c-2.99,2.38-5.18,4.64-8.94,6.51-.03-2.91,3.13-4.18,5.54-5.6,1.17-.69,1.42-1.48,3.4-.91Z"/>
  <path class="cls-6" d="M909.9,78.25c.14,3.28-6.12,4.53-6.51,4.88-.56.51,1.43,1.2-1.63,1.63-1.42,4.28-2.86,2.41-4.88,3.25.81-3.32,2.37-2.91,4.88-3.25,1.03-3.1.98-.93,1.63-1.63.24-.26,2.68-4.31,3.48-4.63,1.25-.5,2.45-.04,3.02-.25Z"/>
  <path class="cls-21" d="M215.48,480.74l-8.12,4.08,2.44-8.95c1.86-.97,6.5,3.78,5.68,4.87Z"/>
  <polygon class="cls-11" points="185.39 763.72 183.77 763.72 183.78 761.29 185.39 762.52 185.39 763.72"/>
  <path class="cls-23" d="M143.52,822.27c.53.27.53.54,0,.81v-.81Z"/>
  <rect class="cls-23" x="254.52" y="429.54" width="1.62" height=".8"/>
  <path class="cls-23" d="M258.98,428.71c.53.27.53.54,0,.81v-.81Z"/>
  <path class="cls-23" d="M254.92,427.9c.53.27.53.54,0,.81v-.81Z"/>
  <rect class="cls-15" x="294.36" y="602.73" width="1.62" height="1.62"/>
  <path class="cls-15" d="M297.2,600.29c.53.27.53.54,0,.81v-.81Z"/>
  <path class="cls-15" d="M297.2,597.85c.53.27.53.54,0,.81v-.81Z"/>
  <path class="cls-15" d="M329.32,551.5c-.08,5.05-.93,10.54-3.25,15.05l2.43-.41,1.62,1.62.43-1.64c3.61,3.82,7.93-.5,10.4.13s2.12,4.59,7.93,2.77c1.06-.33,1.91-1.59,2.99-1.88,2.22-.6,5.14.06,7.53-1.01l1.63,2.44-2.73,3.78c-3.95,2.63-6.83,6.46-10.27,9.65-3.01,2.79-22.84,21.08-24.41,21.54-.43.13-1.12-.08-1.63,0,1.43-2.72,3.97-7.38,5.05-9.99.32-.77,1.28-2.52.24-3.02l-10.98,15.45c-7.03,8.39-14.28,16.58-21.95,24.39-3.73.24.1-2.71.6-3.87.39-.89.11-2.31.64-3.42,1.42-3,4.53-.94,4.51-6.95,0-1.74-.6-11.07-.86-12.07-.16-.61-4.15-.86.02-2.67l-.88-5.15c-3.26-1.22-3.33,3.18-3.61,3.21-.24.02-.93-.83-1.23-.79.03-1.27.58-3.4-1.64-2.05-.42.25-5.53,5.86-6.49,6.93l-.81-.81c2.42-2.21,2.35-4.25,3.25-5.69.13-.21.56-.53.81-.81.06-.07.87-.12,1.63-.81.28-.25.54-.54.81-.81l.41.81h1.21s0-1.62,0-1.62c11.26-11.99,21.67-24.77,31.74-37.78,1.2-1.55,2.81-4.25,4.85-4.5ZM295.98,592.97h-1.62v2.43h1.62v-2.43Z"/>
  <path class="cls-13" d="M130.51,853.17c.53.27.53.54,0,.81v-.81Z"/>
  <path class="cls-18" d="M262.24,651.51c.53.27.53.54,0,.81v-.81Z"/>
  <rect class="cls-25" x="277.29" y="623.87" width=".8" height="2.43"/>
  <path class="cls-26" d="M126.04,847.48c-.18.34-.65.56-.81.81l-.81-1.62,1.62.81Z"/>
  <rect class="cls-29" x="201.67" y="740.15" width=".8" height="2.43"/>
  <path class="cls-29" d="M203.69,740.15c.53.27.53.54,0,.81v-.81Z"/>
  <path class="cls-11" d="M198,749.9c.53.27.53.54,0,.81v-.81Z"/>
  <path class="cls-4" d="M657.42,471.81c.53.27.53.54,0,.81v-.81Z"/>
  <path class="cls-7" d="M960.72,32.72c.53.27.53.54,0,.81v-.81Z"/>
</svg>