<?xml version="1.0" encoding="UTF-8"?>
<svg id="Vrstva_1" data-name="Vrstva 1" xmlns="http://www.w3.org/2000/svg" viewBox="0 0 1000 596.44">
  <defs>
    <style>
      .cls-1 {
        fill: #dd232e;
      }

      .cls-2 {
        fill: #f8091e;
      }
    </style>
  </defs>
  <path class="cls-2" d="M85.65,562.94c-.82.5-4.47.13-7.39,1.93-15.18,9.38-29.94,20.39-43.88,31.54-1.58.33-1.34-2.02-1.01-3.09,11.6-36.55,46.63-101.71,65.84-137.14,69.95-129.02,146.22-194.6,291.54-227.37l450.26-82.23c-4.14,5.68-9.47,10.92-14.62,15.7-43.52,40.4-98,92.05-144.37,127.64-69.24,53.14-187.46,57.54-268.92,88.9l-3.11-1.04c15.09-16.39,28.9-33.91,43.1-51.06,2.92-3.53,8.9-3.5,7.09-10.67-25.83,11.4-77.59,11.93-97.36,31.3-11.45,11.22-24.87,49.44-34.08,66.36-6.4,11.76-22.4,41.08-31.75,48.81-14.68,12.14-75.64,29.84-97.66,39.39-40.01,17.36-76.6,38.52-113.67,61.04Z"/>
  <path class="cls-2" d="M87.74,429.03c-7.46,14.2-12.93,30.6-21.29,44.62l-43.55,106.02L0,354.47l1.45-6.43C86.08,200.4,220.69,118.05,386.55,88.61,587.76,52.91,793.11,33.82,994.73,0l5.27,3.2-138.04,123.52c-142.65,25.18-286.86,42.73-429.36,68.62-111.82,20.32-204.83,49.09-282.08,137.44l-12.48.07c3.17,14.19-11.49,16.75-12.65,29.22l-8.34-4.17c-.07,4.72-1.57,9.11,4.14,8.39l.03,4.15c-9.26-2.16-10.63,3-16.77,7.39l-.02,4.13,3.91,1.26.31,3.92c-9.46,1.31-8.86,8.94-8.36,16.79-8.75,2.71-6.22-4.23-12.54-4.19-2.97,7.21,3.84,8.59,4.16,9.71,1.69,6.01-7.89,10.58-4.17,19.57Z"/>
  <path class="cls-1" d="M150.51,332.78c-21.79,24.92-47.06,66.34-62.77,96.25-3.72-8.99,5.86-13.56,4.17-19.57-.32-1.12-7.13-2.5-4.16-9.71,6.32-.04,3.79,6.9,12.54,4.19-.49-7.85-1.1-15.49,8.36-16.79l-.31-3.92-3.91-1.26.02-4.13c6.14-4.39,7.51-9.55,16.77-7.39l-.03-4.15c-5.71.72-4.2-3.67-4.14-8.39l8.34,4.17c1.15-12.47,15.81-15.03,12.65-29.22l12.48-.07Z"/>
</svg>