<?xml version="1.0" encoding="UTF-8"?>
<svg id="Vrstva_1" data-name="Vrstva 1" xmlns="http://www.w3.org/2000/svg" viewBox="0 0 999.14 381.27">
  <defs>
    <style>
      .cls-1 {
        fill: #eccd5e;
      }

      .cls-2 {
        fill: #163462;
      }

      .cls-3 {
        fill: #f1c429;
      }

      .cls-4 {
        fill: #e9e9d2;
      }

      .cls-5 {
        fill: #2a3a48;
      }

      .cls-6 {
        fill: #2a3c52;
      }

      .cls-7 {
        fill: #f7e69c;
      }

      .cls-8 {
        fill: #30404c;
      }

      .cls-9 {
        fill: #f4c626;
      }

      .cls-10 {
        fill: #394556;
      }

      .cls-11 {
        fill: #153361;
      }

      .cls-12 {
        fill: #c1b56f;
      }

      .cls-13 {
        fill: #fafaf9;
      }

      .cls-14 {
        fill: #f6c723;
      }

      .cls-15 {
        fill: #2b3e4d;
      }

      .cls-16 {
        fill: #303c3d;
      }

      .cls-17 {
        fill: #edc93f;
      }
    </style>
  </defs>
  <path class="cls-9" d="M643.25,130.87c14.79-.74,34.48-1.25,48.78-3.07,3.05-.39,1.52-3.06,4.57-3.44,29.7-3.77,70.13-5.33,100.58-6.32,25.23-.82,50.65.75,75.88.06-.1,2.1.18,4.29,0,6.39-14.36,2.37-5.62,1.07-13.27,5.87-1.68,1.05-9.96,3.16-11.76,4.23-1.2.72-3,4.63-4.2,5.35-1.79,1.07-10.07,3.17-11.76,4.23-3.06,1.91-3.29,8.18-10.09,5.88l1.62,3.16-17.06,6.92c-7.41,8.99-22.39,13.19-31.92,19.15-1.17.73-3.33,5-4.15,5.39-2.87,1.36-6.96-1.49-5.93,3.67-.55.1-1.18-.15-1.6,0l-3.19,3.19c-20.87,9.09-39.14,23.5-59.86,31.85l-18.34-4.74c4.15-4.69,8.35-9.96,12.76-14.34.2-.2,1.89.31,2.68-.47,14.11-13.94,27.04-29.14,42-42.22l-.2-8.18c-3.47-2.17-26.98,2.8-32.45,3.05-13.13.61-29.14-1.63-41.63-.16-3.36.39-4.3,7.53-15.09,6.49-.53-5.09-2.02-2.44-3.19-3.19s-1.52-2.48-4.17-2.73c-16.48-1.59-38.41,4.94-55.66,2.75-71.69,6.89-142.3,22.76-209.37,49.17-9.15,3.6-23.13,9-30.83,14.65-3.01-.06-6.25.45-7.98,3.19-.53.09-1.11-.12-1.6,0-4.12,1.04-11.6,4.52-15.96,6.38h-9.59c-.04,1.06,0,2.13.01,3.19s0,2.13,0,3.19c-3.18.11-6.39-.09-9.57.02l3.17,3.16c-1.63-.63-12.66,3.75-9.56,6.39,1.03.87,6.48-2.66,8.83-3.12,6.44-1.26,10.78-1.55,16.69-3.26v3.19c4.32,1.28,9.35-2.1,9.58-6.38,2.64-.18,5.35.16,7.99,0v-3.19c1.58-.08,3.19.09,4.77,0,2.12-.12,4.27.13,6.39,0,.09-1.05-.08-2.13,0-3.19,3.16-.16,6.4,0,9.58,0h3.19c-.64,1.66-3.78,5.49-4.79,6.38-.57.51-1.05,1.09-1.6,1.6l-11.17-1.58,1.6,4.77c-1.22.54-2.61,1.37-3.19,1.6h-6.39s0,3.19,0,3.19c-.52.07-1.07-.06-1.6,0-2.6.31-5.37-.25-7.99,0v3.19c-.5.1-1.08-.12-1.58,0-5.29,1.23-8.97,3.87-14.36,3.22-.22,1.03.15,2.18,0,3.16-6.01,1.71-3.81,1.31-7.62,3.13-3.32,1.59-4.68-2.75-5.15,3.25-.12,1.58.1,3.21-.01,4.78l-6.4-.9-15.93,8.88c-.97.2-2.26-.22-3.19,0-16.39,3.86-32.41,15.99-45.93,22.28-3.67,1.71-3.93-2.8-5.14,3.26-4.45.26-10.47.27-12.77,4.79-1.53-.21-3.26.22-4.79,0-7.9-1.14-2.18-.29-5.28,1.06-5.8,2.52-8.62,2.47-14.38,3.75-.74.16-2.3,5.51-7.47,3.19l3.18,3.16c-5.62-1.84-5.65,2.05-7.7,3.06-2.33,1.15-8.29.81-8.25,6.53-2.1.04-4.3.15-6.38,0-1.84-.13-3.72.09-5.57,0l-.78-3.17c2.21-2.22,8.11-3.08,9.04-3.74,4.06-2.87,8.36-12.26,13.94-12.31l2.52-6.33c1.95-1.59,4.85-4.37,6.38-6.38l24.91-16.59c3.97-3.76,9.09-9.02,13.39-12.14,6.27-4.54,17.07-11.66,23.58-15.88,6.51-4.21,15.31-6.86,20.58-10.2,1-.64,4.29-4.12,3.72-5.84,97.7-49.12,186.4-77.4,293.65-98.95,3.65-.82,2.26,2.93,5.49,3.31,10.38,1.25,16.14-2.67,23.24-3.31,1.05-.09,2.14.1,3.19,0,7.15-.67,15.1.49,22.36,0v-3.19c1.05-.03,2.12.04,3.18,0,7.42-.25,14.93.19,22.36,0v-3.19Z"/>
  <path class="cls-6" d="M758.16,6.38c4.25.09,8.53-.08,12.78,0v4.79c-2.59.11-5.43.17-7.99,0-.96-.07-2.99-2.15-4.78-1.59v3.18c-4.15-.32-3.86-.44-7.99,0l-4.79,1.6c-4.96.55-11.11,1.25-15.96,1.6v-3.19s-3.98-.01-3.98-.01l-.81,3.2c-1.05.08-2.13-.03-3.19,0-1.49.04-4.21-1.87-6.38,1.6-37.78,3.63-89.61,11.21-126.08,20.75-1.73.45-2.47,1.34-3.19,1.6-2.07.19-4.37-.28-6.38,0-24.78,3.51-53.78,12.5-78.2,19.15-.77-2.02-3.03-1.6-4.79-1.6-4.58-5.59,5.58-2.5,8.48-3.23,1.19-.3.97-2.83,2.2-3.12,13.42-3.16,24.65-4.68,37.9-6.51,4.72-.65,13.29-6.28,14.36-6.41,5.64-.73,13.62,1.26,18.93.09,1.19-.26,1.29-2.71,3.11-3.62,8.51-4.28,16.61-2.53,25.84-2.62,1.69-.35.34-3.53,1.18-4.5,3.23-3.73,26.42-1.1,32.54-1.87,3.05-.38,1.52-3.06,4.57-3.44,7.04-.89,15.93.91,23.24.12,2.59-1.97-.03-2.89-2.36-3.19-6.78-.86-26.97-.99-33.65-.12-2.95.39-2.09,2.98-3.38,3.28-3.78.88-16.59-.96-18.06.05l1.62,3.17c-1.93,1.32-23.95-1.17-29.21.07-1.11.26-1.04,2.55-2.38,2.98-15.93,5.14-32.92,3.09-48.72,6.56-1.22.27-.96,2.84-2.18,3.14-7.8,1.88-28.5,1.91-38.12,3.1-6.61.82-24.77,8.09-32.09,9.68-3.69.8-9.13-2.25-8.52,3.17l-5.45-3.07c-6.83,4.33-14.81,4.72-22.15,6.33-1.22.27-.96,2.84-2.18,3.14-7.09,1.71-16.72,1.2-24.79,3.67-11.39,3.49-25.14,9.75-35.85,12.29-3.19.76-7.41-.35-10.81-.07l-.88,4.91-5.41-1.73c-1.91,6.13-7.62,2.19-12.62,3.36-.57.13-8.05,6.16-8.61,6.29-2.85.69-10.58-.77-11.56.2l-.1,4.65c-6.81-4.37-6.1,1.29-7.43,1.58-5.78,1.26-7.7,2.6-9.65,3.13-2.84.76-8.1-.47-10.7,1.51-1.53,1.16-.48,4.16-1.11,4.69-1.66,1.39-12.01,2.93-14.62,3.49-1.4.3-4.09,5.96-5.51,6.27-3.94.87-13.03-.58-10,6.43-5.89-2.7-8.56,3.07-9.08,3.18-14.79,3.34-6.34,2.66-15.37,9.08-1.22.87-3.71.15-5.33,1.06-4.95,2.79-1.89,5.55-2.18,5.77-3.38,2.59-14.35,5.89-18.62,10.04-1.11,1.08-6.76,11.08-8.87,11.89-2.79,1.06-8.93.09-9.18.48-.33.53.55,3.79-.44,5.95-2.67,5.81-11.71,6.41-12.22,6.95-.64.69.36,3.65-.22,4.93-2.85,6.2-8.95,3.54-10.86,4.71-1.02.62-1.3,6.69-2.37,8.87-2.49,5.08-10.71,6.3-11.87,7.18-.66.5-2.1,7.97-3.83,8.95-2.33,1.32-8.59-.36-9.25.35-.28.3.42,3.89-.47,5.93-2.2,5.07-21.32,13.43-15.48,22.77-12.79-4.09-14.33,14.03-25.55,12.78l1.59,11.17c-12.43-4.94-9.59,6.22-11.89,9.67-2.13,3.18-11.49,4.29-11.97,4.76-.43.42.37,3.9-.53,5.88-2.45,5.44-11.72,6.35-12.24,6.88s.39,3.56-.15,5.03c-.13.35-3.76,6-4.07,6.21-2.23,1.5-8.04,1.08-8.49,1.58-.53.58.22,4.57-.55,6.62-2.76,7.4-6.44,5.33-12.33,9.23.25-1.46-.17-3.25,0-4.79,49.58-54.92,97.01-103.7,153.21-151.61,58.94-50.25,100.68-70.26,175.93-92.99,91.43-27.62,218.84-53.17,314.03-57.03,13.83-.56,28.76,1.07,42.37,0,4.9-.38,4.11.79,3.91-4.79,1.06,0,2.13-.03,3.19,0,.21,0,1.77,1.57,3.86,1.66,6.13.29,12.37-.32,18.5-.07v-3.19c4.23-.03,8.52-.09,12.76,0Z"/>
  <path class="cls-8" d="M30.41,314.4c-.17,1.54.25,3.33,0,4.79-.81,4.77-6.64,6.87-9.06,10.08-.94,1.25-.09,4.22-1.03,5.38-3.41,4.22-13.69,9.35-12.21,15.3,1.24,4.95,9.46,3.81,12.33,4.83,1.89.67,15.48,13.95,19.54,15.49v3.19c1.05.08,2.16-.13,3.19,0s2.14-.05,3.19,0l1.01,3.22,8.58-.03c.13-1.04-.15-2.17-.01-3.19h4.79c-.62.49-.94,2.61-1.6,3.19-7.83,6.91-9.41,5.39-18.05.04-1.55-.96-.95-3.14-1.1-3.23-.8-.51-3.39-.67-5.28-1.83-11.57-7.07-22.88-14.72-34.68-21.36-.93-5.37,20.43-24.36,24.91-29.4,2.17-2.44,3.55-4.33,5.48-6.46Z"/>
  <path class="cls-17" d="M204.37,308.01c.15,1.97-4.1,6.68-5.29,7.5-4.11,2.83-11.35,2.04-11.99,2.31-2.46,1.03-9.77,9.84-16.24,10.94-1.41.24-3.23-.08-4.79,0-.53.03-1.06,0-1.6,0-.04-5.71,5.92-5.38,8.25-6.53,2.05-1.01,2.09-4.91,7.7-3.06l-3.18-3.16c5.17,2.32,6.73-3.02,7.47-3.19,5.76-1.29,8.58-1.23,14.38-3.75,3.1-1.35-2.62-2.2,5.28-1.06Z"/>
  <path class="cls-8" d="M716.66,7.98c1.06,0,2.13,0,3.19,0,.2,5.58.99,4.41-3.91,4.79-13.61,1.07-28.54-.56-42.37,0,5.11-1.76,12.88-2.69,18.36-3.18,7.53-.67,17.33-1.56,24.73-1.6Z"/>
  <path class="cls-11" d="M183.62,162.78c.25-.39,6.39.58,9.18-.48,2.12-.81,7.76-10.81,8.87-11.89,4.27-4.14,15.24-7.45,18.62-10.04.29-.22-2.76-2.98,2.18-5.77,1.61-.91,4.11-.2,5.33-1.06,9.03-6.42.59-5.74,15.37-9.08.52-.12,3.19-5.88,9.08-3.18-3.03-7.01,6.06-5.56,10-6.43,1.42-.31,4.11-5.97,5.51-6.27,2.61-.56,12.96-2.11,14.62-3.49.64-.53-.41-3.53,1.11-4.69,2.61-1.98,7.86-.75,10.7-1.51,1.95-.52,3.87-1.86,9.65-3.13,1.33-.29.62-5.95,7.43-1.58l.1-4.65c.99-.97,8.72.49,11.56-.2.56-.14,8.04-6.16,8.61-6.29,5.01-1.17,10.71,2.77,12.62-3.36l5.41,1.73.88-4.91c3.4-.28,7.62.83,10.81.07,10.72-2.54,24.46-8.8,35.85-12.29,8.08-2.47,17.7-1.96,24.79-3.67,1.22-.29.96-2.87,2.18-3.14,7.34-1.61,15.32-2,22.15-6.33l5.45,3.07c-.61-5.42,4.84-2.37,8.52-3.17,7.32-1.59,25.48-8.86,32.09-9.68,9.62-1.19,30.32-1.22,38.12-3.1,1.22-.29.96-2.87,2.18-3.14,15.81-3.47,32.79-1.42,48.72-6.56,1.34-.43,1.27-2.72,2.38-2.98,5.26-1.23,27.27,1.26,29.21-.07l-1.62-3.17c1.48-1.01,14.29.84,18.06-.05,1.29-.3.43-2.9,3.38-3.28,6.68-.87,26.87-.74,33.65.12,2.33.3,4.95,1.22,2.36,3.19-7.31.79-16.2-1-23.24-.12-3.05.39-1.52,3.06-4.57,3.44-6.11.77-29.31-1.86-32.54,1.87-.84.97.51,4.15-1.18,4.5-9.24.09-17.34-1.66-25.84,2.62-1.82.91-1.91,3.36-3.11,3.62-5.31,1.17-13.29-.82-18.93-.09-1.07.14-9.64,5.76-14.36,6.41-13.25,1.84-24.48,3.35-37.9,6.51-1.23.29-1,2.82-2.2,3.12-2.91.73-13.07-2.36-8.48,3.23-4.74.01-16.63,2.04-21.21,3.26-.73.19-11.07,6.11-11.8,6.29-3.39.81-8.03-.46-11.67.05l3.18,3.16c-6.45-2.92-10.06,3.03-10.66,3.17-3.41.81-8.03-.43-11.68.03v6.39c-3.24,1.45-1.42,1.77.83,1.65,4.89-.27,8.62-1.84,13.19-2.86,6.96-1.56,14.78-4.11,23.5-5.23,2.98-.38,6.47,2.01,5.58-3.13,35.2-5.27,72.87-15.62,108.52-22.34,5.57-.93,14.84,1.32,19.7.02,1.71-.46.88-3.22,1.05-3.22h22.34c.17,0-.67-2.76,1.05-3.22,3.98-1.07,11.13.74,15.79.11,6.39-.87,9.8-2.71,18.27-3.27s13.74-2.73,18.25-3.32c16.21-2.12,35.21-.91,51.28-2.94,3.05-.39,1.52-3.06,4.57-3.44,5.36-.68,33,1.2,34.43.12.1-1.05-.11-2.14-.01-3.19,2.66-.01,5.34.05,7.99,0v-3.19c1.05,0,2.12,0,3.18,0,18.73-.13,44.13,2.53,63.15.13,3.05-.39,1.52-3.06,4.57-3.44,6.87-.87,14.83,1.24,21.12,1.12,38.97-.73,78.02-1.53,117.02-.99,1.22,5.32-10.24,4.14-12.75,3.19v12.76c-.54.03-1.08-.04-1.61,0-22.79,1.94-50.79-2.89-72.72-.13-3.05.38-1.56,3.11-4.58,3.46-13.67,1.59-26.1.98-41.51,3.13-12.92,1.81-30.14-1.79-43.26-.2-1.16.14-8.69,5.39-16.07,6.3-18.66,2.3-38.84,2.51-55.96,6.55-16.76,3.95-43.06,2.38-60.05,6.46-8.38,2.01-15.24,1.52-22.34,3.19-1.29.3-.43,2.9-3.38,3.28-6.7.88-15.14-1.01-22.09-.06-5.34,9.1-11.64,6.04-21.18,6.32-3.07.09-6.41-1.62-5.51,3.19-8.46.41-31.7,4.32-40.4,6.42-.73.18-11.03,6.14-11.76,6.32-5.65,1.36-15.04-.92-21.24.05l3.18,3.16c-6.86-1.34-7.8,1.62-7.96,8,7.23-5.22,18.42-.26,28.02-1.47,3.05-.38,1.52-3.06,4.57-3.44,6.39-.81,16.45,1.51,22.17.1,1.24-.31.99-3.03,2.14-3.23,27.31-4.61,60.56-2.04,87.41-9.64,74.27-3.13,147.67-6.52,222.74-6.26,6.9.02,13.85-.1,20.75,0,4.23.06,8.74,2.51,14.36,1.6.43,2.37-4.12,6.01-6.38,7.98-.56.49-1.02,1.1-1.6,1.6-2.44,2.12-9.37,8.34-11.17,9.58s-9.03,4.78-11.17,4.79c-6.8-2.7-19.06-2.66-25.53,0-6.36.09-12.79-.13-19.15,0-2.66.05-5.32-.07-7.98,0-9.51-3.2-17.61-.12-26.27.07-24.63.53-48.56-.06-71.99,3-2.95.39-2.09,2.98-3.38,3.28-4.43,1.04-18.28,1.09-24.44,1.63-31.97,2.79-63.24,2.8-93.8,10.75-7.43,1.93-21.1,6-28.45,6.77-7.12.75-18.01-.13-25.21-1.25l-2.55,2.87,6.38,1.6-12.75.03,3.18,3.16c-5.32.63-11.76-.78-16.86-.11-2.95.39-2.09,2.98-3.38,3.28-4.82,1.14-12.04-1.05-16.92.09-1.08.25-1.03,2.47-2.44,2.94-15.02,5.02-32.8,6.46-47.26,9.88-17.81,4.21-32.81,12.66-48.29,15.85-6.19,1.27-16.43-1.63-23.44,4.66-1.7,1.53-.63,4.27-1.11,4.71-1.02.94-5.97-.32-8.38.23-1.19.27-.97,2.85-2.18,3.13-3.63.85-8.27-.7-12.11.11-.46.1-6.65,6.14-7.11,6.25-6.52,1.51-11.76,1.93-18.44,3.32-.46.1-6.63,6.15-7.09,6.26-8.47,1.97-12.13,3.4-20.66,6.98-.76.32-2.58,5.06-8.51,2.67l1.62,3.17-9.58-1.59-.14,4.59c-.96.81-3.77-.31-4.97.29-4.3,2.11-10.88,7-15.37,9.35-1.76.92-5.94-1.38-5.08,3.32l-3.15-3.17v6.39c-6.27-2.75-9.79,2.65-10.36,2.81-2.47.67-8.15-.3-11.07,1.81-1.55,1.12-.46,4.15-1.11,4.7-.99.82-17.93,8.06-21.63,10.36-.98.61-4.31,4.13-3.72,5.84-6.37,3.46-13.69,8.69-20.75,12.77-3.62,2.09-6.78,4.72-9.58,6.38-31.12,18.53-58.49,35.96-87.78,57.45l-12.29,3.66c-6.66,7.36-16.03,9.6-22.83,16.69-6.33,6.6-4.52,4.01-12.18,9.02-2.07,1.36-11.11,10.39-10.16,13.72-.54.43-.99,1.12-1.6,1.6h-1.6l-.81-3.2-2.37.02c-.11,1.04.13,2.15,0,3.18-3.18,0-6.41.15-9.58,0-1.05-.05-2.16.13-3.19,0l1.59-3.18c-1.43-.29-3.73.38-4.79-.02-4.06-1.54-17.65-14.82-19.54-15.49-2.87-1.02-11.1.12-12.33-4.83-1.49-5.95,8.8-11.08,12.21-15.3.94-1.16.09-4.13,1.03-5.38,2.42-3.2,8.25-5.31,9.06-10.08,5.89-3.91,9.57-1.83,12.33-9.23.76-2.04.02-6.03.55-6.62.45-.5,6.27-.08,8.49-1.58.31-.21,3.94-5.86,4.07-6.21.54-1.47-.38-4.48.15-5.03s9.79-1.44,12.24-6.88c.89-1.99.1-5.46.53-5.88.48-.47,9.84-1.58,11.97-4.76,2.3-3.45-.54-14.6,11.89-9.67l-1.59-11.17c11.22,1.25,12.76-16.88,25.55-12.78-5.84-9.34,13.28-17.7,15.48-22.77.89-2.05.2-5.64.47-5.93.66-.71,6.92.97,9.25-.35,1.73-.98,3.18-8.45,3.83-8.95,1.16-.88,9.38-2.1,11.87-7.18,1.07-2.18,1.36-8.25,2.37-8.87,1.91-1.17,8.01,1.49,10.86-4.71.59-1.28-.41-4.24.22-4.93.5-.54,9.55-1.14,12.22-6.95.99-2.16.1-5.42.44-5.95Z"/>
  <path class="cls-1" d="M627.29,210.66c-.2,1.59.4,6.01-.02,6.37-.39.33-3.86-.43-5.93.48-.62.27-8.91,8.85-9.5,9.61-5.29,6.81-2.16,4.03-9.68,11.17-2.08,1.97-2.1,10.06-9.97,7.48v6.4s-6.39,0-6.39,0c3.25,9.25-8.93,9.05-9.52,9.63-.51.51.33,3.52-.17,5-1.76,5.19-9.01,4.17-9.41,4.57-.43.43.35,3.88-.53,5.88s-8.69,4.24-7.63,10.63c6.53,6.3,8.5-.46,9.17-.6,11-2.38,15.54-5.4,25-9.04,4.04-1.55,17.32-8.13,21.31-10.63,1.14-.72,3.43-5.09,4.17-5.38,2.43-.95,4.35-.11,5.91-.48.24-.55-.34-2.07.37-2.78.95-.95,2.38-.18,2.82-.41.65,3.78-1.02,2.68-3.19,3.19-2.15,5.03-2.72,1.3-4.79,6.38-.84,2.08-2.15,3.53-1.68,6.27-6.47-2.23-8.83,2.29-10.02,2.76-6.98,2.77-12.77,6.98-19.15,9.58-12.72,5.18-31.57,13.95-42.07,16.46-3.37.81-8.03-.43-11.67.03.33-6.63,8.77-4.61,6.4-12.74,8.6,1.89,6.78-4.51,10.23-8.98,6.29-8.14,38.07-34.27,40.35-39.36.89-1.99.09-5.45.53-5.88.4-.4,6.84.96,9.41-4.57.61-1.32-.39-4.44.17-5.01.43-.44,3.89.36,5.88-.53.67-.3,7.71-8.98,10.01-10.7l1.6-1.6c.36-.24,1.19.23,1.6,0,1.66-.96,4.56-2.37,6.38-3.19Z"/>
  <path class="cls-5" d="M962.44,14.36c8.92.14,19.09-.33,27.13,0,1.06.04,2.13-.05,3.19,0,.93.04,4.82,2.29,6.38,2.39l-23.93,18.36v-12.76c2.52.95,13.98,2.13,12.76-3.19-39.01-.54-78.05.26-117.02.99-6.29.12-14.25-1.99-21.12-1.12-3.05.38-1.52,3.06-4.57,3.44-19.02,2.4-44.42-.25-63.15-.13l55.08-4.77c20.49-.37,40.96-1,61.43-1.61,3.19-.1,6.39.08,9.58,0,17.86-.46,35.96-1.88,54.26-1.6Z"/>
  <path class="cls-8" d="M502.81,212.26c23.3-4.59,48.18-4.22,71.81-6.38,1,3.71-.87,2.67-2.02,3.65-7.35,6.29-15.79,12.84-23.51,18.68-5.92,4.49-15.17,8.04-20.75,12.77-10.88.38-21.9-.5-32.78-.07-6.58.26-23.14.83-28.32,2-3.26.73-26.73,15.85-32.77,19.15-.75.41-.11,2.71-.29,2.85-.72.59-14.4,4.91-17.56,6.38-.23-5.64,6.27-5.47,8.2-6.56,11.56-6.53,23.35-15.83,33.78-21.66,1.62-.91,4.29.01,5.5-.93.85-.66.28-2.69.4-2.76,5.38-3.41,37.17.86,45.51.16,1.68-.14,11.34-2.74,14.01-3.41.6-.15,4.35-6.06,10.69-3.15l-3.18-3.16c10.52,3.05,13.65-7.64,20.39-12.69,3.43-2.57,9.11-2.27,8.32-6.47-9.28.94-20.67-1.26-29.62-.13-3.05.38-1.52,3.06-4.57,3.44-6.04.76-17.4.52-23.25-1.72Z"/>
  <path class="cls-15" d="M459.72,234.6v4.79s4.79,0,4.79,0c-.12.07.45,2.1-.4,2.76-1.21.94-3.88.03-5.5.93-10.43,5.83-22.23,15.13-33.78,21.66-1.93,1.09-8.43.92-8.2,6.56-7.8,3.65-16.03,7.92-23.94,11.17-16.9,6.93-30.67,12.09-48.41,15.96-.92.2-1.71,6.13-4.25,3.19-1.49-1.72,2.2-4.45,3.18-5.58,1.63-1.89,17.99-17.72,19.16-18.35.36-.19,1.05.15,1.6,0,1.27-.34,3.31.23,4.79,0-1.09,5.98-3.67,1.94-5.65,4.73-1.45,2.05.92,7.29-3.91,6.47,2.55,5.63,6.79-1.03,7.69-1.42,7.05-3.1,13.76-7.39,21.03-6.59l-1.62-3.17c10.06,1.77,10.9-1.44,16.95-7.06,1.22-1.13.6-1.49,3.81-4.13h1.6l.84,1.6,2.35-1.6c12.81-4.98,35.32-23.3,47.88-31.92Z"/>
  <path class="cls-1" d="M873.07,124.48c-.6,6.64-6.71,5.35-9.06,6.9-8.46,5.59-15.79,10.95-24.71,15.58-2.13,1.1-2.16,4.74-7.7,3.05v6.39c-8.26-2.45-9.15,4.13-15.96,3.19l3.18,3.16c-5.63-1.83-5.62,2.01-7.7,3.07-12.81,6.5-30.04,19.98-43.36,22.48-.98.18-2.2-.17-3.19,0-1.03-5.16,3.06-2.31,5.93-3.67.82-.39,2.98-4.66,4.15-5.39,9.53-5.96,24.51-10.16,31.92-19.15l17.06-6.92-1.62-3.16c6.8,2.3,7.03-3.96,10.09-5.88,1.69-1.06,9.96-3.16,11.76-4.23,1.2-.72,3-4.63,4.2-5.35,1.79-1.07,10.07-3.17,11.76-4.23,7.65-4.8-1.09-3.5,13.27-5.87Z"/>
  <path class="cls-1" d="M325.66,252.16c-3.16,5.35-9.91,5.11-14.36,6.38-.15.97.27,2.89,0,3.19s-4.69-.74-3.2,4.79l-9.56-1.6c.47-6,1.83-1.65,5.15-3.25,3.81-1.83,1.61-1.42,7.62-3.13.16-.98-.22-2.14,0-3.16,5.39.65,9.07-2,14.36-3.22Z"/>
  <path class="cls-4" d="M617.72,215.45c.5-.37.89-1.13,1.6-1.6l-1.6,1.6Z"/>
  <path class="cls-16" d="M719.86,110.12v1.6c-.29.03-1.78,1.44-3.86,1.66-19.98,2.18-40.57,2.55-59.98,7.91-22.81,1.21-49.13,6.98-71.82,11.17-7.03,1.3-13.87,3.41-20.75,4.79-107.25,21.55-195.95,49.83-293.65,98.95-10.39,5.22-22.04,10.59-31.92,15.96-.59-1.71,2.74-5.23,3.72-5.84,3.69-2.3,20.64-9.54,21.63-10.36.65-.54-.44-3.57,1.11-4.7,2.92-2.12,8.6-1.14,11.07-1.81.57-.16,4.1-5.56,10.36-2.81v-6.39s3.16,3.17,3.16,3.17c-.86-4.7,3.33-2.4,5.08-3.32,4.48-2.35,11.07-7.24,15.37-9.35,1.21-.59,4.02.52,4.97-.29l.14-4.59,9.58,1.59-1.62-3.17c5.93,2.39,7.76-2.35,8.51-2.67,8.53-3.58,12.2-5.01,20.66-6.98.46-.11,6.63-6.16,7.09-6.26,6.69-1.38,11.92-1.81,18.44-3.32.46-.11,6.65-6.15,7.11-6.25,3.84-.81,8.48.74,12.11-.11,1.2-.28.98-2.86,2.18-3.13,2.4-.54,7.36.71,8.38-.23.48-.44-.59-3.18,1.11-4.71,7.01-6.29,17.25-3.39,23.44-4.66,15.49-3.18,30.48-11.64,48.29-15.85,14.46-3.42,32.23-4.86,47.26-9.88,1.41-.47,1.36-2.69,2.44-2.94,4.88-1.15,12.1,1.04,16.92-.09,1.3-.31.43-2.9,3.38-3.28,5.1-.67,11.53.74,16.86.11l-3.18-3.16,12.75-.03-6.38-1.6,2.55-2.87c7.2,1.12,18.09,2,25.21,1.25,7.35-.77,21.02-4.84,28.45-6.77,30.56-7.95,61.83-7.96,93.8-10.75Z"/>
  <path class="cls-17" d="M177.24,303.23l-2.52,6.33c-5.58.05-9.87,9.44-13.94,12.31-.93.66-6.83,1.52-9.04,3.74l.78,3.17c1.85.08,3.73-.14,5.57,0l-1.6,6.38c-.8.3-2.33-.28-3.19,0-2.32.76-9.48,3.86-7.98,6.38-.38.24-1.23-.24-1.6,0-5.59-1.73-4.48,3.01-4.79,3.19-.86.52-4.78-.41-6.39,0-.1,1.05.09,2.14.01,3.19-2.12,0-4.26.02-6.38,0l1.59-6.38c.54-.14,1.47.2,1.6,0h3.19s0-3.19,0-3.19c12.82-12.14,29.67-22.88,44.69-35.11Z"/>
  <path class="cls-3" d="M392.69,220.24h3.18s-1.59,6.38-1.59,6.38c-11.83,4.91-24.3,9.44-36.71,12.77,1.01-.89,4.14-4.72,4.79-6.38,1.41-3.64,2.94-3.21,3.19-6.38,4.1-.48,9.93-2.4,14.36-3.19,2.05-.36,4.87.62,6.87.02,1.79-.53.97-3.12,1.11-3.22.63-.46,3.67.44,4.79,0Z"/>
  <path class="cls-7" d="M584.2,132.46l1.11,1.28,6.87.33v3.17c-7.1.64-12.86,4.56-23.24,3.31-3.23-.39-1.84-4.14-5.49-3.31,6.87-1.38,13.72-3.49,20.75-4.79Z"/>
  <path class="cls-17" d="M330.45,236.2c-.04,1.06.06,2.13,0,3.19-7.43.49-4.87,1.84-9.58,3.19-5.91,1.7-10.25,1.99-16.69,3.26-2.35.46-7.81,3.99-8.83,3.12-3.11-2.64,7.92-7.02,9.56-6.39l-3.17-3.16c3.18-.11,6.39.09,9.57-.02,8.42-.28,11.99-2.31,19.15-3.19Z"/>
  <path class="cls-7" d="M617.72,134.06v3.19c-7.25.5-15.2-.67-22.34,0,6.48-4.39,14.97-2.99,22.34-3.19Z"/>
  <path class="cls-7" d="M643.25,130.87v3.19c-7.41.19-14.92-.24-22.34,0,6.52-4.51,14.98-2.82,22.34-3.19Z"/>
  <path class="cls-3" d="M333.64,236.2c1.56-.16,3.21.08,4.79,0v3.19c-2.63.16-5.34-.17-7.98,0-.23,4.28-5.26,7.66-9.58,6.38v-3.19c4.71-1.36,2.15-2.7,9.58-3.19.06-1.06-.04-2.13,0-3.19,1.04-.13,2.15.11,3.19,0Z"/>
  <path class="cls-17" d="M365.56,226.62c-.26,3.17-1.78,2.74-3.19,6.38h-3.19v-3.19c-1.05-.15-2.16.11-3.19,0l1.6-3.19c2.61-.15,5.47.3,7.98,0Z"/>
  <path class="cls-1" d="M164.47,328.76c.53,0,1.07.03,1.6,0-1.23.81-4.91,5.76-5.26,5.93-1.91.9-3.53.16-4.31.45l1.6-6.38c2.09.15,4.29.04,6.38,0Z"/>
  <path class="cls-3" d="M355.98,240.99c-3.68,3.4-6.84,1.99-9.58,3.19l-1.6-4.77,11.17,1.58Z"/>
  <path class="cls-3" d="M355.98,229.81c1.04.12,2.14-.15,3.19,0v3.19c-3.17,0-6.41-.16-9.57,0-.07,1.05.1,2.13,0,3.19-2.12.13-4.27-.12-6.39,0v-3.19c2.11-.13,4.26.1,6.38,0,.07-1.06-.07-2.14,0-3.19,1.8-.2,4.59-.2,6.38,0Z"/>
  <path class="cls-17" d="M320.87,233.01c-1.5.64-4.08,5.45-9.58,3.19,0-1.06-.05-2.13-.01-3.19h9.59Z"/>
  <path class="cls-17" d="M349.6,229.81c-.07,1.06.07,2.14,0,3.19-2.12.11-4.27-.12-6.39,0v3.19c-1.58.09-3.19-.08-4.78,0s-3.23-.16-4.79,0l1.6-3.19c1.45.06,3.51.24,4.79,0,4.05-.75,4.51-3.13,4.79-3.19,1.3-.31,3.27.17,4.79,0Z"/>
  <path class="cls-1" d="M335.24,248.97c-1.24,4.32-5.13,2.65-7.98,3.19v-3.19c2.61-.26,5.38.31,7.98,0Z"/>
  <path class="cls-7" d="M346.41,223.43c-.22.16.89,2.73-1.05,3.26s-4.84-.43-6.92-.07c1.73-2.74,4.97-3.26,7.98-3.19Z"/>
  <path class="cls-1" d="M343.22,245.77c-1.05.41-.33,2.41-6.38,3.19v-3.19s6.38,0,6.38,0Z"/>
  <path class="cls-1" d="M759.75,191.51l3.19-3.19c-.21.08-1.28,2.36-3.19,3.19Z"/>
  <path class="cls-8" d="M855.51,0c.89,4.98-2.49,2.92-5.54,3.17-25.79,2.15-53.82,6.93-79.05,8v-4.79c-4.23-.08-8.52.1-12.77,0,16.63-4.42,36.66-4.09,54.26-4.79,3.71-.15,7.46.12,11.17,0,10.74-.35,21.25-1.07,31.92-1.6Z"/>
  <path class="cls-16" d="M496.43,57.45c1.76,0,4.01-.43,4.79,1.6-12.75,3.47-25.54,7.14-38.3,11.17-10.09,3.19-20.3,6.17-30.32,9.58v-6.39c3.64-.46,8.26.78,11.67-.03.6-.14,4.21-6.1,10.66-3.17l-3.18-3.16c3.64-.51,8.28.76,11.67-.05.73-.18,11.07-6.09,11.8-6.29,4.59-1.22,16.47-3.24,21.21-3.26Z"/>
  <path class="cls-8" d="M745.39,6.38v3.19c-6.11-.25-12.35.36-18.48.07-2.09-.1-3.65-1.66-3.86-1.66,6.69-2.79,15.02-1.54,22.34-1.6Z"/>
  <path class="cls-8" d="M724.64,15.96l.81-3.2h3.97s0,3.2,0,3.2c-1.58.11-3.21-.13-4.79,0Z"/>
  <path class="cls-8" d="M721.45,15.96c-1.13,2.51-4.32,1.4-6.38,1.6,2.17-3.46,4.89-1.55,6.38-1.6Z"/>
  <path class="cls-8" d="M762.95,11.17c-.57,1.97-3.15,1.72-4.79,1.6v-3.18c1.8-.56,3.83,1.52,4.79,1.59Z"/>
  <path class="cls-8" d="M750.18,12.77c-.25.03-1.7,1.26-4.79,1.6l4.79-1.6Z"/>
  <path class="cls-6" d="M119.79,328.76c-19.01,13.95-39.15,28.68-57.45,43.09-.95-3.33,8.09-12.36,10.16-13.72,7.66-5.02,5.85-2.42,12.18-9.02,6.8-7.09,16.17-9.33,22.83-16.69l12.29-3.66Z"/>
  <path class="cls-1" d="M127.77,341.53l-1.59,6.38c2.12.02,4.25.01,6.38,0,.08-1.05-.12-2.14-.01-3.19,1.62-.41,5.54.51,6.39,0,.31-.19-.8-4.92,4.79-3.19-1.43.96-3.72,2.41-4.79,3.19s3.11,3.17-6.38,3.19c-.08,1.05.02,2.13,0,3.19-1.62.18-3.33-.27-4.81.78-1.01.5-1.09,1.66-1.57,2.41l-3.19,1.6c-1.9-.04-4.39,1.39-6.38,1.6s-4.29-.12-6.38-.02l1.6-3.18c.6-.29,9.9-7.54,10.31-8.06.93-1.17.48-3.74,1.13-4.45.88-.97,3.32.04,4.51-.25Z"/>
  <path class="cls-7" d="M111.81,354.3l-1.6,3.18c2.09-.11,4.3.23,6.38.02-.71,7.62-8.69,4.15-9.58,9.58-2.63-.17-5.34.14-7.98-.02l1.84-6.14c1-.97,4.45.06,6.14-.23.68-.12,1.29.16,1.56-.8l-1.56-.8.08-4.73c1.35-.54,3.87.34,4.71-.06Z"/>
  <path class="cls-1" d="M132.55,338.34v3.19s-3.19,0-3.19,0c.36-.57-.41-2.77,0-3.19s2.81.35,3.19,0Z"/>
  <path class="cls-1" d="M107.02,360.68v-1.6l1.56.8c-.27.95-.88.68-1.56.8Z"/>
  <path class="cls-1" d="M145.32,341.53c-1.5-2.53,5.66-5.62,7.98-6.38-1.45,4.61-5.44,4.78-7.98,6.38Z"/>
  <path class="cls-13" d="M144.52,347.91c1.04.53,1.04,1.06,0,1.6v-1.6Z"/>
  <path class="cls-6" d="M39.99,370.26c1.06.4,3.36-.28,4.79.02l-1.59,3.18c-1.04-.13-2.15.08-3.19,0v-3.19Z"/>
  <path class="cls-7" d="M126.17,354.3c-.37.58.37,2.79-.01,3.19-.86.88-3-1.59-3.18-1.59l3.19-1.6Z"/>
  <path class="cls-6" d="M55.95,373.45c.14-1.03-.1-2.14,0-3.18l2.37-.02.81,3.2h-3.19c-.14,1.02.14,2.15.01,3.19l-8.58.03-1.01-3.22c3.17.15,6.4,0,9.58,0Z"/>
  <path class="cls-3" d="M833.17,51.07c42-.15,84.08.1,126.09,0,4.99,5.36-12.81,14.48-15.95,16.78-4.48,3.27-5.78,8.95-14.38,10.35-5.63.92-10.14-1.54-14.36-1.6.89-4.82-2.44-3.09-5.51-3.19-52.4-1.75-112.22-2.07-164.53,0-3.08.12-6.4-1.64-5.51,3.19-41.71,1.77-82.94,7.43-124.48,9.58-6.34.33-12.82-.25-19.16,0v3.19c-1.57.08-3.19,0-4.78,0-3.71,0-7.45,0-11.16,0-1.71-7.28,10.58,1.01,9.57-6.38.53-.06,1.07.05,1.6,0,4.64-.46,9.68.35,14.38,0v-3.19c3.73-.7,7.79-1.23,11.16-3.19,49.34-4.47,99.72-19.49,150.02-22.34,19.26-1.09,41.25.68,61.52,0,3.07-.1,6.4,1.63,5.51-3.19Z"/>
  <path class="cls-5" d="M973.61,35.11c.81,3.71-1.8,3.61-4.39,4.44-7.44,2.37-25.32-.18-34.77.28-12.18.59-26.02,2.83-38.17,3.32-9.29.37-18.71-.4-27.99-.07l-68.63,6.38c-10.78-.02-22.92,2.71-33.51,4.79-50.3,2.86-100.67,17.87-150.02,22.34-3.66.33-7.49-.18-11.17,0-.89-4.81,2.44-3.1,5.51-3.19,9.54-.28,15.85,2.79,21.18-6.32,6.95-.95,15.38.93,22.09.06,2.95-.39,2.09-2.98,3.38-3.28,7.11-1.67,13.96-1.18,22.34-3.19,16.99-4.07,43.28-2.51,60.05-6.46,17.12-4.03,37.29-4.25,55.96-6.55,7.38-.91,14.91-6.16,16.07-6.3,13.12-1.59,30.34,2,43.26.2,15.41-2.16,27.84-1.54,41.51-3.13,3.02-.35,1.53-3.07,4.58-3.46,21.94-2.76,49.93,2.07,72.72.13Z"/>
  <path class="cls-16" d="M893.81,76.6c-75.07-.26-148.47,3.13-222.74,6.26-26.84,7.61-60.09,5.04-87.41,9.64-1.15.19-.9,2.92-2.14,3.23-5.72,1.41-15.77-.91-22.17-.1-3.05.39-1.52,3.06-4.57,3.44-9.6,1.21-20.79-3.75-28.02,1.47.16-6.37,1.1-9.33,7.96-8l-3.18-3.16c6.21-.97,15.6,1.31,21.24-.05.73-.18,11.03-6.14,11.76-6.32,8.7-2.1,31.94-6,40.4-6.42,3.69-.18,7.51.33,11.17,0-3.37,1.96-7.43,2.49-11.17,3.19-4.58.86-10.47.78-14.36,3.19-.53.05-1.07-.06-1.6,0-16.73,1.85-33.2,8.07-49.47,11.96l6.04,1.42,45.02-7c1.59,0,3.2.08,4.79,0,5.8-.29,14.16-1.3,19.15-3.19,41.55-2.15,82.77-7.81,124.48-9.58,48.56-2.06,97.38-2.14,146.05-1.62,2.7.03,7.1-1.02,8.75,1.62Z"/>
  <path class="cls-5" d="M778.91,22.34v3.19c-2.64.05-5.32,0-7.98,0-.1,1.05.12,2.14.01,3.19-1.43,1.08-29.08-.8-34.43-.12-3.05.39-1.52,3.06-4.57,3.44-16.07,2.03-35.08.82-51.28,2.94-4.51.59-9.45,2.74-18.25,3.32v-3.19c.52-.07,1.07.07,1.6,0,2.56-.09,6.62.99,7.98-1.6,5.82-.78,11.85-.9,17.56-1.6l6.38-1.6c6.88-.81,13.87-.87,20.75-1.6l4.79-1.6,25.53-1.6,4.79-1.6c3.19.06,6.39-.09,9.58,0,1.61.05,5.32,1.61,9.58,1.6.1-1.05-.07-2.14,0-3.19,2.65-.1,5.33,0,7.98,0Z"/>
  <path class="cls-12" d="M739.01,76.6c-.89-4.83,2.44-3.07,5.51-3.19,52.31-2.07,112.13-1.75,164.53,0,3.08.1,6.4-1.63,5.51,3.19-6.9-.1-13.85.02-20.75,0-1.66-2.64-6.06-1.6-8.75-1.62-48.67-.51-97.5-.44-146.05,1.62Z"/>
  <path class="cls-6" d="M662.4,35.11v3.19c-8.47.56-11.88,2.4-18.27,3.27-4.66.64-11.81-1.18-15.79-.11-1.71.46-.88,3.22-1.05,3.22h-22.34c-.17,0,.67,2.76-1.05,3.22-4.86,1.3-14.13-.95-19.7-.02,1.97-.37,6.02-2.83,7.98-3.19,23.07-4.22,46.97-6.33,70.22-9.58Z"/>
  <path class="cls-15" d="M630.48,164.38v9.58c-4.18,3.18-8.36,8.1-12.77,11.17-4.87,3.39-10.25,7.75-15.96,9.58-11.68,0-23.43-.01-35.11,0-.89-4.83,2.45-3.07,5.51-3.19,10.52-.41,21.12.39,31.63-.06,1.13-.23,9.36-10.99,11.23-12.19,1.31-.84,3.55-.13,4.56-.65,2.12-1.1,2.15-4.72,7.68-3.09l.04-6.33c-10.24,1.06-22.97-1.42-32.83-.13-2.95.39-2.09,2.98-3.38,3.28-5.91,1.38-15.69-.91-22.15-.09-3.05.39-1.52,3.06-4.57,3.44-6.36.8-14.6-1.05-20.96-.25-3.05.39-1.52,3.06-4.57,3.44-6.36.8-14.61-1.06-20.95-.25-4.76.61-13.56,5.23-24.64,6.5v-3.19c45.36-9.93,91.06-14.62,137.25-17.56Z"/>
  <path class="cls-8" d="M493.23,181.94v3.19c-2.46.28-16.03,6.13-17.05,6.36-12.17,2.74-6.66-1-18.56,5.93-4.34,2.53-14.4,7.77-18.16,10.57-5.93,4.42-6.42,11.67-6.95,12.19s-3.52-.34-5.01.16c-4.05,1.37-4.92,7.49-5.2,11.17l-11.76,4.98,1.3,2.89-4.66.1c.66,9.53-1.4,4.69-6.09,6.76-.41.18-6.4,5.79-6.55,6.21-.72,1.97,2.01,4.69,1.21,5.87-5.28,2.55-6.06,4.9-11.03.22,1.08,6.27-9.7,17.01-15.97,15.98-.24,1.03.17,2.22,0,3.17-1.47.23-3.51-.34-4.79,0l19.71-21.79c26.91-18.6,52.15-58.24,83.67-68.75,8.25-2.75,17.44-3.37,25.9-5.22Z"/>
  <path class="cls-1" d="M392.69,220.24c6.17-2.4,10-4.55,17.55-3.18-3.13,5.88-10.38,7.25-15.96,9.56l1.59-6.37h-3.18Z"/>
  <path class="cls-10" d="M630.48,164.38c3.69-.23,7.48.15,11.17.02.56.35-1.34,2.23-1.6,3.18-2.34,3-7.37,4.71-9.58,6.38v-9.58Z"/>
  <path class="cls-1" d="M387.9,220.24c-.14.1.69,2.68-1.11,3.22-2,.59-4.82-.39-6.87-.02,1.06-3.58,4.92-3.47,7.98-3.19Z"/>
  <path class="cls-7" d="M357.58,226.62l-1.6,3.19c-1.79-.2-4.59-.2-6.38,0,.07-1.05-.1-2.13-.01-3.19,2.65-.15,5.34.15,7.99,0Z"/>
  <path class="cls-7" d="M344.81,229.81c-.28.07-.74,2.44-4.79,3.19v-3.19s4.79,0,4.79,0Z"/>
  <path class="cls-6" d="M770.93,22.34c-.07,1.05.1,2.14,0,3.19-4.25.02-7.97-1.55-9.58-1.6,2.96-2.03,6.26-1.47,9.58-1.6Z"/>
  <path class="cls-6" d="M671.98,33.51c-1.36,2.59-5.42,1.5-7.98,1.6,1.69-.23,4.85-1.18,7.98-1.6Z"/>
  <path class="cls-6" d="M695.92,30.32l-6.38,1.6c.66-.08,3.51-1.26,6.38-1.6Z"/>
  <path class="cls-6" d="M721.45,27.13l-4.79,1.6c.25-.03,2.36-2.76,4.79-1.6Z"/>
  <path class="cls-6" d="M751.77,23.94l-4.79,1.6,4.79-1.6Z"/>
  <path class="cls-14" d="M643.25,175.55c9.23.19,5.67-2.89,10.09-5.86,1.36-.92,3.98-.12,5.36-1.04s3.57-5.53,4.87-5.8c7.49-1.53,18.73.92,26.82-.02,4.19-.49,6.88-2.81,11.07-3.29,7.71-.89,16.88.74,24.79.06.06,2.09.3,3.93-.5,5.96-.54,1.36-19,16.79-21.85,19.56h-6.39c-.11,1.58.12,3.2,0,4.79-.04.53.1,1.11,0,1.6-8.35-.88-8.7,3.27-9.58,9.58-.82.24-2.18-.23-3.19,0v3.19c-.7.23-1.95-.37-2.75.48-15.44,12.6-38.93,45.73-54.71,53.79-.44.23-1.87-.54-2.82.41-.71.71-.14,2.23-.37,2.78-1.56.37-3.49-.47-5.91.48-.74.29-3.03,4.67-4.17,5.38-3.99,2.5-17.27,9.08-21.31,10.63-9.46,3.64-13.99,6.66-25,9.04-.67.15-2.63,6.9-9.17.6-1.06-6.39,6.7-8.53,7.63-10.63s.1-5.45.53-5.88c.4-.4,7.65.62,9.41-4.57.5-1.48-.34-4.49.17-5,.58-.58,12.77-.38,9.52-9.63h6.4s0-6.39,0-6.39c7.86,2.58,7.89-5.51,9.97-7.48,7.53-7.14,4.4-4.36,9.68-11.17.59-.76,8.88-9.34,9.5-9.61,2.06-.91,5.54-.15,5.93-.48.42-.36-.18-4.78.02-6.37.33-2.7,6.49-7.05,9.58-9.58.79-.64,5.63-2.05,6.3-4.35.52-1.8,1.04-6.44-2.3-5.24-1.5.54-.15,2.81-1.86,3.22-4.63,1.12-10.86-2.03-11.72,6.37-1.53.2-3.23-.14-4.79,0,.04-.24-2.14-1.31-1.36-2.82,1.07-2.07,12.61-8.45,12.53-13.14,4.63-3.11,7.77-4.71,9.58-9.58Z"/>
  <path class="cls-1" d="M799.65,49.47c10.2.02,22.41,1.63,33.51,1.6.89,4.82-2.44,3.09-5.51,3.19-20.26.68-42.25-1.09-61.52,0,10.59-2.07,22.73-4.81,33.51-4.79Z"/>
  <path class="cls-2" d="M502.81,212.26c5.85,2.24,17.21,2.48,23.25,1.72,3.05-.39,1.52-3.06,4.57-3.44,8.96-1.13,20.34,1.08,29.62.13.79,4.2-4.9,3.9-8.32,6.47-6.74,5.05-9.87,15.74-20.39,12.69l3.18,3.16c-6.35-2.91-10.09,3-10.69,3.15-2.68.67-12.33,3.27-14.01,3.41-8.34.7-40.12-3.57-45.51-.16h-4.79s0-4.79,0-4.79c11.1-7.62,19.44-16.68,33.51-20.75,2.2-.64,6.69-1.03,9.58-1.6Z"/>
  <path class="cls-5" d="M566.65,194.7c11.68-.01,23.43,0,35.11,0-15.38,4.92-46.23,2.94-64.44,4.98-16.29,1.83-31.91,5.38-47.28,10.98-4.54,1.65-8.18,2.37-12.77,4.79l.91-8.01c3.39-.36,7.6.74,10.76,0,15.79-3.74,25.25-8.42,44.18-9.54,4.76-.28,10.49-.01,14.36-3.19,6.36-.13,12.79,0,19.15,0Z"/>
  <path class="cls-17" d="M697.51,191.51c-.25,1.23-5.86,9.27-6.38,9.58-.56.33-2.27-.27-3.19,0-.13.96.29,2.9,0,3.19-.37.37-2.33-.28-3.19,0v-3.19c1.01-.23,2.37.24,3.19,0,.87-6.3,1.23-10.45,9.58-9.58Z"/>
  <path class="cls-2" d="M493.23,185.13c11.08-1.27,19.88-5.89,24.64-6.5,6.35-.81,14.6,1.05,20.95.25,3.05-.39,1.52-3.06,4.57-3.44,6.36-.8,14.6,1.05,20.96.25,3.05-.39,1.52-3.06,4.57-3.44,6.46-.82,16.24,1.47,22.15.09,1.29-.3.43-2.9,3.38-3.28,9.86-1.29,22.59,1.2,32.83.13l-.04,6.33c-5.54-1.63-5.56,1.99-7.68,3.09-1,.52-3.25-.19-4.56.65-1.87,1.2-10.1,11.96-11.23,12.19-10.52.45-21.11-.35-31.63.06-3.07.12-6.4-1.64-5.51,3.19-6.36,0-12.79-.13-19.15,0-4.78.1-9.6-.09-14.38,0v3.19c-18.92,1.12-28.38,5.8-44.17,9.54-3.17.75-7.37-.36-10.76,0l-.91,8.01c-19.11,10.08-52.76,36.71-70.22,51.07-3.2,2.63-2.59,3-3.81,4.13-6.05,5.62-6.89,8.83-16.95,7.06l1.62,3.17c-7.27-.8-13.98,3.5-21.03,6.59-.9.4-5.15,7.05-7.69,1.42,4.83.82,2.46-4.42,3.91-6.47,1.98-2.78,4.56,1.25,5.65-4.73.17-.95-.24-2.14,0-3.17,6.26,1.03,17.05-9.71,15.97-15.98,4.97,4.68,5.76,2.33,11.03-.22.8-1.17-1.93-3.9-1.21-5.87.16-.42,6.14-6.03,6.55-6.21,4.69-2.08,6.75,2.76,6.09-6.76l4.66-.1-1.3-2.89,11.76-4.98c.28-3.68,1.15-9.8,5.2-11.17,1.48-.5,4.5.34,5.01-.16s1.02-7.77,6.95-12.19c3.76-2.8,13.81-8.03,18.16-10.57,11.9-6.94,6.39-3.19,18.56-5.93,1.02-.23,14.59-6.07,17.05-6.36Z"/>
  <path class="cls-2" d="M411.84,266.52l-2.35,1.6-.84-1.6c.98-.19,2.46.28,3.19,0Z"/>
  <path class="cls-1" d="M633.68,185.13c.07,4.69-11.47,11.07-12.53,13.14-.78,1.51,1.41,2.58,1.36,2.82-.19,1.03-1.55,2.44-1.6,3.19l-11.16-.79c6.15-6.21,12.56-12.07,19.64-17.14,1.29-.92,3.57-.74,4.29-1.22Z"/>
  <path class="cls-1" d="M627.29,201.09c.86-8.4,7.08-5.25,11.72-6.37,1.71-.41.37-2.68,1.86-3.22,3.33-1.21,2.82,3.44,2.3,5.24-.67,2.31-5.52,3.71-6.3,4.35l-.82-3.22c-3.24.71-5.26,2.76-8.75,3.22Z"/>
  <path class="cls-17" d="M703.9,185.13c-.47.46-.1,5.43-6.38,4.79.11-1.59-.12-3.21,0-4.79h6.39Z"/>
  <path class="cls-12" d="M588.99,82.99c1.01,7.38-11.28-.9-9.57,6.38,3.71.02,7.45.01,11.16,0l-45.02,7-6.04-1.42c16.27-3.89,32.74-10.11,49.47-11.96Z"/>
  <path class="cls-12" d="M614.52,86.18c-5,1.89-13.35,2.91-19.15,3.19v-3.19c6.34-.25,12.81.32,19.15,0Z"/>
  <path class="cls-12" d="M604.95,79.8v3.19c-4.68.35-9.73-.46-14.36,0,3.89-2.41,9.78-2.33,14.36-3.19Z"/>
  <path class="cls-15" d="M547.5,194.7c-3.87,3.18-9.6,2.91-14.36,3.19v-3.19c4.76-.09,9.59.1,14.36,0Z"/>
</svg>