<?xml version="1.0" encoding="UTF-8"?>
<svg id="Vrstva_1" data-name="Vrstva 1" xmlns="http://www.w3.org/2000/svg" viewBox="0 0 921.61 406.24">
  <path d="M921.61,0l-102.36,40.19c-12.08,4.78-65.29,29.24-73.22,29.26-23.27.07-34.44.17-56.69,9.27-9.51,3.89-45.72,23.16-47.24,33.2-.74,4.84,14.89,3.87,18.04,3.66,45.7-3.1,101.81-30.42,147.8-39.37,1.14-.22,3.85-1.13,3.58.83-46.95,27.76-93.09,60.73-143.92,81.23-20.74,8.36-49.86,18.9-71.57,23.12-1.14.22-3.85,1.13-3.58-.83,9.41-4.49,18.52-10.32,26.76-16.73,13.61-10.59,27.06-22.39,5.52-34.78-34.14,12.86-67.15,28.59-99.47,45.41-12.74,6.63-37.26,23.31-48.99,26.98-.56.18-1.8.3-1.62-.53,8.69-9.84,20.95-18.37,27.3-29.95,18.77-34.23-39.52-9.07-51.49-4.15-3.2,1.32-27.56,13.74-28.65,12.62-.5-.51-2.18-10.79-3.29-13.78-8.78-23.67-22.43-15.14-40.72-7.65-10.57,4.33-20.63,9.8-30.85,14.83l34.11-35.78c.17-.84-1.02-.68-1.62-.52-22.74,5.83-45.89,15.36-68.01,23.37-39.08,14.16-77.73,29.7-116.41,44.86-.4-2.48,3.38-4,5.15-5.3,64.24-47.31,165.16-113.97,241.21-135.3,67.83-19.03,140.58-25.8,209.41-41.04l-205.33,81.45c-5.24,4.47,6.55,6.64,10.24,7.39,37.86,7.64,81.8-18.62,118.02-27.18-12.47,8.85-25.04,17.69-36.35,28.05-4.57,4.19-10.95,10.22-14.86,14.87-.73.87-2.89,2.21-1.1,3.3,49.7-22.8,97.49-50.18,149.71-67.17,43.26-14.07,90.16-25,134.42-36.22,38.53-9.77,77.06-19.8,116.05-27.6Z"/>
  <path d="M158.68,297.24l-48.98,47.35,108.98-47.35h120.55c.15,1.49-2.48,1.93-3.66,2.39-2.89,1.14-6.03,2.09-8.98,3.13-100.85,35.67-203.14,67.43-303.87,103.48l-1.65-.56,82.01-108.45h55.6Z"/>
  <path d="M418.5,195.95c2.12,1.82-28.74,42.21-29.72,47.33,11.88-5.63,23.31-12.24,34.87-18.52,2.78-1.51,17.44-11.2,18.53-11.2h28.07l-70.44,40.18,30.8,35.78h-26.97l-26.95-29.72-19.28,29.72h-21.47c-.45-3.4,11.2-16.22,9.9-17.61-1.42-1.52-6.26,6.83-7.16,7.7-3.36,3.23-10.85,6.4-15.38,7.73-11.04,3.23-52.72,3.8-64.26,1.47-8.96-1.81-13.09-6.43-10.65-15.84,1.4-5.4,22.58-37.07,27.2-43.25,20-26.73,58.62-13.23,87.9-15.64,9.09,3.08,9.15,12.75,4.38,19.93l-71.64-.15c-1.45.34-2.13,1.45-3.07,2.43-3.94,4.1-15.71,23.05-18.65,28.69-.64,1.23-1.72,1.93-1.33,3.63h73.21c.23,0,.75.87,1.65.55l48.99-73.21h21.47Z"/>
  <path d="M.15,289.53c-.57-.52.63-2.91,1.33-3.63l42.71-65.73h24.22c-.22,3.2-9.53,11.87-7.7,14.31.4.54,1.4-1.1,1.64-1.1h55.05c3.66,0,14.71-13.6,13.71-16.95-.23-.79-.99-1.35-1.78-1.59l-83.47-.2c-7.11-4.83-13.38-12.23-19.29-18.69h120.55c3.69,0,8.77,6.91,9.13,10.72.55,5.85-9.9,20.59-14.2,24.94-2.73,2.76-14.34,9.79-14.84,10.55-.64.99,2.95,7.06.35,13.5-4.64,11.5-23.06,33.86-36.59,33.86H.15ZM35.38,269.71h58.9c1.79,0,18.37-14.98,11.31-17.99l-57.58-.81-1.72.79-10.9,18.01Z"/>
  <path d="M803.82,213.57l-2.19,5.5c8.58-6.56,38.06-8.39,45.7-2.23,1.97,1.58,4.77,7.7,5.48,7.71.59,0,6.53-5.76,9.31-7.18,9.4-4.78,28.53-4.95,39.13-3.81,11.36,1.22,18.91,12.15,14.27,23.09l-32.99,52.87h-21.47l30.7-50.21c1.51-1.35,1.49-5.93-.42-5.93h-30.83c-.88,0-3.5,1.62-4.86,1.74-11.8,16.13-22.4,33.65-32.95,50.77-.77,1.26-1.08,3.64-1.27,3.64h-23.12l31.42-50.6c.38-1.13,1-3.45.4-4.34-1.23-1.81-35.48-2.02-38.15.18l-33.31,54.76h-22.02l1.33-3.63,45.46-72.34h20.37Z"/>
  <path d="M211.53,289.53l3.29-7.71c-6.03,3.3-12.37,6.77-19.37,7.59-7.54.88-34.14,1.07-40.56-1.04-5.34-1.75-8.93-5.35-8.1-11.21.67-4.77,11.12-21.25,14.76-24.94,17.19-17.4,56.6-7.31,79.12-10.05,2.89.45,7.69-8.78,4.43-8.78h-69.91c3.86-10.44,16.15-18.44,27.09-19.7,12.86-1.48,44.23-1.51,57.13-.12,11.17,1.2,15.77,9.22,10.68,19.49l-37.1,56.48h-21.47ZM231.34,258.7c-1.98-1.45-42.64,0-48.99,0-2.04,0-8.54,7.43-8.26,9.91h50.09c1.43,0,7.73-9.49,7.16-9.91Z"/>
  <path d="M477.95,239.99h48.99c.47,0,7.4,1.34,8.3,1.61,13.1,3.92,6.76,14.16,2.18,22.08-6.22,10.77-12.44,19.8-24.75,23.69-11.91,3.77-49.1,3.22-62.84,2.2-7.58-.56-17.12-2.71-15.7-12.42.28-1.9,3.51-10.13,4.89-10.6,1.61-.55,16.22-.54,18.64-.23,2.11.27,1.05,2.11,3.15,2.38,9.02,1.14,40.76,1.19,49.67-.03,3.54-.49,8.6-6.64,7.1-8.85-2.1-3.09-47.6.97-56.4-2.5-9.36-3.69-7.95-10.68-4.33-18.06,5.96-12.14,16.19-24.14,30.45-25.69,10.46-1.14,52.11-1.61,61.4.26,12.25,2.47,6.12,19.86,3.48,20.52-.79.2-3.65-.97-5.38-1.01-17.7-.37-44.98-1.94-61.72.03-4.07.48-6.84,2.21-7.14,6.63Z"/>
  <path d="M646.12,213.85c11.67-1.68,40.48-1.4,52.6-.33,18.95,1.67,14.3,13.64,7.57,25.27-5.27,9.1-23.12,38.39-30.25,43.51-13.03,9.36-49.29,8.66-65.47,7.26-19.84-1.72-18.07-11.72-10.21-25.7,9.21-16.38,26.22-47.21,45.76-50.02ZM621.07,268.61h42.39c3.4,0,18.73-28.63,22.48-32.59.5-.91-1.28-2.64-1.56-2.64h-38.53c-.56,0-4.9,1.65-5.5,2.21-1.38,3.97-21.09,31.39-19.27,33.02Z"/>
  <path d="M613.36,195.95l-11.01,17.61h25.32l-12.1,19.27c-6.69,2.26-21.74-1.63-27.06,1.57-1.54.92-18.15,27.08-19.43,30.11-.59,1.39-1.15,2.48-.86,4.09h25.32c-1.21,2.82-11.69,20.65-12.89,20.94-3.05.74-18.95.36-22.93.02-36.32-3.12.15-39.54,7.18-54.56,1.09-3.52-8.81-.35-8.8-2.19,0-1.21,7.71-15.91,8.93-17.49,3.04-3.96,10.96-.21,15.31-2.31,2.34-1.13,9.16-17.07,11.55-17.07h21.47Z"/>
  <path d="M747.67,213.57l-1.64,4.41c2.96-.68,9.54-4.41,12.1-4.41h20.37c-1.5,3.28-9.95,18.22-12.1,19.27-5.93,2.89-26.73-2.09-31.63,1.96-5.63,5.61-31.74,54.73-34.99,54.73h-21.47c.39-2.33,2.24-4.9,3.51-6.95,14.4-23.21,29.69-45.98,44.38-69.01h21.47Z"/>
  <path d="M193.91,195.95l-60.51,91.67c-.47.68-2.25,1.91-2.79,1.91h-21.47c20.37-31.29,42.25-61.66,61.65-93.58h23.12Z"/>
  <path d="M648.59,334.67c-1.89-1.81,3.19-7.89,6.29-8.57,2.21-.49,24.69,0,25.64.88,1.39,1.28-10.65,19.09-15.4,21.47-7.51,3.76-31.26,3.62-40.25,2.8-10.97-.99-10.64-5.58-6.18-14,5.81-10.97,14.82-27.48,28.25-28.99,7.69-.87,28.76-.95,36.27.11,7.46,1.05,5.14,10.35,1.41,12.81-1.32.87-11.27,1.98-11.82,1.41-.31-.32.19-3.39,0-4.41h-29.17c-1.42,0-12.7,18.18-12.67,20.43.01,1.03,1.06,2.69,1.66,2.69h26.42c.79,0,4.68-5.14,4.95-6.61h-15.41Z"/>
  <path d="M398.41,309.61c4.59,4.57-6.32,20.59-11.07,23.08-2.02,1.06-7.12,1.71-7.38,1.99-.86.95,2.13,3.99,1.97,5.86-.22,2.63-4.63,6.93-4.29,10.52l-13.08.12,4.4-12.09c-1.36-1.36-24.94-1.67-26.45-.48-2.35,1.84-5.07,10.77-7.67,12.04-3.1,1.5-8.61.07-12.11.54l25.49-42.75c7.37.7,46.93-2.08,50.2,1.18ZM384.37,318.15h-29.17c-.97,0-6.16,8.39-6.06,9.91h29.17c2.51,0,7.29-8.71,6.06-9.91Z"/>
  <path d="M583.46,308.43l12.3,28.44c1.56,1.16,17.1-25.74,17.77-28.44l11.93-.17-24.39,42.75c-3.73-.13-12.14,1.38-14.7-.91-1.56-1.39-12.89-30.11-14.83-28.64l-16.7,29.54c-1.91.09-11.48.57-11.93.17-1.84-1.63,23.93-37.51,24.39-42.75h16.16Z"/>
  <path d="M501.62,341.27c1.58-.44,2.68-4.67,4.58-5.33,1.16-.4,11.98-.54,12.48-.17s-5.8,8.75-7.13,9.93c-4.22,3.75-8.76,5.04-14.3,5.51-5.18.45-34.77.73-36.99-1.89-.41-.49-1.79-3.72-1.84-4.37-.21-2.79,13.13-24.53,15.76-27.81,4.4-5.48,9.24-8.31,16.37-8.95,6.75-.6,29.15-.99,35.03.29,7.58,1.64,4.52,14.23-3,15.22-6.22.82-11.81,1.42-8.31-5.56h-26.97c-2.13,0-13.76,18.36-13.79,20.39-.01.92,1.01,2.73,1.68,2.73,5.71,0,22.36,1.14,26.42,0Z"/>
  <path d="M450.42,308.24l-1.1,42.94h-13.22s0-8.81,0-8.81h-28.07c-2.45,0-7.59,7.83-10.13,8.58-3.6,1.07-9.75.15-13.53-.32l50.09-42.39h15.96ZM437.21,318.16c-.89-1.01-2.63,1.12-3.3,1.64-5.21,4.01-9.63,9.8-15.4,13.21.87,2,16.88.63,17.68.08,1.39-.96,1.53-14.36,1.02-14.93Z"/>
  <path d="M557.21,308.26c2,1.48-25.46,37.95-25.49,42.75-.51.32-11.46.52-11.94.17-1.95-1.45,23.86-37.76,24.78-41.81,1.29-1.6,12.13-1.48,12.65-1.1Z"/>
</svg>