<?xml version="1.0" encoding="UTF-8"?>
<svg id="Vrstva_1" data-name="Vrstva 1" xmlns="http://www.w3.org/2000/svg" viewBox="0 0 990.27 740.95">
  <defs>
    <style>
      .cls-1 {
        fill: #c31517;
      }

      .cls-2 {
        fill: #e8e7e6;
      }

      .cls-3 {
        fill: #ee0d0f;
      }

      .cls-4 {
        fill: #f6f6f6;
      }

      .cls-5 {
        fill: #f00a0b;
      }

      .cls-6 {
        fill: #050505;
      }

      .cls-7 {
        fill: #060606;
      }

      .cls-8 {
        fill: #ad2023;
      }

      .cls-9 {
        fill: #070606;
      }

      .cls-10 {
        fill: #d31113;
      }

      .cls-11 {
        fill: #0b0203;
      }

      .cls-12 {
        fill: #c81315;
      }

      .cls-13 {
        fill: #b91a1b;
      }

      .cls-14 {
        fill: #180405;
      }

      .cls-15 {
        fill: #0d0d0d;
      }

      .cls-16 {
        fill: #efefef;
      }

      .cls-17 {
        fill: #c9272b;
      }

      .cls-18 {
        fill: #f40405;
      }

      .cls-19 {
        fill: #f80304;
      }

      .cls-20 {
        fill: #080404;
      }

      .cls-21 {
        fill: #040404;
      }

      .cls-22 {
        fill: #fafafa;
      }

      .cls-23 {
        fill: #101010;
      }

      .cls-24 {
        fill: #dd0d0d;
      }

      .cls-25 {
        fill: #430506;
      }

      .cls-26 {
        fill: #740909;
      }

      .cls-27 {
        fill: #e50b0b;
      }
    </style>
  </defs>
  <path class="cls-20" d="M429.39,11.64c2.18,3.52-4.08,15.98-6.41,19.36-6.08,8.85-19.19,15.05-22.18,24.99-2.73,9.1-.65,14.17-.52,22.32.21,12.67-.38,25.2,2.51,37.64,8.01-5.23,14.83-11.99,22.77-17.37,20.51-13.88,45.6-24.54,70.25-27.29,3.95-30.14,34.7-29.02,39.77-.11,24.03,2.8,46.36,13.31,66.82,25.62l26.1,19.14c.61-17.2,4.27-35.67,2.55-52.86-1.9-18.96-12.85-17.75-21.96-30.3-2.08-2.86-10.91-19.14-8.64-21.31L786.65,0c.36,2.7-2.17,4.15-3.93,5.61-19.18,15.9-38.51,19.23-52.21,44.68-2.02,3.76-5.4,15.76-6.95,17.27-3.11,3.04-7.41-1.1-12.71,7.69-11.55,19.17-18.33,57.77-29.14,81.74-3.08,6.83-12.8,20.76-12.45,27.08.41,7.38,6.21,16.97,6.49,24.85,1.85,1.59,18.35-5.55,21.94-6.67,6.12-1.89,26.17-8.88,30.93-8.67,9.22.41,28.6,17.78,38.63,20.77,2.67,19.82,11.19,39.92,25.77,53.86l-43.13,41.81c20.19,36.4,40.86,72.62,59.94,109.62,6.9,13.38,18.11,32.36,23.03,45.81.56,1.54,1.4,2.95.95,4.68l-79.97,30.35c-31.73,1.17-64.11,1.2-95.66,5.07l-52.02,37.23c-2.88,4.43,12.62,9.95,10.33,14.08l-41.54,32.44-4.6,7.11-109.97-.28c-.78-2.13-1.12-3.73-2.83-5.45-9.62-9.66-25.67-18.17-36.22-27.52-14.36-12.74-.71-8.62,4.42-20.33l-56.05-38.95-93.49-3.43-78.62-30.4c-.67-2.12.22-3.96.89-5.9,4.98-14.49,18.84-38.04,26.39-52.63,17.8-34.37,37.07-68.13,56.62-101.51l-43.06-40.79c-.84-3.22,5.3-7.33,7.3-10.16,9.37-13.23,15.47-28.28,18.19-44.26l37.53-21.23,52.12,15.3,8.08-26.29c-9.14-19.15-18.79-37.79-25.49-58.04-3.85-11.64-11.15-48.87-20.88-54.32-2.31-1.29-8.44-2-9.15-2.97-.58-.8-3.67-13.11-5.56-16.73-6.23-11.91-18.35-23.02-29.23-30.69-5.48-3.86-22.09-11.69-25.35-15.45-1.39-1.6-1.66-2.19-1.31-4.41l184.74,11.64ZM411.71,22.94l-126.24-7.02c9.23,7.08,17.18,15.26,23.16,25.28,2,3.35,5.85,13.96,7.44,15.5,2.34,2.25,5.73,1.26,8.02,2.18,7.66,3.09,27.07,73.09,32.56,85.97,13.89,32.54,39.98,70.68,67.21,93.4,5.04,4.2,33.92,24.57,38.85,20.42l-1.91-15.28c-35.77-23.2-58.85-72.39-67.83-113.17-4.71-21.41-10.75-70.09,1.09-88.6,4.81-7.52,16.2-10.35,17.64-18.68ZM744.57,15.3l-126.25,7.64c1.67,8.28,11.41,10.04,16.37,16.12,13.37,16.38,7.61,67.83,3.43,88.41-6.7,32.97-29.4,84.62-54.92,106.96-9.41,8.23-17.6,7.73-14.63,24.25,6.17.56,12.08-3.3,17.43-6.16,37.21-19.89,70.87-68.29,87.36-106.4,12.06-27.85,17.07-58.17,30.48-85.5,1.66-3.28,9.3-1.77,11.09-3.58.72-.73,6.28-14.92,8.7-18.7,5.68-8.85,13.49-15.79,20.92-23.04ZM522.67,143.98v-77.09c0-4.68-14.03-6.53-14.03,0v77.09h14.03ZM480.58,161.82l-1.28-73.9c-.77-.87-20.57,6.63-22,7.68-1.63,1.19-.65,1.76-.95,2.51-1.05,2.65-1.95,4.3-1.27,7.65l13.2-2.63c1.32.31,1.83,3.51,1.97,4.64,1.7,13.78,1.7,50.4.13,64.25-.81,7.2-5.59,14.37-6.36,22.31-4.59,47.1,49.91,76.52,86.1,45.25,19-16.41,23.46-46.55,9.54-67.56l1.28-68.81c5.87-1.2,16.13,9.45,15.41-1.92-.15-2.39-3.81-6.88-5.62-7.85-2.41-1.28-11.56-2.49-12.35-2.98-.11-.07.51-2.21-.84-2.56-1.93-.5-4.69.26-6.81,0v73.91c-19.25-17.66-50.52-15.54-70.14,0ZM439.77,109.58c-4.54.02-9.36,3.78-13.04,6.42-2.8,2.02-16.84,14.63-17.91,16.81-.81,1.64-1.27,3.32-.74,5.15l4.27,3.5,13.72-12.4,4.78-.36v57.98c0,.63,5.93,10.41,6.4,10.82,2.75,2.38,3.62-5.95,3.6-7.05-.02-1.18-1.08-2.13-1.08-2.5v-78.37ZM591.54,109.58v87.92l7.73-9.51,1.21-61.84,18.66,15.11c2.35,1.07,3.16-4.25,3.03-5.53-.38-3.81-28.37-28.64-30.64-26.16ZM380.81,205.47c-.58-.63-2.14-.79-2.91-1.49-3.66,2.57-7.49,24.97-5.71,26.66h5.09c-2.33-7.69,9.76-18.38,3.53-25.17ZM655.7,212.46c-1.2-2.74.92-6.39-2.31-8.56-7.8,4.17-5.57,8.64-3.04,15.49.42,1.14,2.16,1.1,2.35,1.94.64,2.77-.31,6.36.05,9.3l5.02-.08c.74-.7.41-14.24.18-15.95-.31-2.3-2.07-1.74-2.25-2.15ZM342.41,293.9c10.43-9.76,16.55-41.28,14.4-54.91-1.1-6.95-17.1-19.49-23.69-22.21-4.77-1.96-20.73-6.23-25.52-6.48-4.94-.26-24.37,9.05-27.88,12.68-3.85,3.98-11.53,27.63-14.81,34.89-1.9,4.19-6.58,6.92-3.76,11.67,1.52,2.56,17.46,17.79,20.6,20.23,14.38,11.2,46.58,17.3,60.67,4.12ZM757.86,280.86c2.56-2.42,13.54-10.84,13.29-13.67-1.51-4.18-4.63-7.44-6.41-11.47-3.86-8.75-7.42-23.17-11.52-30.54-2.43-4.36-25.13-14.98-30.58-14.65-17.66,1.08-49.62,13.64-49.6,34.77.01,10.93,4.76,33.81,10.5,43.13,8.64,14.04,28.48,14.04,43.24,11.72,14.06-2.21,21.46-10.22,31.08-19.28ZM392.59,222.99v17.84c2.18.19,4.7-.45,6.78.03.37.09,6.34,6.82,6.02.59-.27-5.28-4.73-11.64-8.29-15.35-1.54-1.61-2.02-3.68-4.51-3.11ZM637.43,222.99c-2-1.85-2.3.86-2.9,1.61-3.35,4.24-7.42,10.62-9.76,14.65-.8,1.37-1.71,2.35-1.34,4.12l13.97-2.59c-1.01-3.99,2.74-15.29.03-17.79ZM402.79,253.57c-2.27-.54-4.59-3.35-7.65-2.54,1.24,11.13-5.81,18.48-12.22,25.98-3.09,3.62-.26,4.02-6.91,7.15-2.71,1.28-2.57-.06-4.32,4.65l-9.7,8.09c3.99-2.38,8.42.76,11.88.03.61-.13,6.74-8.72,5.97,2.52h-5.11c-.7,4.49,2.97.51,2.55,5.1-.55.42-4.29,1.74-4.71,2.9-.8,2.21-.24,3.91-.39,6.02-.03.42.02.85,0,1.27h-2.55c-.16,2.52.18,5.12,0,7.65-.81.12-1.72-.12-2.55,0l.11,15.17,3.07,1.38,4.46-6.34c.05,2.53,1.29,5.58,1.28,6.37-.3,12.61-3.7,21.17-.68,34.45,6.99,30.69,30.61,81.32,45.93,109.57,5.86,10.82,19.09,38.28,33.19,38.27,7.96,0,28.38-21.5,38.39-25.43,5.13-2.01,38.43-2.45,43.92-.82,9.55,2.83,28.46,25.04,37.69,26.14,15.52,1.86,29.46-27.85,35.62-39.44,10.8-20.34,21.09-43.28,29.62-64.7,8.41-21.1,19.75-46.15,16.9-69.13,1.71-4.02,5.5-2.36,8.93-2.54v-7.66s6.37,0,6.37,0l-1.36-7.59-3.74-.06-3.83,6.38c.06-2.31.38-13.43,0-14.02.83.06,1.72-.1,2.55,0,.1.82-.08,1.71,0,2.54,2.66.36,2.89.12,2.53-2.53-.83-.08-1.72.1-2.54,0-.1-.82.08-1.71,0-2.54l-1.89-.02-.65,2.56c-.07-.11-2.21.51-2.57-.84-.68-2.54.73-13.82,0-14.45-4.59,1.42-4.28-2.13-7.64-2.56-.08-.39.05-.85,0-1.27-.25-2.07.19-4.29,0-6.38-4.13.7-10.85-.98-14.46,0-1.35.36-.73,2.5-.85,2.56-.32.16-5.63,2.44-5.98,2.52-4.47,1.02-10.45-2.2-11.87,5.13-.41.08-.86-.05-1.28,0-6.53.86-2.48,1.08-3.83,2.55-.18.2-1.79-.12-2.55,0-4.84.73-1.66,1.88-2.55,2.55-.2.15-4.89.14-5.1,0-.29-.2.73-4.08-5.09-2.54l2.54,5.08c-5.1,1.11-14.85-3.64-12.75,5.1-.37.14-.9-.13-1.28,0-3.26-5.99-3.74-.62-4.2-.41-2.46,1.13-7.06.71-7.28,5.51-.41.08-.86-.05-1.28,0-2.07.27-4.3-.21-6.39,0v2.55c-.37.12-.87-.11-1.27,0-1.83.53-2.38,2.49-2.55,2.55-.67.21-1.79-.18-2.55,0-6.58,1.6-2.21,1.12-3.83,2.55-.23.21-2.84-.06-3.83,0-5.74.37-10.02.94-15.25,3.27-2.63,1.16-3.92,3.91-4.19,4.02-2.97,1.25-8.07-1.74-7.34,2.9-.41.06-.85-.04-1.28,0-2.1.18-4.28-.15-6.39,0v2.55c-.41.02-.84,0-1.27,0-2.41.01-5.98.48-8.05-.03-.48-.12-3.38-4.87-8.53-2.53-1.33-.97,3.17-4.98,3.47-5.04,5.31-1.09,13.59,1.12,18.61-.08.97-.23.8-2.29,1.74-2.5,5.45-1.22,4.58.15,10.4-2.42,6.89-3.03,9.17-3.8,15.93-5.27.68-.15,1.57-4.27,5.97-2.53v2.54c7.53-1.47.27-2.27,0-2.54-.14-.14.02-1.83,0-2.55,12.64-2.01,18.16-5.73,30.19-10.62,7.68-3.13,13.7-5.38,22.45-7.26,1.12-.24,3.28-4.77,4.4-5.01,1.88-.4,4.04.35,5.86-.06.98-.22.77-2.3,1.74-2.52,6.92-1.53,9.63-2.65,16.56-5.55,1.7-.71.15-2.54,6.8-2.12.42.03.87-.07,1.28,0,1.11,6.28,5.55,4.32,9.36,5.1.77.16,1.22,4.7,4.74,1.97,3.97-3.08-1.42-9.97-4.28-11.78-1.35-.86-3.05-.17-3.44-.39-10.15-6.03-17.53-21.32-19.19-33.06-7.07-2.34-7.18,2.23-7.59,2.48-1.33.8-8.05-1.72-8.93,2.55-2.02.45-4.31-.44-5.1,2.55-2.92.34-5.86,1.93-8.93,2.55-10.29,2.08-19.83,5.15-29.71,7.69-.53.14-3.38,4.8-8.56,2.5-.06.84.06,1.7,0,2.55-2.55.07-5.12-.07-7.66,0v2.54c-16.15.19-31.43,11.58-49.73,10.19-.17-.76-.55-1.58-1.31-1.87-6.41-2.41-6.4-2.91-14-3.23-2.96-.12-5.97.14-8.93,0v-2.55s-5.1,0-5.1,0c-.79-.92-1.83-.86-2.55-1.27-2.44-1.41-5.89-2.62-8.61-3.52-5.06-1.67-11.48-2.36-16.89-4.12-10.88-3.54-16.7-6.52-27.21-8.92-1.76-.4,1.38-1.22-3.4-1.28-2.88-.04-4.44-1.22-5.1-1.27-.85-1.57-2.64-1.76-3.83-2.55-5.47-3.63-4.26-1.44-8.93-2.55ZM665.5,281.61h-5.09v2.54h5.09v-2.54ZM341.57,332.57c1.55.23,7.51-5.54,7.61-6.02.41-1.87-.35-4.03.06-5.85.22-.97,2.28-.79,2.51-1.74.64-2.7-.33-6.42.03-9.33-2.91.36-6.63-.6-9.34.03-.95.22-.78,2.26-1.75,2.5-2.63.65-7.57-1.96-6.78,2.57-.85.04-1.7-.05-2.55,0-4.89.27-12.91-.94-16.98.03-1.06.25-.45,2.62-2.73,2.67s-4.75-1.38-6.57-1.3c-3.42.13-13.71,1.11-14.46,4.64-1.88,8.77,1.08,5.58,4.06,6.75,8.49,3.33,8.52,3.1,17.95,5.08,1.07.22.87,2.77,3.22,3.16,3.37.56,7.88-1.61,7.86,5.74-.42.4-.81.95-1.28,1.27l-6.44-.91.05-2.92c-5.72,4.22-7.93-1.12-8.51-1.25-6.33-1.4-11.41-4.16-15.31-5.09-2.7-.64-6.43.33-9.34-.03,2.15,5.52-2.01,7.35-2.45,8.61-.75,2.12-.14,3.88-1.75,6.99-1.9,3.66-4.02.58-3.44,8.62.08,1.11-.45,2.62.22,3.56l9.24,2.91,3.31-10.29,4.29.15,2.08,2.97-3.83,9.61c4.01.34,11.3,5.4,14.93,2.23,1.62-1.41,2.73-6.3,4.89-7.25,1.73-.76,3.38-.67,3.19,1.89-.35,4.6-7.5,14.29-9.8,18.55-7.17-.83-30.58-13.11-35.91-10.03-.93.54-6.92,14.06-8.06,16.5-1.39,2.97-6.52,6.26-1.54,11.32l9.28-.14,3.31-10.18,5.11,1.32c1.36,1.43-.44,2.77-.7,3.85l-5.1,10.18c2.95.16,5.98-.18,8.93.01.42.03.85,0,1.28,0,.48,3.73,4.16,6.01,7.65,5.11-2.01-1.91,3.55-9.67,5.1-7.65s-5.92,12.83-7.03,15.26l-2.54.06c-.5-.08-.48-2.37-1.47-2.58-8.48-1.8-11.64-3.69-20.84-5.1-4.44-.68-7.34-2.66-11.18-2.19-2.27.82-11.36,21.2-11.79,25.11l13.18,2.62c3.78-4.56,1.7-11.12,9.78-10.24l-2.02,14.08c6.03.33,9.04,7.41,14.78,3.76,1.71,5.65,2.07,5.23-1.3,10.16-3.17.94-1.89-1.59-3.52-2.45-5.03-2.66-8.68-1.56-13.44-2.63-1.38-.31-1.32-2.08-8.52-2.52-.21-.26.43-2.01-.09-2.4-.67-.51-5.94-.22-7.57-.15-.12-.81.12-1.72,0-2.54l-7.46.2c.28,3.59-4.85,7.35-5.26,8.43-.48,1.26.26,3.52-.04,4.1-.06.12-2.18-.52-2.55.85-2,7.35,3.5,9.81,10.21,9.35,1.26,1.39,29.83,13.37,34.17,15.17.99.41,11.33,3.12,11.74,2.68-1.19-4.06,1.74-6.54,2.49-9.64,7.72-31.81,18.01-52.74,30.68-82.12,3.97.78,1.92-2.85,2.94-4.72,2.7-4.94,2.41.98,4.75-9.64.25-1.14,4.77-3.28,5.01-4.4,1.15-5.3,2.93-11.19,5.61-16.5.52-1.04,4.37-2.85,4.6-3.89,1.49-6.87,2.69-9.57,5.14-15.64.15-.37-.15-.91,0-1.27ZM364.52,309.64c-.13-.13-3.17-.19-3.68.12l-1.41,4.96h5.09c-.18-1.23.32-4.77,0-5.09ZM670.6,309.64h-2.54v5.08h2.54v-5.08ZM688.46,314.73c-1.47-.12-4.05-2.16-6.37-1.27l.31,5.42c20.85,40.79,43.88,82.54,58.85,125.97,2.25,6.54,4.62,13.43,5.88,20.25.54,2.92-1.5,7.61,2.55,8.92.07,1.27-.07,2.56,0,3.82.05.84-.07,1.7,0,2.54l5.65-.08,14.76-7.56c.82-.25,2.47.13,4.05-.35,10.29-3.12,20.72-10.05,31.51-12.52.63-.73.12-2.9-.13-4.03-.88-3.91-7.08-14.31-10.77-15.94-12.9,3.86-26.24,13.15-39.76,12.23-.16-3.01-9.37-16.26-7.85-17.62,3.39-3.03,7.91,3.99,7.84,7.44,6.44,1.56,12.54-1.34,17.42-5.51-2.9-3.09-3.86-8.9-.4-12.1,3.53.95,5.33,9.93,6.57,10.24,3.22.8,9.17-1.5,12.59-2.61,1.34-.44,2.32.96,1.87-1.89l-12.27-23.7c-7.78.54-32.49,13.47-38.47,10.02-1.44-.83-8.93-17.22-9.18-20.11,6.01-1.61,8.82,10.01,12.13,10.3l11.51-5.19c2.06-4.54-3.48-7.65-1.96-12.76,6.49-1.72,7.21,4.86,7.7,10.13l9.96-.12c5.42-3.42-8.77-24.71-11.84-28.69l-33.67,10.81-10.41-20.16c5.85-1.77,8.11,6.9,9.7,7.48,4.15,1.51,9.27-1.11,13.25-2.39,3.2-1.03,2.11-1.69,6.38-2.55,6.43-1.3,13.52-.29,8.49-9.78-.29-.55-1.97-.89-2.53-1.97-2.91-5.68-5.12-11.24-9.3-16.17-4.28-1.57-26.04,8.41-31.81,10.13-1.58-1.03-2.76-1.68-4.39-2.59l-5.1-10.19c3.87-.7,7.53,5.83,10.2,0,.83.06,1.72.03,2.55,0,1.7-.06,3.41.06,5.11.01v-5.11c2.71-.56,4.57,2.73,6.97,2.62.63-.03.46-2.28,1.55-2.58,4.63-1.26,11.82,1.65,8.77-6.5l-19.35-3.6c-4.41-.42-8.86.03-13.26-.13-.42-.02-.85,0-1.28,0-2.26-4.43-9.55-2.19-14.03-2.55ZM356.87,319.84h-2.54v2.54h2.54v-2.54ZM484.41,518.62c-8.36,1.33-5.64,3.29-11.21,7.57-7.15,5.5-13.04,9.43-19.89,14.83-1,.79-9.28,4.89-9.7,5.66-.11.82,1.69,2.52,1.9,2.52h139.65c-2.64-7.28-12.86-11.37-18.63-15.82-6.62-5.11-14.43-10.42-20.5-15.17-4.27-3.33-7.74-10.09-14.1-12.03l-32.54.03c-4.89,4.18-12.22,7.43-14.98,12.41ZM581.33,563.23c-9.02.52-18.51,3.31-27.35,3.87-22.58,1.42-56.68,1.57-79.17-.01-7.76-.55-15.64-3.72-23.56-3.22l17.25,13.34c28.93-2.17,62.2,2.96,90.6.1,6.02-.61,4.34-2.02,7.58-3.9,5.02-2.91,11.1-5.64,14.66-10.18Z"/>
  <path class="cls-21" d="M215.32,740.34l24.35-109.46,26.48.05,16.77,48.24c13.6-15.11,26.98-31.5,38.24-48.42h30.61l-24.23,109.59h-29.33l11.47-53.51c-2.45-.53-3.05,1.25-4.33,2.67-4.35,4.77-15.64,22.77-19.92,24.7-3.15,1.42-14.43,1.71-16.35-1.46-2.1-3.46-8.21-29.72-9.77-29.75l-13.39,57.35h-30.61ZM310.95,685.54v-2.54h-1.25v2.54h1.25Z"/>
  <path class="cls-6" d="M518.84,675.35l-.02,5.63,3.21.77c2.2-.71,8.27-23.11,8.24-26.34s-2.44-4.18-2.46-7.26c-.01-1.56,3.21-16.75,3.95-17.23,11.9.44,22.34-3.66,30.94,6.34,5.55,6.45,1.2,16.23-1.14,24.08-3.26,10.94-7.53,24.53-19.76,28.05,2.41,3.92,6.84,5.81,7.23,10.98.8,10.59-7.42,28.77-8.51,39.98h-29.33l8.93-43.32h-28.69l-11.48,43.32h-28.69l15.43-72.51,24.11-2.67h-24.23v-5.1h31.88l-2.55,15.29h22.96Z"/>
  <path class="cls-21" d="M48.25,656.24l-3.83,19.11h47.82c4.18,0,11.56,8.98,12.09,13.5.69,5.93-5.77,28.61-8.86,34.32-3.43,6.32-13.48,17.17-21.08,17.17H1.7c-1.17-.92-1.67-1.32-1.7-2.9-.1-5.99,5.8-19.32,6.33-26.24l28.32.03,2.03,1.87-1.1,4.88,1.89,1.91,27.83-1.37c1.59-.54,5.73-16.49,5.69-18.59-.03-1.58-.53-1.98-1.7-2.9H27.21c-.64,0-9.3-6.51-10.26-7.58-8.81-9.87-.3-21.76.7-33.19h30.61Z"/>
  <path class="cls-21" d="M221.69,656.24l-17.85,84.1h-29.33l2.55-20.39h-25.51c.51-3.6,9.89-18.94,12.01-20.49,3.81-2.78,12.4-.27,17.19-1.3l5.23-25.35h-62.49l10.84-16.57h87.36Z"/>
  <polygon class="cls-21" points="668.06 656.24 648.29 740.34 620.87 740.34 624.69 719.95 597.91 719.95 610.67 698.93 627.07 698.12 632.35 672.81 569.86 672.79 580.7 656.24 668.06 656.24"/>
  <path class="cls-21" d="M393.86,630.75l-19.13,87.92h12.75s-5.88,21.75-5.88,21.75c-13.73-2.21-34.41,6.43-41.07-9.89l22.72-99.77h30.61Z"/>
  <path class="cls-6" d="M453.8,654.96c-5.08,17.92-7.24,37.89-12.56,55.62-2.75,9.15-5.76,17.3-13.61,23.35-1.61,1.24-10.43,6.4-11.44,6.4h-31.25l5.11-21.65c1.27-1.32,15.86,2.39,17.63-2.13l16.15-61.59h29.97Z"/>
  <polygon class="cls-21" points="713.97 656.24 694.2 740.34 664.23 740.34 683.36 656.24 713.97 656.24"/>
  <path class="cls-5" d="M889.96,674.08c1.08-.8,3.58,1.83,2.54-5.11l22.97.02v-7.66s5.09,0,5.09,0v10.2c-3.12,10.8-5.06,23.77-6.37,34.4-.15,1.24.14,2.58,0,3.82-.79.11-1.7-.18-2.52,0l-6.57,30.41c-9.27.32-18.61.17-27.89.17h-2.55c3.9-9.96,12.57-64.24,15.3-66.26Z"/>
  <polygon class="cls-7" points="619.59 676.62 618.41 681.17 576.87 740.34 546.9 740.34 589.62 676.62 619.59 676.62"/>
  <polygon class="cls-7" points="173.23 676.62 130.51 740.34 100.54 740.34 143.26 676.62 173.23 676.62"/>
  <path class="cls-6" d="M527.77,630.75l-5.74,24.21h-54.2c-1.34-7.92,16.52-24.21,22.32-24.21h37.62Z"/>
  <path class="cls-7" d="M83.96,649.86v1.27c-21.04.06-42.11-.05-63.16,0-5.13-.11,1.8-9.23,3.34-10.71,15.48-14.97,37.82-8.84,57.35-9.12l2.47,18.56Z"/>
  <path class="cls-6" d="M226.79,630.75l-3.83,20.39h-56.11c1.75-7.39,9.03-14.01,13.39-20.39h46.55Z"/>
  <path class="cls-6" d="M673.16,630.75l-3.83,20.39h-56.11c2.42-7.45,9.04-13.82,13.39-20.39h46.55Z"/>
  <polygon class="cls-9" points="458.9 630.75 454.95 651.01 425.12 652.43 428.3 630.75 458.9 630.75"/>
  <polygon class="cls-7" points="720.34 630.75 715.24 651.14 684.63 651.14 688.46 630.75 720.34 630.75"/>
  <path class="cls-6" d="M83.96,649.86c2.41-6.18-.67-14.2,3.19-19.11h29.97l-4,20.22c-9.82.99-19.45.14-29.16.17v-1.27Z"/>
  <path class="cls-17" d="M957.55,630.75l-3.83,14.02c.14-3.8-.1-7.67,0-11.47l-39.92.04c-1.6,3.33-12.27,7.68-13.28,10.47-.87,2.42.11,4.55-.34,6.52-.12.55-7.34,2.71.59,3.37,3.33.28,9.73.5,12.86.1,2.4-.31,1.68-2.38,2.65-2.64,5.04-1.36,3.42,3.31,7.49,2.65l5.1-2.76c4.23,4.61,9.4,2.05,15.37,2.77l3.08-2.66,1.27,2.54,5.12-7.63c-.11,1.7-.54,8.58-2.06,9l-59.16-.08c2.64-11.96,10.58-18.04,20.41-24.21,14.86.13,29.78-.09,44.64,0Z"/>
  <path class="cls-9" d="M112.02,656.24l-1.57,8.62c-10.01,4.12-20.02-2.4-30.3,1.57l1.27-10.19h30.61Z"/>
  <path class="cls-9" d="M638.72,304.54c1.08.18,1.91-.24,3.45.39,5.02,2.04,11.93,17.14,13.13,22.55.42,1.92-.52,4.66.03,6.74.18.7,4.23,1.86,2.55,5.98l5.06.02c.06-1.27-.03-2.55,0-3.82l3.83-6.38,3.74.06,1.36,7.59h-6.39s.01,7.66.01,7.66c-3.44.18-7.22-1.48-8.93,2.54-.25-2.01-2.69-6.19-2.57-8.92h-2.53s0,23.57,0,23.57c0,12.73-20.59,58.58-26.96,72.45-9,19.58-21.1,44.78-33.45,62.15-4.09,5.75-10.35,16.21-18.6,13.17-9.57-4.83-28.69-23.88-37.97-25.79-6.05-1.25-30.12-1.11-36.73-.32-9.3,1.11-38.41,28.24-43.12,27.85-4.04-1.72-7.56-5.47-10.43-8.69-17.7-19.88-62-113.84-64.37-139.57-.64-7,.54-14.68-.02-21.7-.31-3.91.63-3.28-3.83-3.12.02-.79-1.22-3.84-1.28-6.37-.03-1.27-.03-2.55,0-3.82,0-.42-.03-.85,0-1.27h2.55c.16-1.67-.18-3.43,0-5.1.08-.76-.19-2.35,0-2.55.12-.13,1.73.39,2.23-.29.3-.4,1.22-6,2.87-7.35,1.06-.87,9.35-4.66,10.2-3.82v3.83c3.44,1.17,2.01-2.2,3.43-2.57,1.24-.32,2.87.04,4.22.02.82-.01,1.78-.12,2.55,0-1.05,4.6,3.85,1.5,5,2.71.44.47-.25,2.69.33,3.34.71.81,4.66.93,6.46,1.68,5.05,2.12,10.65,4,16.28,5.01,10.97,1.96,24.32,8.99,34.74,13.12,13.23,5.24,27.64,12.08,40.91,14.93,1.04.22.32,2.33,2.7,2.63s9.17.32,11.65,0,1.65-2.41,2.7-2.63c10.76-2.31,21.95-6.81,31.85-10.65,25.04-9.72,49.81-22.1,75.89-30.31l7.45-4.93ZM402.78,313.47h-2.54v3.81h2.54v-3.81ZM392.58,317.29h-5.09v2.54h5.09v-2.54ZM382.38,322.39h-2.54v2.54h2.54v-2.54ZM485.68,361.88c-4.67-6.4-12.67-11.59-19.55-15.51-11.57-6.6-27.1-15-40.4-11.24-2.89,3.04,15.64,26.75,19.77,26.75h40.17ZM545.62,361.88h40.17c3.91-3.71,19.23-19.45,19.63-23.76.31-3.33-8.24-4.42-10.67-4.33-8.76.32-40.54,17.77-47.19,24.3-1.25,1.22-2.41,1.64-1.94,3.8ZM481.85,369.53c-12.31,1.92-29.69,6.47-41.86,2.96-10.84-3.13-22.17-21.6-29.54-29.72,1.75,10.15,11.63,23,19.79,29.28,11.42,8.79,32.22,8.47,45.24,3.22.92-.37,8.43-3.95,6.37-5.73ZM548.18,369.54c8.05,9.46,26.14,10.21,37.63,8.91,15.85-1.79,31.01-21.21,35.05-35.68-8.94,7.73-18.48,26.81-30.56,29.98-12.69,3.33-29.4-1.5-42.12-3.21ZM400.21,358.07c-3.28-.38-2.02,0-2.57,1.84-1.4,4.67-3.75,19.39-3.48,23.95.3,4.99,6.93,18.06,11.26,20.62,3.1,1.83,30.02,7.52,33.59,7.08,6.14-.75,18.97-14.79,24.98-18.47-9.55-1.16-18.98,1.61-28.67.63-17.1-1.74-27.05-22.32-35.11-35.66ZM633.61,358.07c-2.94-.74-2.1.57-2.91,1.61-6.43,8.21-16.39,27.34-25.5,31.79-12,5.85-26.76-.56-39.16,1.63l25.17,18.28c3.22.64,30.46-4.79,33.85-6.45,4.41-2.16,10.01-12.52,10.81-17.22,1.68-9.84-2.8-19.73-2.25-29.64ZM527.78,409.03l-3.12-38.31c-1.6-2.29-19.46-1.69-19.95.89,2.27,12.22-1.1,24.84.1,37.41-5.78.1-10.44-6.44-10.13-11.92.13-2.37,4.25-10.3.54-11.02-6.33-1.22-21.35,21.52-21,27.31.12,1.93,1.28,3.77,2.52,5.21,1.11,1.28,13.77,10.26,11.48,5.09-.58-1.32-8.97-8.94.55-8.31,8.39.55,22.71,21.72,26.88,21.72,6.36-3.02,9.23-10.08,14.65-14.71,2.39-2.04,15.34-11.17,16.6-5.06l-5.1,7.62c3.21,2.55,14.56-8.25,15.13-10.47-2.33-8.33-7.59-18.95-14.54-24.54-1.68-1.35-8.36-6.85-8.3-1.93.13,9.25,4.96,14.64-6.32,21ZM429.11,424.48c-4.61,1.56-.09,13.05,1.12,16.39,1.14,3.16,7.6,16.77,9.49,18.55,3.31,3.13,8.44,2.61,7.46-2.29-.62-3.08-6.95-13.09-8.71-18.11-2.08-5.93-.97-17.37-9.35-14.54ZM603.02,424.32l-8.37,1.2c1.29,10.09-9.15,22.46-10.53,30.32-.43,2.48-.56,3.86,1.71,5.44,7.1,1.36,19.59-30.03,17.19-36.96ZM578.78,470.19c1.72-7.84-11.7-24.97-18.55-25.43-4.5-.3-17.13,4.09-23.05,4.9-23.82,3.24-45.17.19-68.41-4.74-8.03,4.06-17.53,15.39-16.25,24.64,0,1.12,2.57.83,3.14.59,3.34-1.44,7.51-15.19,14.11-16.48,8.08-1.57,26.24,3.29,35.7,3.77,5.25.27,11.36.27,16.63.07,10.7-.4,27.57-5.23,37-3.94,9.61,1.32,10.94,16.01,19.69,16.62ZM473.59,460.01c-4.44,3.72-6.75,8.97-1.27,12.73,3.43.75,5.08-8.44,4.3-10.63l-3.03-2.1ZM480.9,474.98l8.69,1.06,1.94-12.28-11.02-1.95c-2.2,1.59-1.55,11.51.38,13.18ZM539.26,462.56c.67,5.13-2.77,14.1,4.42,14.09,8.6,0,7.91-7.62,6.46-14.17l-10.88.07ZM559.47,461.45l-6.19-.17c.45,2.43.99,10.8,3.19,11.45l4.27-2.11-1.27-9.17ZM512.28,477.66c9.85-20.52-27.78-18.03-15.13-.45l15.13.45ZM517.71,477.7l16.52-.41c2.43-5.62,2.76-12.54-4.48-13.51-12.15-1.64-15.66,2.15-12.04,13.93ZM472.93,488.03l-.55-10.27-5.81-1.2c-.33,5.33-.95,11.97,6.36,11.47ZM560.49,476.74c-11.37,12.52,6.96,19.78,3.66,1.07l-3.66-1.07ZM456.14,480.6c-1.38-.82-4.38.02-6.17-.22-2.09,7.71,3.41,22.33,12.1,22.8,10.2.54.24-9.57-1.93-13.2-1.09-1.82-3.51-9.09-4-9.38ZM477.07,487.71c5.6,5.5,12.97-4.57,5.14-7.05-6.55-2.07-8.16,4.08-5.14,7.05ZM554.37,487.85c4.99-7.84-11.34-11.41-8.54-1.98,1.13,3.81,7.19,4.11,8.54,1.98ZM581.33,480.38c-8.97-1.72-8.08,5.27-11.21,11.1-1.87,3.47-6.13,5.81-5.35,10.54,11.55,3.53,18.35-11.69,16.56-21.64Z"/>
  <path class="cls-22" d="M744.57,15.3c-7.43,7.25-15.24,14.19-20.92,23.04-2.42,3.78-7.98,17.97-8.7,18.7-1.78,1.81-9.43.3-11.09,3.58-13.41,27.33-18.43,57.65-30.48,85.5-16.5,38.1-50.15,86.51-87.36,106.4-5.35,2.86-11.26,6.72-17.43,6.16-2.97-16.52,5.22-16.02,14.63-24.25,25.52-22.34,48.22-73.99,54.92-106.96,4.18-20.58,9.94-72.02-3.43-88.41-4.96-6.08-14.7-7.84-16.37-16.12l126.25-7.64ZM596.63,234.46c-1.2-1.09-28.1,10.25-22.94,17.83,1.38,1.46,12.79-6.18,14.63-7.67,1.27-1.03,9.78-8.82,8.31-10.16Z"/>
  <path class="cls-22" d="M411.71,22.94c-1.44,8.33-12.83,11.16-17.64,18.68-11.83,18.5-5.8,67.18-1.09,88.6,8.98,40.78,32.06,89.97,67.83,113.17l1.91,15.28c-4.94,4.15-33.81-16.21-38.85-20.42-27.23-22.72-53.33-60.85-67.21-93.4-5.5-12.88-24.91-82.88-32.56-85.97-2.29-.92-5.68.07-8.02-2.18-1.6-1.54-5.44-12.15-7.44-15.5-5.98-10.01-13.93-18.2-23.16-25.28l126.24,7.02ZM457.62,253.56c5.11-8.16-22.63-20.34-24.22-19.09-.15,4.84,22.97,20.54,24.22,19.09Z"/>
  <path class="cls-27" d="M688.46,314.73v2.55c4.66.09,9.36-.1,14.03,0,.42,0,.85-.02,1.28,0-.71,3.86,1.95,2.45,4.41,2.55,4.47.18,8.98-.13,13.44,0l-5,2.63-2.64,10.11c-.83.03-1.72.06-2.55,0-6.42-.48-4.87-2.25-5.98-2.52-2.04-.49-4.61.14-6.77-.03-1.58,7.07,2.64,9.95,7.65,12.74,1.63.91,2.81,1.56,4.39,2.59,5.77-1.71,27.52-11.7,31.81-10.13,4.18,4.92,6.39,10.49,9.3,16.17.56,1.09,2.23,1.42,2.53,1.97,5.03,9.49-2.06,8.49-8.49,9.78l-2.85-9.92-7.35-.27,3.83,12.74c-3.98,1.28-9.09,3.9-13.25,2.39-1.59-.58-3.85-9.26-9.7-7.48l10.41,20.16,33.67-10.81c3.07,3.98,17.25,25.27,11.84,28.69l-9.96.12c-.49-5.28-1.21-11.86-7.7-10.13-1.52,5.11,4.02,8.22,1.96,12.76l-11.51,5.19c-3.31-.29-6.12-11.91-12.13-10.3.25,2.89,7.74,19.28,9.18,20.11,5.98,3.45,30.68-9.48,38.47-10.02l12.27,23.7c.45,2.85-.54,1.45-1.87,1.89-3.42,1.12-9.37,3.41-12.59,2.61-1.24-.31-3.04-9.29-6.57-10.24-3.47,3.2-2.5,9.01.4,12.1-4.89,4.17-10.99,7.07-17.42,5.51.07-3.45-4.45-10.47-7.84-7.44-1.52,1.36,7.68,14.6,7.85,17.62,13.52.92,26.86-8.38,39.76-12.23,3.68,1.63,9.89,12.03,10.77,15.94.25,1.12.76,3.29.13,4.03-10.79,2.47-21.22,9.4-31.51,12.52-1.59.48-3.24.1-4.05.35-3.2.99-8.15,1.47-11.75,2.67-1.23.41-3.45,4.52-8.66,2.43-.07-1.27.07-2.56,0-3.82-.17-2.96.14-5.97,0-8.93h-2.55c-1.26-6.81-3.62-13.7-5.88-20.24-14.98-43.43-38-85.18-58.85-125.97l-.31-5.42c2.32-.89,4.9,1.15,6.37,1.27Z"/>
  <path class="cls-27" d="M316.07,332.57v-10.2c-.8-.81-6.34,2-5.09-2.53,4.29-.64,10.5.9,14.42-.03.97-.23.79-2.26,1.75-2.49,5.31-1.28,12.26,2.27,16.96-2.58,3.04,5.77-1.34,6.4-2.16,8.03-4.26,8.49-9.48,20.14-13.13,28.92-5.08,12.23-10.07,24.81-15.3,36.95-12.67,29.38-22.95,50.31-30.68,82.12-.75,3.09-3.68,5.58-2.49,9.64-.41.44-10.76-2.27-11.74-2.68-4.33-1.8-32.9-13.78-34.17-15.17-.27-.29.35-2.28-.02-2.52-.59-.38-2.89.38-4.04-.11-2.3-.99-4.7-5.06-3.59-7.57.11-.25,3.61-1.18,4.68-2.96,2.69-4.49-.59-6.83,8.07-7.23.12.81-.11,1.72,0,2.55,2.54.14,5.13-.15,7.66,0,1.15,1.41,23.06,10.25,24.93,10.21l1.85-.6c1.3-1.72,2.51-3.54,3.6-5.39,1.24-2.1,11.59-20.2,2.17-16.95-1.54.53-1.51,3.49-2.46,4.58-3.42,3.95-4.59,1.31-3.3,5.6-5.74,3.65-8.75-3.42-14.78-3.76l2.02-14.08c-8.09-.87-6,5.69-9.78,10.24l-13.18-2.62c.43-3.92,9.52-24.3,11.79-25.11,3.84-.47,6.74,1.51,11.18,2.19-.78,3.82,1.94,2.2,4.06,2.88,6.96,2.23,13.68,5.26,20.69,7.38,2.25-2.85,13.6-21.15,12.23-22.99l-5.08-.73-7.16,9.42c-1.9-.11-3.68-1.06-5.61-1.06-.42,0-.86.03-1.28,0-6.81-2.94-5.26-4.14-3.83-10.19.26-1.08,2.06-2.43.7-3.85l-5.11-1.32-3.31,10.18-9.28.14c-4.98-5.06.15-8.35,1.54-11.32,1.14-2.44,7.13-15.96,8.06-16.5,5.33-3.08,28.74,9.2,35.91,10.03,2.31-4.26,9.45-13.95,9.8-18.55.19-2.56-1.46-2.66-3.19-1.89-2.17.95-3.28,5.84-4.89,7.25-3.63,3.17-10.92-1.89-14.93-2.23l3.83-9.61-2.08-2.97-4.29-.15-3.31,10.29-9.24-2.91c-.67-.94-.14-2.45-.22-3.56l13.65-21.5c6.75-.28,27.07,11.7,32.25,9.45.8-.35.97-1.74,1.28-1.96.47-.33.85-.87,1.28-1.27,2.92-2.78,6.76-5.51,6.37-10.19-6.11,1.4-7.39,3.77-14.02,1.27Z"/>
  <path class="cls-18" d="M613.22,258.67c2.83-.33,6.04.23,8.93,0,.23,5.49-2.23,8.86,5.09,7.65.04.42-.04.85,0,1.27.26,2.93-.19,5.99-.01,8.93l5.12-.02v5.13s4.98.1,4.98.1l.1,4.96c-4.16-1.46-4.78,1.76-5.52,2.14-5.28,2.67-11.35,3.55-17.01,5.96-.45.19-.44,1.85-1.3,2.08-4.6,1.22-7.89-3-6.76,5.13-15.71,6.2-31.69,12.62-47.61,17.82-1.44-.01-.88,1.56-.86,2.56-19.41,3.08-29.32,14.89-51.01,11.47l2.92-8.58c5.98-2.01.16-2.89-.03-3.15-.34-.49-.61-.91-.46-1.55l.17-27.92c-1.83-3.96-8.79,1.68-7.71-3.39h22.32c.4,0,1.9-1.73,3.13-1.97,8.91-1.72,16.45-3.85,24.7-5.7.48-.11,3.34-4.88,8.51-2.54l-2.54-2.54c2.84-.03,5.03-.15,7.64,1.27.08-1.26-.06-2.56.01-3.82,11.12-.3,15.68-1.68,25.09-5.53.66-.27,2.2-3.94,7.19-2.14l5.98-5.08c3.06-.62,6-2.2,8.93-2.55Z"/>
  <path class="cls-16" d="M376.01,338.95c4.46-.16,3.52-.79,3.83,3.12.55,7.03-.63,14.71.02,21.7,2.37,25.73,46.66,119.69,64.37,139.57,2.86,3.22,6.39,6.96,10.43,8.69,4.71.39,33.81-26.74,43.12-27.85,6.61-.79,30.68-.92,36.73.32,9.28,1.91,28.4,20.97,37.97,25.79,8.25,3.04,14.51-7.42,18.6-13.17,12.35-17.37,24.45-42.57,33.45-62.15,6.38-13.87,26.96-59.72,26.96-72.45v-23.57h2.53c-.12,2.73,2.32,6.91,2.57,8.92,2.85,22.98-8.49,48.03-16.9,69.13-8.54,21.42-18.82,44.36-29.62,64.7-6.16,11.59-20.1,41.3-35.62,39.44-9.23-1.11-28.13-23.31-37.69-26.14-5.49-1.63-38.8-1.19-43.92.82-10,3.93-30.43,25.42-38.39,25.43-14.1,0-27.32-27.46-33.19-38.27-15.31-28.25-38.94-78.88-45.93-109.57-3.02-13.27.38-21.83.68-34.45Z"/>
  <path class="cls-16" d="M757.86,280.86c-9.62,9.06-17.01,17.07-31.08,19.28-14.77,2.32-34.6,2.33-43.24-11.72-5.74-9.33-10.49-32.2-10.5-43.13-.02-21.13,31.94-33.69,49.6-34.77,5.45-.33,28.15,10.29,30.58,14.65,4.1,7.37,7.66,21.79,11.52,30.54,1.77,4.03,4.9,7.29,6.41,11.47.25,2.84-10.73,11.26-13.29,13.67ZM746.68,282.43c15.15-14.57,11.27-26.51,3.22-43.74-5-10.7-10.41-16-22.85-17.95-13.94-2.19-43.11,5.95-45,21.97-1.41,11.96,1.11,27.2,6.77,37.89,10,18.87,44.09,15.06,57.85,1.83Z"/>
  <path class="cls-16" d="M342.41,293.9c-14.08,13.18-46.28,7.08-60.67-4.12-3.14-2.45-19.08-17.67-20.6-20.23-2.82-4.75,1.86-7.48,3.76-11.67,3.29-7.26,10.97-30.91,14.81-34.89,3.51-3.63,22.94-12.94,27.88-12.68,4.8.25,20.76,4.52,25.52,6.48,6.58,2.71,22.59,15.26,23.69,22.21,2.15,13.64-3.96,45.15-14.4,54.91ZM304.26,220.74c-4.04.63-16.18,5.03-18.63,8.15-2.75,3.51-10.23,21.36-11.07,25.89-5.03,26.96,22.77,40.44,46.03,38.34,15.63-1.41,20.8-9.28,25.17-23.27,5.09-16.26,7.47-28.38-6.72-39.88-10.05-8.15-21.86-11.26-34.78-9.24Z"/>
  <path class="cls-14" d="M376.01,284.15l-2.54,7.64c4.25,1.24,6.58-2.8,9.82-3.55,7.1-1.66,18.85,3.45,25.89,6.11,27.42,10.38,62.72,31.12,90.55,38.23,1.86.48,5.46.93,7.65,1.27,21.7,3.42,31.6-8.39,51.01-11.47-.02-1.01-.59-2.58.86-2.56,15.91-5.2,31.9-11.62,47.61-17.82,9.32-3.68,19.91-9.54,29.07-12.37,2.83-.87,8.12-3.1,10.47-.38-6.65-.42-5.1,1.4-6.8,2.12-6.93,2.9-9.64,4.02-16.56,5.55-.97.21-.76,2.29-1.74,2.52-1.82.41-3.98-.34-5.86.06-1.12.24-3.28,4.77-4.4,5.01-8.75,1.88-14.77,4.13-22.45,7.26-12.03,4.9-17.55,8.62-30.19,10.62.02.72-.14,2.41,0,2.55.27.27,7.53,1.07,0,2.54v-2.54c-4.4-1.74-5.29,2.38-5.97,2.53-6.76,1.47-9.04,2.24-15.93,5.27-5.82,2.56-4.95,1.19-10.4,2.42-.94.21-.77,2.26-1.74,2.5-5.02,1.2-13.29-1.02-18.61.08-.3.06-4.8,4.07-3.47,5.04,5.14-2.34,8.05,2.41,8.53,2.53,2.07.5,5.63.04,8.05.03.98,3.82-3.82,2.85-5.75,2.58-3.13-.44-6.65-1.98-9.75-3.02-30.81-10.3-60.56-24.8-90.54-36.96-5.03-2.04-16.69-7.23-21.15-8.16-7.91-1.65-9.05.75-14.37,4.79-.26,2.83-2.55,5.7-2.76,8.74l-2.35.18c.15-2.11-.41-3.81.39-6.02.42-1.16,4.16-2.48,4.71-2.9.42-4.59-3.25-.61-2.55-5.09h5.11c.77-11.25-5.37-2.66-5.97-2.53-3.46.74-7.89-2.41-11.88-.03l9.7-8.09c1.75-4.7,1.61-3.37,4.32-4.65Z"/>
  <path class="cls-2" d="M550.73,161.82c.77.71,1.79,1.77,2.55,2.55.46.48,6.1,7.22,6.38,7.65,13.92,21.01,9.46,51.16-9.54,67.56-36.2,31.26-90.69,1.85-86.1-45.25.77-7.94,5.55-15.11,6.36-22.31,4.18-1.89,7.16-7.78,10.2-10.19,19.62-15.54,50.89-17.66,70.14,0ZM547.74,166.08c-40.66-36.46-104.35,17-69.71,62.64,41.45,54.6,118.89-18.54,69.71-62.64Z"/>
  <path class="cls-8" d="M377.28,304.54c5.32-4.04,6.46-6.44,14.37-4.79,4.46.93,16.12,6.12,21.15,8.16,29.98,12.17,59.73,26.66,90.54,36.96,3.1,1.04,6.62,2.58,9.75,3.02,1.93.27,6.73,1.24,5.75-2.58.42,0,.85.02,1.28,0,2.12-.09,4.27.1,6.39,0v-2.55c.41-.04.85.06,1.27,0,4.72-.68,8.23-1.73,12.69-3.25l14.09-6.95c.99-.06,3.59.21,3.83,0,1.87,0,3.27-.71,3.83-2.55.76-.18,1.89.21,2.55,0l2.55-2.55c.39-.11.89.12,1.28,0,1.81-.59,5.48,1.06,6.38-2.55.42-.05.87.08,1.28,0,5.49-1.05,8.32-3.99,11.48-5.1.38-.13.9.14,1.28,0,4.35-1.61,14.38-2.78,15.3-7.65.21.14,4.9.15,5.1,0h2.55s0-2.55,0-2.55c.76-.12,2.37.2,2.55,0,1.87,0,3.27-.71,3.83-2.55.42-.05.87.08,1.28,0,5.68-1.11,8.96-3.1,14.03-5.1v2.55c1.63.22,3.56-.26,5.1,0l-7.45,4.93c-26.08,8.21-50.85,20.59-75.89,30.31-9.9,3.84-21.09,8.34-31.85,10.65-1.04.22-.32,2.33-2.7,2.63s-9.17.32-11.65,0-1.65-2.41-2.7-2.63c-13.27-2.85-27.68-9.7-40.91-14.93-10.42-4.12-23.77-11.16-34.74-13.12.74-3.44-1.75-2.44-3.78-3.17-7.62-2.72-16.91-8.45-24.28-9.58-.77-.12-1.74-.01-2.55,0-2.68-5.16-14.86-6.53-17.64-2.3-.86,1.3.17,4.02-.21,4.85-.06.12-1.89-.32-2.56.88-1.18,2.09-2.06,4.4-2.54,6.76-.19.2.08,1.78,0,2.55h-2.55c-.11,1.68.1,3.41,0,5.1-.03.42,0,.85,0,1.27l-6.37,6.36c.62-4.26.96-8.44,1.27-12.74.81-.12,1.72.11,2.55,0,.11-2.54-.12-5.12,0-7.65.02-.42-.03-.85,0-1.27l2.35-.18c.21-3.05,2.5-5.92,2.76-8.74Z"/>
  <path class="cls-12" d="M484.41,518.62c2.76-4.98,10.09-8.22,14.98-12.41l32.54-.03c6.35,1.94,9.83,8.7,14.1,12.03,6.08,4.74,13.88,10.06,20.5,15.17,5.78,4.46,16,8.54,18.63,15.82h-139.65c-.21,0-2.01-1.71-1.9-2.52.42-.76,8.7-4.87,9.7-5.66,6.85-5.41,12.74-9.34,19.89-14.83,5.56-4.28,2.84-6.24,11.21-7.57-.16.3.24,1.26-.38,2.19-.7,1.06-7.15,5.65-7.28,6.11-.81,2.72,2.8,2.24,4.28,1.91,1.32-.3-.03-3.77,3.37-2.55l-.21,7.44-9.62,3.11-9.29,9.82c4.53-1.14,16.27,2.75,16.61-2.49l1.86-.07c1.16-.11.31,1.83.91,2.22,3.24,2.08,67.62.71,76.99.38,2.27-.08,4.81,1.05,4.37-2.59,1.14.17,4.47.48,5.09-.63l-17.58-12.98-5.37-1.67c1.38,1.67,1.76,3.22,2.55,5.08-6.9,1-5.04-1.27-5.13-6.91l4.42-.72.67-2.54c-1.76-1.77-6.48-2.46-7.22-2.98-4.9-3.47-2.26-4.55-10.18-7.67-.44-.17-.44-1.89-1.31-2.09-1.88-.43-4.02.37-5.9-.04-.97-.21-.77-2.27-1.74-2.51-1.94-.47-16.72-.47-18.66,0-.96.23-.78,2.29-1.74,2.5-1.82.41-3.96-.32-5.87.06s-6.97,6.55-13.66,7.61Z"/>
  <path class="cls-24" d="M581.33,563.23c-3.55,4.54-9.64,7.27-14.66,10.18-3.23,1.88-1.56,3.29-7.58,3.9-28.4,2.86-61.67-2.27-90.6-.1l-17.25-13.34c7.93-.5,15.8,2.67,23.56,3.22,22.49,1.59,56.59,1.43,79.17.01,8.85-.56,18.34-3.35,27.35-3.87Z"/>
  <path class="cls-22" d="M522.67,143.98h-14.03v-77.09c0-6.53,14.03-4.68,14.03,0v77.09Z"/>
  <path class="cls-10" d="M439.77,109.58v78.37c0,.37,1.06,1.31,1.08,2.5.01,1.1-.85,9.43-3.6,7.05-.48-.41-6.4-10.19-6.4-10.82v-57.98l-4.78.36-13.72,12.4-4.27-3.5c-.53-1.83-.07-3.51.74-5.15,1.08-2.18,15.11-14.79,17.91-16.81,3.68-2.65,8.5-6.4,13.04-6.42Z"/>
  <path class="cls-24" d="M591.54,109.58c2.26-2.49,30.25,22.34,30.64,26.16.13,1.28-.69,6.6-3.03,5.53l-18.66-15.11-1.21,61.84-7.73,9.51v-87.92Z"/>
  <path class="cls-13" d="M420.64,259.94c4.78.06,1.63.87,3.4,1.28,10.51,2.39,16.33,5.38,27.21,8.92-1.86,1.36-3.2,1.04-2.56,3.82,6.28-1.5,4.81,2.29,5.11,2.55-6.12-1.49-13.56-3.21-19.44-5.19-1.15-.39-.91-2.17-1.87-2.4-3.16-.77-6.26.79-9.28-2.6-2.97,8.01-6.74,16.38-4.71,25.14,1.35.6,1.96,2.03,3.23,2.72,10.58,5.7,22.9,8.47,33.61,13.04,4.58,1.95,10.48,5.65,14.78,7.4,11.74,4.79,23.45,10.34,35.97,12.86-1.77,2.95-4.33,2.81-6.38,5.1-27.83-7.11-63.13-27.85-90.55-38.23h6.37s-2.59-7-2.59-7c4.85-1.31,1.72-6.02,2.62-9.98.12-.52,1.66-3.38,2.56-7.62.11-.54,6.05-5.5,2.52-9.81Z"/>
  <path class="cls-10" d="M456.35,98.11c.3-.76-.68-1.33.95-2.51,1.43-1.04,21.22-8.55,22-7.68l1.28,73.9c-3.05,2.41-6.03,8.31-10.2,10.19,1.57-13.86,1.57-50.47-.13-64.25-.14-1.13-.64-4.33-1.97-4.64l-13.2,2.63c-.68-3.34.22-5,1.27-7.65.95,3.23,6.86,3.12,9.33,2.52.83-.2.85-3.94,5.34-2.54,1.33.41-1,7.44,5.78,1.71l-.05-6.78c-4.28-1.79-5.3,2.39-5.96,2.54-1.88.41-4.04-.38-5.92.03-.48.11-3.32,4.9-8.52,2.53Z"/>
  <path class="cls-1" d="M451.25,270.14c5.41,1.76,11.84,2.45,16.89,4.12,2.72.9,6.18,2.12,8.61,3.52h-5.09s0,1.26,0,1.26h4.45s.64-1.26.64-1.26c.73.42,1.76.36,2.55,1.27,1.55,1.8-2.88,2.17,5.1,2.55,2.96.14,5.96-.12,8.93,0v2.53c5.67.08,9.39,2.12,15.3,2.57,18.3,1.38,33.58-10,49.74-10.19v-2.54c2.54-.08,5.1.06,7.65,0-.08,1.27.07,2.56-.01,3.82-2.61-1.42-4.8-1.31-7.64-1.27l2.54,2.54c-5.17-2.34-8.03,2.43-8.51,2.54-8.25,1.85-15.79,3.98-24.7,5.7-1.23.24-2.73,1.97-3.13,1.97h-22.32c-1.08,5.07,5.88-.56,7.71,3.39l-.17,27.92c-.16.64.12,1.06.46,1.55.19.26,6.01,1.14.03,3.15l-2.92,8.58c-2.19-.35-5.79-.8-7.65-1.27,2.05-2.29,4.6-2.15,6.38-5.1,3.58-5.95.03-25.17,1.22-33.08-6.09-.36-11.64-3.24-17.29-5.07-1.36-.44-3.34.27-4.69-.06-1.45-.36-1.34-2.7-2.18-3.25-2.08-1.35-3.45,2.46-6.39-1.86-.33-.49.72-2.65-.65-2.56l-1.89.02v2.54c-2.29-.27-3.61-.68-5.11-2.55-.22-.27.28-1.74-.06-2.46l-5.04,1.19c-.78-.43-1.99-.78-2.55-1.27-.19-.17.61-2.34-.69-2.63l-4.41,1.35c-.78-.43-2-.78-2.55-1.27-.29-.26,1.17-4.05-5.11-2.55-.64-2.78.7-2.46,2.56-3.82ZM458.9,272.7h-2.54v1.25h2.54v-1.25ZM467.82,275.25h-3.81v1.25h3.81v-1.25Z"/>
  <path class="cls-18" d="M402.79,266.31c.07-.12,2.22.59,2.58-.83.5-1.92-.33-4.69-.02-6.81l1.9,2.56c.77-3.83,5.02-2.81,8.29-2.56.67.05,2.23,1.24,5.1,1.27,3.54,4.31-2.4,9.28-2.52,9.81-.9,4.24-2.44,7.1-2.56,7.62-.9,3.95,2.23,8.67-2.62,9.98l2.59,6.99h-5.09s-5.54-4.65-5.54-4.65c-3.72.62-4.64-2.53-5.62-2.91-1.58-.61-4.79.58-6.13-1.29-2.57-3.57,1.36-3.97,1.53-4.3.53-1.03.36-1.98.45-2.13,2.56-4.32,5.1-8.49,7.65-12.74Z"/>
  <path class="cls-12" d="M627.24,253.57c.4-.24.52-4.82,7.59-2.48,1.67,11.74,9.04,27.03,19.19,33.06l5.1,8.91c-4.42.21-7.19-3.04-11.47-3.82-.4-.07-.86.03-1.28,0-2.34-2.72-7.64-.5-10.47.38-9.16,2.82-19.75,8.69-29.07,12.37-1.13-8.13,2.16-3.91,6.76-5.13.86-.23.86-1.89,1.3-2.08,5.66-2.42,11.73-3.29,17.01-5.96.74-.38,1.36-3.6,5.52-2.14l-.1-4.96-4.98-.1v-5.13s-5.12.02-5.12.02c-.18-2.94.27-6,.01-8.93,4.9,4.47,7.46,13.66,15.3,14-8.86-8.12-12.71-16.34-15.3-28.02Z"/>
  <path class="cls-12" d="M402.79,253.57c-3.13,10.51-3.95,16.44-12.15,24.24-1,.95-6.98,2.65-1.23,3.82l5.73-2.58c-.09.15.08,1.1-.45,2.13-.17.33-4.1.74-1.53,4.3,1.34,1.86,4.55.67,6.13,1.29.98.38,1.9,3.53,5.62,2.91l5.54,4.66h-1.28c-7.04-2.66-18.79-7.77-25.89-6.11-3.23.76-5.57,4.8-9.82,3.55l2.54-7.64c6.65-3.13,3.82-3.53,6.91-7.15,6.41-7.49,13.46-14.84,12.22-25.98,3.06-.8,5.38,2,7.65,2.54Z"/>
  <path class="cls-13" d="M550.73,161.82v-73.91c2.12.25,4.88-.51,6.81,0,1.36.35.73,2.49.84,2.56.78.49,9.93,1.69,12.35,2.98,1.81.97,5.47,5.46,5.62,7.85.71,11.37-9.54.72-15.41,1.92l-1.28,68.81c-.28-.42-5.91-7.17-6.38-7.65h5.1s.05-62.79.05-62.79l3.15-3.48c3.11-.4,1.31,1.87,2.48,2.3,1.43.52,7.49-.23,9.61.25.87-2.88-4.4-3.53-6.53-4.31s-4.19-.47-5.85-1.19c-1.58-.69-2.66-4.57-2.91-4.68-1.01-.42-3.66.29-5.1,0v73.91c-.77-.78-1.78-1.84-2.56-2.55Z"/>
  <path class="cls-13" d="M652.75,303.27c.05.42-.08.88,0,1.27,1.16,5.37,5.78,12.65,7.3,18.83.31,1.26,3.25,15.91-.91,11.75l-3.84-7.64c-1.19-5.41-8.11-20.52-13.13-22.55-1.55-.63-2.37-.2-3.45-.39-1.55-.26-3.47.21-5.11,0v-2.55c5.43-2.14,2.85-1.91,3.83-2.55,3.5-2.26,11.91,1.81,15.3,3.82Z"/>
  <path class="cls-1" d="M703.76,317.28c4.4.16,8.85-.29,13.26.13l19.35,3.6c3.05,8.15-4.14,5.24-8.77,6.5-1.09.3-.92,2.55-1.55,2.58-2.41.11-4.26-3.17-6.97-2.62v5.11c-1.69.05-3.41-.07-5.11-.01l2.64-10.11,5-2.63c-4.46-.14-8.97.17-13.44,0-2.45-.1-5.12,1.31-4.41-2.55Z"/>
  <path class="cls-14" d="M331.37,314.73l-36.98,6.39c-3.07,4.67,10.76,9.05,14.01,7.03,1.7-1.06,1.68-5.27,5.11-4.49l-1.17,6.84c.56,2.09,2.49,1.61,3.73,2.08,6.63,2.5,7.91.14,14.02-1.27.39,4.68-3.45,7.41-6.37,10.19.02-7.35-4.48-5.18-7.86-5.74-2.36-.39-2.15-2.94-3.22-3.16-9.43-1.98-9.46-1.74-17.95-5.08-2.99-1.17-5.94,2.02-4.06-6.75.76-3.53,11.04-4.51,14.46-4.64,1.83-.07,4.22,1.36,6.57,1.3s1.68-2.42,2.73-2.67c4.07-.96,12.09.24,16.98-.03Z"/>
  <path class="cls-25" d="M247.2,444.71c7.2.44,7.14,2.21,8.52,2.52,4.76,1.07,8.41-.02,13.44,2.63,1.63.86.35,3.39,3.52,2.45,3.37-4.93,3.02-4.51,1.3-10.16-1.3-4.28-.13-1.65,3.3-5.6.95-1.1.92-4.05,2.46-4.58,9.42-3.25-.93,14.85-2.17,16.95-1.09,1.85-2.3,3.67-3.6,5.39l-1.85.6c-1.86.04-23.78-8.8-24.93-10.21ZM277.17,443.43v1.27c.83-.42.83-.85,0-1.27Z"/>
  <path class="cls-13" d="M380.81,205.47c6.23,6.79-5.86,17.48-3.53,25.17h-5.09c-1.78-1.69,2.05-24.09,5.71-26.67.77.71,2.33.86,2.91,1.49Z"/>
  <path class="cls-1" d="M655.7,212.46c.18.41,1.94-.15,2.25,2.15.23,1.72.57,15.25-.18,15.95l-5.02.08c-.37-2.93.59-6.53-.05-9.3-.2-.85-1.93-.8-2.35-1.94-2.53-6.85-4.75-11.32,3.04-15.49,3.23,2.17,1.11,5.82,2.31,8.56Z"/>
  <path class="cls-14" d="M341.57,333.85c-2.46,6.08-3.66,8.77-5.14,15.64-.23,1.04-4.07,2.85-4.6,3.89-2.67,5.31-4.46,11.2-5.61,16.5-.24,1.13-4.76,3.27-5.01,4.4-2.34,10.63-2.05,4.71-4.75,9.64-1.02,1.87,1.03,5.5-2.94,4.72,5.23-12.14,10.22-24.72,15.3-36.95,4.58-.35,4.63-6.41,6.31-9.62,1.05-2,3.87-8.38,6.44-8.22Z"/>
  <path class="cls-1" d="M637.43,222.99c2.71,2.5-1.04,13.8-.03,17.79l-13.97,2.59c-.36-1.77.55-2.75,1.34-4.12,2.35-4.04,6.41-10.41,9.76-14.65.59-.75.9-3.45,2.9-1.61Z"/>
  <path class="cls-1" d="M392.59,222.99c2.49-.58,2.97,1.5,4.51,3.11,3.55,3.71,8.02,10.06,8.29,15.35.32,6.23-5.65-.5-6.02-.59-2.08-.48-4.6.16-6.78-.03v-17.84Z"/>
  <path class="cls-13" d="M604.29,261.22l-5.98,5.08c-4.99-1.8-6.52,1.87-7.19,2.14-9.41,3.84-13.97,5.22-25.09,5.53.05-.84-.07-1.7,0-2.55,5.18,2.29,8.03-2.37,8.56-2.5,9.87-2.54,19.42-5.61,29.71-7.69Z"/>
  <path class="cls-14" d="M333.92,314.73c-.79-4.53,4.15-1.92,6.78-2.57.96-.24.8-2.27,1.75-2.5,2.7-.64,6.42.33,9.34-.03-.36,2.91.61,6.63-.03,9.33-.23.95-2.29.77-2.51,1.74-.41,1.82.35,3.98-.06,5.85-.1.47-6.07,6.25-7.61,6.02,2.89-7.27,7.11-13.31,8.92-20.38-5.81,2.04-10.59,2.23-16.57,2.54Z"/>
  <path class="cls-26" d="M411.72,256.12l-7.65-1.28-1.28,11.47c-2.55,4.25-5.09,8.43-7.65,12.74l-5.73,2.58c-5.75-1.17.23-2.87,1.23-3.82,8.2-7.8,9.02-13.73,12.15-24.24,4.67,1.11,3.46-1.08,8.93,2.55Z"/>
  <path class="cls-26" d="M627.24,253.57c2.59,11.68,6.44,19.9,15.3,28.02-7.85-.34-10.4-9.54-15.3-14-.04-.42.04-.85,0-1.27-.37-3.85-1.34-7.58-1.28-11.47-.27-.28-6.4,1-7.65,1.28.88-4.26,7.6-1.75,8.93-2.55Z"/>
  <path class="cls-25" d="M739.47,365.71l-3.83-12.74,7.35.27,2.85,9.92c-4.27.86-3.17,1.52-6.38,2.55Z"/>
  <path class="cls-14" d="M654.03,284.15c.38.23,2.09-.46,3.44.39,2.85,1.81,8.25,8.69,4.28,11.78-3.52,2.73-3.97-1.81-4.74-1.97-3.8-.79-8.25,1.18-9.36-5.1,4.29.77,7.05,4.02,11.47,3.82l-5.1-8.91Z"/>
  <path class="cls-1" d="M333.92,314.73c5.98-.32,10.76-.51,16.57-2.54-1.81,7.07-6.03,13.11-8.92,20.38-.15.37.15.91,0,1.27-2.57-.15-5.39,6.23-6.44,8.22-1.69,3.2-1.73,9.26-6.31,9.62,3.65-8.78,8.88-20.44,13.13-28.92.82-1.63,5.2-2.26,2.16-8.03-4.7,4.84-11.65,1.3-16.96,2.58-.97.23-.79,2.26-1.75,2.49-3.92.94-10.13-.61-14.42.03-1.25,4.53,4.29,1.72,5.11,2.53v10.2c-1.26-.47-3.18.01-3.74-2.08l1.17-6.84c-3.43-.77-3.41,3.43-5.11,4.49-3.25,2.03-17.08-2.36-14.01-7.03l36.98-6.39c.85-.05,1.7.04,2.55,0Z"/>
  <path class="cls-14" d="M652.75,304.54c3.36.43,3.05,3.98,7.64,2.56.72.63-.69,11.91,0,14.45.36,1.34,2.5.72,2.57.84l.65-2.56,1.89.02c.09.83-.1,1.71,0,2.54.83.1,1.71-.08,2.54,0,.36,2.66.12,2.89-2.53,2.53-.09-.83.1-1.71,0-2.54-.83-.1-1.72.06-2.55,0,.38.59.06,11.71,0,14.02-.03,1.27.06,2.55,0,3.82l-5.06-.02c1.67-4.12-2.37-5.28-2.55-5.98-.55-2.08.39-4.82-.03-6.74l3.84,7.64c4.16,4.16,1.22-10.49.91-11.75-1.52-6.18-6.14-13.46-7.3-18.83Z"/>
  <path class="cls-14" d="M275.26,356.79c-.58-8.04,1.54-4.96,3.44-8.62,1.61-3.11,1.01-4.86,1.75-6.99.44-1.26,4.6-3.1,2.45-8.61,2.91.37,6.64-.61,9.34.03,3.9.93,8.98,3.69,15.31,5.09.58.13,2.79,5.47,8.51,1.25l-.05,2.92,6.44.91c-.31.22-.48,1.62-1.28,1.96-5.18,2.25-25.5-9.73-32.25-9.45l-13.65,21.5Z"/>
  <path class="cls-25" d="M280.36,403.93c1.93,0,3.7.94,5.61,1.06l7.16-9.42,5.08.73c1.37,1.84-9.98,20.15-12.23,22.99-7.01-2.12-13.73-5.14-20.69-7.38-2.12-.68-4.85.93-4.06-2.88,9.2,1.41,12.35,3.3,20.84,5.1.99.21.98,2.5,1.47,2.58l2.54-.06c1.11-2.43,8.65-13.15,7.03-15.26s-7.11,5.74-5.1,7.65c-3.48.9-7.17-1.37-7.65-5.11Z"/>
  <path class="cls-12" d="M618.32,256.12c1.25-.28,7.38-1.56,7.65-1.28-.06,3.89.91,7.62,1.28,11.47-7.32,1.21-4.86-2.16-5.09-7.65-2.89.23-6.11-.33-8.93,0,.8-2.99,3.08-2.1,5.1-2.55Z"/>
  <path class="cls-14" d="M554.55,332.57l-14.09,6.95c-4.46,1.52-7.97,2.57-12.69,3.25-.72-4.65,4.37-1.65,7.34-2.9.27-.11,1.56-2.86,4.19-4.02,5.23-2.32,9.51-2.9,15.25-3.27Z"/>
  <path class="cls-1" d="M706.31,342.77c-5.02-2.79-9.23-5.67-7.65-12.74,2.16.18,4.73-.45,6.77.03,1.11.27-.44,2.04,5.98,2.52-2.66,5.84-6.33-.7-10.2,0l5.1,10.19Z"/>
  <path class="cls-1" d="M770.08,472.74l-14.76,7.56-5.65.08c-.07-.84.05-1.7,0-2.54,5.21,2.09,7.43-2.02,8.66-2.43,3.59-1.2,8.55-1.69,11.75-2.67Z"/>
  <path class="cls-8" d="M226.79,452.35c.3-.58-.44-2.84.04-4.1.41-1.08,5.54-4.84,5.26-8.43l7.46-.2c.11.83-.12,1.74,0,2.54,1.62-.08,6.9-.36,7.57.15.51.39-.12,2.14.09,2.4-2.53-.16-5.12.13-7.66,0-.11-.83.13-1.74,0-2.55-8.66.4-5.38,2.74-8.07,7.23-1.07,1.78-4.57,2.71-4.68,2.96-1.11,2.5,1.29,6.58,3.59,7.57,1.15.49,3.45-.27,4.04.11.37.24-.25,2.22.02,2.52-6.71.46-12.21-2-10.21-9.35.37-1.37,2.49-.73,2.55-.85Z"/>
  <path class="cls-14" d="M637.45,299.44c.12-.06-.51-2.2.85-2.56,3.62-.97,10.34.71,14.46,0,.18,2.09-.25,4.3,0,6.38-3.39-2.01-11.81-6.09-15.3-3.82-.99.64,1.6.41-3.83,2.55-5.07,2-8.35,3.98-14.03,5.1,1.42-7.33,7.41-4.11,11.87-5.13.35-.08,5.66-2.36,5.98-2.52Z"/>
  <path class="cls-1" d="M411.72,256.12c1.19.79,2.98.97,3.83,2.55-3.27-.24-7.52-1.26-8.29,2.56l-1.9-2.56c-.31,2.12.52,4.89.02,6.81-.37,1.42-2.51.71-2.58.83l1.28-11.47,7.65,1.28Z"/>
  <path class="cls-14" d="M372.18,314.73c-.12,2.54.11,5.12,0,7.65-.83.11-1.74-.13-2.55,0-.31,4.3-.65,8.48-1.27,12.74l6.37-6.36c-.03,1.27-.03,2.55,0,3.82l-4.46,6.34-3.07-1.38-.11-15.17c.83-.11,1.74.12,2.55,0,.18-2.53-.15-5.12,0-7.66h2.55Z"/>
  <path class="cls-25" d="M493.34,281.6c7.59.32,7.59.82,14,3.23.75.28,1.13,1.11,1.31,1.87-5.91-.45-9.63-2.49-15.3-2.57v-2.53Z"/>
  <path class="cls-14" d="M588.99,319.83c-2.1-8.75,7.65-4,12.75-5.1l-2.54-5.08c5.82-1.54,4.8,2.35,5.09,2.54-.93,4.86-10.96,6.04-15.3,7.65Z"/>
  <path class="cls-14" d="M576.23,324.93c.22-4.8,4.82-4.37,7.28-5.51.46-.21.94-5.58,4.2.41-3.16,1.11-5.99,4.05-11.48,5.1Z"/>
  <path class="cls-1" d="M702.49,317.28c-4.66-.1-9.37.08-14.04,0v-2.55c4.48.36,11.78-1.88,14.04,2.55Z"/>
  <path class="cls-25" d="M275.26,393.74c-1.44,6.06-2.98,7.25,3.83,10.19-2.95-.19-5.97.15-8.93-.01l5.1-10.18Z"/>
  <path class="cls-14" d="M364.52,309.64c.32.31-.18,3.86,0,5.09h-5.09s1.41-4.96,1.41-4.96c.51-.31,3.55-.25,3.68-.12Z"/>
  <path class="cls-1" d="M747.12,465.1h2.55c.14,2.95-.17,5.96,0,8.92-4.05-1.31-2.01-6-2.55-8.92Z"/>
  <path class="cls-14" d="M526.49,342.77v2.55c-2.11.1-4.25-.09-6.38,0v-2.55c2.1-.16,4.27.18,6.38,0Z"/>
  <path class="cls-14" d="M574.96,324.93c-.9,3.61-4.57,1.96-6.38,2.55v-2.55c2.08-.22,4.31.26,6.38,0Z"/>
  <rect class="cls-14" x="660.41" y="281.61" width="5.09" height="2.54"/>
  <path class="cls-13" d="M479.31,279.06h5.11s0,2.55,0,2.55c-7.98-.38-3.55-.75-5.1-2.55Z"/>
  <rect class="cls-14" x="668.06" y="309.64" width="2.54" height="5.08"/>
  <path class="cls-14" d="M618.32,307.09c-.55,1.84-1.95,2.55-3.83,2.55,1.34-1.47-2.7-1.69,3.83-2.55Z"/>
  <path class="cls-14" d="M562.2,330.03c-.55,1.84-1.95,2.55-3.83,2.55,1.62-1.43-2.76-.95,3.83-2.55Z"/>
  <rect class="cls-14" x="354.33" y="319.84" width="2.54" height="2.54"/>
  <path class="cls-14" d="M611.94,309.64v2.55s-2.55,0-2.55,0c.89-.67-2.29-1.82,2.55-2.55Z"/>
  <path class="cls-14" d="M564.75,330.03c.17-.06.72-2.02,2.55-2.55l-2.55,2.55Z"/>
  <path class="cls-5" d="M842.77,630.75c2.31,7.18-2.14,15.62-2.55,22.94-6.3,2.86-15.12.61-22.17,1.2l-.85.89-12.69,62.91,18.4-.08c1.49.24.47,2.02.73,2.62-1.36,1.91-2.46,6.7-2.55,8.92-.04.85.04,1.7,0,2.55l-2.55,7.65c-6.31.61-32.08.97-37.05-.57s-12.3-10.75-9.83-16.29c7.97-23.28,9.59-51.35,17.63-74.18,8.98-25.48,32.02-17.38,53.48-18.56Z"/>
  <path class="cls-3" d="M824.92,740.34c-.86-2.87.91-5.42,1.28-7.65.26-1.56-.29-3.58,0-5.1.19-1,.96-3.97,1.28-5.1.35-1.24.94-1.76,1.28-2.55,6.51-.95,9.16,1.49,10.2-6.37.19-1.46.08-3.55,0-5.1l2.55-7.64-17.85-1.28c-.26-.37-1.69-.59-1.97-1.33l-.12-2.53,11.65-15.25h39.53l1.7,2.9c-6.46,30.17-9.25,62.47-49.52,56.99Z"/>
  <path class="cls-24" d="M879.76,654.96c.23,1.95-.36,11.08-2.06,11.55l-28.55-.08,1.28-10.19,29.33-1.27Z"/>
  <path class="cls-17" d="M847.87,630.75h38.25s-3.9,20.33-3.9,20.33c-1.22.34-2.53-.07-3.75.06s-2.57-.04-3.83,0l5.1-2.56c-1.73-4.08,2.38-5.38,2.52-5.97.65-2.69-.34-6.41.03-9.31h-30.61c-1.46,0-3.78,10.45-2.55,12.75h-3.83c.36-4.47,3.26-10.33,2.55-15.3Z"/>
  <path class="cls-17" d="M923.12,660.06c0,2.12.09,4.26,0,6.37-.88,1.37-2.12,3.62-2.55,5.1v-10.2s-5.1,0-5.1,0v7.66s-22.97-.02-22.97-.02c1.04,6.94-1.47,4.31-2.54,5.11-1.01-2.82.73-4.54,1.28-6.37l22.96-.65c.89-3.06-2.82-1.69-4.5-1.86-4.67-.47-9.35-.85-14.02-1.35-2.4-.26-5.16,1.55-4.45-2.51.37-.44.61-1.14,1.28-1.27h30.61Z"/>
  <path class="cls-5" d="M919.29,699.56l5.28-21.48,25.76-.12c1.65-.4,3.21-8.19,3.39-10.25.08-.84-.04-1.71,0-2.55,3.86-10.22,5.03-21.35,7.65-31.86.17-.69-.19-1.72,0-2.53,11.13.44,18.23-3.15,25.5,7,1.08,1.51,2.9,4.06,3.29,5.73,1.1,4.61-8.05,39.09-11.16,43.75-4.19,6.29-13.77,12.15-21.13,13.29-8.27,1.28-31.08,1.11-38.59-.97Z"/>
  <path class="cls-19" d="M953.73,646.04l-5.12,7.63-1.27-2.54-3.08,2.66c-5.97-.72-11.13,1.84-15.37-2.77l-5.1,2.76c-4.07.66-2.45-4-7.49-2.65-.97.26-.26,2.33-2.65,2.64-3.12.4-9.52.18-12.86-.1-7.93-.66-.71-2.82-.59-3.37.45-1.97-.53-4.1.34-6.52,1-2.79,11.67-7.14,13.28-10.47l39.92-.04c-.11,3.81.14,7.67,0,11.47-.02.42.03.85,0,1.27Z"/>
  <path class="cls-19" d="M845.32,646.04h3.83c-1.23-2.29,1.09-12.74,2.55-12.74h30.61c-.37,2.9.62,6.62-.03,9.31-.14.59-4.26,1.89-2.52,5.97l-5.1,2.56c-.85.03-1.7-.02-2.55,0,.71-3.86-1.95-2.46-4.41-2.55-5.41-.2-10.55-.29-15.96-.69-4.03-.3-2.56-.82-2.59,3.24-.38,0-1.17,1.04-1.91,1.05l-1.32-1c-.86-1.47-.73-3.48-.59-5.15Z"/>
  <path class="cls-4" d="M527.78,409.03c11.28-6.36,6.44-11.75,6.32-21-.07-4.92,6.62.58,8.3,1.93,6.95,5.59,12.21,16.21,14.54,24.54-.57,2.22-11.92,13.02-15.13,10.47l5.1-7.62c-1.26-6.12-14.21,3.02-16.6,5.06-5.43,4.63-8.3,11.69-14.65,14.71-4.17,0-18.49-21.17-26.88-21.72-9.52-.63-1.13,7-.55,8.31,2.28,5.17-10.38-3.81-11.48-5.09-1.24-1.44-2.41-3.28-2.52-5.21-.35-5.78,14.67-28.52,21-27.31,3.71.71-.41,8.65-.54,11.02-.31,5.48,4.34,12.02,10.13,11.92-1.2-12.57,2.17-25.19-.1-37.41.49-2.59,18.36-3.18,19.95-.89l3.12,38.31Z"/>
  <path class="cls-4" d="M400.21,358.07c8.05,13.34,18.01,33.92,35.11,35.66,9.69.98,19.12-1.79,28.67-.63-6,3.68-18.84,17.72-24.98,18.47-3.57.44-30.49-5.25-33.59-7.08-4.33-2.56-10.96-15.63-11.26-20.62-.27-4.56,2.08-19.28,3.48-23.95.55-1.84-.71-2.22,2.57-1.84Z"/>
  <path class="cls-4" d="M633.61,358.07c-.55,9.91,3.92,19.8,2.25,29.64-.8,4.7-6.41,15.06-10.81,17.22-3.39,1.66-30.62,7.09-33.85,6.45l-25.17-18.28c12.4-2.2,27.16,4.22,39.16-1.63,9.12-4.45,19.07-23.58,25.5-31.79.81-1.04-.03-2.35,2.91-1.61Z"/>
  <path class="cls-16" d="M578.78,470.19c-8.75-.61-10.08-15.3-19.69-16.62-9.43-1.29-26.3,3.54-37,3.94-5.27.2-11.37.2-16.63-.07-9.46-.48-27.62-5.35-35.7-3.77-6.59,1.28-10.77,15.04-14.11,16.48-.57.25-3.14.53-3.14-.59-1.28-9.25,8.21-20.59,16.25-24.64,23.25,4.93,44.59,7.98,68.41,4.74,5.91-.8,18.55-5.2,23.05-4.9,6.85.46,20.27,17.59,18.55,25.43Z"/>
  <path class="cls-4" d="M485.68,361.88h-40.17c-4.13,0-22.66-23.71-19.77-26.75,13.29-3.76,28.83,4.65,40.4,11.24,6.88,3.92,14.88,9.11,19.55,15.51Z"/>
  <path class="cls-4" d="M545.62,361.88c-.47-2.15.69-2.57,1.94-3.8,6.65-6.53,38.43-23.98,47.19-24.3,2.43-.09,10.98,1,10.67,4.33-.4,4.31-15.72,20.06-19.63,23.76h-40.17Z"/>
  <path class="cls-2" d="M548.18,369.54c12.72,1.71,29.43,6.55,42.12,3.21,12.08-3.17,21.62-22.26,30.56-29.98-4.04,14.48-19.2,33.9-35.05,35.68-11.48,1.29-29.57.55-37.63-8.91Z"/>
  <path class="cls-2" d="M481.85,369.53c2.06,1.78-5.45,5.37-6.37,5.73-13.03,5.24-33.83,5.56-45.24-3.22-8.16-6.28-18.04-19.12-19.79-29.28,7.37,8.13,18.7,26.6,29.54,29.72,12.16,3.51,29.55-1.04,41.86-2.96Z"/>
  <path class="cls-16" d="M603.02,424.32c2.4,6.93-10.09,38.32-17.19,36.96-2.28-1.58-2.15-2.96-1.71-5.44,1.38-7.86,11.82-20.23,10.53-30.32l8.37-1.2Z"/>
  <path class="cls-16" d="M429.11,424.48c8.38-2.83,7.27,8.61,9.35,14.54,1.77,5.02,8.09,15.03,8.71,18.11.98,4.9-4.15,5.42-7.46,2.29-1.89-1.78-8.35-15.39-9.49-18.55-1.2-3.34-5.72-14.84-1.12-16.39Z"/>
  <path class="cls-16" d="M517.71,477.7c-3.62-11.78-.11-15.57,12.04-13.93,7.24.98,6.91,7.9,4.48,13.51l-16.52.41Z"/>
  <path class="cls-4" d="M512.28,477.66l-15.13-.45c-12.65-17.58,24.97-20.07,15.13.45Z"/>
  <path class="cls-16" d="M456.14,480.6c.49.29,2.9,7.56,4,9.38,2.18,3.63,12.14,13.74,1.93,13.2-8.69-.46-14.19-15.09-12.1-22.8,1.79.24,4.79-.6,6.17.22Z"/>
  <path class="cls-16" d="M581.33,480.38c1.79,9.95-5.02,25.17-16.56,21.64-.78-4.73,3.49-7.06,5.35-10.54,3.13-5.83,2.25-12.82,11.21-11.1Z"/>
  <path class="cls-16" d="M480.9,474.98c-1.93-1.67-2.58-11.59-.38-13.18l11.02,1.95-1.94,12.28-8.69-1.06Z"/>
  <path class="cls-16" d="M539.26,462.56l10.88-.07c1.44,6.55,2.14,14.16-6.46,14.17-7.19,0-3.75-8.96-4.42-14.09Z"/>
  <path class="cls-2" d="M560.49,476.74l3.66,1.07c3.3,18.72-15.03,11.46-3.66-1.07Z"/>
  <path class="cls-14" d="M402.79,309.64c7.37,1.13,16.66,6.86,24.28,9.58,2.03.72,4.52-.27,3.78,3.17-5.63-1-11.22-2.89-16.28-5.01-1.79-.75-5.74-.88-6.46-1.68-.58-.66.11-2.88-.33-3.34-1.14-1.21-6.04,1.89-5-2.71Z"/>
  <path class="cls-14" d="M400.24,309.64c-1.36.02-2.98-.34-4.22-.02-1.42.37,0,3.74-3.42,2.57v-3.83c-.85-.83-9.14,2.95-10.21,3.82-1.65,1.35-2.57,6.95-2.87,7.35-.51.69-2.11.16-2.23.29.48-2.36,1.36-4.67,2.54-6.76.68-1.2,2.5-.76,2.56-.88.39-.82-.65-3.54.21-4.85,2.78-4.23,14.96-2.86,17.64,2.3Z"/>
  <path class="cls-2" d="M473.59,460.01l3.03,2.1c.78,2.18-.87,11.37-4.3,10.63-5.48-3.76-3.16-9.01,1.27-12.73Z"/>
  <path class="cls-2" d="M559.47,461.45l1.27,9.17-4.27,2.11c-2.2-.65-2.74-9.02-3.19-11.45l6.19.17Z"/>
  <path class="cls-2" d="M477.07,487.71c-3.02-2.97-1.41-9.12,5.14-7.05,7.83,2.48.46,12.55-5.14,7.05Z"/>
  <path class="cls-2" d="M554.37,487.85c-1.35,2.12-7.41,1.83-8.54-1.98-2.79-9.43,13.54-5.86,8.54,1.98Z"/>
  <path class="cls-16" d="M472.93,488.03c-7.31.5-6.69-6.14-6.36-11.47l5.81,1.2.55,10.27Z"/>
  <path class="cls-14" d="M377.28,322.38c-.18,1.67.16,3.43,0,5.1h-2.55c.11-1.7-.11-3.42,0-5.11h2.55Z"/>
  <rect class="cls-14" x="387.49" y="317.29" width="5.09" height="2.54"/>
  <rect class="cls-14" x="400.24" y="313.47" width="2.54" height="3.81"/>
  <rect class="cls-14" x="379.84" y="322.39" width="2.54" height="2.54"/>
  <path class="cls-23" d="M596.63,234.46c1.46,1.34-7.04,9.13-8.31,10.16-1.84,1.49-13.25,9.13-14.63,7.67-5.16-7.58,21.75-18.92,22.94-17.83Z"/>
  <path class="cls-23" d="M457.62,253.56c-1.26,1.45-24.37-14.26-24.22-19.09,1.6-1.24,29.34,10.94,24.22,19.09Z"/>
  <path class="cls-7" d="M746.68,282.43c-13.76,13.23-47.85,17.04-57.85-1.83-5.66-10.68-8.18-25.93-6.77-37.89,1.89-16.02,31.05-24.16,45-21.97,12.43,1.95,17.85,7.25,22.85,17.95,8.05,17.23,11.93,29.17-3.22,43.74ZM722.54,241.13c-15.79,3.28-16.48,29.21,1.11,31.45,24.79,3.15,24.78-36.82-1.11-31.45ZM730.55,279.04c11.8,2.07,25.11-11.8,18.47-22.92-3.73-.77-4.34,7.55-5.47,9.8-3.69,7.29-7.98,7.64-13,13.12Z"/>
  <path class="cls-7" d="M304.26,220.74c12.92-2.03,24.73,1.09,34.78,9.24,14.19,11.5,11.81,23.61,6.72,39.88-4.38,13.99-9.55,21.86-25.17,23.27-23.25,2.1-51.06-11.38-46.03-38.34.85-4.54,8.32-22.38,11.07-25.89,2.45-3.12,14.59-7.52,18.63-8.15ZM315.63,245.08c-14.64-14.63-37.21,7.26-23.23,22.57,15.06,16.49,38.25-7.56,23.23-22.57ZM299.49,279.04c-1.75-3.91-6.86-4.87-9.47-7.73-2.88-3.15-5.73-15.87-9-15.19-4.46,3.69.25,13.75,3.15,17.21,3.73,4.45,9.65,6.44,15.32,5.71Z"/>
  <path class="cls-15" d="M547.74,166.08c49.18,44.1-28.26,117.24-69.71,62.64-34.64-45.64,29.05-99.1,69.71-62.64ZM490.79,175.84h51.01c-1.16-1.87-4.85-4.26-6.77-5.34-13.59-7.65-33.98-7.49-44.24,5.34ZM542.77,181.81c-4.61,2.84-49.51-.98-58.36-.3-19.29,28.56,10.75,64.86,42.79,54.29,23.41-7.72,34.81-36.59,17.77-56.13l-1.7.23c-.2.54-.17,1.69-.5,1.9Z"/>
  <path class="cls-19" d="M484.41,518.62c6.7-1.06,11.68-7.21,13.66-7.61s4.05.35,5.87-.06c.97-.22.78-2.27,1.74-2.5,1.94-.47,16.72-.47,18.66,0,.97.23.77,2.29,1.74,2.51,1.87.41,4.02-.38,5.9.04.87.2.87,1.92,1.31,2.09,7.92,3.12,5.28,4.2,10.18,7.67.74.52,5.47,1.21,7.22,2.98l-.67,2.54-4.42.72c.08,5.64-1.77,7.91,5.13,6.91.22.53-.42,2.16.06,2.48.61.4,3.02-.29,4.68.45.61.27,2.39,3.73,3.31,4.31,1.07.67,2.77.12,3.65.52,1.72.77.25,1.93,3.6,2.44.45,3.64-2.09,2.51-4.37,2.59-9.37.33-73.75,1.69-76.99-.38-.6-.38.25-2.33-.91-2.22l-1.86.07c-.34,5.24-12.08,1.35-16.61,2.49l9.29-9.82,9.62-3.11.21-7.44c-3.4-1.22-2.06,2.25-3.37,2.55-1.48.34-5.09.82-4.28-1.91.14-.46,6.58-5.05,7.28-6.11.62-.93.22-1.89.38-2.19Z"/>
  <path class="cls-26" d="M550.73,533.91c-.79-1.86-1.17-3.41-2.55-5.08l5.37,1.67,17.58,12.98c-.63,1.11-3.95.8-5.09.63-3.35-.51-1.89-1.67-3.6-2.44-.88-.4-2.58.16-3.65-.52-.92-.58-2.7-4.04-3.31-4.31-1.67-.74-4.08-.05-4.68-.45-.47-.31.17-1.95-.06-2.48Z"/>
  <path class="cls-11" d="M506.09,327.48c-12.52-2.52-24.24-8.07-35.97-12.86-4.3-1.76-10.2-5.45-14.78-7.4-10.71-4.57-23.02-7.35-33.61-13.04-1.27-.68-1.88-2.11-3.23-2.72-2.03-8.76,1.75-17.13,4.71-25.14,3.01,3.39,6.12,1.83,9.28,2.6.97.23.72,2.02,1.87,2.4,5.88,1.98,13.32,3.71,19.44,5.19.55.49,1.77.85,2.55,1.27,1.79.99,2.68,1.88,5.1,1.27.56.49,1.77.85,2.55,1.27,1.79.98,2.68,1.89,5.1,1.27,1.5,1.87,2.82,2.27,5.1,2.55.83.1,1.71-.07,2.55,0,2.94,4.33,4.3.52,6.39,1.86.85.55.73,2.89,2.18,3.25,1.35.34,3.33-.38,4.69.06,5.65,1.83,11.2,4.71,17.29,5.07-1.19,7.9,2.36,27.13-1.22,33.08Z"/>
  <path class="cls-18" d="M456.35,98.11c5.2,2.37,8.04-2.43,8.52-2.53,1.88-.41,4.03.38,5.92-.03.66-.14,1.68-4.33,5.96-2.54l.05,6.78c-6.78,5.73-4.45-1.29-5.78-1.71-4.49-1.4-4.51,2.34-5.34,2.54-2.47.6-8.38.71-9.33-2.52Z"/>
  <path class="cls-13" d="M464,280.33l5.04-1.19c.34.72-.16,2.19.06,2.46-2.42.62-3.31-.29-5.1-1.27Z"/>
  <path class="cls-13" d="M456.35,277.78l4.41-1.35c1.3.29.5,2.46.69,2.63-2.42.61-3.31-.29-5.1-1.27Z"/>
  <polygon class="cls-13" points="476.76 277.78 476.11 279.04 471.66 279.04 471.66 277.79 476.76 277.78"/>
  <path class="cls-13" d="M474.21,284.15v-2.54s1.9-.02,1.9-.02c1.37-.1.32,2.07.65,2.56-.84-.07-1.72.1-2.55,0Z"/>
  <rect class="cls-13" x="464.01" y="275.25" width="3.81" height="1.25"/>
  <rect class="cls-13" x="456.36" y="272.7" width="2.54" height="1.25"/>
  <path class="cls-18" d="M558.38,90.47c.26.1,1.34,3.99,2.91,4.68,1.66.72,3.77.43,5.85,1.19s7.4,1.43,6.53,4.31c-2.13-.47-8.19.28-9.61-.25-1.17-.43.62-2.71-2.48-2.3l-3.15,3.48-.05,62.8h-5.1s0-73.92,0-73.92c1.43.29,4.08-.41,5.1,0Z"/>
  <path class="cls-20" d="M277.17,443.43c.83.42.83.85,0,1.27v-1.27Z"/>
  <path class="cls-24" d="M849.15,651.14c.03-4.06-1.45-3.54,2.59-3.24,5.42.4,10.55.49,15.96.69,2.45.09,5.12-1.31,4.41,2.55-7.63.14-15.32-.09-22.96,0Z"/>
  <path class="cls-4" d="M722.54,241.13c25.89-5.38,25.9,34.6,1.11,31.45-17.59-2.23-16.91-28.17-1.11-31.45Z"/>
  <path class="cls-2" d="M730.55,279.04c5.02-5.48,9.31-5.83,13-13.12,1.14-2.24,1.74-10.56,5.47-9.8,6.64,11.12-6.67,24.99-18.47,22.92Z"/>
  <path class="cls-4" d="M315.63,245.08c15.02,15.01-8.17,39.06-23.23,22.57-13.98-15.31,8.58-37.2,23.23-22.57Z"/>
  <path class="cls-2" d="M299.49,279.04c-5.67.73-11.59-1.26-15.32-5.71-2.91-3.46-7.61-13.52-3.15-17.21,3.27-.68,6.12,12.05,9,15.19,2.61,2.85,7.72,3.81,9.47,7.73Z"/>
  <path class="cls-16" d="M542.77,181.81c.34-.21.31-1.36.5-1.9l1.7-.23c17.04,19.54,5.64,48.4-17.77,56.13-32.04,10.57-62.09-25.73-42.79-54.29,8.86-.68,53.76,3.13,58.36.3ZM515.02,212.79v-19.75l-1.91-1.91h-27.42v6.37h22.96v10.19h-20.41c-.5,5.04,4.85,17.42,9.23,19.45,3.3,1.53,30.58,1.59,34.22.38,4.18-1.39,12.9-14.58,12.67-19.83h-24.23v5.09s12.75.01,12.75.01c-2.34,15.85-20.53,7.78-31.66,8.69l-2.76-8.69h16.57ZM546.9,191.13h-26.14l-1.91,6.37h21.68v5.11s6.37-.02,6.37-.02v-11.46Z"/>
  <path class="cls-4" d="M490.79,175.84c10.26-12.83,30.66-12.99,44.24-5.34,1.92,1.08,5.61,3.48,6.77,5.34h-51.01Z"/>
  <path class="cls-23" d="M515.02,212.79h-16.57s2.76,8.7,2.76,8.7c11.13-.92,29.32,7.16,31.66-8.69h-12.75s0-5.1,0-5.1h24.23c.23,5.25-8.49,18.44-12.67,19.83-3.64,1.21-30.92,1.15-34.22-.38-4.37-2.03-9.73-14.41-9.23-19.45h20.41v-10.19h-22.96v-6.37h27.42l1.91,1.91v19.75Z"/>
  <polygon class="cls-23" points="546.9 191.13 546.89 202.59 540.52 202.61 540.52 197.5 518.84 197.5 520.76 191.13 546.9 191.13"/>
</svg>