<?xml version="1.0" encoding="UTF-8"?>
<svg id="Vrstva_1" data-name="Vrstva 1" xmlns="http://www.w3.org/2000/svg" viewBox="0 0 916.5 358.96">
  <defs>
    <style>
      .cls-1 {
        fill: #1892b0;
      }

      .cls-2 {
        fill: #21416d;
      }

      .cls-3 {
        fill: #1f416d;
      }

      .cls-4 {
        fill: #0391bd;
      }

      .cls-5 {
        fill: #274169;
      }

      .cls-6 {
        fill: #115685;
      }

      .cls-7 {
        fill: #274168;
      }

      .cls-8 {
        fill: #059ac2;
      }

      .cls-9 {
        fill: #2b5676;
      }

      .cls-10 {
        fill: #194575;
      }

      .cls-11 {
        fill: #0f8cb1;
      }

      .cls-12 {
        fill: #294369;
      }

      .cls-13 {
        fill: #0a5d8b;
      }

      .cls-14 {
        fill: #274269;
      }

      .cls-15 {
        fill: #08aed1;
      }

      .cls-16 {
        fill: #284269;
      }

      .cls-17 {
        fill: #144d7e;
      }

      .cls-18 {
        fill: #274369;
      }

      .cls-19 {
        fill: #05a3cb;
      }
    </style>
  </defs>
  <path class="cls-15" d="M872.64,0c2.21,2.12-7.25,14.5-11.26,14.3-170.77,23.31-354.9,26.46-503.12,123.96-45.84,30.15-84.87,69.09-120.07,110.88-41.06,6.4-82.91,8.44-124.16,13.96-1.85-2.07,9.15-16.08,11.11-18.84C245.53,74.25,441.71,22.19,639.49,8.76,717.04,3.49,794.73-.21,872.64,0Z"/>
  <path class="cls-19" d="M431.2,118.4c.46-.07,4.62,1.46,8.77,0l-1.45,5.84c17.07-7.4,19.38,9.48,17.6,22.73-1.25,9.26-10.02,5.78-11.57,8.16-1.35,2.06.88,11.29-.4,14.98-.71,2.06-3.88,2.14-4.2,3.1-2.05,6.07,5.96,1.78,4.41,5.83-.64,1.68-5.14,4.05-5.83,6.6-.42.17-1.04-.17-1.46,0-.99.4-.99.81-1.46,1.46-.38.52-2.81,4.15-2.92,4.39h-11.69c4.08,11.8-2.4,9.4-7.93,14.73-1.46,1.4-5.21,6.29-6.45,8.17-2.73,4.11-3.79,13.55-8.3,9.31,1.3,8.42-6.98,6.95-10.18,10.21-1.57,1.6-1.81,5.45-3.65,6.58-1.72,1.05-34.49,1.89-40.3,2.16-2.81.13-5.86-1.5-5.04,2.93-23.11.89-46.29,2.13-69.42,2.93-1.66-.21-.62-3.26,0-4.39,7.14-13.15,34.86-40.23,46.73-51.2,20.57-18.99,89.24-70.4,114.78-74.51Z"/>
  <path class="cls-11" d="M551.07,78.93c11.07-4.14,23.17-6.26,34.78-8.34,83.82-15.04,179.11-26.8,264.18-34.03,4.38-.37,6.94-.55,4.35,4.36-1.18,2.24-32.64,33.37-35.93,35.64-7.47,5.16-19.68,6.33-28.63,7.97-94.4,17.29-204.4,23.59-283.32,64.21l-8.05,1.81c1.61-1.93,9.15-7.48,11.7-7.36l-1.43-2.82c2.28-2.03,7.81-.16,8.47-.44.6-.26,9.42-6.75,10.06-6.88,2.52-.53,14.5-.94,15.02-1.52.38-.42-.7-3.33.89-4.52,4.74-3.54,17.79,1.94,21.07-5.71.93-.13,2.1.2,2.92,0,4.42-1.07,6.19-1.53,7.31-5.85,8.89,3.35,19.08-2.16,27.41-4.01,17.65-3.93,36-6.74,53.64-10.68,4.43-.99,9.63-6.81,13.34-7.25,4.15-.5,14.84,2.39,18.56,1.55,1.03-.23,5.84-7.36,6.32-7.38,4.85-.14,6.7,4.49,8.42,4.39,3.18-.17,9.78-2.13,11-5.29,2.37-6.11-8.39-2.53-10.06-4.99-.85-1.25,1.65-4.97,1.32-6.46-.45-2-6.72-2.13-4.24-5.17.8-.98,6.32-.21,4.45-7.85-.78-3.18-13.8-1.45-14.57-.75-.71.65.23,3.7-.13,4.18-1.92,2.55-2.8-2.8-5.02-3.05-1.54-.18-4.34-.25-5.72.11-1.1.29-.93,5.22-3.82,2.87-.17-.14.38-2.56-.99-2.91-1.6-.41-9.89.46-12.63.72-14.09,1.32-30.08,5.67-44.28,7.98-3.66.6-8.29-.65-11.29.08-1.75.42-2.38,6.31-5.32,4.31-.17-.12.16-2.68-.95-2.92-1.93-.41-3.8,1.42-4.99,1.58-14.39,1.83-28.03,3.13-42.39,4.39-.48.04-.98-.04-1.46,0ZM733.77,81.87c-2.36-2.37-8.2,3.49-5.83,5.83,3.08,3.05,8.86-2.8,5.83-5.83Z"/>
  <path class="cls-8" d="M594.92,74.55c1.18,2.45.35,15.32-.15,15.93s-6.38.39-7.92,3.04.03,6.83-1.45,10.24c-1.94,4.48-9.93,6.57-10.71,7.6-.84,1.13.04,3.06-.23,4.11-1.12,4.32-2.89,4.77-7.31,5.85l2.18-8.78c-6.04.47-4.18,6.63-5.1,8.78-3.28,7.65-16.33,2.17-21.07,5.71-1.59,1.19-.52,4.09-.89,4.52-.52.58-12.5.99-15.02,1.52-.64.13-9.46,6.63-10.06,6.88-.65.28-6.18-1.59-8.47.44l1.43,2.82c-2.55-.12-10.09,5.42-11.7,7.36-.23.27.2,1.03,0,1.46h-1.46c-.38-.19-1.04.18-1.46,0-.32-.14,0-1.73-2.1-1.53-.95.09-.56,2.56-1.86,2.94-6.13,1.8-4.06-2.03-7.74,4.44-6.71,2.61-8.31,4.66-12.75,6.92-3.01,1.53-8.58,3.36-12.1,3.31-.07-1.11-9.32-3.73,4.38-5.87.74-4.79-1.71-6.6-6.25-5.59-12.38,2.75-9.94,14.86.41,12.92-.71,8.25-5.99,6.07-8.79,8.01-3.48,2.41.85,3.56-10.21,8.06.69-2.55,5.19-4.92,5.83-6.6,1.55-4.05-6.45.24-4.41-5.83.32-.95,3.49-1.04,4.2-3.1,1.28-3.69-.95-12.92.4-14.98,1.56-2.38,10.33,1.1,11.57-8.16,1.78-13.25-.53-30.13-17.6-22.73l1.45-5.84c2.89-1.02,5.74-2.92,10.23-4.39-1.38,9.39,4.7,6.22,9.93,8.3.88.35,4.42,6.44,7.6,3.38,3.8-3.66-4.96-4.78-5.7-6.71-1.88-4.88,1.22-3.88,2.77-6.42-1.97-.11-3.86-1.47-5.84-1.48,1.56-5.06,9.62-2.32,8.77-7.31.48-.18,1.43-.92,2.92-1.46,1.13,2.55,4.9.78,6.78.22,21.24-6.23,43.23-13.19,66.3-17.76,1.53-.3,4.81.66,5.71-.18.77-.71-.2-3.43.13-4.21.07-.15,2.44-.42,2.92-1.46,14.36-1.26,28-2.56,42.39-4.39ZM467.02,111.09v1.46c.95-.49.95-.97,0-1.46Z"/>
  <path class="cls-3" d="M587.61,140.33c3.55-2.3,8.71-3.03,12.88-3.93,33.26-7.24,67.45-12.66,100.65-17.75s66.65-9.62,99.88-13.39c.66,2.53-1.05,2.92-2.18,4.39-9.1,11.87-30.7,31.65-42.36,42.42-6.43,5.93-19.37,18.91-26.53,21.71-35.07,7.88-70.52,13.55-105.63,21.3-1.89.42-4.59-1.05-6.02-.66v-2.92c1.06-.46,1.36-1.43,1.46-1.46,2.43-.81,5.25,1.94,4.39-2.92h1.46c4.78,4.38,14.09.93,19.81-1.38,2.63-1.06,4.67-3.98,6.07-4.33,2.76-.69,4.17,2.25,6.69,2.4,2.66.16,19.46-3.59,20.76-5.41.51-.72-.83-2.88-.7-2.96,1.23-.8,5.65,1.66,7.97,1.43,1.61-.16,12.61-4.53,13.28-5.82,2.37-4.6-1.56-6.75-1.97-9.82-.42-3.09,2-5.98.97-9.59-.71-2.52-6.85-6.98-7.92-12.78-.79-4.29,3.2-11.31-1.58-12.9-9.95-3.32-9.56,5.01-16,5.57-4.73.41-8.78-1.94-13.08-1.57-2.78.24-2.01,3.09-2.97,3.13-10.55.35-17.35-.84-29.24,1.31-2.53.46-5.49-.39-6.46,3.04-10.86-.02-22.63,2.37-33.62,2.92Z"/>
  <path class="cls-6" d="M536.45,154.94c-.84,3.45,1.93,3.28,4.34,3.72,6.48,1.18,3.48-1.6,5.51-2.18,5.73-1.62,24.12-7.07,21.65,2.9-1.62,6.53-15.82-.97-21.27,1.4-2.03,9.64,9.41,7.84,16.08,8.77.15,3.5-3.27,4.88-4.07,8.33-1.02,4.42.05,18.36,3.58,21.03,4.43,3.36,11.98-5.89,4.88,8.63-1.81.53-4.04,1.21-5.85,1.46.26-2.23.3-3.69-2.18-2.93-1.56.48-.38,1.94-.75,2.93-.21.58.43,1.81-.3,2.59-12.5,6.97-24.17,15.32-36.11,23.19-1.22.8-1.58,2.89-2.62,3.52-3.52,2.11-7.66,1.13-11.45,1.41-2.79.21-5.87-1.63-5.06,2.91-12.62.33-25.37-.03-38,0-.16-5.04-.94-4.07,3.58-4.39,7.91-.56,18.82-.3,26.3-1.53,2.34-.39,12.3-3.97,5.99-5.81-24.19-7.05,3.48-6.93,5.06-8.75,1.41-1.62-2.5-6.03-2.86-8.09-.78-4.54.5-9.78-.12-14.49-.29-2.2-2.99-4.08-2.72-5.7.33-2,8.16-7.31,5.69-12.62-9.59,1.3-14.45-2.46-24.84,0-.22.61.5,2.13-.16,2.73-.43.39-7.42,2.63-10.55,4.84-11.66,8.22-12.15,12.12-27.3,17.29-.23-3.3,2.28-3.76,4.18-5.32,8.86-7.26,22.95-16.96,33.83-19.53.32-.9-.77-1.7.9-3.04,2.92-2.34,19.7-9.73,24.42-11.83,6.05-2.69,12.16-5.18,18.53-7.05l.81,1.43c3.44,1.25,4.2-2.37,5.04-2.89,2.27-1.4,3.52-1.89,5.85-2.92Z"/>
  <path class="cls-2" d="M543.76,242.65c-.48-3.44,3.56-4.88,5.97-6.45,13.72-8.93,33.42-15.23,49.26-19.44,19.62-5.21,92.64-22,109.2-20.92.99.06,2.41-.44,2.2.76-3.51,3.29-6.67,7-10.2,10.26-8.09,7.44-29.83,27.22-38.09,32.07-1.31.77-7.28,3.72-7.97,3.72h-110.36Z"/>
  <path class="cls-17" d="M621.23,137.4c16.26.03,2.86,6.22,2.85,10.96,0,2.8,4.16,4.09,4.51,7.35.49,4.55-4.14,6.94-4.42,10.23-.22,2.59,2.56,7.56,1.34,9.33-.87,1.26-11.33,1.8-14.27,2.63-2.16.6-3.64-.46-3.2,2.63,1.24,8.65,12.03,2.54,16.64,3.56,1.86.41.67,2.74.94,2.99h-1.46c-3.23-.23-5.14-.77-4.39,2.92-.1.03-.4,1-1.46,1.46-2.3,1-3.45-.32-4.39,4.39-1.42.39-2.87,1.03-4.39,1.46.58-4.74-1.37-2.43-4.13-1.95-5.79,1.01-17.37,3-22.23,4.3-4.03,1.08-9.61,6.01-16.03,7.88,7.1-14.52-.45-5.27-4.88-8.63-3.53-2.68-4.6-16.61-3.58-21.03.8-3.46,4.22-4.84,4.07-8.33-6.67-.94-18.1.87-16.08-8.77,5.46-2.38,19.66,5.13,21.27-1.4,2.47-9.97-15.92-4.53-21.65-2.9-2.03.58.97,3.36-5.51,2.18-2.41-.44-5.18-.27-4.34-3.72,9.66-4.31,26.17-9.31,36.54-10.23,5.73-.51,13.49,2.72,11.69-4.39.97-.06,1.95.05,2.92,0,10.99-.56,22.76-2.94,33.62-2.92Z"/>
  <path class="cls-13" d="M480.9,181.26c10.4-2.46,15.26,1.31,24.84,0,2.47,5.32-5.35,10.62-5.69,12.62-.27,1.62,2.43,3.51,2.72,5.7.61,4.71-.67,9.95.12,14.49.36,2.06,4.27,6.47,2.86,8.09-1.58,1.82-29.25,1.7-5.06,8.75,6.31,1.84-3.65,5.42-5.99,5.81-7.48,1.23-18.4.97-26.3,1.53-4.52.32-3.74-.64-3.58,4.39-10.7.03-21.46.08-32.16,0-2.58-.02-5.99,0-8.77,0-6.74.02-13.82.59-20.46-.72,6.99-8.5,15.11-17.64,23.36-24.88,5.51-4.83,9.53-8.7,16.1-10.94,15.14-5.16,15.64-9.07,27.3-17.29,3.13-2.2,10.12-4.45,10.55-4.84.66-.6-.06-2.12.16-2.73Z"/>
  <path class="cls-14" d="M118.74,356.32c-4.34-4.34,2.68-31.3,4.74-37.69,2.71-8.39,5.3-12.34,14.58-13.2,7.17-.66,55.58-.78,59.24.83,5.55,2.45,4.66,9.27,4.03,14.21-.66,5.18-7.2,29.46-9.94,32.43-.76.83-5.07,3.66-6.16,4.07-6.46,2.42-49.61,1.97-58.85,1.2-2.26-.19-6.02-.26-7.63-1.87ZM184.17,315.73h-40.2c-.74,0-3.11,1.59-3.66,2.57-2.93,5.26-4.7,21.47-5.85,28.13h41.66c3.02,0,9.11-26.17,8.04-30.7Z"/>
  <path class="cls-7" d="M336.19,358.12l13.07-51.98c2.25-1.58,48.97-1.31,54.9-.65,25.42,2.85,16.24,36.62,1.21,46.53-2.25,1.49-12.37,6.09-14.37,6.09h-54.81ZM355.19,346.43h34.35c6.47,0,13.87-15.42,13.69-21.25-.4-13.64-30.91-8.44-39.84-9.53l-8.2,30.79Z"/>
  <path class="cls-5" d="M281.38,358.12c-2.68-.76-13.61-15.41-17.46-17.62-14.33-8.23-15.87,7.17-16.95,17.55l-17.47.06,12.98-51.76c8.81-.46,60.24-2.95,64.14.96s-.43,21.53-3.36,25.91c-4.35,6.52-12.82,6.14-19.68,5.91l19,18.99c-5.73-1.03-16.25,1.41-21.2,0ZM290.88,315.73h-35.08l-2.92,13.16h34.35c2.66,0,4.57-10.55,3.65-13.16Z"/>
  <path class="cls-5" d="M65.76,337.66c.97-4.55,5.48-31.55,8.28-32.22l15.14.82-13.32,51.72c-.6.52-9.01.38-10.74.06-7.28-1.31-39.84-35.46-41.72-33.53l-7.34,33.61H0s11.7-52.6,11.7-52.6c4.79.55,11.71-1.24,16.05.74,5.03,2.3,20.89,19.1,27.1,24.06,1.56,1.24,9.82,8.35,10.92,7.34Z"/>
  <path class="cls-7" d="M787.87,346.43l1.53-8.69,16.01-.08c1.32,7.61-3.13,18.32-11.28,20.16-7.26,1.64-42.47,1.29-50.88.33-10.16-1.15-8.56-6.33-7.35-14.72,1.24-8.62,6.66-34.62,15.34-37.27,13.2-4.04,41.21,1.4,56.05-.34,8.92,4.12,4.01,12.76,2.31,19.97l-15.89.19,1.47-8.77h-34.35c-4.41,8.53-5.85,19.64-8.04,29.23h35.08Z"/>
  <polygon class="cls-12" points="916.5 305.5 914.96 317.12 866.17 317.11 863.88 324.51 890.19 324.51 888.57 336.04 861.11 336.36 859.49 346.43 906.27 346.43 904.8 358.12 839.03 358.12 852.18 305.5 916.5 305.5"/>
  <path class="cls-16" d="M556.18,346.43c2.63-.87,1.7-6.78,3.55-8.14,2.61-1.9,12.41.04,16.17-.62-1.22,8.52-2.82,18.33-12.77,20.11-5.65,1.01-49.43,1.15-52.97-.42-9.03-3.99-.54-30.95,2.15-38.71,2.5-7.22,4.74-12.19,13.13-13.18,7-.83,46.9-.99,52,.69,7.64,2.52,3.88,13.54,1.47,19.16l-16.16.64,1.46-8.76h-32.89c-4.83,8.35-6.51,19.64-8.04,29.23h32.89Z"/>
  <polygon class="cls-18" points="477.97 305.51 464.62 357.92 448.74 358.12 460.58 305.65 477.97 305.51"/>
  <polygon class="cls-7" points="706.01 305.5 694.17 357.98 678.23 358.12 689.76 306.35 706.01 305.5"/>
  <path class="cls-9" d="M567.15,207.57c6.42-1.87,12-6.8,16.03-7.88,4.85-1.3,16.44-3.29,22.23-4.3,2.76-.48,4.71-2.79,4.13,1.95-22.26,6.29-49.95,16.88-69.46,29.21-4.84,3.06-17.96,14.47-21.08,15.46-4.65,1.47-11.13.52-16.16.65-.81-4.54,2.27-2.7,5.06-2.91,3.79-.28,7.93.7,11.45-1.41,1.05-.63,1.41-2.72,2.62-3.52,11.94-7.88,23.6-16.22,36.11-23.19.73-.78.09-2.01.3-2.59.95-.09,1.99.13,2.92,0,1.81-.25,4.04-.94,5.85-1.46Z"/>
  <path class="cls-1" d="M537.91,81.86l5.85,2.92c-23.07,4.58-45.06,11.53-66.3,17.76-1.88.55-5.65,2.33-6.78-.22,22.7-8.26,43.44-15.39,67.24-20.46Z"/>
  <path class="cls-8" d="M432.67,191.49c-.31.64.31,2.27,0,2.92-4,8.37-27.61,27.84-35.88,36.47-2.95,3.08-3.31,5.42-8,9.62-.85.76-1.07,2.9-1.73,3.29-1.78,1.07-20.29.28-24.55.31-3.66.03-9.27-1.14-11.69,1.46-3.88.04-7.82-.15-11.69,0-.81-4.44,2.23-2.8,5.04-2.93,5.8-.27,38.58-1.11,40.3-2.16,1.84-1.13,2.08-4.98,3.65-6.58,3.21-3.26,11.48-1.8,10.18-10.21,4.51,4.25,5.57-5.19,8.3-9.31,1.25-1.87,4.99-6.76,6.45-8.17,5.54-5.33,12.01-2.93,7.93-14.72h11.69Z"/>
  <path class="cls-11" d="M495.52,152.02c.8,4.75-2.1,1.3-4.81,2.88-4.13,2.41-2.32,1.19-6.89,2.97-4.4,7.76-4.98,3.42-7,4.82-10.57,7.3-22.41,16.63-32.4,25.22-2.18,1.88-8.94,8.58-11.76,6.5.31-.66-.31-2.29,0-2.92.12-.24,2.55-3.87,2.92-4.39l1.46-1.46c.42-.17,1.04.17,1.46,0,11.05-4.51,6.72-5.66,10.21-8.06,2.81-1.94,8.09.23,8.79-8.01,1.05-.2,1.55-.09,1.46-1.46,3.52.05,9.08-1.78,12.1-3.31,4.44-2.26,6.04-4.31,12.75-6.92,3.68-6.47,1.61-2.64,7.74-4.44,1.3-.38.91-2.85,1.86-2.94,2.1-.2,1.78,1.39,2.1,1.53Z"/>
  <path class="cls-1" d="M467.75,103.78c.85,4.99-7.21,2.25-8.77,7.31-.48,0-.99-.04-1.46,0l-4.39,1.46c-.9.2-1.94,1.14-2.92,1.46-4.5,1.47-7.35,3.37-10.23,4.39-4.15,1.46-8.31-.07-8.77,0,11.16-7.04,24.33-10.05,36.54-14.62Z"/>
  <path class="cls-11" d="M549.6,78.93v1.46c-.34.77.64,3.49-.13,4.21-.91.84-4.18-.12-5.71.18l-5.85-2.92c4.01-.86,6.25-2.43,11.69-2.92Z"/>
  <path class="cls-3" d="M584.69,140.33c1.8,7.1-5.96,3.88-11.69,4.39,2.18-2.58,8.36-4.17,11.69-4.39Z"/>
  <path class="cls-9" d="M432.67,242.65c-2.71,1.63-6.29,2.48-8.77,0,2.78,0,6.19-.02,8.77,0Z"/>
  <path class="cls-9" d="M618.31,191.49v2.92c-.63.17-2.45.93-4.39,1.46.93-4.7,2.09-3.38,4.39-4.39Z"/>
  <path class="cls-19" d="M362.5,244.11c-2.43,2.61-8.03,1.43-11.69,1.46,2.43-2.6,8.04-1.43,11.69-1.46Z"/>
  <path class="cls-17" d="M530.6,157.87c-.84.52-1.6,4.14-5.04,2.89l-.81-1.43c1.85-.54,3.57-1.84,5.85-1.46Z"/>
  <path class="cls-1" d="M552.53,78.93c-.48,1.04-2.86,1.31-2.92,1.46v-1.46c.48-.04.98.04,1.46,0s.98.04,1.46,0Z"/>
  <path class="cls-11" d="M496.98,152.02h1.46c-1.36,2.91-1.3.08-1.46,0Z"/>
  <path class="cls-8" d="M435.59,187.1c.47-.65.47-1.07,1.46-1.46l-1.46,1.46Z"/>
  <path class="cls-4" d="M594.92,74.55c1.19-.15,3.06-1.99,4.99-1.58,1.11.24.78,2.81.95,2.92,2.94,2,3.57-3.88,5.32-4.31,3-.73,7.63.52,11.29-.08,14.2-2.32,30.19-6.67,44.28-7.98,2.75-.26,11.03-1.13,12.63-.72,1.36.35.82,2.78.99,2.91,2.89,2.35,2.72-2.59,3.82-2.87,1.39-.36,4.18-.28,5.72-.11,2.22.25,3.1,5.6,5.02,3.05.36-.48-.58-3.53.13-4.18.77-.71,13.79-2.44,14.57.75,1.88,7.64-3.65,6.87-4.45,7.85-2.48,3.04,3.79,3.17,4.24,5.17.34,1.49-2.17,5.21-1.32,6.46,1.67,2.45,12.43-1.13,10.06,4.99-1.23,3.16-7.82,5.11-11,5.29-1.73.09-3.57-4.53-8.42-4.39-.49.01-5.29,7.14-6.32,7.38-3.73.85-14.41-2.04-18.56-1.55-3.71.44-8.9,6.26-13.34,7.25-17.64,3.94-35.98,6.75-53.64,10.68-8.33,1.86-18.52,7.37-27.41,4.01.27-1.05-.61-2.98.23-4.11.77-1.04,8.76-3.13,10.71-7.6,1.48-3.41-.1-7.59,1.45-10.24s7.43-2.45,7.92-3.04,1.33-13.48.15-15.93Z"/>
  <path class="cls-4" d="M733.77,81.87c3.03,3.04-2.75,8.88-5.83,5.83-2.37-2.34,3.47-8.2,5.83-5.83Z"/>
  <path class="cls-4" d="M564.22,121.33c.92-2.15-.93-8.32,5.1-8.78l-2.18,8.78c-.82.2-1.99-.13-2.92,0Z"/>
  <path class="cls-19" d="M458.98,111.09c1.98.01,3.86,1.37,5.84,1.48-1.55,2.54-4.66,1.54-2.77,6.42.74,1.93,9.5,3.06,5.7,6.71-3.18,3.06-6.72-3.03-7.6-3.38-5.24-2.08-11.31,1.08-9.93-8.3.98-.32,2.03-1.26,2.92-1.46,1.6-.36,4.15-1.44,4.39-1.46.48-.04.98,0,1.46,0Z"/>
  <path class="cls-19" d="M457.52,169.56c-10.34,1.94-12.78-10.18-.41-12.92,4.54-1.01,6.99.81,6.25,5.59-13.7,2.13-4.45,4.76-4.38,5.87.09,1.37-.41,1.26-1.46,1.46Z"/>
  <path class="cls-19" d="M467.02,111.09c.95.49.95.97,0,1.46v-1.46Z"/>
  <path class="cls-10" d="M621.23,137.4c.97-3.43,3.93-2.58,6.46-3.04,11.89-2.15,18.69-.96,29.24-1.31.96-.03.19-2.89,2.97-3.13,4.3-.37,8.35,1.98,13.08,1.57,6.44-.56,6.05-8.89,16-5.57,4.77,1.59.79,8.61,1.58,12.9,1.06,5.8,7.2,10.26,7.92,12.78,1.02,3.62-1.39,6.5-.97,9.59.42,3.07,4.35,5.22,1.97,9.82-.66,1.29-11.66,5.66-13.28,5.82-2.32.23-6.74-2.23-7.97-1.43-.13.08,1.22,2.25.7,2.96-1.3,1.82-18.09,5.58-20.76,5.41-2.51-.15-3.92-3.1-6.69-2.4-1.39.35-3.44,3.27-6.07,4.33-5.72,2.31-15.04,5.76-19.81,1.38-.27-.25.92-2.58-.94-2.99-4.61-1.02-15.4,5.09-16.64-3.56-.44-3.09,1.04-2.03,3.2-2.63,2.94-.82,13.4-1.37,14.27-2.63,1.22-1.77-1.56-6.74-1.34-9.33.28-3.3,4.92-5.69,4.42-10.23-.35-3.26-4.52-4.55-4.51-7.35.01-4.74,13.4-10.93-2.85-10.96Z"/>
  <path class="cls-10" d="M624.15,187.1c.86,4.87-1.95,2.12-4.39,2.92-.75-3.69,1.16-3.16,4.39-2.92Z"/>
  <path class="cls-17" d="M558.37,209.03c.36-.99-.82-2.46.75-2.93,2.48-.75,2.43.7,2.18,2.93-.93.13-1.97-.09-2.92,0Z"/>
  <path class="cls-8" d="M457.52,111.09c-.23.02-2.79,1.1-4.39,1.46l4.39-1.46Z"/>
</svg>