<?xml version="1.0" encoding="UTF-8"?>
<svg id="Vrstva_1" data-name="Vrstva 1" xmlns="http://www.w3.org/2000/svg" viewBox="0 0 973.55 478.36">
  <defs>
    <style>
      .cls-1 {
        fill: #f4d22f;
      }

      .cls-2 {
        fill: #0c0503;
      }

      .cls-3 {
        fill: #f3cb13;
      }

      .cls-4 {
        fill: #fccb09;
      }

      .cls-5 {
        fill: #b4180c;
      }

      .cls-6 {
        fill: #090909;
      }

      .cls-7 {
        fill: #f9f9f9;
      }

      .cls-8 {
        fill: #d6b828;
      }

      .cls-9 {
        fill: #0d0b05;
      }

      .cls-10 {
        fill: #cc0a06;
      }

      .cls-11 {
        fill: #ebcd32;
      }

      .cls-12 {
        fill: #cf0706;
      }

      .cls-13 {
        fill: #f0cf2a;
      }

      .cls-14 {
        fill: #070708;
      }

      .cls-15 {
        fill: #eec936;
      }

      .cls-16 {
        fill: #e7cb33;
      }

      .cls-17 {
        fill: #fefefe;
      }

      .cls-18 {
        fill: #040404;
      }

      .cls-19 {
        fill: #fafafa;
      }

      .cls-20 {
        fill: #f8f8f8;
      }

      .cls-21 {
        fill: #e9cf3a;
      }

      .cls-22 {
        fill: #160805;
      }

      .cls-23 {
        fill: #f7f7f7;
      }

      .cls-24 {
        fill: #0c0805;
      }

      .cls-25 {
        fill: #e2cd71;
      }

      .cls-26 {
        fill: #f3f3f3;
      }
    </style>
  </defs>
  <path class="cls-11" d="M328.01,80.68c-2.76-1.93-13.91-9.09-15.44-11.18-8.46-11.51,2.12-6.44,10.7-7.58,19.32-2.55,47.54-5.13,65.02-10.73,17.43-5.58,34.86-8.49,53.44-13.26,1.09-.28.86-2.38,1.85-2.6,5.9-1.3,10.63-1.57,16.79-2.74,1.1-.21,3.49-5.02,4.59-5.23,2.86-.54,6.09.52,8.8-.08,1.05-.23.36-2.46,2.81-2.75,26.94-3.27,50.46-13.98,77.49-18.5,12.29-2.06,23.86-1.1,36.02-2.64,2.55-.32,1.27-2.56,3.82-2.88,15.6-1.97,31.69,2.26,44.75,2.77-3.19,3.67,2.82,1.67,1.33,6.67-94.01-9.33-185.47,38.57-277.06,54.29-4.85.83-32.25,3.37-33.57,4.43-1.15.93,5.45,7.17,6.38,7.99,6.46,5.65,23.06,16.2,30.94,19.36,3.27,1.31,7.71,1.26,11.43,3.22.96.51,4.33.53,1.9,2.77-.18.17-3.33.31-4.91,1.07-32.16,15.48-64.59,28.66-100.41,33.65-.5,2.8,1.8,3.69,3.55,5.1,15.95,12.87,35.01,13.42,52.98,19.03,1.49.47,3.22.46,3.45,2.53-12.52,5.88-23.83,14.11-35.97,20.73-25.94,14.14-53.42,25.24-80.02,38-.42-.03-.92-.05-1.33,0-7.62.96-17.3,7.75-25.33,9.34h-74.66c-3.93,1.9,1.8,4.2,2.67,5.34.55.72.79,1.9,1.33,2.67.36.5.99.86,1.33,1.33,2.97,4.16,8.78,15.29,13.33,16.01.54,1.63.64,3.88,1.33,5.34-3.69-.9-2.24,2.08-2.67,2.67-8.62,11.9-20.62,31.82-26.66,45.37-.65,1.46-.85,2.79-1.33,4-22.24,9.21-43.63,20.35-65.33,30.69-.9.43-1.79.92-2.67,1.33-2.78,1.31-16.65,6.06-17.33,6.69-2.37,2.18.42,2.26,2.01,2.62,5.2,1.17,9.43,2.95,13.99,4.03.75.18,1.81-.12,2.67,0,2.29.32,1.04.13,2.67,0,.88-.07,1.8.1,2.67,0-.34,5.61,17.09,5.01,17.3,8.66.1,1.78-8.46,13.51-9.3,16.69-.1.36.02.88,0,1.33-1.46.45-1.92,1.53-2.67,2.67-3.18.88-3.8,4.19-5.22,5.82-3.76,4.33-4.69-8.92-.13-4.48.13-1.37-.42-3.15.05-4.36.18-.45,4.97-6.83,5.16-7.39,3.81-11.59-1.03-8.27-6.96-9.63-1.01-.23-.81-2.41-1.81-2.63-8.47-1.87-19.49-4.23-26.72-7.99-1.89-.98-5.92,1.63-3.33-2.05l-3.71-.66c-.49-3.89.45-2.05,2.09-2.58,5.83-1.89,10.52-5.97,14.95-8.03,3.05-1.42,3.38,2.32,4.29-2.72s1.19-1.23,4.93-3.08c1.75-.87,8.75-7.46,9.34-7.57,8.77-1.67,6.63-2.03,13.47-5.22,5.91-2.75,11.69-3.88,17.27-5.87.49-.18,2.9-4.67,3.96-4.9,7.64-1.65,11.04-4.2,17.7-5.38,1.77-.31,2.87.61,4.61-1.36,1.53-1.73,5.1-9.33,6.05-11.98,4.42-12.31,11.52-21.02,16.04-33.75.49-1.38,2.36-.85,2.5-1.05,1.87-2.63-1.74-2.54-2.02-3.02-3.69-6.34-8.04-11.83-12.52-17.5s-10.53-9.57-11.99-16.74h83.33c9.67,0,22.12-7.76,29.71-10.55,9.32-3.42,21.22-5.47,29.96-10.85,1.46-.9,3.47-4.89,4.66-5.21,9.42-2.56,13.48-4.15,21.43-7.93,10.59-5.03,16.88-11.26,27.26-13.55.65-.14,7.09-6.69,9.98-7.86,1.62-.66,13.16-1.94,2.9-4.66-4.84-1.28-5.87-1.45-9.68-2.99-11.21-4.55-23.97-9.97-33.71-17.02-.64-.46-7.91-7.25-8.11-7.78-.54-1.44-.76-7.31-.41-7.68.75-.78,17.07.78,20.42-.02,10.62-2.55,22.71-4.48,34.53-8.11,3.36-1.03,2.94-1.58,9.05-2.54,11.11-1.74,27.05-9.41,37.29-14,1.06-.47,4.02-1.74,4.01-2.68,0-1.22-12.21-6.69-14.53-8.11-6.33-3.87-13.26-8.72-18.77-12.57Z"/>
  <path class="cls-1" d="M21.36,424.94c2.96-.65,2.96,2.83,5.33,4-1.93,3.45-3.44,7.2-5.33,10.67-.19.34.19.99,0,1.33-.76,1.4-4.19,3.35-5.07,6.29-1.35,4.54.87,2.44,2.4,3.05,1.74.69,1.91,1.24,4.51,1.43,48.25,3.56,100.89-2.92,149.61-.03,1.65.62,2.71-1.18,3.2-1.4,1.42-.65,1.24-1.27,1.33-1.33,3.44-2.48,9.94-8.13,12.86-11.15,2.06-2.13,5.13-8.58,7.12-9.55,1.47-.71,7.28-1.17,8.01-.64.97.71-11.02,17.64-11.89,20.8s1.29,1.41,2.55,1.87c1.66.6,1.89,1.23,4.51,1.43,43.85,3.36,91.98-2.79,136.3,0,1.98.73,3.53-1.14,4.51-1.43,2.73-.8,6.42-3.33,7.32-3.44,2.42-.29,10.54,2.81,14.01,3.44.82.15,1.96,1.18,4.51,1.43,8.94.86,68.16.78,72.82-1.43,1.52-.72,4.9-2.92,6.67-4,1.29-1.02,5.01.07,5.33,0,1.76,2.03,5.47,3.32,8,4,.84.23,2.52,2.25,4.52,1.43l132.81-.09c.74,4.04-2.04,2.57-4.61,2.67-4.03.16-8.09-.13-12.12,0-2.57.09-5.35-1.36-4.61,2.67-36.92-1.39-86.07,4.62-120.75.11-2.64-.34-.68-3.21-6.63-2.9-4.43.23-2.58,2.56-5.19,2.9-8.16,1.06-82.48,1.53-86.1-.81-1.78-1.16-.36-4.75-7.27-3.38-1.55.31.15,3.86-1.44,4.18l-330.68-.21c-5.8,6.21-3.82.43-5.42.05-3.05-.73-10,3.67-9.82-1.9.01-.44,2.81-7.64,3.17-8.26,3.1-5.32,13.47-17.72,15.5-21.8Z"/>
  <path class="cls-11" d="M874.63,424.94v5.34c-8.01.36-5.09,1.26-8,8.01-2.56,5.93-4.8,9.65-7.99,14.34-.81,1.19-.78,3.1-1.65,4.02-2.26,2.38-7.69.25-10.96.25-38.25-.02-76.53.49-114.78,0-10.28-.13-18.52,1.8-28.91-2.96-3.63-1.67-12.58-10.72-14.99-10.45-3.49.39-5.79,9.4-7.53,12.36-1.4,2.39-4.32,5.94-5.61,8.08-1.51,2.52-6.33,14.12-8.5,14.41-3.16.41-18.63-8.85-19.96-11.11-.58-.99-.26-1.88-.43-2.26-.72-1.54-.61-3.49-2.66-4.68,5.01-2.58,5.36,6.22,11.99,4.68,1.29.86,6.67,4.24,8.03,3.38,2.44-1.54,14.53-25.42,17.3-30.07,1.01-1.69,2.01-4.39,2.67-5.34.48-.69,4.31-5.29,4.66-5.31.95-.05,8.8,11.97,12.04,14.62,4.7,3.85,10.3,6.11,16.05,7.96l134.61.19,2.09-.97c2.57-3.96,12.91-25.12,15.87-25.82,1.12,2.13,4.53,1.3,6.67,1.33Z"/>
  <path class="cls-16" d="M638.65,3.29c11.78.47,23.96.84,33.76,4.89,3.61,1.49,19.94,5.24,20.77,6,.55.5-.55,2.96.98,3.85,1.96,1.14,6.52.65,8.82,1.37,10.68,3.35,14.23,8.94,22.75,15.49,1.02.78,3.48.08,4.5.86,5.79,4.47,13,21.14,16.79,23.19,1.52.82,4.03-.07,4.8.62.59.53-.5,2.96,1.01,3.84,2.13,1.25,9.23.89,9.81,1.3.36.25-.24,2,0,2.64,1.27,3.31,5.55,6.92,8.51,10.14.58.63,2,.35,2.16.53,3.61,4.02,6.98,12.83,8.73,14.66,1.46,1.53,3.98,1.06,4.4,1.53,1.53,1.68,2.2,19.94,2.89,22.92.23,1,2.37.82,2.61,1.83,1.56,6.52-.94,28.71-5.3,33.78-4.39,5.08-3.01,4.43-5.33,10.67-7.42.91-4.89-.84-2.15-7.53,1.33-3.26,1.31-1.69,2.15-7.14,1.86-12.05,1.76-21.5,0-33.36-1.9-12.78-3.67-16.22-10.67-26.69-.21-.31.21-1.04,0-1.33-1.17-1.64-2.07-1.93-2.67-2.67-.39-.49-.93-.86-1.33-1.33-2.91-3.35-4.49-5.13-8-8.01-.48-.39-.84-.96-1.33-1.33-5.74-4.43-15.97-7.82-18.64-10.03-1.66-1.38-2.52-6.52-4.23-9.11-15.76-23.81-56.54-39.07-83.78-43.58,2.91-.87,11.72,2.45,10.67-2.66-5.83-.23-11.98-2.38-17.34,1.33-1.31-.14-2.69.13-4,0,1.49-5-4.52-3.01-1.33-6.67Z"/>
  <path class="cls-15" d="M639.98,200.77c.13.32-.07.86,0,1.33l-6.3,6.93c1.05,7.24-5.28,15.4-.87,22.51,84.12.87,168.39-1.45,252.49-.08v12.02s-6.67-1.34-6.67-1.34c.25-.52,1.5-3.87,1.33-3.99-.65-.46-13.31,0-16-.01l-241.31-1.33c1.05-3.88,2.24-9.47,2.67-13.34.14-1.3-.06-2.68,0-4,.04-.89-.03-1.78,0-2.67v-1.33c2.14.51.97-3.07,1.33-4,1.66-4.23,4.43-8.1,6.67-12.01,1.93-1.82,5.67-1.05,6.67,1.33Z"/>
  <path class="cls-21" d="M726.64,140.73c8.54,3.05,19,.53,28,1.33,1.6.34,3.07-.22,5.21.73,10.85,4.83,9.39,19.56,10.81,20.61,2.24,1.66,9.43-13.28,10.65-14.67-.84,5.46-.82,3.89-2.15,7.14-2.74,6.69-5.27,8.45,2.15,7.53,2.32-6.25.95-5.59,5.33-10.67.8,4.43-.01,10.02-5.33,10.67-.58,1.55-2.64,7.41-2.9,7.75-.36.47-3.84.89-5.37,2-2.76,2-4.93,6.72-8.37,6.39-1.46-.14-4.7-3.35-4.81-4.81-.32-4.18,2.48-3.04,2.76-4.24.43-1.83.43-9.68-.01-11.5-.22-.89-1.99-.92-2.17-1.38-.62-1.55-.25-3.42-.91-4.45-3.82-6-26.87-7.29-33.29-5.75-1.01.24-.82,2.37-1.83,2.61-8.02,1.92-20.95,1.46-28.41,8.04-4.83-.24-9.49,2.26-13.61,4.44-3.14,1.66-8.73,7.68-10.39,8.91-3.69,2.71-13.47,7.12-15.73,10.97-.87,1.49.12,4.63-.27,5.04-.47.5-4.89-.47-5.35-.02s.48,4.92.03,5.36-4.85-.54-5.34,0c-.37.39.24,8.17-5.34,8-.99-2.38-4.74-3.16-6.67-1.33,16.5-28.88,60.08-56.66,93.33-58.71ZM765.3,155.41c-.83,1.1.61,15.64,0,18.68,3.64.96,1.87-1.71,3.7-2.62,1.48-.73,6.62-.52,6.97-4.71.4-4.7-6.25,1.08-8-.68-.42-.42,1.12-15.71-2.67-10.68Z"/>
  <path class="cls-13" d="M853.3,286.17c.9-.07,5.65.77,5.32,2.64-2.79-.47-5.05,5.06-6.29,5.31-9.62,1.94-26.47-2.11-35.44.09-.95.23-.7,2.11-1.95,2.59s-3.88-.32-4.3.05c-.61.54.6,7.17-.02,8.01-.23.31-1.99-.27-2.66,0,0-2.67,0-5.34,0-8.01,1.51-2.61,3.21-5.02,4-8.01,6.58-.48,13.39.27,20,0,4.42-.18,8.93.26,13.33,0,2.27-.13,3.65-1.3,4-1.33,2.03-.21,3.79-1.32,4-1.33Z"/>
  <path class="cls-13" d="M807.97,304.85c0,1.76.12,3.58,0,5.34-.51.21-1.72-.52-2.47.23-.31.31-.03,2.12-.7,3.21-1.67,2.7-1.84.16-2.16,5.9-.07,1.29-.09,2.71,0,4-.52.2-1.71-.5-2.43.21-.3.29-2.56,6.49-2.9,7.79h148.65c.7,0,11.37,4.67,12.86,5.51,3.01,1.7,4.27,6.89,9.14,6.5,4.21,10.03,5.54,11.01,5.33,22.68-5.36-1.39-1.33,7.64-2.67,10.67-.12.27-4.87,3.23-5.33,2.66-2.72-3.41,2.65-5.81,2.73-6.17.52-2.58-1.37-4.01-1.4-4.5-.29-4.23.28-7.28-.91-11.77-3.24-12.16-15.51-17.99-27.09-18.92l-149.33-1.33c-.05-1.77.06-3.56,0-5.34-.02-.88-.06-1.79,0-2.67.87-.84,1.67-2,2.67-2.67,3.22-2.14,5.54-4.84,7.55-8.46.98-1.77,2.59-8.17,3.57-9.78,1.1-1.81,3.02-2.39,4.88-3.11Z"/>
  <path class="cls-16" d="M973.29,366.23c-.05,2.84.61,7.54.01,9.79-.37,1.42-2.62.76-2.68.88-.69,1.37-.66,3.02-2.55,6.45-2.83,5.16-10.38,21.48-13.45,24.24-7.31,6.57-12.48,14.77-23.05,18.96-12.9,5.11-22.2,3.46-35.61,3.72-.74-4.04,2.04-2.57,4.61-2.67,6.87-.27,14.35.69,21.07-.34,1.18-.18,4.01-.58,3.65-2.32-2.65-.07-5.34.04-7.99-.01v-1.33c6.58-.72,20.21-7.04,24.73-11.94,8.82-9.56,16.45-31.57,24.6-42.76.03.49,1.92,1.92,1.4,4.5-.07.36-5.45,2.76-2.73,6.17.45.57,5.21-2.39,5.33-2.66,1.33-3.03-2.69-12.07,2.67-10.67Z"/>
  <path class="cls-16" d="M618.65,439.62c.84.52,1.84.8,2.67,1.33,11.41,7.32,22.33,16.74,33.33,24.02-6.63,1.54-6.98-7.26-11.99-4.68,2.05,1.18,1.94,3.13,2.66,4.68-5.15,2.81-7.5-5.14-8-5.34.15.13,3.94.51,3.99-.66-2.22-3.93-6.04-1.14-3.99.66-8.32-3.26-13.38-7.76-21.01-11.15-.27-.12-.77-4.33-4.4-1.58-.85.64-4.95,9.58-5.42,9.89-1.13.75-3.9-.25-5.57.18-1.12.29-.88,2.6-1.77,2.72-3.96.52-18.41-2.55-23.16-2.73-.74-4.03,2.04-2.58,4.61-2.67,4.03-.13,8.09.16,12.12,0,2.57-.1,5.35,1.37,4.61-2.67,1.51.24,1.84-.61,2.67-1.33,2.82-2.49,7.49-15.38,10.1-15.98,1.22-.28,6.76,4.19,8.57,5.31Z"/>
  <path class="cls-21" d="M29.36,342.21c-.91,5.04-1.24,1.3-4.29,2.72-4.43,2.07-9.12,6.15-14.95,8.03-1.65.53-2.58-1.3-2.09,2.58l3.71.66c-2.58,3.68,1.44,1.06,3.33,2.05,7.23,3.76,18.25,6.12,26.72,7.99,1.01.22.81,2.4,1.81,2.63,5.93,1.35,10.77-1.97,6.96,9.63-.18.56-4.98,6.94-5.16,7.39-.47,1.21.07,2.99-.05,4.36-4.56-4.44-3.63,8.81.13,4.48,1.42-1.63,2.03-4.94,5.22-5.82-3.8,5.75-6.94,15.56-10.67,20.02-.43.51-1.97.82-2.67,1.33.12-1.27.21-6.41,0-6.67-2.99-3.44-2.48,3.73-2.67,4.01-.37.55-2.03-1.32-2.66-1.34-.23,1.24.39,2.91-.03,4.37-.23.79-8.32,6.75,1.37,6.31-2.3,4.73-4.34,7.85-6.67,12.01-2.37-1.18-2.38-4.66-5.33-4,1.28-2.58,2.37-5.9,4.33-9.7,1.46-2.82,1.2-9.17,6.33-8.98,1.38-7.58,7.1-16.79,11.07-23.61.74-1.28,8.41-7.5,4.9-11.05-.63-.64-13.13-2.26-15.03-2.75-4.59-1.18-15.21-6.75-20.51-7.93-2.69-.6-5.93.47-8.8-.08-.24-.05-3.67-3.04-3.66-3.28.15-4.37,5.6-3.9,7.34-6.09.77-.96.4-3.29.86-3.72.91-.85,4.89.24,6.91-.22.44-.1,6.13-4.66,6.65-4.86,2.53-.98,5.02-.34,7.61-.45ZM27.36,416.94v1.33c.87-.44.87-.89,0-1.33Z"/>
  <path class="cls-21" d="M871.96,267.49c-1.73,3.89-.15,2.6-3.6,7.72-2.59,3.85.3,3.91-4.4,5.62-1.13,12.47-3.09,6.81-4.94,11.05-.75,1.72-.15,4.66-.41,4.95-1,1.13-25.5-.62-30.09-.1-2.94.33-1.26,2.55-2.57,2.8-3.19.6-.56-4.09-6.37-2.63-3.33.83-3.54,7.37-3.84,7.71-.36.42-7.23,5.35-7.78,5.58-.37,5.64-1.75,4.54-2.67,9.34h-2.67c.32-5.74.49-3.2,2.16-5.9.68-1.09.39-2.9.7-3.21.75-.76,1.97-.02,2.47-.23.12-1.75,0-3.57,0-5.34.67-.26,2.44.32,2.66,0,.61-.83-.59-7.47.02-8.01.42-.37,3.06.43,4.3-.05s1-2.36,1.95-2.59c8.97-2.2,25.82,1.86,35.44-.09,1.24-.25,3.49-5.78,6.29-5.31.34-1.87-4.42-2.71-5.32-2.64v-2.67l10.67-14.68c-.84,1.66-1.86,3.46-2.62,4.99-1.75,3.49-3.53,6.91-5.39,10.35,4.04,3.09,4.55-2.34,5.65-3.04.98-.63,1.89-.11,2.37-.29.58-6.32,1.6-4.27,2.21-5.79,1.15-2.85.94-7.25,5.79-7.56Z"/>
  <path class="cls-21" d="M807.97,304.85c-1.86.72-3.78,1.3-4.88,3.11-.97,1.61-2.59,8.01-3.57,9.78-2.01,3.62-4.33,6.32-7.55,8.46,3.58-10.95,10.27-19.47,16-29.36,0,2.67,0,5.34,0,8.01Z"/>
  <path class="cls-21" d="M887.96,231.46l2.67,1.33c1.15,4.73-1.64,4.48-2.67,8.01-3.88,13.37-9.02,13.94-14.67,24.02-2.06-2.07-2.56-5.22-5.33-2.67,1.39-3.09,3.42-7.45,4-10.67,2.42-1.87,5.38-6.67,6.67-9.34l6.66,1.34v-12.02c.89.01,1.79-.04,2.67,0Z"/>
  <path class="cls-13" d="M873.29,264.82c-.38.68-1.01,1.95-1.33,2.67-4.85.31-4.64,4.71-5.79,7.56-.61,1.52-1.63-.53-2.21,5.79-.47.17-1.38-.34-2.37.29-1.09.7-1.6,6.12-5.65,3.04,1.86-3.44,3.63-6.86,5.39-10.35.77-1.52,1.78-3.32,2.62-4.99.17-.34-.16-.94,0-1.33,3.56.62,2.72-.85,2.67-4,.23-.49,1.14-.9,1.33-1.33,2.77-2.56,3.27.59,5.33,2.67Z"/>
  <path class="cls-18" d="M221.35,222.12c.14.13-.6,2.29.89,2.7,1.96.53,4.92-.33,7.11-.03-.81,5.55-3.98,1.31-5.34,2.67-.19.19-.19,5.14,0,5.33.38.36,4.14-.39,5.76.02,1.04.27.85,2.42,1.82,2.66,4.09.98,7.67-2.22,11.72-2.72,6.48-.79,15.16.17,22.04.04l.67,1.31.67-1.31c5.89-.11,43.79-1.65,45.34,0,2.18,2.33-1.37,4.85-1.79,5.37-2.8,3.45,4.3,3.44,8.01,3.46,12.96.07,26.11-.84,39.1-.83,4.81,5.77,5.56-1.41,13.33-1.33,3.08.03,8.43,1.43,13.33,1.33,3.88-.08,10.6,1.6,9.33-2.67,3.99,0,8.01,0,12,0-.74,4.04,2.04,2.57,4.61,2.67,40.44,1.6,82.72-.14,123.38,0v2.67c-7.17.55-5.17,3.26,0,2.67,2.53-.29,3.05.99,2.67-2.67,2.72-.09,7.53-.54,9.77.01,1.04.25.88,2.65,1.66,2.7,2.01.12,6.92-2.48,9.9-2.71,5.2-.4,10.74.17,16,0,.89-.03,1.78.03,2.67,0,6.05-.18,13.82.81,19.42.11,2.55-.32,1.27-2.56,3.82-2.88,3.05-.39,15.8.82,16.76.1.2-.15-.09-2.06,0-2.67.8-.17,2.13.25,2.67,0,1.16-.55.89-2.69,2-2.69s.91,2.29,2,2.69c.9.33,2.83-.23,4,0l1.33,2.67c-.79.52,2.27,2.16-4,2.67-1.75.14-3.6-.2-5.33,0-4.53.51-4.74,2.05,0,2.67,1.71.22,3.6-.17,5.33,0s3.62-.22,5.33,0c2.35.31,4.67,4.39,4-2.67,3.56-.25,7.66,1.56,6.67-2.67,78.14-1.55,156.5,1.16,234.65,0-.13,8.62,1.29,5.84-2.67,5.34-2.34-.29-5.53-.06-8,0-5.63.15-5.81-1.39-5.33,5.34-.67.22-2.29-.54-2.67.88-2.25,8.27,4.7,8.44,5.28,10.75,1.74,6.94-3.95,3.82-9.27,4.39l6.65,7.34c-7.38.41-5.33,1.98-5.33,8.67v1.33c-3.15-.06-4.62-.9-4,2.67-.35.04-1.73,1.2-4,1.33-2.95-2.28-10.64-2.22-13.33,0-6.61.27-13.42-.48-20,0-2.83.2-9.3,1.48-10.41,4.28-.64,1.61,1.88,4.84.89,8.13-.86,2.87-4.34,2.96-4.88,3.9-.86,1.48.11,4.62-.29,5.04-.18.19-5.11.2-5.31.02-.97-.91,2.31-6.38-2.66-5.34-2.5,5.08,2.75,8.63,2.81,9.95.18,3.63-2.48,8.63-2.82,14.06-.06.87-.02,1.79,0,2.67h-10.67c-.59,8.75-.27,6.3,6.67,6.67.44.02.89-.01,1.33,0l3.27,4.01,154.77-.09c4.52.56,8.86,12.4-.05,10.78-.44-.08-2.31-8.02-3.33-8.02h-109.32c-.13,0-.13,2.67,0,2.67h106.66v5.33c-8.07-1.17-16.96,1.11-24.52,1.21-2.45.03-5.97-1.2-9.49-1.25-2.54-.03-5.42-1.18-4.65,2.71-1.33-.02-2.67,0-4,0,.74-4.03-2.04-2.58-4.61-2.67-10.87-.36-22.24-.39-32.72,2.67-1.32.07-2.7-.15-4,0-.71-7.09-5.34-.77-6.55.44-3.71,3.72-2.31-2.45-2.85-2.97-.74-.72-8.64.22-11.19-.21-2.23-.37-3.78-2.44-6.72-2.72-5.36-.52-7.86,3.32-13.38,2.93-2.46-.17-2.15-3.9-6.65-4.14-3.77-.2-1.06,2.96-2.07,3.85-.55.49-7.06.37-8.53.08-6.71-1.32-11.17-12.74-10.06,2.73-7.84.06-16.28-.49-24,0-2.87-6.13-7.85,1-12.46.04-.37-.08-2.83-5.37-6.2-2.7-2.83,2.24,5.51,3.1,2.65,5.32-.78.61-5.78-.83-7.72.29-1.2.69-2.26,5.78-3.38,7.29s-4.19,5.51-5.23,6.75c-1.28,1.53-7.34,1.22-4.84,4.26.15.18,4.58-.15,2.45,2.72-.4.54-4.56.1-2.61,6.72-.31.52-1.07.89-1.33,1.33-7.4-5.39-15.43-1.47-9.31,7.04,1.06,1.48,3.37.13,2.67,2.97-.24.98-2,.45-2.28,1.04-.74,1.58-.83,6.23-3.45,7.19-8.85,3.25-1.52-5.01-7.62-4.89.29,2.67-.56,5.93.01,8.44.24,1.06,2.49.95,2.66,1.61,1.2,4.4-6.12,5.04-5.38,7.96.25.97,2,.45,2.28,1.04.68,1.42,2.9,5.65,3.03,5.98.5,1.29-.28,3.9.05,4.33,2.44,3.17,2.54-2.46,2.72-2.59,2.63-1.87,2.52,1.71,3.06,2.07,1.46.97,4.09,1.05,4.87,2.53,1.01,1.94-1.52,1.8-2.53,3.12-.73.95,1.03,4.5-4.58,2.84-.87-.26-.64-2.11-1.9-2.6-3.84-1.5-5.13,2.72-4.32-6.71-4.93-1.47-1.68,5.72-2.67,6.67-.19.18-5.13.18-5.32,0-.25-.25-.26-5.92.02-7.1.24-1.02,2.37-.85,2.63-1.77,1.33-4.77-2.08-4.09-2.62-5.49-.47-1.23.31-3.89-.07-4.3-1.09-1.19-6.76-1.25-5.28,4.44.27,1.04,4.17,1.02,2.64,4.87-4.32-1.91-12.09-.17-10.66,6.68-.66.95-1.66,3.65-2.67,5.34-10.59-.2-6.38,2.39-8.03,7.04-.08.21-2.48,3.48-2.64,3.64-.46.43-.88.93-1.33,1.33-.58.52-3.72.37-4.66,2.6-.51,1.22,1.1,3.76.68,4.07-.48.34-3.07-.46-4.35.04-1.88.74-1.77,4.33-9,2.63l-1.33-5.34c2.49-6.25-2.17-9.67-8.46-7.99-1.08.29-.77,2.71-1.55,2.7-2.21-.02-3.02-2.13-4.66-2.71v-1.33c1.71-7.18-8.44-3.67-13.33-4-.83-.53-1.83-.82-2.67-1.33-.17-2.97.7-6.65-.65-9.38-.16-.32-4.7-4.77-5.02-4.92-6.61-2.96-4.21,2.12-5.66,4.94-.78,1.52-7.06,5.09-7.31,6.32-.64,3.15,1.67,9.37,1.3,9.69-.26.23-4.44.5-5.92,2.78l-126.78-.02c-4.96-3.43-4.93-7.14-12.62-5.42.17-.56.04-1.89,0-2.67-.19-3.72-2.78-3.68-7.07-2.63-.88.22-.69,1.88-1.99,2.56-.9.47-3.07-.33-4.03.27-1.57.98.67,7.65-8.7,5.15-1.44-.38-.74-2.68-.88-2.68h-48c-.13,0-.13,2.67,0,2.67h41.33c.13,0,.13,2.67,0,2.67h-63.99c-.39,0,.69-5.99-.3-7.72-1.16-2.04-9.35-4.58-10.36-.3,4.58-2.09,7.48,2.89,5.32,5.34l-15.98-5.32,1.33,8h-143.99c-.07-2.78,6.23-2.21,6.67-2.68,2.94-3.15-6.9-2.39-5.33-6.65,4.45,3.99,11.1-4.75,10.73-8.56-.1-.98-13.21-10.33-13.43-14.09-3.27-2.13-3,3.7-2.75,6.07.21,2.1,5.16,2.69,2.77,4.57-.21.16-5.13.2-5.32.02-.81-.77,1.85-6.17-1.98-5.34-4.82,2.79,2.94,7.27.53,10.55-.24.32-3.84,1.18-6.55,4.11-.85-.26-1.93-1.25-2.67-1.33-4.39-.52-6.68-.58-5.34,4.45.38,1.42,2.55.74,2.67.88.14.16.02,1.95,0,2.67-50.56-1.49-102.27,2-152.71,0-2.57-.1-5.35,1.37-4.61-2.67.19-.34-.19-.99,0-1.33,13.75.9,7.08-2.77,7.96-8.42.13-.84,2.03-.98,2.55-2.02,1.3-2.64,2.56-9.15,2.92-9.49,2.42-2.29,6.41,5.02,5.24-8.09,11.18-1.27,6.56-7.44,8.01-9.35.39-.52,2.57,1.08,3.33.93,2.97-.6,1.34-4.8,2.06-6.62.52-1.32,3.98-.75,2.59-5.43-.38-1.29-2.91.35-2.65-4.88.02-.46-.1-.97,0-1.33,3.56-1.05,1.58,3.55,4.66,2.69,1.43-.4-.51-3.87,3.33-2.69l2.67,5.33c1.87-4.67-3.21-11.82-2.73-15.17.13-.87,2.46-.7,2.72-1.74.32-1.31.46-12.01.02-12.45-.5-.5-7.56.49-9.76-.02-3.18-.74,1.24-2.44-8.91-1.3-.87.1-1.79-.07-2.67,0l-1.99-1.33-.68,1.33c-.86-.12-1.91.18-2.67,0,1.62-2.49-4.02-2.94-2.65-3.98.23-.18,1.88.55,2.6-.99.89-1.91.75-6.04,1.39-8.37.88-.41,1.76-.9,2.67-1.33,3.02,6.51,8.2-1.41,9.73-2.27,3.94-2.22,7.45-1.54,10.31-2.28,5.62-1.45,13.29-8.61,21.32-10.77,1.61-.43,7.17.41,7.97-.7.43-.59-5.06-4.75,4.71-5.41,2.26-.15,6.51,1.27,7.36.78,2.72-1.56,2.98-7.67,3.93-10.04.49-1.21.68-2.54,1.33-4,10.24.98,5.26-1.15,6.7-7.08.22-.89,1.9-.65,2.57-1.97.5-.97-.46-3.38.23-4.18.57-.67,3.15.22,3.84-.12.61-.29-3.76-4.21,2.53-7.84.88-.51,2.55.04,2.8-.17.22-.19-2.17-4.59-1.33-5.32.42-.37,5.15.34,7.03-.06.4-.09,5.77-5.23,5.89-5.62,1.8-5.43.95-9.95-3.6-13.01.43-.59-1.03-3.57,2.67-2.67,3.39,7.18,8.33-3.55,6.67-5.33-.38-.4-6.25.27-8.01,0-1.11-2.64,6.6-9.66,5.33-10.67-3.39-2.68-5.8,2.62-6.17,2.69-8.33,1.76-5.83-9.55-12.48-8.04v-1.33l5.33-4c15.97,1.83,47.44,1.1,63.99,0,2.68-.18,5.62.69,6.67-2.67.44-.02.89,0,1.33,0,8.27.16,6.73,1.99,8.91,2.63,5.32,1.57,5.8-3.82,4.43-5.29-.2-.21-4.11.02-5.34,0-.78-2.73,1.84-2.92,4-4h1.33c.51.32.16,2.04,2.65,1.33l1.35-5.33c.41-.05.91-.03,1.33,0,.79.05,2.47-.18,2.67,0ZM256,236.81c-.3-.35-9.6.8-7.98,3.99,3.28.85,11.42.07,7.98-3.99ZM192.02,238.14c-1.6-1.42-36.83,0-42.66,0-.13,0-.13,2.67,0,2.67h42.66c.13,0,.1-2.58,0-2.67ZM207.65,238.57c-1.66-.77-3.87-.71-5.62-.44-5.73.88-.39,2.69,1.83,3.7.2.09.29,1.42,1.11,1.6,2.54.57,5.7-.22,8.37.04.85-4.25-2.35-1.96-4.95-3.08-.4-.17-.4-1.66-.75-1.82ZM302.67,238.14c-.15-.13-3.84-.13-3.99,0-3.96,3.46,7.95,3.46,3.99,0ZM234.67,240.81c-.81-.61-14.91-.59-10.65,2.65.81.61,14.91.59,10.65-2.65ZM245.34,243.48c-.15-.13-3.84-.13-3.99,0-3.96,3.46,7.95,3.46,3.99,0ZM326.67,243.48c-.25-.22-6.4-.22-6.65,0-4.17,3.69,10.83,3.69,6.65,0ZM349.33,243.48c-.3-.27-7.69-.27-7.99,0-4.24,3.77,12.23,3.77,7.99,0ZM410.67,243.47c-1.4-1.24-32.13,0-37.33,0-.13,0-.13,2.67,0,2.67h37.33c.13,0,.1-2.58,0-2.67ZM513.32,243.47h-65.33c-.18,3.12-.46,2.36,1.98,2.67,18.92,2.42,41.81-2.29,61.17,1.03,1.65-.12,2.88-3.09,2.18-3.7ZM607.98,243.48c-.3-.27-7.69-.27-7.99,0-4.24,3.77,12.23,3.77,7.99,0ZM150.69,248.81c-3.71-7.35-7.6,2.78,0,1.33l5.09,9.8c-4.33,5.02-6.1,11.55-9.31,17.34-1.56,2.82-10.66,18.88-11.69,20.06-2.38,2.71-2.18-2.13-4.1,4.84-4.89,2.47-5.33,5.96-5.33-2.67.58-.23,2.45.3,2.66,0,1.97-2.73-2.66-11.48-2.66,0-1.58.61-3.87,1.21-4.82,3.14-3.98,8.04-1.82,8.29,6.15,7.54-7.89,15.93-9.17,11.37-22.66,18.68h-12c1.18,3.86,5.44,2.24,8,2.67,18.33,3.09,106.2,3.94,122.68-.64,2.82-.78,5.44-1.97,7.98-3.36,6.59,3.08,4.61,1.51,5.33-2.67.14-.8-.26-2.41,0-2.67s1.87.14,2.66,0c1.06-.2,3.54.41,3.93-.06.52-.62-.59-4.42,1.37-6.03,1.6-1.31,3.42.81,4.04.75-3.43,8.78-.68,14.55,8.79,15.89,23.81,3.37,66.4.2,91.2-1.21,1.79-.1,5.16-.33,6.67,0,.15.03,2.56,1.23,2.67,1.33.27.25,1.14,7.74,2.67,0,27.67,0,63.19,2.65,89.83-.16,11.25-1.19,18.3-5.44,24.83-14.51,2.54,1.09,2.17,4.83,5.33,4-.63,7.09,2.38,9.11,8.75,10.59l93.01.14,8.89-17.4h-71.99c-.54-3.25,5.1-13.62,7.55-14.46l70.45-.22c3.84-.73,7.89-11.67,11.33-14.68.22.17,5.06,1.36,5.33,1.33v1.33c-4.33-.74-2.04,1.54-2.67,4-3.39,13.26-17.32,26.57-21.33,40.03h32.66l16.67-27.35c1.85-1.11,20.05-1.12,23.37-.76,2,.22,1.59,0,2.35,1.71,1.74,3.91,3.59,26.39,4.93,26.39h34.66l-6.55-27.89c18-2.28,24.58-17.32,33.21-30.82,2.12.68,4.92-2.6,5.33-2.67,2.72-.45,26.79-.7,28,0,.13.07,1.32,2.52,1.33,2.67.5,6.26-34.71,57.29-31.99,60.04.26.27,5.41-1.34,7.25-1.41,9.32-.34,18.84,2.03,27.4.08-.29,2,0,8.41,2.66,5.33,1.49-1.73-1.3-6.09-1.33-6.67-.03-.85-.11-1.85,0-2.67,4.02,3.7,10.3-4.78,4-4,4.88-8.8,9.58-17.82,14.67-26.69,3.01-.06,6.02,7.08,9.33,4.01.46-.42.34-11.35.04-12.49-.37-1.4-2.25-.65-2.69-.88-1.11-.59,5.41-1.8,1.32-5.32,1.92-2.98,2.08-6.63,6.67-9.34l.66,2.66,2.01-4c11.18-3.65,24.83.48,36.54-1.25l8.78-16.09h-105.99c-.65,0-6.82,9.64-7.33,10.67-.85.49-1.85.8-2.67,1.33-.27-5.74-2.92-10.58-8.74-11.93-29.08-.15-58.19-.08-87.25-.08-1.53-7.74-2.39-.25-2.67,0-1.45,1.3-6.51,4.25-8,6.67-.15-1.36-2.48-2.3-2.67-2.67-.42-.83.95-3.64-.73-4.08l-106.98.38c-2.83,3.04-3.89,7.82-5.81,10.9-.75,1.21-2.23,1.75-2.47,2.15l-4-1.33c1.82-3.38,1.76-3.47,4-6.67,4.22,2.81,2.75.56,1.33-2.67-.4-.91,1.09-3.12-1.93-2.76l-94.71.11c-5.87.62-16.91,4.83-20.68,9.32l-4-1.33c2.44-3.41,2.99-4.16,4-8.01.05-.21,2.69-1.97.65-2.68-2.46-.42-2.12.41-1.99,2.68l-107.1-.06c-2.18,4.84-6.34,9.07-8.89,13.4-1.14-2.16-4.53-1.26-6.67-1.33.61-1.57.9-3.63,1.33-5.34l2.67-.68c.42-2.47-.41-2.12-2.67-1.99.27-1.15-.34-3.14,0-4,.14-.35,2.32-1.05,2.66-2.01,1.21-3.52-4.11-1.42-6.66-2-35.01-7.88-79.52.34-115.99-2.67ZM627.31,250.15v1.33c.87-.44.87-.89,0-1.33ZM631.31,250.15v1.33c.87-.44.87-.89,0-1.33ZM735.31,338.21v1.33c.87-.44.87-.89,0-1.33ZM781.29,339.55c-1.45-1.46-4.11,1.2-2.65,2.65,1.45,1.46,4.11-1.2,2.65-2.65ZM64.02,344.89c-2.36-1.81-11.27,3.67-14.65,3.32,2.97,6.84,6.79,3.83,12.16.13.7-.48,4.9-1.61,2.5-3.45ZM44.03,352.88c.02-.88-1.45-2.45-2.02-2.64-3.16-1.06-3.38,4.2,2.02,2.64ZM68.03,391.58c-2.47-.01-8.86,1.17-6.59,3.95.33.4,2.33-.2,2.59.05.1.1.05,2,0,2.67-6.19.55-2.7,3.13-2.67,4,.25,5.79-2.22,3.53-3.21,5.39-1.62,3.06-2.9,7.06-4.79,10.62-2.26-.72-6.25-.87-8.31,0-2.04.86-1.49,2.92-2.36,4-.12.15-1.89-.47-2.41.25-.69.96.11,3.25-.67,4.69-1.6,2.93-5.77,1.13-4.92,8.4.93,7.99,2.42.27,2.67,0,1.91-2.11,1.04.87,3.4-5.2.37-.96,1.89-1.32,1.93-1.47,4.21,1.71,10.23,7.1,10.67,0,4.19.25,24.55.65,26.68-.65l15.54-27.42c16.86-1.74,39.3,2.66,55.45-.26,5.08-.92,13.15-8.87,16.32-13.02,1.03-1.34,2.57-1.68,1.99-4.01h-62.66l6.23-12.06,70.18-.2c2.94-.89,9.5-13.29,10.26-17.09h-100.66c-.99,0-3.63,2.49-4.47,3.54-6.92,8.63-13.06,23.66-20.2,33.82ZM274.68,378.24c1.09-3.46,6.91-21.08,5.34-22.69-20.69,1.98-43.02-3.3-63.39-1.38-11.67,1.1-13.6,8.88-22.65,14.69l-60.62,59.42c12.02,2.39,25.4-.95,37.32.66.15.02,1.13,1.89,2.66,1.33v-4c2.32-2.1,4.48-4.44,6.68-6.67,4.2.49,4.46.2,4-4,2.18-2.07,7.13-8.53,8.94-9.07,5.31-1.57,25.34-.4,32.39-.27-.37,3.14-.44,5.3,2.67,6.67-.29.84.25,2.73-.33,4.29s-5.93,11.02-5,11.71c1.21.9,26.62.42,30.11.07,1.85-.19,2.7-1.28,3.22-1.39,1.29-.28,6.36-.92,6.68-1.35.36-.49-1.24-8.69-4.01-6.65.4-1.09,1.06-1.95,1.33-2.67,1.14-.23,3.18.34,4,0,1.86,4.16,1.64,10.89,7.36,11.98,21.99.06,44,.03,65.97.03,1.44,7.78,2.11.87,2.67,0,1.16-1.83,2.58-3.69,4-5.34.14-.16,1.84.51,2.43-.27,1.3-1.73-1.98-5.01,5.57-3.73.81,6.41,3.14,5.42,7.04,8.03.96.64.86,2.65,1.72,2.67,1.45.03,3.99-1.4,6.5-1.43,19.54-.23,39.24-.25,58.78,0,2.81.04,6.76,1.52,7.84,1.44.98-.08,8.54-15.14,8.76-17.38h-52.66c-.87,0-2.83-2.94-1.75-4.38,6.14-6.41,15.82-31.7,21.89-35.51,7.22-4.52,46.11.58,58.27-1.79,2.73-.53,10.82-11.22,11.56-13.72.81-2.71-.7-1.68-2.01-1.93-16.18-3.1-69.44-3.1-84.59,1.99-4.53,1.52-8.89,4.39-12.08,7.93-3.85,4.26-28.43,45.74-29.29,50.08h-1.33c.74-4.03-2.04-2.58-4.61-2.67-6.19-.21-41.77,1.45-43.38,0-.83-.75,2.97-7.41,3.76-8.9,7.13-13.36,20.41-30.36,25.85-43.51.88-2.13,1.35-3.97,1.03-6.29-8.62,2.13-24.95-3.1-31.96,2.02-3.63,2.65-12.95,22.18-16.1,27.56-1.87,3.19-5.99,8.41-7.92,11.78-5.8-1.18-4.24,2.99-5.33,6.67s-1.29,3.7-2.67,6.67l-5.33-2.67c.96-2.61,1.69-5.35,2.67-8.01,6.5-.47,2.57-4.06,2.67-5.34.34-4.44,1.8-5.19,2.67-8.01,3.58.88,4.92-4.56,2.67-6.67ZM448,426.28c0,.21-2.9,2.3.68,2.65.22.02.48-1.31.66-1.31.88,0,1.79-.05,2.67,0,2.13,3.24-6.27,2.92-3.99,3.99,4.03,1.89,6.29-2.54,6.66-2.65,2.23-.67,8.86.09,12,0l.68,2.68c2.46.42,2.12-.41,1.99-2.68,19.68-.51,39.68-.29,59.39-.07,2.48.03,5.08,1.47,6.49,1.41.75-.03.63-2.11,1.81-2.56,9.44-3.66,17.79-6.39,22.97-16.12,2.43,1.21,3.22,2.58,2.67,5.34-1.76,3.08-4.03,8.54-5.33,12.01h32c.84,0,3.76-10.83,8-14.68.22-.2,1.88.46,2.47-.18.79-.86-.1-3.01.2-3.82.34-.92.97-1.76,1.33-2.67,3.06.77,2.87-2.24,4.62-4.06,1.3-1.35,8.18-3.02.71-3.95,1.64-2.96,3.18-6.98,5.33-10.67h2.67c2.93,7.98,8.98,20.3,9.33,28.02.02.44-1.57,1.99-1.22,3.2.65,2.23,3.29,1.67,3.88,2.14.52.41.92,1.05,1.33,1.33l-1.33.68c.56,3.4,3.38,5.02,2.66.65,5.1,3.47,27.1,15.38,28,20.02.02.09-1.22.68-1.35,1.3.92-.11,1.77.5,2.59.57,10.43.96,3.38-7.99.09-1.88-1.92-3.15.64-7.96,4-9.34.07-.03-.11,1.52.66,1.31,2.38-.65,5.77-6.7.67-5.31,1.54-3.06,3.5-7.47,5.03-10.28,12.06-22.11,26.69-43.02,37.63-65.78h-31.33l-23.35,41.36-2.96-1.7-13.89-39.73c-7.23.91-14.01-1.42-21.17-1.35-2.51.02-12.57,1.02-14.39,1.65-1.65.56-11.07,16.72-12.9,19.78l-5.33-2.67c4.75-10.48,1.49-17.11-10.15-18.53-15.56-1.89-50.6-1.58-66.56-.2-9.49.82-19.47,4.18-25.92,11.42-4.05,4.54-28.78,45.2-30.07,49.96-1,3.71-.56,7.02-.62,10.72ZM733.3,358.23c-1.45-1.46-4.11,1.2-2.65,2.65s4.11-1.2,2.65-2.65ZM727.97,363.57c-3.59-4.08-3.59,9.41,0,5.32.18-.2.18-5.12,0-5.32ZM711.97,395.59c-.2-.18-5.12-.18-5.32,0-4.08,3.59,9.4,3.59,5.32,0ZM611.32,398.26v1.33c.87-.44.87-.89,0-1.33ZM443.33,410.27v1.33c.87-.44.87-.89,0-1.33ZM214.68,416.95c-5.08.42-11.32-2.38-9.29,4.41.27.91,2.1.68,2.58,1.93s-.32,3.87.06,4.3c.22.25,6.4.23,6.65,0,2.39-2.19-4.63-5.53-4-7.32l4.01-3.34ZM618.64,416.94c-1.45-1.46-4.11,1.2-2.65,2.65,1.45,1.46,4.11-1.2,2.65-2.65ZM685.3,416.94c-1.45-1.46-4.11,1.2-2.65,2.65,1.45,1.46,4.11-1.2,2.65-2.65ZM599.98,422.28c-3.59-4.08-3.59,9.41,0,5.32.18-.2.18-5.12,0-5.32ZM188.68,428.95v1.33c.87-.44.87-.89,0-1.33ZM132.69,431.61v1.33c.87-.44.87-.89,0-1.33ZM46.68,435.61v-2.66h-1.31v2.66h1.31ZM173.35,438.29c-1.45-1.46-4.11,1.2-2.65,2.65s4.11-1.2,2.65-2.65ZM439.99,438.29c-.3-.27-7.69-.27-7.99,0-4.24,3.77,12.23,3.77,7.99,0ZM469.99,443.62h105.99c.13,0,.13-2.67,0-2.67h-106.66c-.2,0,1.1-2.32-1.92-2.73-7.41-1-1.63,4.65,2.58,5.4ZM213.34,443.63c-1.45-1.46-4.11,1.2-2.65,2.65,1.45,1.46,4.11-1.2,2.65-2.65Z"/>
  <path class="cls-18" d="M181.35,438.29v1.33c-.14.06-1.78,2.35-2.67,1.33-1.41-1.6.66-3.53,2.67-2.67Z"/>
  <path class="cls-22" d="M639.98,9.97c1.31.13,2.69-.14,4,0,1.23.13,4.59.99,6.67,1.33,27.24,4.51,68.02,19.76,83.78,43.58,1.71,2.58,2.57,7.73,4.23,9.11,2.67,2.21,12.9,5.6,18.64,10.03l-7.04,1.34-6.29-8.03c1.56,4.81-2.24,4.5-2.67,8.02,5.9-1.73,5.01,2.5,5.33,2.67.61.32,3.02-.53,4.24.08,3.67,1.82,3.09,4.86,4.21,7.48.2.47,1.91.51,2.17,1.36,2.11,7.07-6.33,4-11.95,4.41-.74-4.55,6.35-4.92,6.66-5.36,2.04-2.81-6.25-4.92-5.33-7.99-6.79,1.47-5.01-2.43-5.33-2.67-.62-.47-10.59-1.16-13.33-5.34-4.88-7.43-1.38-10.66-12-18.68-1.56-2.43-3.77-4.86-5.99-6.69-26.18-21.64-80.51-25.72-113.39-24.05-60.8,3.08-113.53,25.6-170.99,41.03-23.53,6.32-46.96,11.2-70.93,15.08l9.08,6.5c10.81,2,22.33,9.08,32.98,10.75,6.1.96,13.5-3.07,11.03,5.2l-25.1,13.55c-16.31,6.8-32.49,13.52-49.14,19.53-2.6.94-6.89,1.97-8.19,4.48-.88.08-1.79-.06-2.67,0-2.66.19-5.62-.7-6.67,2.67-.44.05-.9-.07-1.33,0-2.04.32-10.68-.47-10.64,3.34.02,2.45,6.27,1.91,7.97,2,0,.77-.14,2.56,0,2.66.43.34,8.65-.03,10.67,0,.44,0,.89,0,1.33,0,4.56,4.77,16.06,2.55,22.66,2.67,2.66.05,5.34-.05,8,0,2.18.04,12.88-.48,13.34,0,.36.37.36,3.29-.81,4.14-2.43,1.76-3.7-1.14-4.53,3.86s-1,1.32-4.96,3.07c-.59.26-2.45,3.83-3.49,4.45-36.56,21.51-73.32,41.87-110.6,58.15-2.52,1.1-13.03,3.81-14.27,5.08-4.29,4.39,8.83,1.28,9.94,1.26,25.9-.57,56.35.06,82.49.56,1.56.03,4.9.6,6.22,1.49-1.67,4.45-8.84,1.41-7.99,6,6.2.06,12.45-.06,18.66,0,5.76.06,11.57-.03,17.33,0,.53.78.78,2.01,1.33,2.67-12.99,0-26.14.89-39.1.83-3.71-.02-10.82-.02-8.01-3.46.42-.52,3.97-3.03,1.79-5.37-1.55-1.66-39.45-.11-45.34,0-.44,0-.89,0-1.33,0-6.88.13-15.56-.83-22.04-.04-4.05.49-7.63,3.7-11.72,2.72-.97-.23-.78-2.39-1.82-2.66-1.62-.41-5.38.34-5.76-.02-.19-.18-.19-5.14,0-5.33,1.37-1.36,4.54,2.88,5.34-2.67,1.01-6.96,5.02,2.59,7.99,0,2.74-2.39-5.5-2.99-2.65-5.32.44-.36,11.65,1.18,7.99-2.66-2.11-2.21-7.53-.34-9.41,1.93l-11.92,3.39c-.2-.18-1.88.05-2.67,0,26.6-12.76,54.08-23.86,80.02-38,12.14-6.62,23.44-14.84,35.97-20.73-.23-2.07-1.96-2.06-3.45-2.53-17.97-5.61-37.03-6.16-52.98-19.03-1.75-1.41-4.06-2.31-3.55-5.1,35.83-4.98,68.25-18.17,100.41-33.65,1.58-.76,4.72-.9,4.91-1.07,2.43-2.25-.94-2.27-1.9-2.77-3.72-1.95-8.16-1.91-11.43-3.22-7.89-3.16-24.48-13.71-30.94-19.36-.93-.82-7.54-7.05-6.38-7.99,1.32-1.06,28.72-3.6,33.57-4.43C454.51,48.54,545.97.64,639.98,9.97Z"/>
  <path class="cls-22" d="M217.35,222.12l-1.35,5.33c-2.49.71-2.15-1-2.65-1.33-.26-.17-.27-1.26-.67-1.26-.53,0-.52,1.19-.66,1.26-2.16,1.08-4.78,1.28-4,4-3.67-.07-9.21-1.38-8,2.67-.44,0-.89-.02-1.33,0-3.57.16-7.67-1.47-6.67,2.67-16.55,1.1-48.03,1.83-63.99,0-2.91-.33-8.57-7.72-8,1.33-.87-1.14-6.6-3.44-2.67-5.34h74.66c8.03-1.59,17.71-8.38,25.33-9.34Z"/>
  <path class="cls-6" d="M106.69,314.19c-.95,2.37-1.2,8.48-3.93,10.04-.85.49-5.09-.94-7.36-.78-9.77.66-4.28,4.82-4.71,5.41-.81,1.11-6.36.26-7.97.7-8.03,2.16-15.7,9.32-21.32,10.77-2.86.74-6.36.06-10.31,2.28-1.54.87-6.71,8.78-9.73,2.27,21.7-10.34,43.09-21.48,65.33-30.69Z"/>
  <path class="cls-6" d="M134.69,264.82c4.55,3.05,5.4,7.58,3.6,13.01-.13.39-5.5,5.54-5.89,5.62-1.88.4-6.61-.31-7.03.06-.84.73,1.56,5.13,1.33,5.32-.26.21-1.93-.33-2.8.17-6.29,3.63-1.93,7.55-2.53,7.84-.69.34-3.27-.56-3.84.12-.69.8.27,3.21-.23,4.18-.67,1.32-2.36,1.08-2.57,1.97-1.44,5.93,3.55,8.06-6.7,7.08,6.05-13.55,18.05-33.47,26.66-45.37Z"/>
  <path class="cls-6" d="M45.36,359.56c10.15-1.14,5.73.57,8.91,1.3,2.2.51,9.26-.48,9.76.02.44.44.3,11.14-.02,12.45-.25,1.03-2.59.87-2.72,1.74-.48,3.35,4.6,10.5,2.73,15.17l-2.67-5.33c-3.84-1.18-1.9,2.29-3.33,2.69-3.08.86-1.1-3.74-4.66-2.69.84-3.18,9.4-14.91,9.3-16.69-.21-3.65-17.64-3.05-17.3-8.66Z"/>
  <path class="cls-6" d="M53.36,386.25c-.25,5.23,2.27,3.59,2.65,4.88,1.39,4.68-2.07,4.11-2.59,5.43-.72,1.82.91,6.02-2.06,6.62-.76.15-2.94-1.44-3.33-.93-1.44,1.91,3.17,8.07-8.01,9.35-.08-.88.05-1.79,0-2.67,3.72-4.46,6.86-14.26,10.67-20.02.75-1.14,1.21-2.22,2.67-2.67Z"/>
  <path class="cls-6" d="M38.7,346.22c-.64,2.33-.49,6.46-1.39,8.37-.72,1.54-2.37.81-2.6.99-1.37,1.05,4.27,1.49,2.65,3.98-4.56-1.08-8.79-2.86-13.99-4.03-1.59-.36-4.38-.44-2.01-2.62.68-.63,14.55-5.38,17.33-6.69Z"/>
  <path class="cls-6" d="M122.69,240.8c6.66-1.51,4.16,9.8,12.48,8.04.37-.08,2.78-5.37,6.17-2.69,1.28,1.01-6.44,8.03-5.33,10.67,1.76.28,7.63-.4,8.01,0,1.66,1.78-3.28,12.52-6.67,5.33-.69-1.46-.8-3.71-1.33-5.34-4.55-.72-10.37-11.85-13.33-16.01Z"/>
  <path class="cls-6" d="M120.02,236.8c-.57-9.05,5.09-1.67,8-1.33l-5.33,4h-1.33c-.55-.77-.78-1.94-1.33-2.67Z"/>
  <path class="cls-6" d="M42.7,359.56c-1.63.13-.38.32-2.67,0l.68-1.33,1.99,1.33Z"/>
  <path class="cls-22" d="M122.69,240.8c-.34-.48-.98-.84-1.33-1.33h1.33v1.33Z"/>
  <path class="cls-9" d="M21.36,440.96c-.74,4.04,2.04,2.57,4.61,2.67,50.44,2,102.16-1.49,152.71,0-.1,3.99-4.68,2.09-1.33,5.34-.09.07.09.69-1.33,1.33H18.7c-1.53-.61-3.75,1.49-2.4-3.05.88-2.94,4.31-4.89,5.07-6.29Z"/>
  <path class="cls-24" d="M181.35,435.62v2.67c-2.01-.86-4.07,1.07-2.67,2.67-.12-.14-2.29.54-2.67-.88-1.34-5.04.95-4.98,5.34-4.45Z"/>
  <path class="cls-24" d="M184.02,436.95c2.71-2.93,6.31-3.79,6.55-4.11,2.41-3.28-5.35-7.76-.53-10.55,3.83-.84,1.17,4.56,1.98,5.34.19.18,5.11.15,5.32-.02,2.39-1.88-2.56-2.47-2.77-4.57-.24-2.38-.51-8.2,2.75-6.07.22,3.76,13.33,13.12,13.43,14.09.38,3.81-6.28,12.56-10.73,8.56-1.58,4.26,8.27,3.5,5.33,6.65-.44.47-6.73-.1-6.67,2.68h143.99l-1.33-8,15.98,5.32c2.16-2.45-.74-7.44-5.32-5.34,1.01-4.28,9.2-1.75,10.36.3.98,1.73-.09,7.72.3,7.72h63.99c.13,0,.13-2.67,0-2.67h-41.33c-.13,0-.13-2.67,0-2.67h48c.14,0-.57,2.3.88,2.68,9.36,2.49,7.13-4.17,8.7-5.15.97-.6,3.13.19,4.03-.27,1.3-.68,1.11-2.34,1.99-2.56,4.29-1.05,6.88-1.08,7.07,2.63-5.56-.98-6.26,3.45-9.33,5.34-1.77,1.08-5.14,3.28-6.67,4h-77.33c-3.47-.63-11.6-3.72-14.01-3.44-.9.11-4.58,2.63-7.32,3.44h-145.32c-1.27-.46-3.39,1.2-2.55-1.87s12.85-20.1,11.89-20.8c-.73-.53-6.54-.07-8.01.64-1.99.97-5.06,7.42-7.12,9.55-2.92,3.02-9.42,8.67-12.86,11.15-3.35-3.25,1.23-1.35,1.33-5.34.02-.72.14-2.51,0-2.67.89,1.01,2.53-1.28,2.67-1.33,4.48-1.88,1.71-1.64,2.67-2.67Z"/>
  <path class="cls-24" d="M456,443.62c7.69-1.72,7.66,1.99,12.62,5.42l126.78.02c1.48-2.29,5.66-2.56,5.92-2.78.37-.32-1.94-6.54-1.3-9.69.25-1.23,6.53-4.8,7.31-6.32,1.45-2.83-.96-7.9,5.66-4.94.32.14,4.87,4.6,5.02,4.92,1.35,2.73.48,6.41.65,9.38-1.8-1.12-7.34-5.59-8.57-5.31-2.61.6-7.28,13.5-10.1,15.98h-139.99c-2.53-.69-6.23-1.97-8-4,2.03-.42,3.25-.17,4-2.67Z"/>
  <path class="cls-25" d="M176.02,450.3c-.49.22-1.55,2.02-3.2,1.4-48.72-2.89-101.36,3.59-149.61.03-2.6-.19-2.76-.74-4.51-1.43h157.32Z"/>
  <path class="cls-25" d="M341.34,450.3c-.98.29-2.53,2.16-4.51,1.43-44.32-2.79-92.45,3.36-136.3,0-2.62-.2-2.85-.83-4.51-1.43h145.32Z"/>
  <path class="cls-25" d="M599.98,450.3c-.82.73-1.15,1.57-2.67,1.33l-132.81.09c-1.99.82-3.68-1.2-4.52-1.43h139.99Z"/>
  <path class="cls-9" d="M40.03,411.6c1.16,13.11-2.82,5.8-5.24,8.09-.36.34-1.61,6.85-2.92,9.49-.52,1.05-2.42,1.19-2.55,2.02-.88,5.65,5.79,9.32-7.96,8.42,1.89-3.47,3.4-7.23,5.33-10.67,2.33-4.16,4.37-7.28,6.67-12.01.21-.43,1.1-.83,1.33-1.33.47-1.01,2.23-1.95,2.67-4,.09-.41-.04-.89,0-1.33.69-.51,2.24-.82,2.67-1.33.05.88-.08,1.79,0,2.67Z"/>
  <path class="cls-25" d="M440,450.3c-4.66,2.21-63.88,2.29-72.82,1.43-2.55-.25-3.69-1.28-4.51-1.43h77.33Z"/>
  <path class="cls-14" d="M456,440.96c.04.78.17,2.1,0,2.67-.75,2.5-1.97,2.25-4,2.67-.32.07-4.05-1.02-5.33,0,3.08-1.89,3.78-6.31,9.33-5.34Z"/>
  <path class="cls-24" d="M938.62,338.21c11.58.93,23.84,6.76,27.09,18.92,1.2,4.49.62,7.54.91,11.77-8.15,11.2-15.78,33.21-24.6,42.76-4.52,4.9-18.15,11.22-24.73,11.94-15.4,1.69-33.6-1.25-49.33,0-2.97.71-13.3,21.87-15.87,25.82l-2.09.97-134.61-.19c-5.75-1.85-11.34-4.11-16.05-7.96-3.23-2.65-11.09-14.66-12.04-14.62-.35.02-4.18,4.62-4.66,5.31-1.43-6.85,6.34-8.59,10.66-6.68,1.54-3.85-2.36-3.84-2.64-4.87-1.49-5.69,4.18-5.63,5.28-4.44.38.41-.39,3.07.07,4.3.54,1.4,3.94.72,2.62,5.49-.26.92-2.39.75-2.63,1.77-.28,1.18-.27,6.85-.02,7.1.19.19,5.12.19,5.32,0,.99-.95-2.27-8.14,2.67-6.67-.81,9.43.48,5.21,4.32,6.71,1.26.49,1.03,2.34,1.9,2.6,5.6,1.66,3.85-1.89,4.58-2.84,1.01-1.32,3.54-1.18,2.53-3.12-.78-1.49-3.41-1.57-4.87-2.53-.54-.36-.43-3.93-3.06-2.07-.18.13-.28,5.76-2.72,2.59-.33-.43.45-3.04-.05-4.33-.13-.34-2.35-4.56-3.03-5.98-.28-.59-2.04-.06-2.28-1.04-.74-2.92,6.57-3.56,5.38-7.96-.18-.66-2.42-.55-2.66-1.61-.57-2.51.28-5.77-.01-8.44,6.1-.12-1.23,8.14,7.62,4.89,2.62-.96,2.71-5.61,3.45-7.19.28-.59,2.04-.06,2.28-1.04.7-2.85-1.6-1.49-2.67-2.97-6.12-8.51,1.91-12.42,9.31-7.04-.65,1.1-.9,3.55-1.92,5.37-7.48,13.25-27.58,34.84,1.2,37.38,23.63,2.09,50.51-1.48,74.49-.27l22.51-36.19,1.05-4.96h-43.33c-.68,0-7.31,10.72-5.99,12,1.17,1.14,13.27-2.2,11.97,1.98-.43,1.38-6.59,10.03-7.31,10.03h-32.66c-.16-5.93,18.33-37.91,21.32-39.37l66-.66,2.76-1.29c.73-.83.33-2.37.58-2.71.84-1.17,8.77-12.76,8-13.33-2.26-1.66-48.79-.07-56-.01-1.12-15.47,3.35-4.06,10.06-2.73,1.47.29,7.98.4,8.53-.08,1.01-.89-1.7-4.06,2.07-3.85,4.5.24,4.19,3.97,6.65,4.14,5.52.39,8.01-3.45,13.38-2.93,2.93.29,4.49,2.35,6.72,2.72,2.56.43,10.45-.51,11.19.21.54.52-.86,6.69,2.85,2.97,1.21-1.21,5.84-7.53,6.55-.44-1,.12-2.18-.58-2.77.82l-41.22,73.9h30l15.49-26.54c18.01.26,55.87,5.5,70.95-4.37,5.27-3.45,21.2-29.17,20.84-35.06-.1-1.64-.92-3.49-2-4.72-5.57-6.35-36.45-3.92-45.95-4.04-.78-3.89,2.11-2.75,4.65-2.71,3.52.05,7.05,1.28,9.49,1.25,7.56-.1,16.45-2.38,24.53-1.21v-5.33h-106.66c-.13,0-.13-2.67,0-2.67h109.32c1.02,0,2.9,7.94,3.33,8.02,8.91,1.62,4.57-10.22.05-10.78l-154.77.09-3.27-4.01c49.26,1.59,103.72-3.87,151.99,0ZM845.29,359.57h-2.65v1.31h2.65v-1.31Z"/>
  <path class="cls-13" d="M917.29,424.94c2.66.05,5.34-.05,7.99.01.36,1.74-2.47,2.14-3.65,2.32-6.72,1.03-14.2.06-21.07.34-2.57.1-5.35-1.37-4.61,2.67-7.08.14-14.27-.32-21.33,0v-5.34c14.19.24,28.47-.29,42.66,0Z"/>
  <path class="cls-24" d="M679.98,438.29c-2.77,4.65-14.86,28.52-17.3,30.07-1.36.86-6.74-2.53-8.03-3.38-11-7.28-21.92-16.7-33.33-24.02,4.89.33,15.04-3.18,13.33,4-2.66-.55-6.07-2.98-5.34.65.32,1.59,3.99.2,5.34.68,1.64.58,2.46,2.69,4.66,2.71.78,0,.47-2.41,1.55-2.7,6.29-1.67,10.94,1.74,8.46,7.99-.78,1.97-3.03,4.31,1.33,5.34,7.23,1.7,7.12-1.89,9-2.63,1.28-.5,3.87.3,4.35-.04.42-.3-1.19-2.85-.68-4.07.94-2.23,4.08-2.08,4.66-2.6,4.53,3.71,6.49-1.87,1.33-1.33.16-.15,2.56-3.42,2.64-3.64,1.65-4.65-2.56-7.23,8.03-7.04Z"/>
  <path class="cls-25" d="M917.29,423.61v1.33c-14.19-.29-28.47.24-42.66,0-2.14-.04-5.55.79-6.67-1.33,15.73-1.25,33.93,1.69,49.33,0Z"/>
  <path class="cls-2" d="M741.31,75.35c.43-3.51,4.23-3.2,2.67-8.02l6.29,8.03,7.04-1.34c.49.38.86.94,1.33,1.33-2.68,3.71,4.61,10.96,8,8.01.41.47.94.85,1.33,1.33l2.67,2.67c.21.29-.21,1.03,0,1.33-4.54-1.03-1.96,4.23-2.67,5.34-.14.22-5.51-.18-2.66,2.66,2.84,2.83,2.45-2.5,2.66-2.66.16-.12,3.86-.16,4-.01.3.31-.39,4.14.2,5.84.65,1.87,3.5,1.74,3.84,3.1,1.1,4.41-2.49,10.97,5.3,12.42,1.76,11.86,1.86,21.3,0,33.36-1.22,1.39-8.41,16.33-10.65,14.67-1.42-1.05.04-15.78-10.81-20.61-2.14-.95-3.61-.4-5.21-.73-8.71-1.83-18.82-1.9-28-1.33-33.24,2.05-76.82,29.83-93.33,58.71-2.23,3.91-5,7.78-6.67,12.01-7.75-2.7-6.81,7.58-1.33,8.01-.06,1.32.14,2.7,0,4-4.34,2.28-8.11-.66-6.69,5.83.29,1.31,3.96-.03,2.69,3.5l-5.32,1.35v-18.68c11.43-43.01,54.67-71.39,95-81.69,6.27-1.6,7.23-2.12,14.31-2.37,3.08-.11,3.66-.21,2.61-4.39-.13-.51-6.74-7.4-7.18-7.69-2.53-1.69-8.53-3.75-11.44-3.93-.18-1.56-.33-10.26,0-10.67.47-.57,4.84,1.91,5.32,1.34.34-.42-.52-3.28.08-3.89,1.16-1.19,6.36,2.04,5.26-2.79.39-.13.92.12,1.33,0,3.15.06,4.62.9,4-2.67.83-.14,1.81.11,2.67,0,6.57-.84,7-2.16,8.91-2.64,2.75-.69,7.91,2.05,7.08-2.7.44-.05.89.03,1.33,0,5.63-.42,14.06,2.66,11.95-4.41-.26-.86-1.96-.89-2.17-1.36-1.12-2.62-.55-5.66-4.21-7.48-1.22-.61-3.63.23-4.24-.08-.32-.17.56-4.4-5.33-2.67Z"/>
  <path class="cls-22" d="M770.64,88.69c6.99,10.47,8.77,13.9,10.67,26.69-7.79-1.45-4.2-8.02-5.3-12.42-.34-1.36-3.19-1.23-3.84-3.1-.59-1.7.1-5.52-.2-5.84-.14-.14-3.84-.11-4,.01-.21.16.18,5.49-2.66,2.66-2.85-2.84,2.52-2.44,2.66-2.66.71-1.11-1.87-6.37,2.67-5.34Z"/>
  <path class="cls-11" d="M643.98,9.97c5.36-3.71,11.51-1.55,17.34-1.33,1.05,5.11-7.76,1.79-10.67,2.66-2.07-.34-5.44-1.2-6.67-1.33Z"/>
  <path class="cls-22" d="M766.64,83.35c-3.38,2.96-10.68-4.29-8-8.01,3.51,2.88,5.09,4.65,8,8.01Z"/>
  <path class="cls-22" d="M770.64,87.36l-2.67-2.67c.6.74,1.5,1.03,2.67,2.67Z"/>
  <path class="cls-22" d="M615.98,215.45v18.68s5.34-1.35,5.34-1.35c1.27-3.53-2.4-2.19-2.69-3.5-1.43-6.49,2.35-3.54,6.69-5.83-.42,3.88-1.62,9.46-2.67,13.34v1.33c-1.09-.4-.89-2.68-2-2.69s-.84,2.13-2,2.69l-.68-2.68-1.98.02c-.09.87.11,1.8,0,2.66-.08.61.21,2.51,0,2.67-.96.72-13.71-.49-16.76-.1-2.55.32-1.27,2.56-3.82,2.88-5.6.71-13.38-.28-19.42-.11l-.68-2.68c-2.46-.42-2.12.41-1.99,2.68-5.26.17-10.8-.4-16,0,.74-4.03-2.04-2.58-4.61-2.67-6.44-.21-12.96.02-19.39,0-40.66-.14-82.94,1.6-123.38,0-2.57-.1-5.35,1.37-4.61-2.67,42.44.05,92.59,3.25,134.05.05,2.29-.18,5.2-.5,7.27-1.39l66.67,1.34c.34-5.4-.57-11.26.1-16.59.39-3.12,2.15-4.58,2.56-6.1Z"/>
  <path class="cls-22" d="M863.96,238.14c2.69.02,15.35-.45,16,.01.17.12-1.08,3.47-1.33,3.99-1.29,2.67-4.25,7.47-6.67,9.34.28-1.59-.19-3.64,0-5.34,3.96.49,2.54,3.27,2.67-5.34-78.15,1.17-156.52-1.54-234.65,0-2.22.04-11.43-.37-12,0l-1.33-2.67c79.08.4,158.24-.54,237.31,0Z"/>
  <path class="cls-16" d="M863.96,238.14c-79.08-.54-158.24.4-237.31,0-1.17-.23-3.1.33-4,0v-1.33l241.31,1.33Z"/>
  <path class="cls-22" d="M626.65,211.45c-.37.93.8,4.51-1.33,4-.23-.06-3.31-3.16,0,1.33-.03.89.04,1.78,0,2.67-5.48-.43-6.42-10.71,1.33-8.01Z"/>
  <path class="cls-2" d="M625.31,215.45v1.33c-3.31-4.49-.23-1.39,0-1.33Z"/>
  <path class="cls-3" d="M765.3,155.41c3.8-5.03,2.25,10.25,2.67,10.68,1.76,1.76,8.4-4.01,8,.68-.36,4.18-5.49,3.97-6.97,4.71-1.83.91-.06,3.57-3.7,2.62.61-3.04-.83-17.58,0-18.68Z"/>
  <path class="cls-25" d="M754.64,142.06c-9-.8-19.45,1.71-28-1.33,9.18-.57,19.28-.5,28,1.33Z"/>
  <path class="cls-25" d="M789.3,331.54c.05,1.78-.06,3.57,0,5.34l149.33,1.33c-48.27-3.87-102.73,1.59-151.99,0-.44-.01-.89.02-1.33,0l2.67-6.67h1.33Z"/>
  <path class="cls-6" d="M811.97,288.84c-.79,2.98-2.49,5.4-4,8.01-5.73,9.89-12.42,18.41-16,29.36-1,.67-1.79,1.83-2.67,2.67.34-5.43,3-10.42,2.82-14.06-.07-1.32-5.32-4.87-2.81-9.95,4.98-1.04,1.7,4.43,2.66,5.34.19.18,5.12.17,5.31-.02.4-.42-.57-3.56.29-5.04.54-.93,4.02-1.02,4.88-3.9.98-3.29-1.53-6.52-.89-8.13,1.11-2.8,7.58-4.07,10.41-4.28Z"/>
  <path class="cls-15" d="M887.96,231.46c1.33.06,2.68-.06,4,.02l-1.33,1.32-2.67-1.33Z"/>
  <path class="cls-17" d="M635.31,228.8c.87.44.87.89,0,1.33v-1.33Z"/>
  <path class="cls-17" d="M639.31,228.8c.87.44.87.89,0,1.33v-1.33Z"/>
  <path class="cls-11" d="M637.31,459.64c-2.04-1.8,1.77-4.59,3.99-.66-.05,1.17-3.84.79-3.99.66Z"/>
  <path class="cls-1" d="M32.03,406.26c.63.02,2.28,1.89,2.66,1.34.19-.28-.32-7.45,2.67-4.01.22.25.13,5.4,0,6.67-.04.45.09.93,0,1.33l-3.99-1.33,1.33,5.33c-.23.5-1.12.9-1.33,1.33-9.69.44-1.59-5.52-1.37-6.31.42-1.46-.19-3.13.03-4.37Z"/>
  <path class="cls-6" d="M871.96,246.14c-.19,1.7.28,3.75,0,5.34-.58,3.22-2.61,7.59-4,10.67-.2.43-1.11.84-1.33,1.33-.43.94-1.88,2.05-2.67,4-.16.4.17.99,0,1.33l-10.67,14.68c0-6.69-2.05-8.26,5.33-8.67l-6.65-7.34c5.32-.57,11.01,2.55,9.27-4.39-.58-2.32-7.53-2.48-5.28-10.75.39-1.42,2.01-.66,2.67-.88,3.59-1.19,6.33-.21,5.33-5.34,2.47-.06,5.66-.29,8,0Z"/>
  <path class="cls-6" d="M853.3,284.84v1.33c-.21.02-1.97,1.13-4,1.33-.62-3.57.85-2.72,4-2.67Z"/>
  <path class="cls-1" d="M27.36,416.94c.87.44.87.89,0,1.33v-1.33Z"/>
  <path class="cls-21" d="M866.63,263.49c.06,3.16.9,4.63-2.67,4,.78-1.95,2.24-3.06,2.67-4Z"/>
  <path class="cls-19" d="M266.68,251.48l4,4c-.34.86.27,2.85,0,4-.18.79.19,1.9,0,2.67-.43,1.71-.73,3.77-1.33,5.34-5.14,13.27-20.47,35.07-28.3,48.41-1.21,2.06-2.81,3.51-2.37,6.3-.8.15-2.4-.26-2.66,0s.14,1.87,0,2.67c-2.65-.35-3.84,1.85-5.33,2.67-2.54,1.4-5.16,2.58-7.98,3.36-16.48,4.58-104.35,3.73-122.68.64,2.57.66,3.55-2.42,4-2.67,13.49-7.31,14.77-2.75,22.66-18.68,1.49-3.01,2.82-3.72,4-8.01,1.91-6.97,1.72-2.13,4.1-4.84,1.03-1.18,10.13-17.24,11.69-20.06,3.2-5.79,4.98-12.32,9.31-17.34l-5.09-9.8v-1.33c36.47,3.01,80.98-5.21,115.99,2.67ZM164.02,314.19c1.27,1.23,30.34,0,35.33,0,1.78,0,7.73-3.59,9.28-5.39,1.75-2.03,19.15-31.06,20-33.36,1.35-3.67,1.71-7.12-2.61-7.95-4.98-.96-27.85-.75-33.41-.08-1.47.18-2.92,0-3.94,1.39l-23.6,40.43c-.75,1.02-1.55,4.47-1.05,4.96Z"/>
  <path class="cls-19" d="M635.98,255.48h2.67c29.07,0,58.17-.07,87.25.08,5.82,1.35,8.47,6.19,8.74,11.93-4.04,2.64-2.58,4.46-4,6.67-8.63,13.5-15.22,28.54-33.21,30.82l6.55,27.89h-34.66c-1.34,0-3.2-22.49-4.93-26.39-.76-1.72-.35-1.5-2.35-1.71-3.33-.36-21.52-.35-23.37.76l-16.67,27.35h-32.66c4.01-13.46,17.94-26.77,21.33-40.03,1.94-.56,2.56-2.07,2.67-4v-1.33c2.65-.22,11.51-16.9,13.63-20.44,1.02-1.71.7-4.37,1.03-4.91,1.49-2.42,6.55-5.37,8-6.67ZM647.98,287.51c1.39,1.3,32.7,0,38,0,1.47,0,9.63-10.21,8.07-13.32-.23-.46-2.55-2.7-2.74-2.7h-35.33c.37,3.52-9.35,14.75-8,16.01Z"/>
  <path class="cls-7" d="M586.65,375.57c1.82-3.06,11.25-19.22,12.9-19.78,1.81-.62,11.88-1.62,14.39-1.65,7.16-.07,13.94,2.26,21.17,1.35l13.89,39.73,2.96,1.7,23.35-41.36h31.33c-10.94,22.76-25.57,43.67-37.63,65.78-1.53,2.81-3.49,7.22-5.03,10.28-.64,1.28-1.19,2.55-1.33,4-3.36,1.38-5.92,6.19-4,9.34h-1.33c-.9-4.64-22.89-16.54-28-20.02-.45-.3-.81-.97-1.33-1.33-.41-.28-.82-.93-1.33-1.33l-2.67-5.34c-.35-7.72-6.4-20.05-9.33-28.02-.51-1.37,1.22-3.34-1.99-2.68-1.48.31-.28,1.99-.68,2.68-2.15,3.7-3.7,7.71-5.33,10.67-.56,1.01-3.01,2.22-5.33,8.01-.37.91-.99,1.75-1.33,2.67-1.91.58-2.65,2.06-2.67,4-4.24,3.84-7.16,14.68-8,14.68h-32c1.3-3.47,3.58-8.93,5.33-12.01,7.63-13.4,15.99-27.93,24-41.36Z"/>
  <path class="cls-7" d="M393.33,264.82c3.77-4.49,14.81-8.7,20.68-9.32l94.71-.11c3.01-.36,1.53,1.85,1.93,2.76-1.46.42-1.01,2.2-1.33,2.67-2.24,3.2-2.18,3.29-4,6.67-.34.64-3.25,1.53-2.67,4-11.64-.82-67.53-1.59-75.2,1.49-1.56.63-1.98,2.43-2.12,2.52-.35.2-1.05-.21-1.33,0-.41.3-1.34-.23-2.67,1.33-4.01,4.71-.78,3.19,1.33,4,.42.16,1.22-.2,1.33,0,1.03,1.74-2.06,2.21,2.67,2.67,8.12.79,47.06,1.51,53.33,0-1.03,3.97,2.52,1.75,4.1,3.51.29.33,2.23,4.85,2.56,5.83.72,2.14,1.16,4.41,1.33,6.67-5.75,1.03-9.95,13.98-13.33,18.68-6.53,9.07-13.58,13.33-24.83,14.51-26.64,2.81-62.16.16-89.83.16h-2.67c-.11-.1-2.52-1.3-2.67-1.33l8-16.01h75.33c5.4,0,15.22-14.68,6.67-14.68h-54.66c-3.39,0-9.97-5.92-10.08-9.95s10.52-22.63,13.42-26.08Z"/>
  <path class="cls-20" d="M509.32,268.83c.25-.39,1.72-.94,2.47-2.15,1.92-3.08,2.98-7.85,5.81-10.9l106.98-.38c1.68.44.3,3.26.73,4.08l-8.67,12.01h-74.66l-5.99,12,70.08-.11c2.57-.44,1.74,2.66,1.9,2.78-3.44,3.01-7.49,13.96-11.33,14.68l-70.45.22c-2.46.84-8.1,11.21-7.55,14.46h71.99l-8.89,17.4-93.01-.14c-6.38-1.48-9.38-3.5-8.75-10.59.49-5.55,5.83-10.36,8.29-15.08,1.47-2.82,1.92-4.47,3.71-7.6,2.5-4.38,4.98-7.43,6.67-12.01.38-1.03,1.95-2.13,1.33-4,1.91-1.53,2.64-3.49,4-5.34,1.28-1.74,1.64-2.45,2.67-4,.2-.31-.2-1.02,0-1.33.83-1.3,1.76-2.56,2.67-4Z"/>
  <path class="cls-20" d="M392,255.48h1.33c-1.01,3.84-1.56,4.59-4,8.01-1.61,2.26-5.29,4.17-5.33,8.01h-75.33c-.75,0-7.28,9.65-6,12.01h70.66c-1.24,3.72-7.19,16.15-10.25,17.08l-71.52.21-7.56,14.73h71.99c-1.46,5.37-6.31,10.27-8,16.01-24.8,1.42-67.4,4.58-91.2,1.21-9.46-1.34-12.22-7.12-8.79-15.89,2.29-.21,21.39-34.25,24.24-39.11,1.69-2.89,2.22-6.32,3.75-8.92,2.55-4.33,6.71-8.56,8.89-13.4l107.1.06Z"/>
  <path class="cls-20" d="M581.32,372.9c-4.61,10.16-15.37,27.5-21.33,38.7-5.18,9.73-13.54,12.46-22.97,16.12-1.18.46-1.06,2.53-1.81,2.56-1.41.06-4.01-1.38-6.49-1.41-19.71-.22-39.71-.44-59.39.07-.89.02-1.78-.03-2.67,0-3.14.09-9.77-.67-12,0-.4-1.28-1.52-1.27-2.67-1.33-.88-.05-1.78,0-2.67,0l-1.33-1.33c.07-3.7-.38-7.01.62-10.72,1.29-4.77,26.01-45.42,30.07-49.96,6.45-7.24,16.43-10.59,25.92-11.42,15.95-1.38,50.99-1.69,66.56.2,11.65,1.42,14.9,8.05,10.15,18.53ZM485.33,412.93c1.29,1.3,31.66,0,36.66,0,1.23,0,5.52-4.04,6.59-5.41,2.37-3.04,17.92-30.43,18.08-32.74.1-1.56-.65-4.55-2.01-4.55h-33.33c-.76,0-4.44,3.03-5.38,3.95-3.17,3.1-17.14,26.79-19.15,31.54-.66,1.57-2.42,6.25-1.47,7.2Z"/>
  <path class="cls-7" d="M170.69,428.95c-11.93-1.61-25.31,1.73-37.32-.66l60.62-59.42c9.05-5.81,10.98-13.6,22.65-14.69,20.37-1.92,42.7,3.36,63.39,1.38,1.58,1.61-4.25,19.22-5.34,22.69-.55,1.74-1.87,4.08-2.67,6.67-.86,2.81-2.32,3.57-2.67,8.01-2.29,1.22-1.98,3.48-2.67,5.34-.98,2.65-1.7,5.4-2.67,8.01-1.3,3.53-2.68,7.13-4,10.67-.27.72-.93,1.58-1.33,2.67-.98,2.64-2.32,5.15-2.67,8.01-.52.11-1.37,1.21-3.22,1.39-3.49.35-28.9.83-30.11-.07-.93-.69,4.41-10.13,5-11.71s.03-3.45.33-4.29c1.72-4.91,7.43-6.5-2.67-6.67-7.05-.12-27.08-1.3-32.39.27-1.82.54-6.76,6.99-8.94,9.07-1.45,1.37-2.62,2.6-4,4-2.19,2.23-4.35,4.58-6.67,6.67-.85.77-2.32,1.07-2.67,2.67ZM210.68,388.92h28l4-18.67c-16.08-3.68-22.37,8.65-31.99,18.67Z"/>
  <path class="cls-3" d="M753.3,358.23h84c1.63,5.37-4.19,5.09-2.67,10.67-.25.34.15,1.88-.58,2.71l-2.76,1.29-66,.66c-2.99,1.46-21.48,33.44-21.32,39.37h32.66c.72,0,6.89-8.66,7.31-10.03,1.29-4.18-10.8-.84-11.97-1.98-1.32-1.28,5.31-12,5.99-12h43.33l-1.05,4.96-22.51,36.19c-23.98-1.21-50.86,2.37-74.49.27-28.78-2.55-8.68-24.13-1.2-37.38,1.03-1.82,1.28-4.27,1.92-5.37.26-.45,1.02-.82,1.33-1.33,2.46-4.04,5.41-8.02,8-12.01,4.85.46,7.33-9.86,8.28-10.43s9.36-2.65,10.12-3.2c.7-.5.12-2.24.26-2.38.19-.18.89.11,1.33,0Z"/>
  <path class="cls-3" d="M854.63,355.56c1.3-.15,2.68.07,4,0,12.08-.61,25.13-.03,37.33,0,1.33,0,2.67-.02,4,0,9.5.11,40.38-2.32,45.95,4.04,1.08,1.23,1.9,3.08,2,4.72.36,5.89-15.57,31.61-20.84,35.06-15.08,9.87-52.94,4.64-70.95,4.37l-15.49,26.54h-30l41.22-73.9c.59-1.4,1.77-.71,2.77-.82ZM866.63,388.92c1.37,1.17,1.12,1.18,3.22,1.39,7.15.72,25.23.9,32.16.03,2.87-.36,3.71-3.7,4.62-5.42s7.24-13.34,2-13.34h-33.33c-.88,0-8.17,13.07-8.96,15.12-.86,2.24-1.34.85.29,2.23Z"/>
  <path class="cls-26" d="M68.03,391.58c7.14-10.16,13.28-25.19,20.2-33.82.84-1.05,3.48-3.54,4.47-3.54h100.66c-.76,3.8-7.31,16.2-10.26,17.09l-70.18.2-6.23,12.06h62.66c.58,2.33-.96,2.67-1.99,4.01-3.17,4.15-11.24,12.1-16.32,13.02-16.16,2.92-38.6-1.48-55.45.26l-15.54,27.42c-2.13,1.3-22.49.9-26.68.65-3.06-.18-5.83,1.28-5.36-2.02.25-1.75,3.99-6.06,5.36-8.66,1.88-3.56,3.16-7.56,4.79-10.62.99-1.87,3.47.4,3.21-5.39,2.05-.64,2.52-1.98,2.67-4,.05-.67.1-2.57,0-2.67,3.99.5,3.15-2.8,4-4Z"/>
  <path class="cls-23" d="M352,415.6c.86-4.33,25.45-45.81,29.29-50.08,3.19-3.54,7.55-6.41,12.08-7.93,15.16-5.09,68.42-5.1,84.59-1.99,1.31.25,2.81-.78,2.01,1.93-.75,2.5-8.83,13.19-11.56,13.72-12.16,2.37-51.04-2.73-58.27,1.79-6.08,3.8-15.75,29.1-21.89,35.51-1.08,1.44.88,4.38,1.75,4.38h52.66c-.21,2.24-7.78,17.3-8.76,17.38-1.08.09-5.03-1.4-7.84-1.44-19.54-.25-39.24-.23-58.78,0-2.52.03-5.05,1.46-6.5,1.43-.86-.02-.76-2.03-1.72-2.67-3.9-2.61-6.23-1.62-7.04-8.03-.13-1.02-.19-3.07,0-4Z"/>
  <path class="cls-19" d="M737.31,266.16c.51-1.03,6.69-10.67,7.33-10.67h105.99l-8.78,16.09c-11.71,1.74-25.37-2.4-36.54,1.25-1.38.45-1.61.71-2.67,1.33-4.58,2.71-4.74,6.36-6.67,9.34-3.69,5.72-5.2,9.8-8,14.68-5.08,8.87-9.79,17.89-14.67,26.69-.15.27-3.42-.5-4,4-.11.82-.03,1.82,0,2.67-.64.14-1.24.71-1.33,1.33-8.57,1.95-18.09-.41-27.4-.08-1.84.07-6.99,1.67-7.25,1.41-2.73-2.75,32.49-53.78,31.99-60.04l1.32-2.66h-2.66c-1.21-.71-25.28-.46-28,0,1.43-1.36.85-4.35,1.33-5.34Z"/>
  <path class="cls-6" d="M393.33,264.82c-2.9,3.45-13.53,22.19-13.42,26.08s6.69,9.95,10.08,9.95h54.66c8.55,0-1.26,14.68-6.67,14.68h-75.33l-8,16.01c-1.5-.33-4.88-.1-6.67,0,1.69-5.74,6.54-10.64,8-16.01h-71.99l7.56-14.73,71.52-.21c3.06-.93,9.01-13.36,10.25-17.08h-70.66c-1.28-2.36,5.25-12.01,6-12.01h75.33c.04-3.84,3.72-5.75,5.33-8.01l4,1.33Z"/>
  <path class="cls-23" d="M277.34,395.59c1.93-3.36,6.05-8.58,7.92-11.78,3.15-5.38,12.47-24.91,16.1-27.56,7.01-5.12,23.35.1,31.96-2.02.32,2.32-.15,4.16-1.03,6.29-5.44,13.15-18.72,30.15-25.85,43.51-.8,1.49-4.6,8.15-3.76,8.9,1.61,1.45,37.19-.2,43.38,0,2.56.09,5.35-1.36,4.61,2.67-3.8.1-5.77,4.72-6.67,8.01-1.42,1.65-2.84,3.51-4,5.34h-2.67c-21.97,0-43.98.03-65.97-.03-5.72-1.09-5.5-7.82-7.36-11.98,3.91-1.64,4.03-5.2,5.33-8.01,1.38-2.98,1.59-3.07,2.67-6.67,4.79.21,4.05-4.43,5.33-6.67Z"/>
  <path class="cls-6" d="M627.98,262.15c-.33.54-.01,3.2-1.03,4.91-2.12,3.54-10.98,20.23-13.63,20.44-.27.02-5.12-1.16-5.33-1.33-.16-.13.66-3.23-1.9-2.78l-70.08.11,5.99-12h74.66l8.67-12.01c.19.37,2.52,1.31,2.67,2.67Z"/>
  <path class="cls-8" d="M352,234.13c.24,0,1.37,1.43,4.58,1.41,63.8-.42,127.62.17,191.4-.07-.23.09-.64,1.03-1.33,1.33-2.07.89-4.98,1.21-7.27,1.39-41.46,3.2-91.61,0-134.05-.05-3.99,0-8.01,0-12,0-3.11,0-6.22,0-9.33,0-4.43,0-8.9.01-13.33,0-4.88-.01-9.79.02-14.67,0-5.76-.03-11.57.06-17.33,0,2.46-2.71,9.63-3.96,13.33-4Z"/>
  <path class="cls-6" d="M276.01,268.83c-1.53,2.6-2.06,6.04-3.75,8.92-2.85,4.87-21.95,38.9-24.24,39.11-.62.06-2.44-2.07-4.04-.75-1.96,1.61-.84,5.42-1.37,6.03-.39.47-2.86-.14-3.93.06-.44-2.79,1.16-4.23,2.37-6.3,7.83-13.34,23.16-35.14,28.3-48.41,2.14.08,5.53-.83,6.67,1.33Z"/>
  <path class="cls-14" d="M586.65,375.57c-8,13.44-16.36,27.96-24,41.36.55-2.76-.24-4.13-2.67-5.34,5.96-11.19,16.72-28.53,21.33-38.7l5.33,2.67Z"/>
  <path class="cls-24" d="M469.99,443.62c-4.21-.74-9.99-6.4-2.58-5.4,3.02.41,1.72,2.73,1.92,2.73h106.66c.13,0,.13,2.67,0,2.67h-105.99Z"/>
  <path class="cls-8" d="M762.64,355.56c7.72-.49,16.16.06,24,0,7.2-.05,53.74-1.65,56,.01.77.57-7.16,12.16-8,13.33-1.51-5.58,4.3-5.3,2.67-10.67h-84c2.42-2.63,6.1-2.47,9.33-2.67Z"/>
  <path class="cls-6" d="M513.32,243.47c.7.61-.52,3.58-2.18,3.7-19.36-3.32-42.25,1.38-61.17-1.03-2.43-.31-2.15.45-1.98-2.67h65.33Z"/>
  <path class="cls-24" d="M725.31,386.25c-1.95-6.61,2.2-6.17,2.61-6.72,2.13-2.87-2.31-2.55-2.45-2.72-2.5-3.04,3.56-2.73,4.84-4.26,1.04-1.24,4.12-5.26,5.23-6.75s2.18-6.6,3.38-7.29c1.94-1.12,6.94.32,7.72-.29,2.86-2.22-5.49-3.08-2.65-5.32,3.37-2.66,5.83,2.62,6.2,2.7,4.61.96,9.59-6.17,12.46-.04-3.24.21-6.91.05-9.33,2.67-.44.11-1.14-.18-1.33,0-8.18.71-13.51,5.91-17.66,12.42-.76,1.19-.64,3.02-1.01,3.59-2.59,3.99-5.54,7.97-8,12.01Z"/>
  <path class="cls-6" d="M491.99,299.52c-1.79,3.13-2.24,4.78-3.71,7.6-2.46,4.72-7.8,9.54-8.29,15.08-3.17.83-2.8-2.92-5.33-4,3.39-4.7,7.58-17.65,13.33-18.68,1.2-.22,2.72.14,4,0Z"/>
  <path class="cls-6" d="M192.02,238.14c.1.09.13,2.67,0,2.67h-42.66c-.13,0-.13-2.67,0-2.67,5.83,0,41.07-1.42,42.66,0Z"/>
  <path class="cls-6" d="M795.97,283.5c4.09,3.52-2.43,4.73-1.32,5.32.43.23,2.32-.52,2.69.88.3,1.15.42,12.07-.04,12.49-3.31,3.07-6.31-4.07-9.33-4.01,2.8-4.88,4.31-8.96,8-14.68Z"/>
  <path class="cls-6" d="M53.36,418.27c-1.37,2.59-5.1,6.91-5.36,8.66-.48,3.3,2.3,1.83,5.36,2.02-.44,7.1-6.46,1.71-10.67,0,.48-1.64-.34-4.72,0-6.67.87-1.07.32-3.13,2.36-4,2.06-.87,6.05-.73,8.31,0Z"/>
  <path class="cls-6" d="M410.67,243.47c.1.09.13,2.67,0,2.67h-37.33c-.13,0-.13-2.67,0-2.67,5.2,0,35.93-1.24,37.33,0Z"/>
  <path class="cls-24" d="M858.63,355.56c10.49-3.06,21.86-3.03,32.72-2.67,2.57.08,5.35-1.36,4.61,2.67-12.2-.03-25.25-.61-37.33,0Z"/>
  <path class="cls-6" d="M221.35,222.12l11.92-3.39c1.87-2.27,7.3-4.14,9.41-1.93,3.66,3.84-7.55,2.3-7.99,2.66-2.85,2.33,5.39,2.93,2.65,5.32-2.97,2.6-6.98-6.96-7.99,0-2.19-.3-5.14.56-7.11.03-1.49-.41-.75-2.57-.89-2.7Z"/>
  <path class="cls-6" d="M533.32,240.8c6.43.02,12.95-.22,19.39,0,2.57.09,5.35-1.36,4.61,2.67-2.99.23-7.9,2.83-9.9,2.71-.78-.04-.62-2.44-1.66-2.7-2.24-.55-7.06-.1-9.77-.01-.88.03-1.79-.07-2.67,0v2.67c-5.17.59-7.17-2.12,0-2.67v-2.67Z"/>
  <path class="cls-6" d="M125.36,299.52c0-11.48,4.63-2.74,2.66,0-.22.3-2.08-.22-2.66,0,0,8.63.45,5.14,5.33,2.67-1.18,4.29-2.51,5-4,8.01-7.97.75-10.13.5-6.15-7.54.95-1.92,3.24-2.53,4.82-3.14Z"/>
  <path class="cls-24" d="M214.68,416.95l-4.01,3.34c-.63,1.79,6.4,5.13,4,7.32-.25.22-6.43.24-6.65,0-.37-.43.42-3.06-.06-4.3s-2.31-1.02-2.58-1.93c-2.02-6.8,4.22-4,9.29-4.41Z"/>
  <path class="cls-14" d="M269.34,408.93c-1.3,2.8-1.43,6.37-5.33,8.01-.82.34-2.86-.23-4,0,1.32-3.55,2.7-7.14,4-10.67l5.33,2.67Z"/>
  <path class="cls-6" d="M64.02,344.89c2.41,1.85-1.8,2.97-2.5,3.45-5.37,3.7-9.18,6.71-12.16-.13,3.38.34,12.3-5.13,14.65-3.32Z"/>
  <path class="cls-9" d="M42.7,422.27c-.34,1.95.48,5.03,0,6.67-.04.15-1.56.51-1.93,1.47-2.36,6.07-1.49,3.09-3.4,5.2h-2.67c-.85-7.28,3.33-5.47,4.92-8.4.78-1.44-.02-3.74.67-4.69.51-.71,2.29-.1,2.41-.25Z"/>
  <path class="cls-24" d="M787.97,331.54l-2.67,6.67c-6.95-.37-7.26,2.08-6.67-6.68h9.34Z"/>
  <path class="cls-6" d="M208.02,230.13c1.23.02,5.14-.21,5.34,0,1.36,1.47.89,6.87-4.43,5.29-2.17-.64-.63-2.47-8.91-2.63-1.21-4.05,4.33-2.74,8-2.67Z"/>
  <path class="cls-6" d="M639.98,240.8c.99,4.22-3.11,2.41-6.67,2.67-3.03.22-4.62-1.2-4,2.67-1.71-.22-3.6.17-5.33,0v-2.67c6.27-.51,3.21-2.15,4-2.67.57-.37,9.77.04,12,0Z"/>
  <path class="cls-6" d="M370.67,238.14v1.33c-7.77-.08-8.52,7.1-13.33,1.33-.55-.66-.81-1.89-1.33-2.67,4.88.02,9.79-.01,14.67,0Z"/>
  <path class="cls-6" d="M207.65,238.57c.35.16.35,1.65.75,1.82,2.6,1.12,5.8-1.17,4.95,3.08-2.68-.26-5.83.54-8.37-.04-.82-.19-.91-1.51-1.11-1.6-2.22-1.01-7.56-2.82-1.83-3.7,1.76-.27,3.96-.33,5.62.44Z"/>
  <path class="cls-14" d="M258.68,419.61c2.77-2.04,4.36,6.16,4.01,6.65-.31.43-5.38,1.07-6.68,1.35.35-2.86,1.69-5.37,2.67-8.01Z"/>
  <path class="cls-22" d="M384,238.14v2.67c-4.91.1-10.25-1.3-13.33-1.33v-1.33c4.43.01,8.9,0,13.33,0Z"/>
  <path class="cls-6" d="M104.02,328.87c-.45.25-1.43,3.33-4,2.67-2.56-.43-6.82,1.2-8-2.66h12Z"/>
  <path class="cls-6" d="M735.97,271.49c-.41.07-3.22,3.35-5.33,2.67,1.41-2.21-.04-4.04,4-6.67.82-.54,1.82-.84,2.67-1.33-.49.99.1,3.98-1.33,5.34Z"/>
  <path class="cls-14" d="M606.65,399.59c7.47.92.59,2.59-.71,3.95-1.75,1.82-1.56,4.83-4.62,4.06,2.32-5.78,4.78-7,5.33-8.01Z"/>
  <path class="cls-22" d="M234.67,240.81c4.26,3.24-9.84,3.27-10.65,2.65-4.26-3.24,9.84-3.27,10.65-2.65Z"/>
  <path class="cls-14" d="M225.35,406.26c10.1.18,4.39,1.76,2.67,6.67-3.11-1.38-3.04-3.53-2.67-6.67Z"/>
  <path class="cls-14" d="M277.34,395.59c-1.29,2.24-.54,6.88-5.33,6.67,1.09-3.68-.47-7.85,5.33-6.67Z"/>
  <path class="cls-6" d="M256,236.81c3.44,4.06-4.7,4.85-7.98,3.99-1.61-3.19,7.69-4.34,7.98-3.99Z"/>
  <path class="cls-6" d="M509.32,268.83c-.91,1.44-1.84,2.71-2.67,4-1.23-.68-2.58-1.23-4-1.33-.59-2.48,2.32-3.37,2.67-4l4,1.33Z"/>
  <path class="cls-6" d="M773.3,324.87c6.3-.78.02,7.7-4,4,.58-4.5,3.85-3.73,4-4Z"/>
  <path class="cls-6" d="M393.33,238.14c1.27,4.27-5.45,2.59-9.33,2.67v-2.67c3.11,0,6.22,0,9.33,0Z"/>
  <path class="cls-22" d="M863.96,246.14c1,5.13-1.74,4.15-5.33,5.34-.47-6.73-.3-5.19,5.33-5.34Z"/>
  <path class="cls-6" d="M607.98,243.48c4.24,3.77-12.23,3.77-7.99,0,.3-.27,7.69-.27,7.99,0Z"/>
  <path class="cls-6" d="M68.03,391.58c-.84,1.2,0,4.5-4,4-.26-.25-2.26.35-2.59-.05-2.27-2.78,4.11-3.96,6.59-3.95Z"/>
  <path class="cls-6" d="M349.33,243.48c4.24,3.77-12.23,3.77-7.99,0,.3-.27,7.69-.27,7.99,0Z"/>
  <path class="cls-14" d="M439.99,438.29c4.24,3.77-12.23,3.77-7.99,0,.3-.27,7.69-.27,7.99,0Z"/>
  <path class="cls-14" d="M350.67,415.6h1.33c-.19.93-.13,2.98,0,4-7.55-1.28-4.27,2-5.57,3.73-.58.77-2.29.11-2.43.27.89-3.29,2.86-7.9,6.67-8.01Z"/>
  <path class="cls-6" d="M266.68,251.48c2.55.57,7.87-1.52,6.66,2-.33.96-2.52,1.66-2.66,2.01l-4-4Z"/>
  <path class="cls-24" d="M658.65,444.96c3.29-6.11,10.34,2.84-.09,1.88-.82-.08-1.67-.69-2.59-.57.13-.63,1.37-1.21,1.35-1.3h1.33Z"/>
  <path class="cls-14" d="M274.68,378.24c2.25,2.11.91,7.56-2.67,6.67.8-2.59,2.12-4.93,2.67-6.67Z"/>
  <path class="cls-6" d="M845.3,288.84c-4.41.26-8.92-.18-13.33,0,2.7-2.22,10.38-2.28,13.33,0Z"/>
  <path class="cls-6" d="M326.67,243.48c4.17,3.69-10.83,3.69-6.65,0,.25-.22,6.4-.22,6.65,0Z"/>
  <path class="cls-6" d="M769.3,331.54c.02.58,2.82,4.93,1.33,6.67-2.65,3.08-2.95-3.34-2.66-5.33.09-.63.69-1.19,1.33-1.33Z"/>
  <path class="cls-22" d="M633.31,243.47c.67,7.06-1.65,2.98-4,2.67-.62-3.87.96-2.45,4-2.67Z"/>
  <path class="cls-6" d="M236.01,324.87c-.72,4.17,1.26,5.75-5.33,2.67,1.49-.82,2.68-3.02,5.33-2.67Z"/>
  <path class="cls-6" d="M198.68,232.8c-1.05,3.35-3.99,2.49-6.67,2.67-1.01-4.14,3.09-2.51,6.67-2.67Z"/>
  <path class="cls-14" d="M266.68,398.26c.69-1.86.38-4.12,2.67-5.34-.1,1.28,3.83,4.87-2.67,5.34Z"/>
  <path class="cls-24" d="M711.97,395.59c4.08,3.59-9.4,3.59-5.32,0,.2-.18,5.12-.18,5.32,0Z"/>
  <path class="cls-24" d="M727.97,363.57c.18.2.18,5.12,0,5.32-3.59,4.08-3.59-9.41,0-5.32Z"/>
  <path class="cls-22" d="M623.98,243.47v2.67c-1.73-.17-3.62.22-5.33,0v-2.67c1.74-.2,3.58.14,5.33,0Z"/>
  <path class="cls-14" d="M626.65,422.27c-.59-.47-3.23.1-3.88-2.14-.36-1.21,1.24-2.76,1.22-3.2l2.67,5.34Z"/>
  <path class="cls-14" d="M599.98,422.28c.18.2.18,5.12,0,5.32-3.59,4.08-3.59-9.41,0-5.32Z"/>
  <path class="cls-14" d="M663.98,431.61c5.09-1.39,1.7,4.66-.67,5.31-.77.21-.59-1.34-.66-1.31.15-1.45.69-2.72,1.33-4Z"/>
  <path class="cls-14" d="M454.66,428.95c-.37.11-2.63,4.55-6.66,2.65-2.27-1.07,6.13-.75,3.99-3.99,1.15.06,2.27.05,2.67,1.33Z"/>
  <path class="cls-6" d="M64.03,398.26c-.15,2.02-.61,3.36-2.67,4-.04-.87-3.52-3.45,2.67-4Z"/>
  <path class="cls-6" d="M150.69,250.15c-7.6,1.45-3.71-8.68,0-1.33v1.33Z"/>
  <path class="cls-14" d="M650.65,459.64c-4.36-1.03-2.12-3.37-1.33-5.34l1.33,5.34Z"/>
  <path class="cls-22" d="M302.67,238.14c3.96,3.46-7.95,3.46-3.99,0,.15-.13,3.84-.13,3.99,0Z"/>
  <path class="cls-14" d="M634.65,444.96v1.33c-1.35-.48-5.02.91-5.34-.68-.73-3.64,2.68-1.21,5.34-.65Z"/>
  <path class="cls-6" d="M245.34,243.48c3.96,3.46-7.95,3.46-3.99,0,.15-.13,3.84-.13,3.99,0Z"/>
  <path class="cls-14" d="M184.02,415.6c.46,4.21.2,4.5-4,4,1.38-1.4,2.55-2.63,4-4Z"/>
  <path class="cls-14" d="M173.35,426.28v4c-1.54.56-2.52-1.31-2.67-1.33.35-1.6,1.82-1.9,2.67-2.67Z"/>
  <path class="cls-14" d="M629.31,424.94c.72,4.37-2.1,2.75-2.66-.65l1.33-.68c.52.36.89,1.03,1.33,1.33Z"/>
  <path class="cls-14" d="M669.31,448.96c5.16-.53,3.2,5.04-1.33,1.33.45-.41.88-.9,1.33-1.33Z"/>
  <path class="cls-6" d="M613.32,288.84c-.1,1.93-.72,3.44-2.67,4,.63-2.46-1.66-4.74,2.67-4Z"/>
  <path class="cls-6" d="M510.66,258.15c1.42,3.23,2.89,5.47-1.33,2.67.33-.47-.13-2.25,1.33-2.67Z"/>
  <path class="cls-6" d="M44.03,352.88c-5.4,1.56-5.18-3.7-2.02-2.64.57.19,2.04,1.76,2.02,2.64Z"/>
  <path class="cls-14" d="M184.02,436.95c-.95,1.03,1.82.79-2.67,2.67v-4c.73.09,1.81,1.07,2.67,1.33Z"/>
  <path class="cls-14" d="M599.98,410.27c-.3.81.59,2.96-.2,3.82-.59.64-2.25-.01-2.47.18.02-1.95.75-3.42,2.67-4Z"/>
  <path class="cls-6" d="M805.3,272.83l-2.01,4-.66-2.66c1.05-.62,1.28-.88,2.67-1.33Z"/>
  <path class="cls-6" d="M615.98,238.14c.12-.86-.09-1.79,0-2.66l1.98-.02.68,2.68c-.53.25-1.87-.17-2.67,0Z"/>
  <path class="cls-14" d="M611.98,388.92c.4-.69-.8-2.37.68-2.68,3.21-.67,1.48,1.3,1.99,2.68h-2.67Z"/>
  <path class="cls-6" d="M618.65,243.47v2.67c-4.74-.62-4.53-2.15,0-2.67Z"/>
  <path class="cls-6" d="M270.68,259.49c2.27-.13,3.1-.48,2.67,1.99l-2.67.68c.19-.77-.18-1.88,0-2.67Z"/>
  <path class="cls-14" d="M618.64,416.94c1.45,1.46-1.2,4.11-2.65,2.65-1.45-1.46,1.2-4.11,2.65-2.65Z"/>
  <path class="cls-24" d="M685.3,416.94c1.45,1.46-1.2,4.11-2.65,2.65-1.45-1.46,1.2-4.11,2.65-2.65Z"/>
  <path class="cls-6" d="M392,255.48c-.13-2.27-.48-3.1,1.99-2.68,2.04.7-.6,2.47-.65,2.68h-1.33Z"/>
  <path class="cls-6" d="M635.98,255.48c.28-.25,1.14-7.74,2.67,0h-2.67Z"/>
  <path class="cls-22" d="M535.99,243.47c.38,3.66-.14,2.38-2.67,2.67v-2.67c.88-.07,1.78.03,2.67,0Z"/>
  <path class="cls-24" d="M733.3,358.23c1.45,1.46-1.2,4.11-2.65,2.65s1.2-4.11,2.65-2.65Z"/>
  <path class="cls-14" d="M469.33,428.95c.13,2.27.48,3.1-1.99,2.68l-.68-2.68c.89-.03,1.78.02,2.67,0Z"/>
  <path class="cls-14" d="M340,428.95c-.56.87-1.23,7.78-2.67,0h2.67Z"/>
  <path class="cls-6" d="M37.36,435.62c-.25.27-1.73,7.99-2.67,0h2.67Z"/>
  <path class="cls-24" d="M173.35,438.29c1.45,1.46-1.2,4.11-2.65,2.65s1.2-4.11,2.65-2.65Z"/>
  <path class="cls-6" d="M573.32,243.47c-.13-2.27-.48-3.1,1.99-2.68l.68,2.68c-.89.03-1.78-.03-2.67,0Z"/>
  <path class="cls-24" d="M781.29,339.55c1.45,1.46-1.2,4.11-2.65,2.65-1.45-1.46,1.2-4.11,2.65-2.65Z"/>
  <path class="cls-6" d="M763.97,271.49h2.66s-1.32,2.67-1.32,2.67c-.01-.15-1.2-2.59-1.33-2.67Z"/>
  <path class="cls-6" d="M360,332.87c-1.53,7.74-2.39.25-2.67,0h2.67Z"/>
  <path class="cls-24" d="M213.34,443.63c1.45,1.46-1.2,4.11-2.65,2.65-1.45-1.46,1.2-4.11,2.65-2.65Z"/>
  <path class="cls-14" d="M449.33,427.61c-.18,0-.44,1.33-.66,1.31-3.58-.35-.68-2.43-.68-2.65l1.33,1.33Z"/>
  <rect class="cls-6" x="45.38" y="432.96" width="1.31" height="2.66"/>
  <path class="cls-24" d="M188.68,428.95c.87.44.87.89,0,1.33v-1.33Z"/>
  <path class="cls-14" d="M611.32,398.26c.87.44.87.89,0,1.33v-1.33Z"/>
  <path class="cls-6" d="M735.31,338.21c.87.44.87.89,0,1.33v-1.33Z"/>
  <path class="cls-14" d="M132.69,431.61c.87.44.87.89,0,1.33v-1.33Z"/>
  <path class="cls-6" d="M265.34,232.8c.44,0,.89,0,1.33,0l-.67,1.31-.67-1.31Z"/>
  <path class="cls-6" d="M631.31,250.15c.87.44.87.89,0,1.33v-1.33Z"/>
  <path class="cls-6" d="M213.35,226.13h-1.33c.15-.07.13-1.26.66-1.26.4,0,.41,1.09.67,1.26Z"/>
  <path class="cls-14" d="M443.33,410.27c.87.44.87.89,0,1.33v-1.33Z"/>
  <path class="cls-6" d="M627.31,250.15c.87.44.87.89,0,1.33v-1.33Z"/>
  <path class="cls-4" d="M352,234.13c15.28-3.64,30.36-7.77,45.27-12.74,11.37-3.78,28.35-9.34,38.7-14.64,1.54-.79,3.69-1.23,4.02-3.3-12.86.03-25.35,3.92-38.01,5.31-16.13,1.77-33.14,3.21-49.33,4-3.55.17-8.63.44-12.01.02-1.84-.23-3.96-.79-1.98-2.66l121.31-47.4c.66-3.16-2.69-2.09-4.62-1.96-24.52,1.68-50.32,9.3-75.36,7.97l3.32-4.01,105.65-40.93c2.07-.7,5.18-6.41,1.02-5.78l-108.65,12.05,137.31-50.74c.83-3.81-1.88-2.71-4.71-2.71-8.08,0-18.48,2.4-26.63,2.71-15.23.58-30.06.51-45.26,1.4-2.95.17-12.02.48-7.4-2.07,70.15-22.87,136.53-56.9,212.72-51.41,19.85,1.43,52.71,12.06,68.61,24.07,10.62,8.02,7.12,11.26,12,18.68-1.4,1.68-2.24,3.15-2.67,5.34l-5.33,1.33c-.21-1.01-.31-1.13-1.33-1.33.46-2.97-.9-4.1-2.61-6.06-5.89-6.75-21.65-16.03-30.72-15.29-.47.04-1.05-.13-1.33,0-13.34-4.76-29.15-6.05-43.28-6.76-2.16-.11-6.05-.65-7.38,1.42-2.63-.08-5.38-.14-8,0-9.67.51-20.26,1.96-29.33,5.34-.44.05-.89-.05-1.33,0-7.1.77-11.09,3.03-17.33,5.34-.39.14-.95-.15-1.33,0-6.46,2.54-14.06,5.15-18.66,10.66,14.26-1.74,28.77-8.23,43.34-6.66,10.01,1.08,15.86,6.66,23.32,12.01,2.23,7.21,14.75,17.01,21.33,21.35,12.07,7.97,25.91,12.72,38.66,19.34-1.19,2.68-24.8,5.21-29.33,6.02-.27,3.49-.18,2.22,2.02,2.62,2.65.49,17.27,2.16,17.98,2.72,2.44,1.95-13.31,4.28-14.67,4.65-15.54,4.3-28.93,9.4-41.34,20-33.71,28.8-19.29,63.64-70.64,83.41-63.78.24-127.61-.35-191.4.07-3.21.02-4.34-1.41-4.58-1.41Z"/>
  <path class="cls-10" d="M382.67,112.71l25.1-13.55c2.47-8.28-4.93-4.25-11.03-5.2-10.65-1.68-22.17-8.76-32.98-10.75l-9.08-6.5c23.97-3.88,47.4-8.77,70.93-15.08,57.46-15.43,110.18-37.95,170.99-41.03,32.88-1.67,87.21,2.41,113.39,24.05,2.22,1.83,4.43,4.26,5.99,6.69-15.9-12.01-48.76-22.64-68.61-24.07-76.19-5.5-142.57,28.54-212.72,51.41-4.61,2.56,4.45,2.25,7.4,2.07,15.2-.9,30.03-.82,45.26-1.4,8.15-.31,18.55-2.72,26.63-2.71,2.84,0,5.54-1.1,4.71,2.71l-137.31,50.74,108.65-12.05c4.17-.63,1.06,5.08-1.02,5.78l-105.65,40.93-3.32,4.01c25.04,1.33,50.84-6.29,75.36-7.97,1.93-.13,5.28-1.2,4.62,1.96l-121.31,47.4c-1.98,1.87.13,2.42,1.98,2.66,3.37.43,8.46.16,12.01-.02,16.19-.8,33.2-2.23,49.33-4,12.66-1.39,25.15-5.28,38.01-5.31-.33,2.06-2.49,2.51-4.02,3.3-10.35,5.3-27.33,10.86-38.7,14.64-14.91,4.96-29.99,9.1-45.27,12.74-3.7.04-10.87,1.29-13.33,4-6.2-.07-12.45.06-18.66,0-.85-4.6,6.32-1.56,7.99-6-1.31-.89-4.66-1.46-6.22-1.49-26.14-.5-56.59-1.13-82.49-.56-1.11.02-14.23,3.13-9.94-1.26,1.24-1.27,11.75-3.98,14.27-5.08,37.27-16.27,74.04-36.64,110.6-58.15,1.04-.61,2.9-4.18,3.49-4.45,3.95-1.74,4.14,1.84,4.96-3.07,4.25,2.21,13.23-7.92,10.67-10.67-.48-.51-11.86-.08-14.07,0-2.56.08-5.35-1.36-4.61,2.67-2.66-.05-5.34.05-8,0,.74-4.04-2.04-2.57-4.61-2.67-6-.24-12.07.08-18.06,0-.44,0-.89,0-1.33,0,1.28-4.46-6.57-2.45-10.67-2.67-.01-3.72,3.15-1.94,2.67-5.34.43-.07.89.05,1.33,0,2.6-.28,5.09-.09,6.67-2.67.88-.06,1.79.08,2.67,0,15.54-1.43,29.13-9.91,43.1-15.56,5.36-2.17,10.91-3.31,14.23-8.46Z"/>
  <path class="cls-12" d="M633.31,48.66c1.7.05,6.73-1.1,6.66,1.32l-13.31,2.66c3.3,0,3.19,4.64,5.77,6.24,1.23.76,3.18.15,4.44.92,4.49,2.76,2.35,5.82,3.13,9.3.23,1.02,2.4.8,2.63,1.82.49,2.15-.46,4.33.41,6.78.19.53,7.55,7.59,8.03,7.9.3.19,5.63,2.86,5.96,2.98,2.54.87,11.64,2.97,13.95,2.56,5.92-1.05,16.03-5.31,21.88-8.24.45-.22.36-1.7,1.51-2.15,1.2-.48,3.8.35,4.24-.1s-.33-3.06.03-4.33c.41-1.46,2.47-.85,2.6-1.03,2.03-2.73-2.24-2.31-2.6-3.57s.38-3.93,0-4.37c-.23-.27-4.04.07-5.33,0-.23-.58.31-2.45,0-2.67-.51-.37-3.96.17-5.34,0-1.29-2.95.18-3.28-5.33-2.67-.26-.19-4.84-2.48-5.33-2.67,1.49-2.54-8.21-5-10.14-5.26s-4.02.12-5.86-.07c-.04-1.22-.58-2.37.8-2.7s6.37-.29,7.96-.08c.5.07,5.98,2.06,9.05,2.75,1.19.27.49,2.49,1.53,2.72,2.71.61,2.21-2.2,3.33-2.69.28-.13.86.04,1.33,0-.83,4.72,4.29,2.03,7.06,2.71,3.16.77,10.5,7.14,13.61,9.29,1.79,1.24,7.89,3.43,8.39,4.31.85,1.5-.15,4.45.29,5.03.3.39,2.99-.18,3.98.01s1.13.32,1.33,1.33-.34,3.7.01,3.99c.2.17,5.12.19,5.31.01.36-.33-.25-4.04,0-5.34.43-2.19,1.27-3.66,2.67-5.34,2.75,4.18,12.71,4.87,13.33,5.34.32.24-1.45,4.14,5.33,2.67-.92,3.07,7.37,5.18,5.33,7.99-.32.44-7.4.8-6.66,5.36-.44.03-.9-.05-1.33,0-4.67.52-13.18,2-16,5.34-.86.11-1.84-.14-2.67,0-3.64.64-3.75,2.6-4,2.67-.42.12-.94-.13-1.33,0-1.11.37-2.99-.18-5.18.76-2.72,1.16-15.06,7.15-13.3,9.76.13.19,2.11-.17,2.48,1.13s-.34,3.93.02,4.35c.24.28,4.03-.07,5.32.01.49,4.36,2.09,2.08,5.53,4.44s10.87,6.95,10.46,11.57c-7.08.25-8.04.77-14.31,2.37-40.33,10.3-83.57,38.68-95.01,81.69-.41,1.53-2.16,2.98-2.56,6.1-.67,5.33.24,11.19-.1,16.59l-66.67-1.34c.7-.3,1.11-1.25,1.33-1.33,51.36-19.77,36.93-54.61,70.64-83.41,12.41-10.6,25.8-15.7,41.34-20,1.36-.38,17.11-2.7,14.67-4.65-.71-.57-15.33-2.24-17.98-2.72-2.19-.4-2.29.87-2.02-2.62,4.53-.81,28.14-3.34,29.33-6.02-12.74-6.62-26.58-11.37-38.66-19.34,1.07-8.06-1.48-3.93-4.97-5.73-2.96-1.53-11.99-12.48-16.37-15.62-.34-1.09.42-2.89-.4-4.96-.14-.35-4.9-5.2-5.25-5.32-2.54-.91-4.78.12-6.81-.36-1.44-.34-.73-2.7-.87-2.7h-23.33c-3.49,0-7.65.58-10-1.33l11.03-1.4,6.3-5.27c.44-.05.89.05,1.33,0,8.74-.95,15.36-1.82,23.43-2.58,2.47-.23,4.81.24,5.9-2.76,2.62-.14,5.37-.08,8,0Z"/>
  <path class="cls-12" d="M577.32,60.67c-.49-.4-.93-.85-1.33-1.33.38-.15.94.14,1.33,0v1.33Z"/>
  <path class="cls-5" d="M382.67,112.71c-3.32,5.15-8.87,6.29-14.23,8.46-13.97,5.65-27.56,14.14-43.1,15.56,1.3-2.51,5.58-3.54,8.19-4.48,16.65-6.01,32.83-12.74,49.14-19.53Z"/>
  <path class="cls-5" d="M354.67,150.07c-.74-4.03,2.04-2.58,4.61-2.67,2.2-.07,13.59-.51,14.07,0,2.56,2.75-6.42,12.88-10.67,10.67.83-5.01,2.09-2.1,4.53-3.86,1.17-.85,1.17-3.77.81-4.14-.46-.48-11.16.03-13.34,0Z"/>
  <path class="cls-5" d="M324.01,147.4c5.99.08,12.06-.24,18.06,0,2.56.1,5.35-1.37,4.61,2.67-6.6-.12-18.11,2.1-22.66-2.67Z"/>
  <path class="cls-5" d="M314.67,139.4c.49,3.39-2.68,1.61-2.67,5.34,4.09.22,11.94-1.8,10.67,2.67-2.03-.04-10.24.33-10.67,0-.13-.1.01-1.89,0-2.66-1.71-.09-7.95.45-7.97-2-.04-3.81,8.6-3.02,10.64-3.34Z"/>
  <path class="cls-5" d="M322.67,136.73c-1.57,2.57-4.06,2.38-6.67,2.67,1.05-3.37,4-2.48,6.67-2.67Z"/>
  <path class="cls-21" d="M37.36,411.6c-.44,2.05-2.2,2.99-2.67,4l-1.33-5.33,3.99,1.33Z"/>
  <rect class="cls-18" x="842.64" y="359.57" width="2.65" height="1.31"/>
  <path class="cls-22" d="M719.97,99.37c1.1,4.83-4.11,1.6-5.26,2.79-.6.61.27,3.47-.08,3.89-.47.57-4.85-1.9-5.32-1.34-.34.41-.18,9.11,0,10.67,2.9.18,8.9,2.25,11.44,3.93.44.29,7.05,7.18,7.18,7.69,1.04,4.18.47,4.28-2.61,4.39.41-4.62-7.05-9.23-10.46-11.57s-5.04-.09-5.53-4.44c-1.29-.08-5.09.27-5.32-.01-.35-.42.36-3.03-.02-4.35s-2.35-.94-2.48-1.13c-1.76-2.61,10.58-8.6,13.3-9.76,2.2-.94,4.07-.39,5.18-.76Z"/>
  <path class="cls-22" d="M743.97,91.36c.83,4.75-4.33,2.01-7.08,2.7-1.91.48-2.35,1.8-8.91,2.64,2.81-3.33,11.33-4.81,16-5.34Z"/>
  <path class="cls-22" d="M725.31,96.7c.62,3.57-.85,2.72-4,2.67.25-.07.36-2.03,4-2.67Z"/>
  <path class="cls-18" d="M164.02,314.19c-.5-.49.29-3.94,1.05-4.96l23.6-40.43c1.02-1.38,2.47-1.22,3.94-1.39,5.55-.67,28.43-.88,33.41.08,4.33.83,3.97,4.29,2.61,7.95-.85,2.3-18.25,31.32-20,33.36-1.55,1.8-7.5,5.39-9.28,5.39-4.99,0-34.06,1.23-35.33,0Z"/>
  <path class="cls-6" d="M647.98,287.51c-1.35-1.27,8.36-12.49,8-16.01h35.33c.19,0,2.51,2.24,2.74,2.7,1.56,3.1-6.6,13.32-8.07,13.32-5.3,0-36.61,1.3-38,0Z"/>
  <path class="cls-18" d="M502.66,271.49c1.42.1,2.77.65,4,1.33-.2.32.2,1.02,0,1.33h-3.99s1.33,4,1.33,4c-1.36,1.85-2.09,3.8-4,5.34-.23.19-3.12-2.33-2.62,3.3l1.29.71c-1.69,4.58-4.17,7.63-6.67,12.01-1.28.14-2.8-.22-4,0-.17-2.26-.61-4.53-1.33-6.67,9.39.6.24-6.87-.95-8.47-1.29-1.73,1.02-4.17-2.37-3.52-1.21.23-2.77,2.51-3.35,2.65-6.27,1.51-45.21.79-53.33,0,.32-2.84.17-2.99-2.67-2.67-.12-.2-.92.16-1.33,0l-1.33-4c1.33-1.56,2.26-1.04,2.67-1.33-.09,1.74,2.51,2.05,2.66.66l-1.33-.66c.14-.08.56-1.89,2.12-2.52,7.68-3.08,63.56-2.31,75.2-1.49ZM477.99,280.83v1.33c.87-.44.87-.89,0-1.33Z"/>
  <path class="cls-6" d="M479.99,283.5c.58-.14,2.14-2.42,3.35-2.65,3.39-.65,1.08,1.79,2.37,3.52,1.19,1.6,10.34,9.07.95,8.47-.33-.98-2.27-5.5-2.56-5.83-1.58-1.76-5.14.46-4.1-3.51Z"/>
  <path class="cls-6" d="M422.66,280.83c-2.12-.81-5.34.71-1.33-4l1.33,4Z"/>
  <path class="cls-6" d="M424,280.83c2.83-.32,2.99-.17,2.67,2.67-4.72-.46-1.63-.93-2.67-2.67Z"/>
  <path class="cls-6" d="M425.33,275.5l1.33.66c-.15,1.38-2.75,1.07-2.66-.66.28-.21.99.2,1.33,0Z"/>
  <path class="cls-6" d="M499.99,283.5c.61,1.88-.95,2.97-1.33,4l-1.29-.71c-.49-5.62,2.39-3.11,2.62-3.3Z"/>
  <path class="cls-6" d="M506.66,274.16c-1.02,1.56-1.39,2.26-2.67,4l-1.33-4h3.99Z"/>
  <path class="cls-18" d="M485.33,412.93c-.95-.95.81-5.63,1.47-7.2,2-4.75,15.98-28.44,19.15-31.54.95-.93,4.62-3.95,5.38-3.95h33.33c1.35,0,2.11,2.99,2.01,4.55-.15,2.31-15.7,29.7-18.08,32.74-1.07,1.37-5.36,5.41-6.59,5.41-5,0-35.37,1.3-36.66,0Z"/>
  <path class="cls-6" d="M210.68,388.92c9.62-10.02,15.91-22.35,31.99-18.67l-4,18.67h-28Z"/>
  <path class="cls-8" d="M751.97,358.23c-.15.14.43,1.88-.26,2.38-.76.54-9.21,2.64-10.12,3.2s-3.43,10.89-8.28,10.43c.37-.58.25-2.4,1.01-3.59,4.15-6.51,9.48-11.7,17.66-12.42Z"/>
  <path class="cls-22" d="M906.62,384.91c-10.73,7.89-27.19,2.41-40,4-1.63-1.38-1.15.01-.29-2.23.78-2.05,8.08-15.12,8.96-15.12h33.33c5.24,0-1.06,11.56-2,13.34Z"/>
  <path class="cls-25" d="M906.62,384.91c-.91,1.72-1.74,5.06-4.62,5.42-6.93.88-25.01.69-32.16-.03-2.1-.21-1.85-.23-3.22-1.39,12.8-1.59,29.27,3.89,40-4Z"/>
  <path class="cls-5" d="M683.98,54c-1.12.5-.62,3.3-3.33,2.69-1.04-.23-.34-2.45-1.53-2.72-3.07-.69-8.54-2.68-9.05-2.75-1.59-.21-6.59-.24-7.96.08s-.83,1.47-.8,2.7c1.84.19,3.85-.2,5.86.07s11.62,2.73,10.14,5.26c-1.59-.6-7.79-2.02-10.11-2.6-4.18-1.04-5.75,2.15-5.89-2.74-4.23-.44-24.75-2.05-26.66.02-2.44,2.64,6.01,3.91,7.33,6.66,1.13,2.37.44,5.53,1.27,8.07,5.63,17.31,21.57,22.91,37.93,16.48,2.24-.88,13.35-7.18,14.12-8.54,2.59-4.59-.72-6.16-1.98-9.34-1.39-.08-3.15.41-4.4.01-1.49-.48-.69-2.13-.94-2.68-8.42-1.03-3.84-1.55-5.33-2.67,5.52-.62,4.04-.28,5.33,2.67,1.38.17,4.84-.37,5.34,0,.3.22-.24,2.09,0,2.67,1.29.08,5.1-.26,5.33,0,.37.44-.38,3.07,0,4.37s4.64.84,2.6,3.57c-.13.18-2.19-.43-2.6,1.03-.35,1.27.42,3.89-.03,4.33s-3.04-.38-4.24.1-1.06,1.93-1.51,2.15c-5.85,2.92-15.96,7.19-21.88,8.24-2.3.41-11.41-1.69-13.95-2.56-.34-.12-5.66-2.79-5.96-2.98-.47-.3-7.84-7.37-8.03-7.9-.87-2.44.08-4.63-.41-6.78-.23-1.02-2.4-.8-2.63-1.82-.79-3.48,1.36-6.55-3.13-9.3-1.25-.77-3.2-.16-4.44-.92-2.58-1.59-2.46-6.23-5.77-6.24l13.31-2.66c.07-2.42-4.96-1.27-6.66-1.32,1.32-2.07,5.22-1.53,7.38-1.42,14.13.71,29.95,2,43.28,6.76Z"/>
  <path class="cls-5" d="M594.65,54l-6.3,5.27-11.03,1.4v-1.33c6.24-2.31,10.24-4.57,17.33-5.34Z"/>
  <path class="cls-5" d="M575.99,59.34c.4.49.84.94,1.33,1.33,2.35,1.91,6.51,1.33,10,1.33h23.33c.14,0-.57,2.36.87,2.7,2.03.48,4.27-.55,6.81.36.35.13,5.11,4.98,5.25,5.32.82,2.07.07,3.87.4,4.96,4.38,3.14,13.4,14.09,16.37,15.62,3.48,1.8,6.03-2.33,4.97,5.73-6.58-4.34-19.11-14.14-21.33-21.35-7.47-5.36-13.31-10.94-23.32-12.01-14.57-1.57-29.08,4.92-43.34,6.66,4.61-5.51,12.2-8.12,18.66-10.66Z"/>
  <path class="cls-5" d="M718.64,75.35c-.99-.19-3.67.38-3.98-.01-.44-.57.56-3.53-.29-5.03-.5-.88-6.6-3.07-8.39-4.31-3.1-2.15-10.44-8.52-13.61-9.29-2.77-.68-7.89,2.01-7.06-2.71,9.07-.74,24.83,8.54,30.72,15.29,1.71,1.96,3.07,3.09,2.61,6.06Z"/>
  <path class="cls-5" d="M625.31,48.66c-1.09,3-3.44,2.53-5.9,2.76-8.07.76-14.69,1.62-23.43,2.58,9.07-3.37,19.66-4.83,29.33-5.34Z"/>
  <path class="cls-5" d="M725.31,75.35c-.25,1.31.35,5.01,0,5.34-.2.18-5.11.16-5.31-.01-.35-.29.2-2.95-.01-3.99l5.33-1.33Z"/>
  <path class="cls-22" d="M661.31,54c.14,4.89,1.71,1.7,5.89,2.74,2.32.58,8.52,2,10.11,2.6.5.19,5.07,2.48,5.33,2.67,1.5,1.12-3.08,1.64,5.33,2.67.24.55-.55,2.2.94,2.68,1.24.4,3.01-.1,4.4-.01,1.27,3.18,4.57,4.75,1.98,9.34-.77,1.37-11.88,7.66-14.12,8.54-16.36,6.44-32.3.83-37.93-16.48-.83-2.54-.13-5.7-1.27-8.07-1.32-2.75-9.76-4.02-7.33-6.66,1.91-2.07,22.43-.46,26.66-.02ZM652.16,63.52c-4.76,2.99,1.72,20.82,6.46,9.81,2.75-6.39-.08-13.81-6.46-9.81Z"/>
  <path class="cls-6" d="M477.99,280.83c.87.44.87.89,0,1.33v-1.33Z"/>
  <path class="cls-26" d="M652.16,63.52c6.38-4,9.22,3.42,6.46,9.81-4.74,11.01-11.23-6.82-6.46-9.81Z"/>
</svg>