<?xml version="1.0" encoding="UTF-8"?>
<svg id="Vrstva_1" data-name="Vrstva 1" xmlns="http://www.w3.org/2000/svg" viewBox="0 0 984.43 237.34">
  <defs>
    <style>
      .cls-1 {
        fill: #3fc4f0;
      }

      .cls-2 {
        fill: #35c4f7;
      }

      .cls-3 {
        fill: #53c2e8;
      }

      .cls-4 {
        fill: #2cc5fa;
      }

      .cls-5 {
        fill: #3ac4f3;
      }

      .cls-6 {
        fill: #3cc3f3;
      }

      .cls-7 {
        fill: #3fc4f1;
      }

      .cls-8 {
        fill: #3ac4f4;
      }

      .cls-9 {
        fill: #58c7e6;
      }
    </style>
  </defs>
  <path class="cls-5" d="M438.92,9.76c23.33-.27,47.95,1.51,70.76.19,3.03-.17,1.56-3.17,4.7-3.57,22.01-2.79,62.81-.66,86.32.13,3.13.1,6.52-1.66,5.61,3.25-1.62.09-3.26-.1-4.88,0-8.47.73-18.83-2.33-26,3.25-2.7.12-5.42-.09-8.13,0-16.65.57-24.7-.41-40.12,3.21-4.57,1.07-13.77-.15-19.27.04-3.13.1-6.52-1.66-5.62,3.25-1.08.05-2.17-.05-3.25,0-18.75.85-35.41,2.6-52.89,3.25-3.13.12-6.52-1.67-5.62,3.25-3.23.17-6.51-.11-9.75,0-7.81.25-25.59-1.59-31.44-.03-1.74.47-.89,3.28-1.07,3.28h-35.76c-.17,0,.68,2.81-1.07,3.28-5.05,1.35-16.58-3.2-15.19,3.23-23.59,2.48-47.54,3.21-70.83,7.99l-46.19,99.27c-1.18-.71-23.95-.27-27.63,0,12.09-32.71,30.58-62.96,42.25-95.88-29.79,3.6-62.24,12.78-88.25,27.94-6.5,3.79-11.74,8.48-17.38,12.69-10.97,8.17-22.65,17.57-32.5,26-31.18,26.67-51.94,63.12-70.15,99.69-1.72,3.45-7.48,19.41-8.25,20.19-4.42,4.44-20.86-1.24-27.23.38-1.65-1.61,15.56-37.05,17.87-42.25,6.24-14.07,14.59-31.49,23.44-44.88,9.53-14.42,54.57-66.72,70.83-72.14,1.23-.41,3.53.5,6.03-.5.86-.34,3.61-5.68,4.89-5.95,2.44-.5,7.32.69,8.37-.29.48-.45,4.01-8.67,7.87-9.46,12.55-2.57,24.41-11.38,35.12-15.76,11.43-4.67,21.94-7.63,34.03-10.66,12.37-3.11,24.45-6.86,34.82-9.35,22.45-5.41,51.28-.22,74.57-3.16,3.11-.39,1.55-3.11,4.66-3.51,22.35-2.82,45.49.21,70.08-3.04,12.72-1.68,27.6,2.83,39.74-3.33,2.17-.03,4.33.03,6.5,0Z"/>
  <path class="cls-7" d="M681.95,188.88c-2.77-3.94-3.99-12.2-3.16-16.96.39-2.24,8.79-17.46,10.12-18.35.75-.5,16-6.31,16.89-6.43,7.9-1.04,27.28,1.16,37,1.15,7.83,0,14.75-3.11,23.65,1.59l-9.72,18.7c-8.23,4.18-39.34-2.29-49.37,1.01-3.28,1.08-3.4,8.82-2.68,9.53.55.54,13.17,1.59,15.38,1.68,17.38.76,17.98-1.74,34.65,4.76,1.51.59,4.67-.4,5.23.07.53.44-.35,4.9.02,6.49,2.4,10.37,6.01,16.15.32,27.14-6.33,12.24-19.19,15.94-31.94,16.82-56.63,3.9-118.06-2.71-175.18-.5-49.28-8.04-35.09-80.93,9.32-85.73,14.96-1.61,51.77-1.68,66.65,0,21.83,2.49,24.17,24.12,16.82,41.2-.92,2.15-5.28,10.81-7.07,10.81h-89.39c-5.49,0-.48,10.76,5.27,12.67,2.47.82,4.96-.04,6.91.34.97.19,2.2-.13,3.25,0,.71.09,2.47,1.56,5.5,1.74,53.34,3.22,110.29-2.36,163.99-.47,9.09-2.05,10.94-14.74-1.26-15.9-15.6-1.48-40.29,4.16-51.21-11.38ZM551.93,184.01c2.51,2.37,59.92,0,69.07,0,3.98,0,5.7-14.63,0-14.63h-55.26c-2.37,0-16.37,12.21-13.81,14.63Z"/>
  <path class="cls-1" d="M863.98,104.37c1.7-.37,3.53.5,6.04-.49.64-.25,9.32-9.18,9.69-9.76.24-.37,3.62-6.71,3.72-7.14.66-2.69-.58-11.26.04-11.87.54-.53,13.49-.35,15.15.04,13.45,3.22,23.36,7.38,38.92,10.1,6.83,1.19,15.92,8.66,18.6,9.32,2.81.7,11.03-.64,11.87.06.51.42-2.72,5.1.83,6.48,1.54.6,5.67-6.49,8.9-3.23,4.12,4.15-5.77,9.16-6.4,11.06-.52,1.55.3,4.71-.1,5.17-.57.65-9.21-.57-11.88.05-1.31.3-.43,2.95-3.44,3.34-7.4.97-17.2-1.22-24.6-.26-3.02.39-2.15,3.07-3.43,3.35-3.7.81-7.71-.92-11.49.52-.54.2-6.68,8.49-7.35,8.79-2.09.92-5.68.17-6.04.49-1.81,1.62,4.07,10.69-5,7.17-4.4,9.72-12.65,15.99-20.54,22.52-1.24,1.53-.04,5.33-.48,6.05-.23.37-7.22.29-8.64-.04-1.32-.31-.43-2.95-3.44-3.34-6.09-.8-26.68-.82-32.73,0-3.11.42-2.17,3.31-3.34,3.46-3.68.5-8.35-3.57-11.06-3.41-.54.03-.11,2.8-9.05,3.33-1.06.06-2.19.05-3.25,0-.58-7.15,8.95,1.64,6.5-9.75.12-.07-.4-2.18.33-2.81,2.57-2.26,42.56,1.12,50.5-.5,2.74-.56,33.17-36.13,39.71-39.39,1.08-1.51-.08-5.13.6-5.91.57-.65,14.72-3.15,16.96-3.37,6.26-.62,13.45.77,19.52-.01,2.37-.3,5.03-1.23,2.4-3.25-.79-.61-10.66.42-13.73-.09-6.65-1.11-17.58-5.23-24.56-6.32-10.41-1.64-5.6,1.15-7.69,5.95-.49,1.13-15.92,16.53-17.33,17.58-4.81,3.54-8.38,3.88-13.37,5.81-1.44.56-1.39,2.75-2.47,3-10.25,2.39-38.81-.45-49.71-3.25-46.67-11.97-93.7-25.42-144.17-25.94-6.48-.07-13.01.06-19.49,0l9.74-6.49c26.3-7.78,52.33-8.37,78.75-3.17,30.94,6.08,61.23,12.26,91,16.26,15.74,2.11,17.74,3.69,35.04-.08Z"/>
  <path class="cls-9" d="M432.42,9.76c-12.14,6.17-27.01,1.65-39.74,3.33-24.58,3.26-47.73.22-70.08,3.04-3.11.39-1.55,3.11-4.66,3.51-23.28,2.94-52.12-2.25-74.57,3.16-10.37,2.5-22.45,6.24-34.82,9.35-12.09,3.04-22.6,5.99-34.03,10.66-10.71,4.38-22.57,13.18-35.12,15.76-3.86.79-7.39,9.02-7.87,9.46-1.05.98-5.93-.21-8.37.29-1.29.27-4.04,5.61-4.89,5.95-2.51,1-4.8.09-6.03.5.71-2.79,8.37-11.06,10.09-11.82,12.88-5.71,21.04-10.21,33.54-17.27.94-.53,3.21.16,4.58-.72,5-3.22,3.46-8.79,3.8-9.2,2.63-3.18,3.28,3,4.29,3.27,8.09,2.19,8.17-2.51,9.93-3.15,21.52-7.73,42.36-12.58,66.2-16.39,17.5-2.8,32.14-2.01,50.47-3.17,45.68-2.88,92.21-5.96,137.27-6.57Z"/>
  <path class="cls-9" d="M645.33,0c.54,0,1.08,0,1.63,0,2.71,0,5.42,0,8.13,0,14.06.03,28.19-.04,42.25.02l-9.74,3.23c-10.58,6.72-25.73,1.75-38.24,3.2-11.35,1.32-19.47,2.53-31.64,3.3-3.76.24-7.61-.22-11.38,0,.91-4.91-2.49-3.15-5.61-3.25-23.51-.78-64.32-2.91-86.32-.13-3.14.4-1.67,3.39-4.7,3.57-22.82,1.32-47.43-.46-70.76-.19,16.8-5.93,35.28-2.23,52.79-3.28C543.51,3.4,592.55-.11,645.33,0Z"/>
  <path class="cls-3" d="M863.98,104.37c2.18-7.07,12.91-11.26,14.98-18.28,1.49-5.05.64-16.88,1.27-17.48.31-.3,7.23-.29,8.64.04,1.23.29,1.04,2.92,2.22,3.18,9.46,2.13,17.9,4.56,26.02,6.5,5.15,1.23,16.63-2.83,11.87,3.27,8.61-1.38,16.09,4.14,24.01,6.08,10.62,2.61,16.15,3.23,26.02,6.86,1.57.58,4.81-.31,5.25.07,1.62,1.38-8.56,20.9-10.98,22.79-7.08,5.51-20.09,2.36-28.76,3.3-5.2.56-17.17,5.78-19.89,6.39-2.32.52-5.08-.44-7.47.07-2.75.59-34.09,33.63-40.18,38.95-.26.23-2.2,5.52-3.68,6-9.15,2.98-14.12-1.94-21.47-2.8-13.52-1.57-31.39,3.78-43.12-3.2,8.94-.53,8.5-3.3,9.05-3.33,2.71-.15,7.38,3.91,11.06,3.41,1.17-.16.23-3.04,3.34-3.46,6.05-.81,26.64-.79,32.73,0,3.01.39,2.12,3.04,3.44,3.34,1.41.33,8.41.4,8.64.04.45-.71-.76-4.52.48-6.05,7.89-6.53,16.14-12.8,20.54-22.52,9.07,3.52,3.19-5.55,5-7.17.35-.32,3.95.43,6.04-.49.68-.3,6.82-8.58,7.35-8.79,3.78-1.44,7.79.29,11.49-.52,1.28-.28.42-2.95,3.43-3.35,7.4-.96,17.2,1.22,24.6.26,3.01-.39,2.13-3.04,3.44-3.34,2.66-.62,11.31.6,11.88-.05.4-.46-.42-3.62.1-5.17.63-1.9,10.52-6.92,6.4-11.06-3.24-3.26-7.36,3.83-8.9,3.23-3.55-1.38-.33-6.06-.83-6.48-.84-.7-9.06.64-11.87-.06s-11.77-8.12-18.6-9.32c-15.56-2.72-25.47-6.88-38.92-10.1-1.65-.4-14.61-.58-15.15-.04-.62.62.62,9.18-.04,11.87-.1.42-3.49,6.77-3.72,7.14-.37.58-9.05,9.51-9.69,9.76-2.51.99-4.34.12-6.04.49Z"/>
  <path class="cls-7" d="M547.06,88.12l2.57,4.89-49.7,107.25c.92-4,3.44-9.91,3.45-10.5.05-2.75-1.94-6.36-1.55-8.08.35-1.53,7.5-5.58,7.8-6.97,2.26-10.7,5.05-14.3,9.38-24.44,1.17-2.75,1.01-7.35,1.97-9.11,1.05-1.92,4.19-.57,4.75-1.14.96-1-.31-6.09.24-8.53.32-1.4,4.93.01,2.88-9.71-.41-1.93-4.11-6.49-2.9-7.64,3-2.85,4.89,3.38,7.34,3.3,6.14-.19,5.04-8.8,5.68-11.97.26-1.27,2.62-1.09,2.84-1.87.45-1.64-.65-5.31.42-7.78.78-1.81,2.77-.55,3.23-2.02.98-3.14-2.09-2.83-4.18-2.52-2.74.42-2.76,5.6-11.03,3.36-1.6-.43-.93-3.14-1.07-3.24-4.13-2.99-2.69,3.45-3.28,5.28-2.08,6.44-13.08,21.19-15.79,27.67-.61,1.47,1.21,3.33.46,4.51-.82,1.28-3.82,1.21-4.11,1.56-.43.53,5.6,9.24,3.24,12.95l-9.74-3.24c4.99-5.58,20.68-48.66,23.02-50.11,2-1.24,8.79.22,12.06-.2,2.06-.27,3.59-1.65,3.92-1.7,2.64-.32,5.49.34,8.13,0Z"/>
  <path class="cls-3" d="M811.97,156.38c2.45,11.4-7.08,2.61-6.5,9.75-14.79-.65-8-1.95-.5-7.03.85-.57,1.13-2.96,2.13-3.6,1.98-1.29,4.66,1.01,4.87.88Z"/>
  <path class="cls-6" d="M228.51,236.01l39.75-86.26c24.75,2.34,53.94-2.72,78.11.08,29.94,3.47-4.85,50.07-7.37,64.21,4.07,3.02,26.6,1.54,27.64,2.47.93.83-7.25,17.49-9.73,18.69-3.23,1.56-32.95,1.37-38.05.65-10.62-1.49-13.57-6.64-10.33-16.53,4.63-14.16,15.48-30.26,20.11-45.02,1.44-1.68-.75-4.94-1.8-4.94h-40.63c-3.71,0-27.79,66.64-32.5,66.64h-25.19Z"/>
  <path class="cls-2" d="M499.92,140.12l9.74,3.24c2.36-3.71-3.67-12.43-3.24-12.95.29-.35,3.3-.27,4.11-1.56.75-1.18-1.07-3.04-.46-4.51,2.71-6.48,13.71-21.23,15.79-27.67.59-1.82-.85-8.27,3.28-5.28.14.1-.53,2.8,1.07,3.24,8.27,2.23,8.29-2.95,11.03-3.36,2.09-.32,5.16-.62,4.18,2.52-.46,1.48-2.44.21-3.23,2.02-1.06,2.47.04,6.14-.42,7.78-.22.78-2.58.6-2.84,1.87-.64,3.16.45,11.77-5.68,11.97-2.45.08-4.34-6.15-7.34-3.3-1.21,1.15,2.49,5.71,2.9,7.64,2.05,9.72-2.56,8.31-2.88,9.71-.55,2.44.73,7.53-.24,8.53-.55.57-3.69-.78-4.75,1.14-.97,1.77-.8,6.37-1.97,9.11-4.33,10.14-7.11,13.74-9.38,24.44-.29,1.39-7.45,5.44-7.8,6.97-.39,1.72,1.6,5.33,1.55,8.08-.01.59-2.53,6.5-3.45,10.5-.12.51.11,1.11,0,1.63-2.8.27-5.38-1.66-7.01,2.07-1.9,4.36,4.3,9.98-5.98,2.8l3.22,3.24-1.62,6.5c1.13,1.14,11.17,1.03,13.46,1.72,1.96.59-.71,2.8,7.68,3.17,1.13,6.84-11.3-.89-9.75,9.75-4.32.11-8.68-.03-13,0,.91-4.91-2.49-3.15-5.61-3.25-5.4-.18-11.01-.21-16.4,0-3.13.12-6.52-1.67-5.61,3.25-2.71.03-5.42-.04-8.13,0,1.26-5.17-6.3-4.84-4.88,0-6.82.13-15.75-.92-22.05-.13-3.11.39-1.55,3.11-4.66,3.51-5.46.69-21.12,1.4-23.68-3.38-.36-.67.41-2.84,0-3.25s-2.38.28-3.25,0c-6.81-2.24-5.2-5.3-8.64-9.3-.66-.76-3.8-.35-4.36-2.07,4.99,1.24,3.11-3.77,3.25-8.13.05-1.61.08-3.27,0-4.88-.09-1.78.51-4.09-1.63-4.88.5-3.04,1.16-15.6,1.63-16.27.19-.27,2.29.17,3.25.01.17,3.35-.63,3.98,4.17,3.34,3.78-.51,1.89-2.9,2.33-3.34.48-.47,2.87.96,3.27-.82.86-3.9-1.68-1.82-3.27-2.43-7.14-2.72.97,2-6.5,3.25-.08-1.53-.17-3.39,0-4.88.06-.55-.11-1.14,0-1.63,4.69-.58,7.75-5.33,6.5-9.75.22-.22,2.86-1.57,4.88-3.25,2.19-.37,10.89.53,11.39.01.56-.59-.65-5.93,0-6.51.51-.46,3.73.52,5.24-.06,1.66-.64.67-2.93,3.58-3.32,11.33-1.52,79.02,2.82,81.96-1.74.99-1.54-.1-5.66.23-7.88.15-1.03-.1-2.19,0-3.25ZM467.42,214.89c.8-.56,5.97.56,6.51,0s-.48-9.13.06-11.83c.27-1.35,5.51-3.93,5.95-4.89.9-2-.01-5.12.68-5.9.72-.82,4.06.27,4.7-.15.37-.24-2.55-4.9-1.64-8.61.09-.38,2.42-4.32,3.39-6.3,1.07-2.18,4.49-.98,3.05-6.68-.08-.3-4.09-4.28-4.39-4.34-7.34-1.46-46.81-1.27-54.99-.2-3.01.39-2.15,3.06-3.44,3.35-3.4.76-7.75-.77-10.86,0-1.78.44-.34,3.06-1.85,3.31s.42-5.1-4.06-3.26c5.15,8.63-4.78,8.06-7.26,11.38-3.07,4.12-3.07,12.64-4.12,16.78-.41,1.63-3.05.94-3.18,1.13-2.51,3.43,3.14,3.06,3.31,4.16.39,2.49-2.85,6.05-1.47,8.45.35.61,7.3,6.13,8.95,6.46,6.11,1.22,54.32,1.68,59.7.44,2.05-.47.5-3,.95-3.31ZM392.66,192.13c-.92.09-3.25-.16-3.25,0v26c0,.16,3.25.16,3.25,0v-26ZM480.4,213.27c-5.16-4.2-4.16,11.74,1.64,6.49.38-.35-1.38-6.27-1.64-6.49Z"/>
  <path class="cls-5" d="M196.76,185.28c-.32.3.18,4.93,0,6.5-1.08,0-2.17-.05-3.25,0-1.21-8.45,2.4-5.65,3.25-6.5Z"/>
  <path class="cls-5" d="M190.26,149.53c-.91,4.92,2.49,3.13,5.61,3.25,2.6.1,11.81-.79,12.27.83,1.08,3.77-3.49,2.33-5.68,2.42-2.43.1-11.62-.45-12.22,0-.21.16.05,2.54.01,3.25-9.01.4-9.63,3.06-12.08,3.38-19.06,2.51-44.64-2.82-63.62-.27-3.23.43-2.07,3.51-3.14,3.45-2.41-.12-3.48-2.44-5.28-2.99-5.43-1.65-6.88,1.74-11.04,2.85-5.93,1.59-10.35-3.8-8.86,6.57-1.71-.03-13.45,1.45-11.37-2.42.77-1.43,3.42-1.64,4.33-2.97,3.2-4.66,8.13-16.13,14.39-17.32,32.22-.01,64.46-.14,96.66-.04ZM89.48,159.29c-1.77-1.77-5.01,1.46-3.23,3.23s5.01-1.46,3.23-3.23Z"/>
  <path class="cls-5" d="M245.52,149.53c2.8.2,5.31-1.47,4.83,2.36-.86,6.89-6.33,13.52-8.34,20.13l-28.74.53-16.51,35.49c.02-.12-1.15-.84-1.13-2.08.03-1.75,2-6.79,1.12-7.66-.23-.23-6.26-.23-6.49,0-1.42,1.46,2.62,11.91,6.49,11.37-.33,1.63-10.32,22.4-11.25,23.32-1.94,1.9-2.94.87-5,1.06,10.39-13.58-4.17-15.02-15.31-13.1-1.71.29-2.55,10.92-.94,13.1-2.16-.08-4.35.07-6.5-.02,3.79-4.93,4.33-12.95,6.5-17.86.12-.27,2.09-1.06,2.84-2.79,3.15-7.23,16.46-33.49,16.71-38.63.17-3.42-.05-2.12-2.44-2.47-4.84-.71-11.86.07-17.12,0-.91-1.69,4.01-6.34,4.43-6.42,3.48-.69,16.79-.19,21.57-.08.61,8.24,2.8,6.09,3.2,7.63,2.17,8.44-2.38,7.9-3.14,9.87-.59,1.51.39,4.72-.06,5.24-1.71,1.96-11.67-4.76-6.5,6.51-3.57,2.53-3.63-6.82-6.49-3.23-.39.49-.22,5.05.46,6.12.52.82,3.57-.78,2.8,2.8-.32,1.49-2.94.22-3.31,1.86-.51,2.26.49,5.1.02,7.61-.13.7-5.67,2.51-3.22,7.6,5.49,1.49,1.92-4.27,4.07-4.88,4.69-1.34-.15,6.66,5.66,4.88,3.15-3.87-5.06-8-3.25-9.73.32-.31,4.52.33,5.79-1.51,2.09-3.02-1.83-14.32,7.21-14.76.83,5.79,2.6,5.52,3.25,0,1.7,0,5.24,4.4,6.54-2.41,1.09-5.73-5.42-5.15-6.54-4.09.2-.2-.51-2.22.33-2.89,2.52-2,8.84,3.52,6.11-8.94-.11-.49-6.43-7.01-6.9-7.19-2.29-.89-3.82-.44-6.04-.49-.15-2.07-.11-4.42,0-6.5,3.13-.14,18.85-.71,19.49.02.38.43-.15,8.74,4.46,9.65,2.67.53,27.07,1.08,28.07.09.69-.69-.65-12.1.02-15.14.3-1.37,4.36-1.1,3.22-4.37ZM190.25,211.29c-4.37-4.97-4.37,11.46,0,6.48.21-.24.21-6.24,0-6.48Z"/>
  <path class="cls-7" d="M386.16,177.5c-.17,1.48-.08,3.35,0,4.88-.96.16-3.06-.28-3.25-.01-.47.67-1.13,13.22-1.63,16.27-.32,1.94-4.83,5.59,1.63,4.88.08,1.6.05,3.27,0,4.88-4.05-1.92-4.21,5.18-3.25,8.13.56,1.72,3.7,1.31,4.36,2.07,3.45,4.01,1.83,7.07,8.64,9.3-.59,3,.3,3.74,3.25,3.25,2.55,4.78,18.22,4.07,23.68,3.38,3.11-.39,1.55-3.11,4.66-3.51,6.3-.79,15.23.26,22.05.13,1.62-.03,3.25.02,4.88,0,2.71-.04,5.42.03,8.13,0,9.19-.11,18.44.07,27.63,0,4.32-.03,8.68.11,13,0,4.32-.11,8.69.09,13.01,0-.79-5.92,2.75-9.49-3.26-9.76-8.39-.37-5.72-2.58-7.68-3.17-2.29-.69-12.33-.58-13.46-1.72l1.62-6.5-3.22-3.24c10.28,7.18,4.07,1.56,5.98-2.8,1.63-3.73,4.21-1.81,7.01-2.07-.96,4.5-4.03,8.06-3.25,12.99l27.63,1.64c1.41,1.31-6.38,18.26-9.2,19.24l-118.01-.12c-23.74-5.91-24.43-34.04-16.32-52.94,1.23-2.86,1.14-5.42,5.37-5.19ZM519.42,218.14c-1.77-1.77-5.01,1.46-3.23,3.23,1.77,1.77,5.01-1.46,3.23-3.23Z"/>
  <path class="cls-8" d="M196.76,185.28c1.12-1.05,7.63-1.63,6.54,4.09-1.3,6.81-4.84,2.4-6.54,2.41.18-1.57-.32-6.2,0-6.5Z"/>
  <path class="cls-8" d="M196.76,191.78c-.65,5.52-2.42,5.79-3.25,0,1.08-.05,2.17,0,3.25,0Z"/>
  <path class="cls-8" d="M245.52,149.53c1.14,3.26-2.92,3-3.22,4.37-.67,3.04.67,14.45-.02,15.14-.99.99-25.4.44-28.07-.09-4.61-.91-4.08-9.22-4.46-9.65-.64-.73-16.36-.16-19.49-.02.04-.71-.22-3.09-.01-3.25.6-.45,9.79.1,12.22,0,2.18-.09,6.76,1.35,5.68-2.42-.47-1.62-9.68-.73-12.27-.83-3.12-.12-6.52,1.67-5.61-3.25,17.78.05,37.83-1.26,55.26,0Z"/>
  <path class="cls-8" d="M190.26,159.28c-.11,2.08-.15,4.43,0,6.5-4.78-.11-18.09-.61-21.57.08-.43.08-5.34,4.73-4.43,6.42-25.97-.28-52.05.51-78.01,0-1.49-10.38,2.93-4.98,8.86-6.57,4.16-1.12,5.61-4.5,11.04-2.85,1.8.55,2.87,2.87,5.28,2.99,1.07.05-.09-3.02,3.14-3.45,18.98-2.55,44.56,2.78,63.62.27,2.45-.32,3.07-2.98,12.08-3.38Z"/>
  <path class="cls-8" d="M190.26,165.78c2.22.05,3.74-.4,6.04.49.46.18,6.79,6.7,6.9,7.19,2.73,12.46-3.58,6.94-6.11,8.94-.84.66-.13,2.69-.33,2.89-.85.85-4.46-1.95-3.25,6.5-9.04.44-5.12,11.74-7.21,14.76-1.27,1.84-5.47,1.2-5.79,1.51-1.81,1.73,6.4,5.86,3.25,9.73-5.81,1.78-.98-6.21-5.66-4.88-2.16.61,1.41,6.37-4.07,4.88-2.45-5.09,3.09-6.9,3.22-7.6.47-2.51-.53-5.35-.02-7.61.37-1.64,2.99-.37,3.31-1.86.77-3.58-2.28-1.98-2.8-2.8-.68-1.07-.85-5.64-.46-6.12,2.85-3.59,2.92,5.76,6.49,3.23-5.17-11.26,4.79-4.55,6.5-6.51.45-.52-.52-3.73.06-5.24.77-1.98,5.32-1.43,3.14-9.87-.39-1.53-2.58.62-3.2-7.63Z"/>
  <path class="cls-7" d="M499.92,143.37c-.33,2.22.76,6.34-.23,7.88-2.94,4.56-70.63.22-81.96,1.74-2.91.39-1.92,2.68-3.58,3.32-1.51.58-4.73-.4-5.24.06-.64.58.56,5.93,0,6.51-.49.52-9.2-.38-11.39-.01,2.28-1.9,2.98-4.48,6.98-6.84,21.97-12.97,65.55-3.04,91.08-6.09l4.33-6.58Z"/>
  <path class="cls-8" d="M180.51,234.04c-4.89.45-11.22.18-16.25,0-1.61-2.18-.77-12.81.94-13.1,11.14-1.92,25.7-.48,15.31,13.1Z"/>
  <path class="cls-9" d="M567.31,13.01c-4.59,1.79-12.1,2.82-17.08,3.24-15.86,1.34-32.05,2.47-47.93,3.26-.91-4.91,2.49-3.15,5.62-3.25,5.51-.18,14.7,1.04,19.27-.04,15.43-3.62,23.48-2.64,40.12-3.21Z"/>
  <path class="cls-9" d="M499.05,19.51c-5.24,1.81-13.06,2.71-18.7,3.24-13.14,1.25-26.67,2.59-39.81,3.26-.91-4.92,2.49-3.13,5.62-3.25,17.49-.65,34.14-2.4,52.89-3.25Z"/>
  <path class="cls-9" d="M430.79,26.01c-8.68,3.63-19.5,2.37-28.43,3.26-18.66,1.86-37.44,4.53-56.08,6.49-1.39-6.42,10.14-1.88,15.19-3.23,1.74-.47.89-3.28,1.07-3.28h35.76c.17,0-.68-2.81,1.07-3.28,5.85-1.56,23.63.28,31.44.03Z"/>
  <path class="cls-9" d="M601.44,9.76c-7.87.48-16.89,2.83-26,3.25,7.18-5.58,17.53-2.52,26-3.25Z"/>
  <path class="cls-8" d="M196.76,209.66c-3.87.54-7.92-9.91-6.49-11.37.23-.23,6.25-.23,6.49,0,.88.87-1.08,5.91-1.12,7.66-.02,1.24,1.14,1.96,1.13,2.08-.08.53.1,1.11,0,1.63Z"/>
  <path class="cls-7" d="M392.66,166.13c1.25,4.42-1.81,9.17-6.5,9.75,1.15-5.09,3.17-6.42,6.5-9.75Z"/>
  <path class="cls-7" d="M467.42,214.89c-.45.32,1.1,2.84-.95,3.31-5.38,1.24-53.59.78-59.7-.44-1.64-.33-8.6-5.85-8.95-6.46-1.38-2.4,1.86-5.96,1.47-8.45-.17-1.1-5.82-.73-3.31-4.16.14-.19,2.77.5,3.18-1.13,1.05-4.15,1.05-12.66,4.12-16.78,2.47-3.32,12.41-2.74,7.26-11.38,4.48-1.84,2.59,3.51,4.06,3.26s.07-2.88,1.85-3.31c3.11-.76,7.46.77,10.86,0,1.29-.29.42-2.95,3.44-3.35,8.18-1.07,47.65-1.26,54.99.2.3.06,4.31,4.04,4.39,4.34,1.43,5.69-1.98,4.5-3.05,6.68-.97,1.98-3.3,5.91-3.39,6.3-.91,3.71,2,8.36,1.64,8.61-.63.42-3.97-.67-4.7.15s.23,3.91-.68,5.9c-.44.96-5.68,3.54-5.95,4.89-.54,2.7.47,11.28-.06,11.83s-5.71-.57-6.51,0l17.86-45.51c-20.88,5.93-55.42-5.97-72.38,9.68-8.55,7.89-17.19,28.22-4.46,35.48l58.98.34Z"/>
  <path class="cls-4" d="M509.68,221.39c6.01.27,2.47,3.84,3.26,9.76-4.32.08-8.69-.12-13.01,0-1.55-10.64,10.88-2.91,9.75-9.75Z"/>
  <path class="cls-4" d="M459.29,231.14c-.91-4.92,2.49-3.13,5.61-3.25,5.39-.21,11-.18,16.4,0,3.13.1,6.52-1.66,5.61,3.25-9.19.07-18.44-.11-27.63,0Z"/>
  <path class="cls-4" d="M392.66,192.13v26c0,.16-3.25.16-3.25,0v-26c0-.16,2.33.09,3.25,0Z"/>
  <path class="cls-4" d="M392.66,179.13v3.25c-.44.44,1.44,2.83-2.33,3.34-4.8.64-3.99.02-4.17-3.34,7.48-1.25-.64-5.97,6.5-3.25Z"/>
  <path class="cls-4" d="M480.4,213.27c.26.21,2.03,6.14,1.64,6.49-5.8,5.26-6.8-10.69-1.64-6.49Z"/>
  <path class="cls-4" d="M382.91,208.38c-.14,4.35,1.74,9.36-3.25,8.13-.96-2.95-.8-10.05,3.25-8.13Z"/>
  <path class="cls-4" d="M382.91,203.51c-6.46.72-1.94-2.94-1.63-4.88,2.14.79,1.54,3.1,1.63,4.88Z"/>
  <path class="cls-4" d="M446.29,231.14c-1.43-4.84,6.14-5.17,4.88,0-1.62.02-3.25-.03-4.88,0Z"/>
  <path class="cls-7" d="M392.66,179.13c1.59.61,4.13-1.47,3.27,2.43-.39,1.78-2.79.36-3.27.82v-3.25Z"/>
  <path class="cls-4" d="M392.66,227.89c.87.29,2.85-.39,3.25,0s-.35,2.57,0,3.25c-2.95.49-3.84-.25-3.25-3.25Z"/>
  <path class="cls-8" d="M89.48,159.29c1.77,1.77-1.46,5.01-3.23,3.23s1.46-5.01,3.23-3.23Z"/>
  <path class="cls-4" d="M519.42,218.14c1.77,1.77-1.46,5.01-3.23,3.23-1.77-1.77,1.46-5.01,3.23-3.23Z"/>
  <path class="cls-8" d="M190.25,211.29c.21.24.21,6.24,0,6.48-4.37,4.97-4.37-11.46,0-6.48Z"/>
</svg>