<?xml version="1.0" encoding="UTF-8"?>
<svg id="Vrstva_1" data-name="Vrstva 1" xmlns="http://www.w3.org/2000/svg" viewBox="0 0 970.21 405.57">
  <defs>
    <style>
      .cls-1 {
        fill: #100525;
      }

      .cls-2 {
        fill: #55265b;
      }

      .cls-3 {
        fill: #e39556;
      }

      .cls-4 {
        fill: #601964;
      }

      .cls-5 {
        fill: #f7802e;
      }

      .cls-6 {
        fill: #592a5d;
      }

      .cls-7 {
        fill: #1f0e3e;
      }

      .cls-8 {
        fill: #1f0f3e;
      }

      .cls-9 {
        fill: #5e2f63;
      }

      .cls-10 {
        fill: #592362;
      }

      .cls-11 {
        fill: #614166;
      }

      .cls-12 {
        fill: #211040;
      }

      .cls-13 {
        fill: #200f3f;
      }

      .cls-14 {
        fill: #603362;
      }
    </style>
  </defs>
  <path class="cls-5" d="M157.28,99.13c2.79-.93,1.44-.65,5.57-1.63,4.47-1.06,21.61-11.07,28.56-13.82,54.84-21.68,123.88-36.74,182.11-45.26,49.12-7.19,98.88-10.44,148.55-6.75l-3.6,3.87c-107.73,24.02-214.59,53.11-317.2,93.7l-1.69,2.95h54.85c1.94,0,14.5,3.36,16.78,4.37,12.58,5.58,11.75,17.48,6.88,28.57-.86,1.97-8.45,13.93-9.86,14.97-6.67,4.97-15.9,6.54-23.72,8.98,4.89,5.53,14.11,3.53,15.79,12.61,4.3,23.34-21.45,43.62-41.87,47.91-12.42,2.61-32.92,2.79-45.89,3.02-27.82.49-55.53-1.84-83.39-1.45-8.5.12-16.69,2.99-25.71.05l18.48-41.68-7.87-2.59,17.14-36.4-42.93,9.27c-2.7-2.5,1.07-2.71,2.42-4.16,15.39-16.52,66.65-61.79,86.78-65.97,4.45-.92,12.52-2.93,16.75-5.73.9-.6,3.29-3.42,3.07-4.85ZM230.64,162.63h-83.93l-5.29,15.87h82.61c.52,0,7.22-4.45,7.71-5.6,1.07-2.53,1.91-9.34-1.1-10.27ZM120.28,222.15h86.57c6.45,0,15.51-16.19,5.03-18.2l-80.45-.4c-6.64.77-8.83,13.11-11.16,18.6Z"/>
  <path class="cls-4" d="M487.72,3.89c38.14-1.49,82.12-1.4,120.28,0,87.42,3.2,188.83,38.87,266.99,76.72,1.48,8.18,3.05,4.12,8.34,5.31.3.07,1.09,1.5,4.87,2.62.4.12.91-.11,1.32,0l1.31,5.28h-2.64c-109.2-40.89-233.55-54.14-349.43-42.16l-10.07,2.47c100.84-.2,200.94,14.61,298.72,37.7,41.25,9.74,81.83,22.08,122.89,32.44-.91,2.35-7.83,1.49-9.96,1.36-8.31-.49-18.94-3.66-27.04-2.7-.78.09-2.47-.19-2.64,0-21.67-4.68-44.07-4.73-66.09-6.61-.87-.07-1.77.07-2.64,0-24.57-2.09-50.2-5.02-75.34-6.61-2.19-.14-4.42.14-6.61,0-3.61-.22-6.97-1.11-10.57-1.32-1.96-2.82-6.87-.58-9.72-1.3-1.4-.35-.72-2.67-.86-2.67h-55.51c-.12,0,.34-1.79-.26-2.31-.82-.72-15.12-1.69-15.6,2.31-.88-.02-1.76.02-2.64,0,.74-3.99-2.02-2.56-4.57-2.65-30.8-1.03-65.86-1.22-96.61,0-2.55.1-5.3-1.36-4.57,2.65-2.2.05-4.41-.06-6.61,0-3.69-3.86-11.84,0-15.2,0h-60.14c-.12,0,.35,1.83-.25,2.32-1.67,1.39-8.06-1.39-9,2.97-3.36.29-8.3-1.23-10.57,1.32-1.81-.41-6.58,1.35-6.6-1.31,6.62-3.11,21.89-11.11,23.27-18.48.27-1.43.92-2.38-.76-3.41-4.31-2.65-40.55.69-48.96.71-3.52,0-9.37.65-12.33-.02-1.04-.24-1.03-2.52-1.55-2.65-3.83-1-2.96,2.37-4.19,2.65-3.7.86-9.05-.82-12.74.05-11.76,2.78-19.99,3.06-33.35,2.62-2.55-.09-5.3,1.35-4.57-2.65.43-.05.88.04,1.32,0,5.35-.43,10.88.4,16.25-.03l10.19-7.9c29.47-8.26,58.07-15.27,88.28-20.78,27.4-5,39.53-2.57,64.15-19.14,3.79-2.55,16.17-12.41,16.56-16.53.47-4.95-15.3-7.61-19.14-8.21-26.98-4.22-60.61-2.17-87.73-.16-3.16-3.77-13.01,1.78-11.9-3.97.83-.14,1.81.14,2.64,0l1.32-1.32c17.32-2.77,32.4-5.92,50.23-6.61Z"/>
  <path class="cls-7" d="M717.7,404.7l51.76-121.48,56.63-.22,9.26,76.73,86.56-76.72h48.24l-52.21,121.7h-40.31l30.39-74.08c-1.33-1.6-16.73,14.98-18.47,16.55-21.08,19.03-42.65,37.54-63.49,56.84-2.46,1.12-20.9,1.26-22.53.11-3.15-2.22-6.8-67.21-11.15-76.16-6.11,7.91-30.16,76.74-34.36,76.74h-40.31Z"/>
  <path class="cls-7" d="M672.76,357.08l26.43,47.62h-53.53c-4.32-5.24-24.58-47.34-27.7-47.72-3.81-.46-20.42-.46-22.54,1.4l-19.15,46.31h-40.97l36.35-87.31h38.99l-2.64,11.91h78.64c6.88,0,13.2-17.2,3.97-17.2h-116.97c.06-3.81,9.94-28.78,11.47-29.15h121.42c33.12,3.76,40.34,23.3,22.85,50.74-6.74,10.57-24.69,23.38-37.43,23.38h-19.16Z"/>
  <path class="cls-7" d="M203.55,283c-2.1,4.7-9.22,27.68-12.77,28.89l-104.23.18c-8.91-.65-19.15,14.43-7.61,16.93,22.38,3.73,81.03-7.27,96.9,8.85,14.84,15.09-5.83,44.81-19.99,54.16-9.28,6.12-27.86,12.69-38.87,12.69H0c1.95-10.04,7.52-21.61,12.77-30.21l106.83-.23c9.1.54,22.46-11.45,8.99-16.89-24.12-3.88-74.89,7.14-94.14-7.64s3.57-47.13,18.83-56.4c5.12-3.11,22.66-10.33,28.01-10.33h122.26Z"/>
  <path class="cls-7" d="M431.91,283.37c20.17-2.14,61.23-2.23,81.42-.2,17.04,1.71,38.32,10.92,37.93,30.92-.24,12.15-18.59,52.29-26.56,62.15-8.52,10.53-22.07,19.13-34.95,23.22-22.59,7.18-90.48,8.33-113.01,1.91-36.06-10.28-23.34-37.62-12.16-62.37,14.51-32.15,29.48-51.6,67.34-55.62ZM400.83,371.29c1.26,1.35,6.17,2.79,8.22,3.02,14.28,1.58,43.54,1.11,58.24.02,6.78-.5,13.51-1.7,18.5-6.62,3.61-3.56,19.11-36.71,20.12-42.03,1.7-8.95-2.3-12.85-10.86-13.64-14.18-1.31-48.44-1.65-62.22.03-4.24.52-10.24,3.64-13.23,6.6-4.68,4.63-20.43,39.36-20.54,45.69-.04,2.01.4,5.47,1.77,6.94Z"/>
  <path class="cls-13" d="M917.28,132.2c14.5.04,29.12-.33,43.62,0,2.26.05,10.22-1.36,9.23,1.95-2.5,8.35-9.92,18.55-11.75,27.69l-2.77.78c.74-4.01-2.02-2.55-4.57-2.65-31.24-1.23-62.72,1-93.99-.1-2.73-.58-1.73,2.62-1.89,2.75-4.65,3.4-9.13,3.04-13.79,9.35-3.35,4.53-18.21,36.79-17.35,40.94.72,3.46,5.77,9.24,9.34,9.24h99.79l-12.78,29.15-106.81-.07c-13.62-1.64-32.06-8.11-34.73-23.45-2.46-14.16,9.14-38.01,15.73-51.08,16.36-32.46,39.48-42.91,75.15-44.5,9.18-.41,18.55.11,27.76,0,.88-.01,1.76.01,2.64,0,5.74-.07,11.41-.02,17.18,0Z"/>
  <polygon class="cls-8" points="404.45 132.2 415.02 251.25 372.73 251.25 367.43 174.53 290.12 251.25 245.84 251.25 365.46 132.2 404.45 132.2"/>
  <path class="cls-12" d="M737.52,132.2c1.25,1.19-10.61,29.47-12.77,30.21l-55.81.37-37.82,88.47h-40.31l37.01-88.63h-58.16l11.9-30.42h155.96Z"/>
  <path class="cls-7" d="M378.01,283l-10.75,28.92-59.12.36-38.51,92.42h-40.97l38.33-92.6h-58.16c2.16-10.16,9.25-18.78,10.57-29.1h158.61Z"/>
  <polygon class="cls-7" points="518.12 132.2 481.11 222.15 581.56 222.15 569.66 251.25 426.92 251.25 477.8 132.2 518.12 132.2"/>
  <polygon class="cls-13" points="795.68 132.2 746.77 251.25 704.48 251.25 755.36 132.2 795.68 132.2"/>
  <path class="cls-9" d="M355.54,88.55c-.74,3.99,2.02,2.56,4.57,2.65,13.36.45,21.59.17,33.35-2.62,3.69-.87,9.05.81,12.74-.05,1.23-.29.35-3.65,4.19-2.65.52.13.5,2.41,1.55,2.65,2.96.67,8.81.03,12.33.02l-103.72,13.29-3.33-1.37c12.27-2.62,26.01-10.55,38.32-11.92Z"/>
  <path class="cls-2" d="M607.99,3.89c-38.16-1.4-82.14-1.49-120.28,0,4.57-1.34,11.78-2.35,16.53-2.63,29.45-1.75,59.04-1.59,88.53,0,4.24.23,11.15,1.3,15.21,2.63Z"/>
  <path class="cls-1" d="M855.15,162.63c.17-.12-.84-3.33,1.89-2.75,31.27,1.1,62.75-1.13,93.99.1,2.54.1,5.3-1.36,4.57,2.65h-100.45Z"/>
  <path class="cls-14" d="M931.81,109.71v3.31c-14.74-5.58-28.92-13.68-43.62-19.18h2.64s-1.31-5.29-1.31-5.29c13.4,3.49,32.93,19.5,42.3,21.17Z"/>
  <path class="cls-6" d="M667.47,104.42c.48-4,14.79-3.03,15.6-2.31.59.52.14,2.31.26,2.31h55.51c.14,0-.54,2.32.86,2.67,2.85.72,7.76-1.52,9.72,1.3-14.45-.85-29.15-.71-43.62-1.32-1.32-.06-2.65.05-3.97,0-10.7-.43-23.68-2.36-34.36-2.65Z"/>
  <path class="cls-11" d="M433.52,11.82c-1.11,5.75,8.74.2,11.9,3.97-16.91,1.25-33.78,3.09-50.61,5.11-.96-.23-2.74-1.97-2.26-2.45,1.38-1.37,33.28-6.84,38.13-7.7,1.91-.34,2.69,1.09,2.84,1.07Z"/>
  <path class="cls-3" d="M157.28,99.13c.22,1.43-2.17,4.25-3.07,4.85-4.24,2.8-12.3,4.81-16.75,5.73,1.44-4.8,11.28-8.54,15.6-10.23,1.59-.62,3.37-.07,4.22-.35Z"/>
  <path class="cls-10" d="M383.3,80.61l-10.19,7.9c-5.37.43-10.9-.4-16.25.03,8.12-4.11,17.75-5.5,26.43-7.94Z"/>
  <path class="cls-14" d="M874.98,80.61c3.92,1.9,13.07,4.08,13.22,7.94-3.78-1.13-4.57-2.56-4.87-2.62-5.3-1.19-6.86,2.86-8.34-5.31Z"/>
  <path class="cls-11" d="M436.17,11.82c.18-.03.71-1.23,1.32-1.32l-1.32,1.32Z"/>
  <path class="cls-6" d="M559.09,104.42c-.74-4.01,2.02-2.55,4.57-2.65,30.75-1.22,65.8-1.03,96.61,0,2.55.09,5.3-1.35,4.57,2.65-34.53-.87-71.19-.79-105.74,0Z"/>
  <path class="cls-6" d="M552.48,104.42c-28,.75-56.61,2.86-84.59,5.29.95-4.37,7.33-1.59,9-2.97.6-.49.13-2.32.25-2.32h60.14c3.36,0,11.51-3.86,15.2,0Z"/>
</svg>