<?xml version="1.0" encoding="UTF-8"?>
<svg id="Vrstva_1" data-name="Vrstva 1" xmlns="http://www.w3.org/2000/svg" viewBox="0 0 1079.66 233.8">
  <defs>
    <style>
      .cls-1 {
        fill: #434343;
      }

      .cls-2 {
        fill: #fff;
      }

      .cls-3 {
        fill: #606060;
      }

      .cls-4 {
        fill: #191919;
      }

      .cls-5 {
        fill: #8c8c8c;
      }

      .cls-6 {
        fill: #1e1e1e;
      }

      .cls-7 {
        fill: #7a7a7a;
      }
    </style>
  </defs>
  <path d="M826.45,84.95c57.7-5.9,104.68,48.63,80.06,104.06-36.58,82.37-169.69,42.89-141.8-51.8,8.14-27.65,32.7-49.3,61.73-52.27ZM873.31,121.01c-6.94-6.61-19.71-13.13-29.26-14.24-66.95-7.84-84.2,92.14-15.62,104.62,50.52,9.19,82.09-54.94,44.88-90.38Z"/>
  <circle cx="837.06" cy="159.16" r="49.67"/>
  <path d="M786.65,217.68l-.5,1.99c-31.38-.91-49.56-27.4-57.15-55.05-24.9.51-49.3,6.7-73.98,9.9-148.28,19.26-297.24,7.75-445.87,1.15-9.82-.44-19.7.07-29.49-1.01,1.42-11.02,1.04-21.97,0-33.01,17.3-.14,34.45-3.76,51.63-5.87,124.88-15.36,250.07-24.05,375.83-25.17,35.05-.31,75.43-1.22,109.92,3.18,16.73,2.13,33.51,6.51,48.19,14.87.97,1.53-3.26,13.03-3.9,16.17-5.36,26.55,2.24,57.36,25.33,72.85Z"/>
  <path class="cls-6" d="M693.66,170.66c.17,4.47-.26,9.02,0,13.49.45,7.62,1.81,16.41,2.03,23.97.2,6.91-.97,12.19-7.47,15.62-62.22,5.63-124.8,2.08-187.11-.03l-330.45-24.05,8.6-23.06,166.93,6.02c78.4,2.84,154.33,6.65,232.95,1.03,38.33-2.74,76.45-8.08,114.51-12.99Z"/>
  <path class="cls-1" d="M646.66,66.65l-22.41,3c-31.93-21.94-70.68-3.66-104.59,3.01l6.99,11.99c-35.19,4.78-70.28,10.43-105.33,16.17-69.1,11.33-138.12,25.52-207.33,35.67-11.72,1.72-23.61,2.54-35.33,4.17l-4-16c32.15-7.44,60.39-25.2,90.33-38.18,54.22-23.51,115.87-34.66,175.02-33.87l3.14,9.06c2.24,2.66,15.22-.73,19.03-1.01,17.9-1.27,36.1-1.04,53.98-3.02,35.38-3.91,71.23-21.48,105.72-5.71,8.34,3.81,17.34,9.54,24.79,14.7Z"/>
  <path class="cls-3" d="M471.66,24.67c-3.55,8.65-7.63,17.4-8,26.99-12.84-.68-25.64-1.41-38.53-1.03-60.74,1.76-118.69,14.15-173.82,39.18-21.08,9.57-51.23,27.55-73.41,31.62-1.22.22-2.92.7-4.04.04-.79-.46-7.66-12.45-10.22-15.27-3.15-3.48-6.63-5.85-9.97-9.03,11.77-2.41,37.28-3.54,42.04-16.94,3.2-9.02-2.89-14.78-6.04-22.55,55.36,14,107.22-10.24,159.98-22.52,33.57-7.82,57.02-10.74,91.47-10.44,10.18.09,20.37-.15,30.54-.04Z"/>
  <path class="cls-4" d="M802.66,89.66l-11.91,7.59c-11.01,7.67-17.93,18.96-24.57,30.31-16.65-9.65-35.93-14.04-55.03-15.89-47.72-4.63-97.15-1.82-144.95-.96-58.22,1.04-116.01,2.67-174.03,6.97-43.73,3.24-87.41,8.21-130.97,13.04l-3.53-1.04,268.55-44.06c3.39.09,9.48,8,14.04,9.96,12.33,5.28,27.14,2.44,39.86,2.05,11.85-.36,23.7-.71,35.55-.96,1.41-1.45-3.65-12.72-3.99-15.53-.26-2.13.85-1.62,2.48-1.48,9.19.83,14.27,6.99,14.51,16.01l14-2.01c-2.7-9.4-10.93-15.75-17-22.98,7,.51,15.92-3.09,22.55-2.87,2.7.09,40.53,21.81,47.77,25.04,11.63,5.19,35.18,14.76,47.31,15.76,5.54.45,8.65-4.95,13.04-7.75,6.29-4.02,24.72-11.18,31.82-11.18h14.5Z"/>
  <path class="cls-7" d="M140.98,87c-34.32-17.59-76.33-8.94-104.49,15.98L8,22c25.18,5.24,50.8,8.49,76.04,13.45,2.57.5,4.51,2.03,6.56,2.44,14.85,2.98,29.92,4.93,44.7,8.3,2.04,1.14,7.23,9.9,7.62,12.37.65,4.05-.48,19.12-.93,23.95-.15,1.57-.76,2.97-1.02,4.49Z"/>
  <path class="cls-5" d="M1079.66,178.66v48h-112v-47.5l1.5-1.28c.41-.03.75.78,1,.78h109.5Z"/>
  <path d="M965.66,210.66l-62-12.01c5.11-10.84,9.89-21.86,11.01-33.99,12.17,4.7,31.25,9.43,43.69,4.2,2.78-1.17,4.84-4.14,7.51-4.02,3.39.14,8.79,3.13,12.48,3.64l14.31,8.19h-26c.32.98-1,2.17-1,2.5v31.5Z"/>
  <path class="cls-7" d="M132.98,43L7.17,20.83,0,0l122.28,25.21c1.85,2.11,11.73,16.49,10.7,17.79Z"/>
  <path d="M914.66,149.66l46.01,16.49c-15.11,7.56-31.03,1.77-46.01-2.49v-14Z"/>
  <polygon class="cls-3" points="431.16 21.66 423.66 12.67 453.05 11.6 455.66 21.66 431.16 21.66"/>
  <path class="cls-2" d="M836.42,148.85c14.14-2.1,15.42,19.93,1.72,20.87-14.39.99-15.27-18.86-1.72-20.87Z"/>
  <circle cx="101.56" cy="155.57" r="49.67"/>
  <path class="cls-2" d="M100.92,145.27c14.14-2.1,15.42,19.93,1.72,20.87-14.39.99-15.27-18.86-1.72-20.87Z"/>
  <path d="M91.16,81.6c57.7-5.9,104.68,48.63,80.06,104.06C134.65,268.04,1.53,228.56,29.42,133.87c8.14-27.65,32.7-49.3,61.73-52.27ZM138.01,117.66c-6.94-6.61-19.71-13.13-29.26-14.24-66.95-7.84-84.2,92.14-15.62,104.62,50.52,9.19,82.09-54.94,44.88-90.38Z"/>
</svg>